<svg width="178" height="86" viewBox="0 0 178 86" fill="none" xmlns="http://www.w3.org/2000/svg">
<rect width="177.143" height="86" rx="10" fill="#19191A"/>
<path d="M49.5581 26.2744H30.0469L33.0307 31.3864H40.5994L36.815 37.8664L39.7988 42.9856L49.5581 26.2744Z" fill="white"/>
<path d="M69.0698 26.2744H49.5586L52.5424 31.3864H60.1038L56.3267 37.8664L59.3106 42.9856L69.0698 26.2744Z" fill="white"/>
<path d="M59.31 42.9858H39.7988L42.7899 48.105H50.3513L46.567 54.585L49.5581 59.7042L59.31 42.9858Z" fill="white"/>
<path d="M60.103 31.3862H40.5918L43.5829 36.5054H51.1443L47.3599 42.9854L50.351 48.1046L60.103 31.3862Z" fill="#BABABA"/>
<path d="M82.6349 46.7808L86.2883 38.9616C86.3247 38.8896 86.3829 38.832 86.4921 38.832H86.6085C86.7249 38.832 86.7759 38.8896 86.8123 38.9616L90.4292 46.7808C90.502 46.932 90.4074 47.0832 90.2255 47.0832H89.2066C89.0319 47.0832 88.9519 47.0112 88.8646 46.8528L88.2896 45.6H84.7746L84.1996 46.8528C84.156 46.968 84.0468 47.0832 83.8576 47.0832H82.8387C82.6568 47.0832 82.5694 46.932 82.6349 46.7808ZM87.7147 44.304L86.543 41.748H86.4993L85.3495 44.304H87.7147Z" fill="white"/>
<path d="M98.8335 39.0048C98.848 38.9112 98.9135 38.832 99.0445 38.832H99.2337C99.3283 38.832 99.4011 38.8752 99.4375 38.9472L102.021 44.4336C102.043 44.4336 102.043 44.4336 102.057 44.4336L104.641 38.9472C104.677 38.8752 104.736 38.832 104.845 38.832H105.034C105.165 38.832 105.238 38.9112 105.245 39.0048L106.628 46.8168C106.664 46.9824 106.57 47.0832 106.417 47.0832H105.347C105.245 47.0832 105.143 46.9896 105.121 46.9104L104.43 42.504C104.415 42.504 104.394 42.504 104.394 42.504L102.341 47.0688C102.319 47.1408 102.247 47.1984 102.137 47.1984H101.926C101.817 47.1984 101.759 47.1408 101.723 47.0688L99.6413 42.504C99.6413 42.504 99.6194 42.504 99.6049 42.504L98.9208 46.9104C98.9062 46.9896 98.8116 47.0832 98.7098 47.0832H97.6545C97.5017 47.0832 97.4071 46.9752 97.4289 46.8168L98.8335 39.0048Z" fill="white"/>
<path d="M115.107 39.1705C115.107 39.0553 115.209 38.9473 115.333 38.9473H116.425C116.541 38.9473 116.65 39.0481 116.65 39.1705V46.8601C116.65 46.9753 116.548 47.0833 116.425 47.0833H115.333C115.217 47.0833 115.107 46.9753 115.107 46.8601V39.1705Z" fill="white"/>
<path d="M125.689 39.0408C125.689 38.9256 125.791 38.832 125.915 38.832H126.206L131.096 43.9656H131.111V39.1632C131.111 39.048 131.205 38.94 131.336 38.94H132.413C132.53 38.94 132.639 39.0408 132.639 39.1632V46.9824C132.639 47.0976 132.537 47.1912 132.413 47.1912H132.13L127.217 41.856H127.203V46.8528C127.203 46.968 127.108 47.076 126.977 47.076H125.907C125.791 47.076 125.682 46.968 125.682 46.8528L125.689 39.0408Z" fill="white"/>
<path d="M75.4151 42.9932H73.159C73.028 42.9932 72.9334 43.0869 72.9334 43.2165V44.138C72.9334 44.2532 73.028 44.3469 73.159 44.3469H74.0978V45.3332C73.865 45.4268 73.3555 45.6212 72.7006 45.6212C71.7909 45.6212 71.0049 45.1604 70.5318 44.4692C70.2335 44.0372 70.0588 43.5116 70.0588 42.9572C70.0588 41.5028 71.2232 40.2645 72.6933 40.2645C73.2682 40.2645 73.8286 40.4517 74.2943 40.8045C74.2943 40.8045 74.3016 40.8117 74.3089 40.8117C74.4181 40.8981 74.5418 40.8549 74.6073 40.7469L75.1313 39.8612C75.1895 39.7532 75.1749 39.6309 75.0803 39.5589C74.993 39.5013 74.9129 39.4509 74.8256 39.4005C74.1633 39.0117 73.4065 38.7812 72.6278 38.7812C70.2917 38.7812 68.4141 40.6533 68.4141 42.9788C68.4141 43.8716 68.6906 44.6924 69.1637 45.362C69.9205 46.442 71.1868 47.1405 72.6278 47.1405C74.3307 47.1405 75.5388 46.3844 75.5388 46.3844C75.5825 46.3485 75.6334 46.2908 75.6334 46.1972V43.2165C75.6261 43.1013 75.5315 42.9932 75.4151 42.9932Z" fill="white"/>
<path d="M147.193 42.9937H144.937C144.806 42.9937 144.711 43.0873 144.711 43.2169V44.1385C144.711 44.2537 144.806 44.3473 144.937 44.3473H145.876V45.3337C145.643 45.4273 145.133 45.6217 144.478 45.6217C143.569 45.6217 142.783 45.1609 142.31 44.4697C142.011 44.0377 141.837 43.5121 141.837 42.9577C141.837 41.5033 143.001 40.2649 144.471 40.2649C145.046 40.2649 145.606 40.4521 146.079 40.8049C146.079 40.8049 146.087 40.8121 146.094 40.8121C146.203 40.8985 146.327 40.8553 146.392 40.7473L146.916 39.8617C146.975 39.7537 146.96 39.6313 146.865 39.5593C146.778 39.5017 146.698 39.4513 146.611 39.4009C145.949 39.0121 145.192 38.7817 144.413 38.7817C142.077 38.7817 140.199 40.6537 140.199 42.9793C140.199 43.8721 140.476 44.6929 140.949 45.3625C141.706 46.4425 142.972 47.1409 144.413 47.1409C146.116 47.1409 147.324 46.3849 147.324 46.3849C147.368 46.3489 147.419 46.2913 147.419 46.1977V43.2169C147.404 43.1017 147.317 42.9937 147.193 42.9937Z" fill="white"/>
</svg>
