<svg width="250" height="130" viewBox="0 0 250 130" fill="none" xmlns="http://www.w3.org/2000/svg">
<rect width="249.25" height="129.22" rx="10" fill="#19191A"/>
<path d="M60.6876 37.124H28.4941L33.4174 45.644H45.9057L39.6616 56.444L44.5849 64.976L60.6876 37.124Z" fill="white"/>
<path d="M92.881 37.124H60.6875L65.6108 45.644H78.0871L71.8549 56.444L76.7782 64.976L92.881 37.124Z" fill="white"/>
<path d="M76.7794 64.9761H44.5859L49.5212 73.5081H61.9975L55.7534 84.3081L60.6887 92.8401L76.7794 64.9761Z" fill="white"/>
<path d="M78.086 45.644H45.8926L50.8279 54.176H63.3042L57.06 64.976L61.9953 73.508L78.086 45.644Z" fill="#BABABA"/>
<path d="M115.264 71.3007L121.292 58.2687C121.352 58.1487 121.448 58.0527 121.629 58.0527H121.821C122.013 58.0527 122.097 58.1487 122.157 58.2687L128.125 71.3007C128.245 71.5527 128.089 71.8047 127.789 71.8047H126.107C125.819 71.8047 125.687 71.6847 125.543 71.4207L124.594 69.3327H118.795L117.846 71.4207C117.774 71.6127 117.594 71.8047 117.282 71.8047H115.6C115.3 71.8047 115.156 71.5527 115.264 71.3007ZM123.646 67.1727L121.713 62.9127H121.641L119.743 67.1727H123.646Z" fill="white"/>
<path d="M141.995 58.3407C142.019 58.1847 142.127 58.0527 142.343 58.0527H142.655C142.811 58.0527 142.931 58.1247 142.991 58.2447L147.254 67.3887C147.29 67.3887 147.29 67.3887 147.314 67.3887L151.577 58.2447C151.637 58.1247 151.733 58.0527 151.913 58.0527H152.225C152.442 58.0527 152.562 58.1847 152.574 58.3407L154.855 71.3607C154.915 71.6367 154.759 71.8047 154.507 71.8047H152.742C152.574 71.8047 152.406 71.6487 152.369 71.5167L151.229 64.1727C151.205 64.1727 151.169 64.1727 151.169 64.1727L147.782 71.7807C147.746 71.9007 147.626 71.9967 147.446 71.9967H147.098C146.918 71.9967 146.822 71.9007 146.762 71.7807L143.327 64.1727C143.327 64.1727 143.291 64.1727 143.267 64.1727L142.139 71.5167C142.115 71.6487 141.959 71.8047 141.79 71.8047H140.049C139.797 71.8047 139.641 71.6247 139.677 71.3607L141.995 58.3407Z" fill="white"/>
<path d="M168.844 58.6166C168.844 58.4246 169.012 58.2446 169.216 58.2446H171.017C171.209 58.2446 171.389 58.4126 171.389 58.6166V71.4326C171.389 71.6246 171.221 71.8046 171.017 71.8046H169.216C169.024 71.8046 168.844 71.6246 168.844 71.4326V58.6166Z" fill="white"/>
<path d="M186.303 58.4007C186.303 58.2087 186.471 58.0527 186.675 58.0527H187.156L195.225 66.6087H195.249V58.6047C195.249 58.4127 195.405 58.2327 195.621 58.2327H197.398C197.591 58.2327 197.771 58.4007 197.771 58.6047V71.6367C197.771 71.8287 197.603 71.9847 197.398 71.9847H196.93L188.825 63.0927H188.801V71.4207C188.801 71.6127 188.645 71.7927 188.428 71.7927H186.663C186.471 71.7927 186.291 71.6127 186.291 71.4207L186.303 58.4007Z" fill="white"/>
<path d="M103.352 64.9883H99.63C99.4139 64.9883 99.2577 65.1443 99.2577 65.3603V66.8963C99.2577 67.0883 99.4139 67.2443 99.63 67.2443H101.179V68.8883C100.795 69.0443 99.9542 69.3683 98.8735 69.3683C97.3725 69.3683 96.0756 68.6003 95.2951 67.4483C94.8028 66.7283 94.5146 65.8523 94.5146 64.9283C94.5146 62.5043 96.4359 60.4403 98.8615 60.4403C99.8101 60.4403 100.735 60.7523 101.503 61.3403C101.503 61.3403 101.515 61.3523 101.527 61.3523C101.707 61.4963 101.912 61.4243 102.02 61.2443L102.884 59.7683C102.98 59.5883 102.956 59.3843 102.8 59.2643C102.656 59.1683 102.524 59.0843 102.38 59.0003C101.287 58.3523 100.038 57.9683 98.7534 57.9683C94.8988 57.9683 91.8008 61.0883 91.8008 64.9643C91.8008 66.4523 92.2571 67.8203 93.0376 68.9363C94.2864 70.7363 96.3758 71.9003 98.7534 71.9003C101.563 71.9003 103.557 70.6403 103.557 70.6403C103.629 70.5803 103.713 70.4843 103.713 70.3283V65.3603C103.701 65.1683 103.545 64.9883 103.352 64.9883Z" fill="white"/>
<path d="M221.788 64.9887H218.065C217.849 64.9887 217.693 65.1448 217.693 65.3608V66.8967C217.693 67.0887 217.849 67.2448 218.065 67.2448H219.614V68.8888C219.23 69.0448 218.389 69.3687 217.309 69.3687C215.808 69.3687 214.511 68.6007 213.73 67.4487C213.238 66.7288 212.95 65.8527 212.95 64.9288C212.95 62.5047 214.871 60.4408 217.297 60.4408C218.245 60.4408 219.17 60.7528 219.951 61.3408C219.951 61.3408 219.963 61.3528 219.975 61.3528C220.155 61.4968 220.359 61.4248 220.467 61.2448L221.331 59.7687C221.427 59.5888 221.403 59.3848 221.247 59.2648C221.103 59.1688 220.971 59.0848 220.827 59.0008C219.734 58.3528 218.486 57.9688 217.201 57.9688C213.346 57.9688 210.248 61.0888 210.248 64.9648C210.248 66.4528 210.704 67.8207 211.485 68.9367C212.734 70.7367 214.823 71.9008 217.201 71.9008C220.011 71.9008 222.004 70.6408 222.004 70.6408C222.076 70.5808 222.16 70.4847 222.16 70.3287V65.3608C222.136 65.1688 221.992 64.9887 221.788 64.9887Z" fill="white"/>
</svg>
