<svg width="250" height="130" viewBox="0 0 250 130" fill="none" xmlns="http://www.w3.org/2000/svg">
<rect width="249.25" height="129.22" rx="10" fill="#19191A"/>
<path d="M104.585 77.5376V83.6725H103.957V78.7646L101.524 82.8917H101.215L98.7822 78.7869V83.6725H98.1543V77.5376H98.6925L101.384 82.0886L104.047 77.5376H104.585Z" fill="white"/>
<path d="M108.098 79.0269C108.704 79.0269 109.169 79.1774 109.494 79.4842C109.82 79.7798 109.982 80.226 109.982 80.8171V83.6727H109.382V82.9532C109.242 83.193 109.029 83.3827 108.754 83.5165C108.485 83.6504 108.16 83.7173 107.779 83.7173C107.257 83.7173 106.848 83.5946 106.54 83.3492C106.231 83.1038 106.08 82.7803 106.08 82.3788C106.08 81.9884 106.22 81.6705 106.506 81.4306C106.798 81.1908 107.252 81.0737 107.88 81.0737H109.36V80.7948C109.36 80.3989 109.248 80.0977 109.023 79.8913C108.799 79.6794 108.474 79.5734 108.042 79.5734C107.745 79.5734 107.465 79.6236 107.196 79.724C106.927 79.8188 106.691 79.9471 106.495 80.12L106.215 79.6571C106.45 79.4563 106.736 79.3057 107.061 79.1998C107.381 79.0826 107.728 79.0269 108.098 79.0269ZM107.874 83.2265C108.227 83.2265 108.53 83.1484 108.788 82.9922C109.04 82.8305 109.231 82.5963 109.354 82.2895V81.5366H107.897C107.1 81.5366 106.702 81.8099 106.702 82.362C106.702 82.6297 106.803 82.8417 107.011 83.0034C107.213 83.1484 107.504 83.2265 107.874 83.2265Z" fill="white"/>
<path d="M113.414 81.3581L112.315 82.3564V83.6727H111.688V77.1641H112.315V81.5756L115.096 79.0603H115.875L113.885 80.9454L116.06 83.6727H115.292L113.414 81.3581Z" fill="white"/>
<path d="M116.935 79.0605H117.563V83.6729H116.935V79.0605ZM117.249 78.051C117.12 78.051 117.008 78.0064 116.924 77.9172C116.834 77.828 116.789 77.722 116.789 77.5993C116.789 77.4822 116.834 77.3818 116.924 77.2925C117.013 77.2033 117.12 77.1587 117.249 77.1587C117.378 77.1587 117.49 77.2033 117.574 77.2925C117.664 77.3762 117.709 77.471 117.709 77.5881C117.709 77.7164 117.664 77.8224 117.574 77.9116C117.49 78.0064 117.383 78.051 117.249 78.051Z" fill="white"/>
<path d="M121.678 79.0269C122.261 79.0269 122.727 79.1942 123.069 79.5344C123.416 79.869 123.59 80.3542 123.59 81.0012V83.6727H122.962V81.0625C122.962 80.5829 122.839 80.2204 122.598 79.9694C122.357 79.7184 122.009 79.5902 121.56 79.5902C121.061 79.5902 120.663 79.7407 120.366 80.0363C120.075 80.3263 119.935 80.7335 119.935 81.2577V83.6782H119.307V79.0659H119.907V79.9136C120.08 79.6348 120.316 79.4173 120.613 79.2667C120.927 79.1049 121.28 79.0269 121.678 79.0269Z" fill="white"/>
<path d="M129.622 79.0603V83.1094C129.622 83.8902 129.426 84.4702 129.039 84.8439C128.658 85.2231 128.075 85.4128 127.296 85.4128C126.864 85.4128 126.455 85.3458 126.068 85.2176C125.687 85.0949 125.373 84.922 125.132 84.6989L125.451 84.2248C125.675 84.4256 125.945 84.5762 126.264 84.6877C126.589 84.7993 126.926 84.855 127.279 84.855C127.868 84.855 128.305 84.7156 128.58 84.4423C128.854 84.1746 128.994 83.7508 128.994 83.1819V82.5963C128.798 82.8863 128.546 83.1094 128.226 83.26C127.912 83.4105 127.565 83.4886 127.184 83.4886C126.746 83.4886 126.348 83.3938 125.989 83.2098C125.636 83.0146 125.356 82.7524 125.148 82.4122C124.947 82.0664 124.846 81.676 124.846 81.2466C124.846 80.8116 124.947 80.4267 125.148 80.0921C125.356 79.7519 125.636 79.4898 125.989 79.3057C126.343 79.1217 126.741 79.0269 127.184 79.0269C127.576 79.0269 127.935 79.1049 128.254 79.2611C128.574 79.4173 128.832 79.6459 129.022 79.9471V79.0603H129.622ZM127.245 82.9421C127.582 82.9421 127.884 82.8696 128.159 82.7301C128.428 82.5851 128.641 82.3843 128.787 82.1278C128.938 81.8712 129.017 81.5756 129.017 81.2522C129.017 80.9287 128.938 80.6331 128.787 80.3821C128.641 80.1256 128.428 79.9248 128.159 79.7854C127.896 79.6403 127.587 79.5678 127.245 79.5678C126.909 79.5678 126.606 79.6403 126.331 79.7798C126.068 79.9192 125.855 80.12 125.703 80.3765C125.558 80.6331 125.485 80.9287 125.485 81.2522C125.485 81.5756 125.558 81.8712 125.703 82.1278C125.855 82.3843 126.068 82.5851 126.331 82.7301C126.601 82.8751 126.909 82.9421 127.245 82.9421Z" fill="white"/>
<path d="M137.73 80.5049C138.139 80.5941 138.448 80.767 138.666 81.0291C138.891 81.2857 139.003 81.6203 139.003 82.0275C139.003 82.5517 138.807 82.9588 138.409 83.2489C138.022 83.5277 137.439 83.6672 136.676 83.6672H133.828V77.5322H136.502C137.192 77.5322 137.725 77.6717 138.106 77.9449C138.487 78.2182 138.683 78.6086 138.683 79.1106C138.683 79.4508 138.599 79.7408 138.425 79.9806C138.257 80.2149 138.027 80.3878 137.73 80.5049ZM134.484 78.0676V80.2929H136.458C136.957 80.2929 137.343 80.1981 137.618 80.0141C137.887 79.8189 138.027 79.5456 138.027 79.1831C138.027 78.8206 137.893 78.5473 137.618 78.3577C137.349 78.1625 136.962 78.0676 136.458 78.0676H134.484ZM136.671 83.1373C137.226 83.1373 137.646 83.0425 137.926 82.8585C138.212 82.6688 138.352 82.3788 138.352 81.9828C138.352 81.2188 137.792 80.8339 136.671 80.8339H134.484V83.1373H136.671Z" fill="white"/>
<path d="M144.417 81.5587H140.526C140.56 82.0383 140.745 82.4287 141.081 82.7243C141.418 83.0144 141.844 83.1649 142.354 83.1649C142.646 83.1649 142.909 83.1147 143.15 83.0144C143.391 82.9084 143.599 82.7578 143.778 82.557L144.131 82.9586C143.924 83.204 143.666 83.3936 143.352 83.5219C143.044 83.6502 142.707 83.7171 142.337 83.7171C141.861 83.7171 141.435 83.6167 141.065 83.4215C140.7 83.2151 140.414 82.9363 140.207 82.5793C139.999 82.2224 139.898 81.8208 139.898 81.3691C139.898 80.9173 139.994 80.5158 140.19 80.1588C140.392 79.8019 140.661 79.523 141.003 79.3278C141.35 79.127 141.737 79.0322 142.169 79.0322C142.601 79.0322 142.988 79.1326 143.33 79.3278C143.672 79.5286 143.941 79.8019 144.137 80.1588C144.333 80.5102 144.428 80.9117 144.428 81.3691L144.417 81.5587ZM142.169 79.5621C141.721 79.5621 141.345 79.7071 141.037 79.9915C140.734 80.2704 140.566 80.6385 140.521 81.0958H143.823C143.784 80.6385 143.61 80.2704 143.302 79.9915C142.999 79.7015 142.623 79.5621 142.169 79.5621Z" fill="white"/>
<path d="M148.158 83.3937C148.04 83.4997 147.894 83.5834 147.715 83.6391C147.547 83.6893 147.361 83.7172 147.176 83.7172C146.739 83.7172 146.403 83.6001 146.167 83.3659C145.932 83.1316 145.814 82.8026 145.814 82.3731V79.5845H144.984V79.0603H145.809V78.0508H146.436V79.0603H147.849V79.5845H146.436V82.3397C146.436 82.6129 146.504 82.8249 146.638 82.9699C146.778 83.1093 146.98 83.1818 147.238 83.1818C147.367 83.1818 147.49 83.1595 147.608 83.1205C147.732 83.0814 147.838 83.0201 147.928 82.9476L148.158 83.3937Z" fill="white"/>
<path d="M151.628 83.3937C151.511 83.4997 151.365 83.5834 151.185 83.6391C151.017 83.6893 150.832 83.7172 150.647 83.7172C150.21 83.7172 149.873 83.6001 149.638 83.3659C149.403 83.1316 149.285 82.8026 149.285 82.3731V79.5845H148.455V79.0603H149.285V78.0508H149.913V79.0603H151.326V79.5845H149.913V82.3397C149.913 82.6129 149.98 82.8249 150.115 82.9699C150.255 83.1093 150.457 83.1818 150.714 83.1818C150.843 83.1818 150.967 83.1595 151.084 83.1205C151.208 83.0814 151.314 83.0201 151.404 82.9476L151.628 83.3937Z" fill="white"/>
<path d="M156.661 81.5587H152.77C152.804 82.0383 152.989 82.4287 153.326 82.7243C153.662 83.0144 154.088 83.1649 154.598 83.1649C154.89 83.1649 155.153 83.1147 155.394 83.0144C155.635 82.9084 155.843 82.7578 156.022 82.557L156.375 82.9586C156.168 83.204 155.91 83.3936 155.596 83.5219C155.288 83.6502 154.951 83.7171 154.581 83.7171C154.105 83.7171 153.679 83.6167 153.309 83.4215C152.944 83.2151 152.658 82.9363 152.451 82.5793C152.243 82.2224 152.143 81.8208 152.143 81.3691C152.143 80.9173 152.238 80.5158 152.434 80.1588C152.636 79.8019 152.905 79.523 153.247 79.3278C153.595 79.127 153.981 79.0322 154.413 79.0322C154.845 79.0322 155.232 79.1326 155.574 79.3278C155.916 79.5286 156.185 79.8019 156.381 80.1588C156.577 80.5102 156.673 80.9117 156.673 81.3691L156.661 81.5587ZM154.413 79.5621C153.965 79.5621 153.589 79.7071 153.281 79.9915C152.978 80.2704 152.81 80.6385 152.765 81.0958H156.067C156.028 80.6385 155.854 80.2704 155.546 79.9915C155.243 79.7015 154.867 79.5621 154.413 79.5621Z" fill="white"/>
<path d="M158.551 79.9638C158.697 79.6515 158.915 79.4228 159.207 79.2611C159.504 79.1049 159.863 79.0269 160.295 79.0269V79.6292L160.143 79.618C159.656 79.618 159.269 79.7686 158.994 80.0642C158.719 80.3598 158.579 80.7781 158.579 81.3191V83.6671H157.951V79.0547H158.551V79.9638Z" fill="white"/>
<path d="M168.306 80.6054H168.934V82.9479C168.642 83.1988 168.3 83.3941 167.908 83.5279C167.51 83.6618 167.095 83.7287 166.657 83.7287C166.041 83.7287 165.48 83.5948 164.987 83.3271C164.493 83.0594 164.101 82.6857 163.821 82.2117C163.535 81.732 163.395 81.1966 163.395 80.6054C163.395 80.0143 163.535 79.4844 163.821 79.0104C164.101 78.5307 164.493 78.1571 164.987 77.8893C165.48 77.6216 166.041 77.4878 166.669 77.4878C167.14 77.4878 167.571 77.5659 167.969 77.7165C168.367 77.8615 168.698 78.079 168.967 78.3746L168.558 78.7873C168.07 78.3076 167.448 78.0678 166.691 78.0678C166.192 78.0678 165.738 78.1794 165.329 78.4025C164.925 78.62 164.611 78.9211 164.381 79.3115C164.151 79.6964 164.034 80.1314 164.034 80.611C164.034 81.0907 164.151 81.5201 164.381 81.9105C164.611 82.2953 164.925 82.6021 165.329 82.8196C165.732 83.0427 166.181 83.1542 166.68 83.1542C167.319 83.1542 167.857 82.9981 168.3 82.6802V80.6054H168.306Z" fill="white"/>
<path d="M172.288 79.0269C172.893 79.0269 173.359 79.1774 173.684 79.4842C174.009 79.7798 174.172 80.226 174.172 80.8171V83.6727H173.572V82.9532C173.432 83.193 173.218 83.3827 172.944 83.5165C172.675 83.6504 172.35 83.7173 171.968 83.7173C171.447 83.7173 171.038 83.5946 170.729 83.3492C170.421 83.1038 170.27 82.7803 170.27 82.3788C170.27 81.9884 170.41 81.6705 170.696 81.4306C170.987 81.1908 171.441 81.0737 172.069 81.0737H173.549V80.7948C173.549 80.3989 173.437 80.0977 173.213 79.8913C172.989 79.6794 172.663 79.5734 172.232 79.5734C171.935 79.5734 171.654 79.6236 171.385 79.724C171.116 79.8188 170.881 79.9471 170.684 80.12L170.404 79.6571C170.64 79.4563 170.925 79.3057 171.251 79.1998C171.57 79.0826 171.918 79.0269 172.288 79.0269ZM172.064 83.2265C172.417 83.2265 172.72 83.1484 172.977 82.9922C173.23 82.8305 173.42 82.5963 173.544 82.2895V81.5366H172.086C171.29 81.5366 170.892 81.8099 170.892 82.362C170.892 82.6297 170.993 82.8417 171.2 83.0034C171.402 83.1484 171.694 83.2265 172.064 83.2265Z" fill="white"/>
<path d="M181.678 79.0269C182.261 79.0269 182.72 79.1942 183.051 79.5288C183.388 79.8634 183.556 80.3542 183.556 81.0012V83.6727H182.928V81.0625C182.928 80.5829 182.81 80.2204 182.575 79.9694C182.345 79.7184 182.02 79.5902 181.594 79.5902C181.111 79.5902 180.73 79.7407 180.45 80.0363C180.175 80.3263 180.035 80.7335 180.035 81.2577V83.6782H179.407V81.0681C179.407 80.5885 179.289 80.226 179.054 79.975C178.824 79.724 178.493 79.5957 178.061 79.5957C177.585 79.5957 177.204 79.7463 176.918 80.0419C176.643 80.3319 176.503 80.7391 176.503 81.2633V83.6838H175.875V79.0715H176.475V79.9136C176.637 79.6348 176.867 79.4173 177.164 79.2667C177.462 79.1161 177.798 79.038 178.179 79.038C178.566 79.038 178.902 79.1217 179.188 79.2834C179.48 79.4451 179.693 79.6905 179.833 80.0084C180.007 79.7073 180.248 79.4675 180.568 79.3001C180.898 79.1105 181.268 79.0269 181.678 79.0269Z" fill="white"/>
<path d="M189.331 81.5587H185.44C185.474 82.0383 185.659 82.4287 185.995 82.7243C186.332 83.0144 186.758 83.1649 187.268 83.1649C187.56 83.1649 187.823 83.1147 188.064 83.0144C188.305 82.9084 188.513 82.7578 188.692 82.557L189.045 82.9586C188.838 83.204 188.58 83.3936 188.266 83.5219C187.958 83.6502 187.621 83.7171 187.251 83.7171C186.775 83.7171 186.349 83.6167 185.979 83.4215C185.614 83.2151 185.328 82.9363 185.121 82.5793C184.913 82.2224 184.812 81.8208 184.812 81.3691C184.812 80.9173 184.908 80.5158 185.104 80.1588C185.306 79.8019 185.575 79.523 185.917 79.3278C186.265 79.127 186.657 79.0322 187.083 79.0322C187.515 79.0322 187.902 79.1326 188.244 79.3278C188.586 79.5286 188.855 79.8019 189.051 80.1588C189.247 80.5102 189.342 80.9117 189.342 81.3691L189.331 81.5587ZM187.083 79.5621C186.635 79.5621 186.259 79.7071 185.951 79.9915C185.648 80.2704 185.48 80.6385 185.435 81.0958H188.737C188.698 80.6385 188.524 80.2704 188.216 79.9915C187.913 79.7015 187.537 79.5621 187.083 79.5621Z" fill="white"/>
<path d="M191.864 83.717C191.488 83.717 191.124 83.6668 190.776 83.5608C190.434 83.4493 190.165 83.3099 189.969 83.1481L190.249 82.6573C190.445 82.8079 190.686 82.9362 190.984 83.0366C191.281 83.1314 191.583 83.176 191.903 83.176C192.329 83.176 192.643 83.1091 192.839 82.9808C193.047 82.847 193.148 82.6573 193.148 82.4175C193.148 82.2502 193.092 82.1163 192.979 82.0215C192.867 81.9211 192.727 81.8486 192.553 81.804C192.38 81.7538 192.155 81.7036 191.869 81.6534C191.494 81.5809 191.185 81.514 190.955 81.4415C190.726 81.3634 190.529 81.2407 190.361 81.0623C190.204 80.8894 190.12 80.644 190.12 80.3372C190.12 79.9524 190.283 79.6345 190.608 79.3891C190.933 79.1437 191.382 79.021 191.959 79.021C192.262 79.021 192.559 79.06 192.862 79.1437C193.164 79.2218 193.411 79.3222 193.607 79.4504L193.333 79.9524C192.951 79.6903 192.492 79.5564 191.959 79.5564C191.555 79.5564 191.253 79.6289 191.045 79.7683C190.843 79.9078 190.742 80.0918 190.742 80.3205C190.742 80.4934 190.798 80.6384 190.911 80.7388C191.028 80.8447 191.174 80.9228 191.342 80.973C191.516 81.0176 191.752 81.0678 192.049 81.1236C192.419 81.1961 192.716 81.263 192.94 81.3355C193.164 81.408 193.355 81.5252 193.518 81.6925C193.675 81.8598 193.759 82.094 193.759 82.3952C193.759 82.7968 193.585 83.1202 193.243 83.3601C192.935 83.5999 192.464 83.717 191.864 83.717Z" fill="white"/>
<path d="M112.259 54.0742C115.286 54.0742 117.613 54.7937 119.239 56.2382C120.864 57.6548 121.672 59.8076 121.672 62.6966V73.7729H116.362V71.358C115.297 73.1594 113.307 74.0629 110.403 74.0629C108.9 74.0629 107.594 73.812 106.478 73.3044C105.385 72.7969 104.55 72.0998 103.972 71.213C103.389 70.3206 103.098 69.3111 103.098 68.1846C103.098 66.3831 103.776 64.9609 105.133 63.9291C106.512 62.8974 108.637 62.3787 111.496 62.3787H116.004C116.004 61.1517 115.628 60.2147 114.877 59.5622C114.125 58.8873 112.999 58.5527 111.496 58.5527C110.453 58.5527 109.422 58.72 108.407 59.0602C107.415 59.3726 106.562 59.8076 105.862 60.3597L103.826 56.4278C104.892 55.6805 106.164 55.106 107.644 54.6933C109.141 54.2806 110.683 54.0742 112.259 54.0742ZM111.821 70.276C112.791 70.276 113.649 70.0585 114.4 69.629C115.151 69.1717 115.684 68.508 115.998 67.6436V65.6581H112.107C109.78 65.6581 108.62 66.4166 108.62 67.9336C108.62 68.653 108.9 69.2331 109.455 69.6681C110.038 70.0696 110.829 70.276 111.821 70.276Z" fill="white"/>
<path d="M126.803 47.0024H132.471V73.773H126.803V47.0024Z" fill="white"/>
<path d="M156.893 64.1414C156.893 64.2139 156.853 64.7158 156.786 65.6584H141.991C142.26 66.863 142.888 67.8112 143.88 68.5083C144.872 69.2055 146.111 69.5568 147.586 69.5568C148.606 69.5568 149.498 69.4118 150.277 69.1218C151.079 68.8095 151.813 68.3298 152.497 67.6773L155.513 70.9232C153.675 73.0147 150.983 74.0632 147.446 74.0632C145.242 74.0632 143.291 73.6449 141.593 72.8028C139.894 71.9383 138.588 70.7448 137.668 69.2334C136.749 67.7164 136.289 65.9986 136.289 64.0744C136.289 62.1726 136.738 60.466 137.635 58.949C138.554 57.4097 139.804 56.2217 141.38 55.3796C142.978 54.5151 144.76 54.0801 146.723 54.0801C148.634 54.0801 150.372 54.4872 151.92 55.3071C153.467 56.1269 154.684 57.3037 155.553 58.843C156.444 60.3544 156.893 62.1224 156.893 64.1414ZM146.751 58.3299C145.467 58.3299 144.39 58.6924 143.516 59.4119C142.641 60.1313 142.109 61.1185 141.918 62.3678H151.55C151.353 61.1408 150.821 60.1648 149.952 59.4454C149.077 58.7036 148.012 58.3299 146.751 58.3299Z" fill="white"/>
<path d="M173.279 72.8363C172.724 73.2434 172.029 73.5557 171.205 73.7732C170.403 73.9629 169.556 74.0632 168.659 74.0632C166.333 74.0632 164.527 73.4721 163.243 72.2953C161.982 71.1185 161.354 69.384 161.354 67.0973V59.1219H158.338V54.7996H161.354V50.0757H167.022V54.7996H171.894V59.1275H167.022V67.0304C167.022 67.8502 167.23 68.486 167.639 68.9434C168.076 69.3784 168.682 69.5903 169.455 69.5903C170.352 69.5903 171.115 69.3505 171.743 68.8709L173.279 72.8363Z" fill="white"/>
<path d="M184.352 54.0742C187.38 54.0742 189.706 54.7937 191.332 56.2382C192.958 57.6548 193.765 59.8076 193.765 62.6966V73.7729H188.456V71.358C187.391 73.1594 185.401 74.0629 182.497 74.0629C180.994 74.0629 179.688 73.812 178.572 73.3044C177.484 72.7969 176.643 72.0998 176.066 71.213C175.483 70.3206 175.191 69.3111 175.191 68.1846C175.191 66.3831 175.87 64.9609 177.227 63.9291C178.606 62.8974 180.731 62.3787 183.59 62.3787H188.097C188.097 61.1517 187.722 60.2147 186.97 59.5622C186.219 58.8873 185.092 58.5527 183.59 58.5527C182.547 58.5527 181.515 58.72 180.501 59.0602C179.508 59.3726 178.662 59.8076 177.955 60.3597L175.92 56.4278C176.985 55.6805 178.258 55.106 179.738 54.6933C181.235 54.2806 182.777 54.0742 184.352 54.0742ZM183.915 70.276C184.885 70.276 185.743 70.0585 186.494 69.629C187.245 69.1717 187.778 68.508 188.092 67.6436V65.6581H184.201C181.874 65.6581 180.714 66.4166 180.714 67.9336C180.714 68.653 180.994 69.2331 181.549 69.6681C182.132 70.0696 182.923 70.276 183.915 70.276Z" fill="white"/>
<path fill-rule="evenodd" clip-rule="evenodd" d="M101.383 59.8132C105.274 51.2577 98.0865 42.4625 88.7518 44.0018L70.5982 46.9912C61.8859 48.4245 58.0006 58.5918 63.4725 65.6358L74.063 79.2776C79.5349 86.3216 90.0917 85.4404 93.7247 77.4595L101.383 59.8132ZM78.2061 71.6759C79.804 72.5181 81.5812 72.9419 83.5434 72.9419C85.2141 72.9419 86.7279 72.6463 88.0846 72.0607C89.4414 71.4751 90.5795 70.6218 91.4989 69.5008L88.6341 66.8572C87.3334 68.3798 85.7187 69.1438 83.7901 69.1438C82.596 69.1438 81.5307 68.8873 80.6001 68.3742C79.6638 67.8444 78.9294 67.1082 78.3968 66.1712C77.881 65.2342 77.6287 64.169 77.6287 62.9755C77.6287 61.7819 77.8866 60.7167 78.3968 59.7797C78.9294 58.8427 79.6638 58.1177 80.6001 57.6046C81.5363 57.0748 82.6016 56.8071 83.7901 56.8071C85.7187 56.8071 87.3334 57.56 88.6341 59.0658L91.4989 56.4222C90.5795 55.3235 89.4414 54.4758 88.0846 53.8902C86.7447 53.3046 85.2422 53.009 83.5715 53.009C81.5924 53.009 79.7984 53.4384 78.2061 54.3029C76.6307 55.1451 75.3805 56.333 74.4611 57.8556C73.564 59.3614 73.1099 61.068 73.1099 62.9755C73.1099 64.8829 73.5584 66.6006 74.4611 68.1232C75.3805 69.6291 76.6307 70.8114 78.2061 71.6759Z" fill="white"/>
</svg>
