<svg width="250" height="130" viewBox="0 0 250 130" fill="none" xmlns="http://www.w3.org/2000/svg">
<rect width="249.25" height="129.22" rx="10" fill="#19191A"/>
<g clip-path="url(#clip0_1_3648)">
<path d="M106.76 73.8637H103.668C103.391 73.8637 103.261 73.7988 103.131 73.6042L97.8578 65.7718V73.3934C97.8578 73.6528 97.6462 73.8474 97.4021 73.8474H95.1237C94.8633 73.8474 94.668 73.6366 94.668 73.3934V57.242C94.668 56.9826 94.8795 56.8042 95.1237 56.8042H97.4021C97.6625 56.8042 97.8578 56.9826 97.8578 57.242V64.5556L103.505 56.9988C103.619 56.8366 103.782 56.8204 104.042 56.8204H106.679C106.972 56.8204 107.118 56.9339 107.118 57.0961C107.118 57.2096 107.053 57.3556 106.955 57.4691L101.048 65.0745L107.004 73.3934C107.069 73.5069 107.118 73.6042 107.118 73.6691C107.118 73.815 107.004 73.8799 106.776 73.8799L106.76 73.8637Z" fill="white"/>
<path d="M121.797 73.8639H119.356C119.144 73.8639 118.965 73.6855 118.916 73.4747L117.858 69.1126H112.553L111.495 73.4747C111.446 73.6855 111.267 73.8639 111.056 73.8639H108.615C108.387 73.8639 108.191 73.7018 108.191 73.4747C108.191 73.4585 108.191 73.4099 108.191 73.3612L111.967 58.9612C112.52 56.8207 114.18 56.6099 115.173 56.6099C116.166 56.6099 117.826 56.8207 118.379 58.9612L122.155 73.3612C122.155 73.3612 122.155 73.4585 122.155 73.4747C122.155 73.7018 121.976 73.8639 121.732 73.8639H121.764H121.797ZM115.564 59.6585C115.499 59.3828 115.434 59.2855 115.189 59.2855C114.945 59.2855 114.897 59.3828 114.815 59.6585L113.155 66.4855H117.207L115.547 59.6585H115.564Z" fill="white"/>
<path d="M140.887 73.6531C139.731 73.8801 138.234 74.0423 135.858 74.0423C133.482 74.0423 129.674 72.4045 129.674 66.9882V63.6801C129.674 58.2315 133.173 56.6099 135.923 56.6099C138.137 56.6099 140.122 56.8855 140.887 57.0315C141.18 57.0964 141.326 57.2099 141.326 57.518V59.0585C141.326 59.3828 141.229 59.545 140.871 59.545H140.806C139.748 59.4477 138.153 59.3666 135.94 59.3666C134.393 59.3666 132.912 60.4531 132.912 63.7126V67.0207C132.912 70.2801 134.507 71.3342 135.858 71.3342C136.704 71.3342 137.42 71.318 138.137 71.2693V65.4153C138.137 65.1558 138.316 64.9612 138.576 64.9612H140.854C141.115 64.9612 141.31 65.172 141.31 65.4153V73.1342C141.31 73.4261 141.164 73.6207 140.871 73.6855V73.6531H140.887Z" fill="white"/>
<path d="M153.727 73.8642H151.774C151.514 73.8642 151.318 73.6534 151.318 73.4102V73.0372C150.26 73.6859 149.17 74.0426 148.063 74.0426C146.143 74.0426 144.076 73.3129 144.076 70.1994V70.1021C144.076 67.4751 145.687 66.1291 149.707 66.1291H151.156V65.1237C151.156 63.6318 150.488 63.2588 149.121 63.2588C147.64 63.2588 146.127 63.3561 145.362 63.4372H145.248C145.02 63.4372 144.825 63.3724 144.825 63.048V61.5724C144.825 61.3129 144.971 61.1507 145.264 61.0859C146.192 60.9075 147.526 60.7129 149.121 60.7129C152.392 60.7129 154.199 62.1561 154.199 65.1075V73.3778C154.199 73.6372 153.987 73.8318 153.743 73.8318V73.8642H153.727ZM151.139 68.1561H149.691C147.591 68.1561 147.136 68.821 147.136 70.1021V70.1994C147.136 71.3183 147.64 71.6264 148.796 71.6264C149.626 71.6264 150.472 71.3507 151.156 70.9778V68.1561H151.139Z" fill="white"/>
<path d="M173.273 73.864H171.158C170.897 73.864 170.702 73.637 170.702 73.3775V65.5613C170.702 63.7938 170.328 63.3397 169.042 63.3397C168.602 63.3397 167.724 63.4857 166.894 63.9073C166.959 64.41 166.991 64.9938 166.991 65.5613V73.3775C166.991 73.637 166.78 73.864 166.536 73.864H164.42C164.16 73.864 163.964 73.637 163.964 73.3775V65.5613C163.964 63.7938 163.671 63.3397 162.369 63.3397C161.881 63.3397 161.198 63.5992 160.254 64.1019V73.3775C160.254 73.637 160.042 73.864 159.798 73.864H157.682C157.422 73.864 157.227 73.637 157.227 73.3775V61.3613C157.227 61.1019 157.438 60.9073 157.682 60.9073H159.684C159.944 60.9073 160.14 61.1181 160.14 61.3613V61.8478C161.1 61.2316 162.076 60.7451 163.443 60.7451C164.81 60.7451 165.608 61.1343 166.145 61.783C167.317 61.1343 168.358 60.7451 169.953 60.7451C173.094 60.7451 173.778 62.8857 173.778 65.5775V73.3938C173.778 73.6532 173.566 73.8803 173.322 73.8803H173.273V73.864Z" fill="white"/>
<path d="M179.458 59.172H177.228C176.968 59.172 176.74 58.9611 176.74 58.7179V56.6909C176.74 56.4314 176.968 56.2368 177.228 56.2368H179.458C179.718 56.2368 179.914 56.4476 179.914 56.6909V58.7179C179.914 58.9774 179.702 59.172 179.458 59.172ZM179.393 73.8638H177.277C177.017 73.8638 176.822 73.6368 176.822 73.3774V61.3611C176.822 61.1017 177.033 60.9071 177.277 60.9071H179.393C179.653 60.9071 179.849 61.1179 179.849 61.3611V73.3774C179.849 73.6368 179.637 73.8638 179.393 73.8638Z" fill="white"/>
<path d="M193.112 73.864H190.997C190.736 73.864 190.541 73.637 190.541 73.3775V65.8857C190.541 63.8911 190.362 63.3073 188.588 63.3073C187.807 63.3073 186.944 63.6316 185.984 64.1343V73.3775C185.984 73.637 185.773 73.864 185.528 73.864H183.413C183.152 73.864 182.957 73.637 182.957 73.3775V61.3613C182.957 61.1019 183.169 60.9073 183.413 60.9073H185.414C185.675 60.9073 185.87 61.1181 185.87 61.3613V61.8478C187.205 61.0046 188.083 60.7451 189.613 60.7451C192.933 60.7451 193.601 62.9667 193.601 65.8857V73.3775C193.601 73.637 193.389 73.864 193.145 73.864H193.112Z" fill="white"/>
<path d="M207.516 62.9991L206.751 63.291C207.125 63.8261 207.321 64.3289 207.321 65.1234V65.2856C207.321 68.1559 205.335 69.4694 201.852 69.4694C200.632 69.4694 199.802 69.2586 199.346 69.0802C199.069 69.2586 198.955 69.4694 198.955 69.6802C198.955 70.1343 199.216 70.3288 199.737 70.4424L202.455 71.091C205.595 71.8207 207.614 72.3072 207.614 74.7721V74.9343C207.614 77.2856 205.888 78.5343 201.966 78.5343C198.044 78.5343 196.254 77.1397 196.254 74.7234V74.5126C196.254 73.5721 196.693 72.6478 197.426 71.9829C196.775 71.4964 196.384 70.7018 196.384 69.8748C196.384 69.1451 196.677 68.4316 197.312 67.9937C196.628 67.2802 196.368 66.4532 196.368 65.3018V65.1397C196.368 62.837 197.865 60.9072 201.852 60.9072H207.255C207.597 60.9072 207.874 61.1829 207.874 61.5234V62.4802C207.874 62.8207 207.776 62.8694 207.5 62.9829H207.516V62.9991ZM204.586 74.7559C204.586 74.2532 204.294 73.9451 201.869 73.3775L199.818 72.891C199.476 73.3775 199.248 73.6694 199.248 74.4964V74.7072C199.248 75.6478 199.818 76.2315 201.999 76.2315C204.18 76.2315 204.603 75.7451 204.603 74.918V74.7559H204.586ZM204.342 65.1721C204.342 64.0694 203.854 63.2261 201.869 63.2261C199.883 63.2261 199.379 64.1018 199.379 65.1721V65.3505C199.379 66.1937 199.72 67.1667 201.869 67.1667C203.789 67.1667 204.342 66.5018 204.342 65.3505V65.1721Z" fill="white"/>
<path d="M81.5344 54.2585C81.5344 53.772 81.5019 53.3991 81.4042 53.1396C81.0624 51.5342 80.0534 50.9828 78.0842 50.4801C75.4477 49.7991 61.2726 46.1342 61.2726 46.1342C59.6615 45.6801 58.5548 45.6153 56.3252 46.5882C56.1787 46.6369 56.0485 46.7018 55.9021 46.7504C53.2168 47.918 51.7032 48.6315 48.4158 50.0747L47.6834 50.3991C47.6834 50.3991 47.6346 50.4315 47.6021 50.4315C47.5695 50.4315 47.5532 50.4477 47.5207 50.4639C47.4881 50.4639 47.4719 50.4801 47.4393 50.4964C46.0885 51.1126 45.0795 51.6801 44.6726 52.1828C43.0615 53.5774 42.5895 55.1666 42.7197 56.772L43.6148 74.5774C43.6148 76.6207 44.4611 78.9234 46.5117 79.4585C48.5948 80.3342 59.3034 84.0639 62.5746 85.2477C65.8458 86.4315 68.1079 85.8801 70.0121 84.372C71.9162 82.8477 78.0679 77.8855 79.4187 76.7828C79.907 76.3937 80.2162 75.9396 80.444 75.3882C81.0299 74.172 81.0787 72.7774 81.0787 71.2531C81.274 68.4315 81.4368 58.3126 81.5344 55.118V54.2585ZM71.9162 50.2369C73.804 50.2369 75.3338 50.9018 75.3338 51.7288C75.3338 52.5558 73.804 53.2207 71.9162 53.2207C70.0283 53.2207 68.4985 52.5558 68.4985 51.7288C68.4985 50.9018 70.0283 50.2369 71.9162 50.2369ZM62.1352 50.2045C64.0719 50.2045 65.6505 50.8855 65.6505 51.745C65.6505 52.6045 64.0719 53.2855 62.1352 53.2855C60.1985 53.2855 58.6199 52.6045 58.6199 51.745C58.6199 50.8855 60.1985 50.2045 62.1352 50.2045ZM52.3379 50.2045C54.2746 50.2045 55.8532 50.8855 55.8532 51.745C55.8532 52.6045 54.2746 53.2855 52.3379 53.2855C50.4013 53.2855 48.8226 52.6045 48.8226 51.745C48.8226 50.8855 50.4013 50.2045 52.3379 50.2045ZM51.3777 76.7342C51.3777 77.8369 50.5477 77.6099 50.4338 77.5774C49.555 77.2531 48.4809 76.8315 47.5532 76.5072C46.8046 76.1666 46.6419 75.5504 46.593 75.2423C46.593 75.2423 46.593 75.2261 46.593 75.1937V75.0964V75.3234C46.4628 72.0153 46.0071 63.3396 45.8444 59.918C45.8444 59.918 45.8444 58.5882 47.065 58.7991C48.0577 59.1072 49.2295 59.6909 50.206 59.9991C50.206 59.9991 51.2638 60.6801 51.394 61.6369L51.3126 70.0693L51.3615 76.7504L51.3777 76.7342ZM62.0213 81.6964L58.7501 80.5126C57.7248 80.1396 57.3179 79.6855 56.9599 78.891L52.4356 69.6801C52.1101 69.0315 52.1915 68.0423 52.6309 67.4585L53.4771 66.3072C53.9003 65.7234 54.6001 64.7828 55.0232 64.1828L55.4626 63.5504C55.8858 62.9666 56.1136 62.5612 56.5042 62.0423C56.7809 61.6693 57.3505 61.7666 58.034 61.9937L61.5819 63.1126C62.2654 63.3234 62.4607 63.9558 61.9887 64.5072L58.9454 68.1396C58.4897 68.6909 57.9201 69.4045 57.676 69.7126C57.4481 70.0207 57.4644 70.718 57.7411 71.2531C58.0177 71.7882 58.506 72.7612 58.8315 73.3937L62.656 80.918C62.9815 81.5666 62.6885 81.8909 62.005 81.6639V81.6964H62.0213ZM67.4732 63.9882L66.7734 82.572L66.2852 64.0369C66.2852 61.9937 64.6415 60.1937 62.5909 59.6423L45.8607 54.0153L62.7862 58.5882C64.8368 59.2045 67.5872 58.3612 69.4424 57.4207L78.5073 53.2855L70.1911 58.7018C68.0266 59.8531 67.4732 61.8477 67.4732 64.0045V63.9882ZM79.0607 73.7018C78.9142 74.172 78.6375 74.3342 78.2307 74.6585C77.8238 74.9666 77.4007 75.3072 77.0589 75.5828C76.6358 75.8099 76.6032 75.4531 76.6032 75.4531C76.4405 74.2855 76.2289 72.972 75.9523 71.4801L73.0879 73.572C72.795 75.2099 72.4695 77.0099 72.1603 78.9396C72.1603 78.9396 72.0626 79.491 71.6232 79.8315C71.1838 80.172 70.8909 80.3991 70.7607 80.4964C70.6142 80.6261 70.4515 80.7396 70.2887 80.8531C70.1423 80.9666 69.9795 81.1288 69.7842 81.0639C69.5238 80.9828 69.5889 80.5126 69.6377 80.318V80.2693L69.8493 79.2964L72.7787 64.1504L73.0879 62.5126C73.1368 62.2693 73.2507 61.6369 73.3483 61.118C73.3483 61.118 73.5924 60.2423 74.3573 59.7558C74.4387 59.7072 74.5364 59.6585 74.6177 59.6099C74.8456 59.4964 75.0734 59.3666 75.285 59.2531C75.3338 59.2531 75.4152 59.1882 75.464 59.172C75.5454 59.1558 75.6105 59.1396 75.6919 59.1234C75.9685 59.0909 76.294 59.172 76.473 59.3991C76.5381 59.4801 76.5381 59.5774 76.5707 59.6747C76.6032 59.8855 76.6521 60.1126 76.6846 60.3234C76.7334 60.6315 76.7985 60.9396 76.8473 61.2477C76.9124 61.5882 76.9613 61.9288 77.0264 62.2693C77.0752 62.545 77.124 62.8207 77.1728 63.0964C77.1891 63.2099 77.2054 63.3234 77.2379 63.4369L78.9305 72.3396C78.9305 72.3396 78.9305 72.4207 78.9468 72.4531C79.0119 72.7937 79.1583 73.3612 79.0444 73.7018H79.0607Z" fill="white"/>
<path d="M74.7491 63.9072L74.2609 66.6153C74.2121 66.8423 74.147 67.2153 74.1144 67.4423L73.854 68.8207C73.8052 69.0477 73.9354 69.1288 74.1307 68.9829L75.1886 68.2531C75.3838 68.1234 75.514 67.8153 75.4815 67.5883L74.8956 63.891C74.8631 63.6639 74.798 63.6639 74.7491 63.891V63.9072Z" fill="white"/>
</g>
<path d="M0.25 15.7803H83.25L69.6492 29.3811L83.25 42.982H0.25V15.7803Z" fill="#EF0C27"/>
<path d="M12.919 25.5075V32.7803H11.9105L8.21378 27.4465H8.14631V32.7803H7.04901V25.5075H8.06463L11.7649 30.8485H11.8324V25.5075H12.919ZM16.7853 32.8904C16.2479 32.8904 15.7851 32.7755 15.3968 32.5459C15.0109 32.3139 14.7127 31.9884 14.502 31.5693C14.2936 31.1479 14.1895 30.6543 14.1895 30.0885C14.1895 29.5298 14.2936 29.0374 14.502 28.6112C14.7127 28.1851 15.0062 27.8525 15.3826 27.6134C15.7614 27.3743 16.2041 27.2547 16.7108 27.2547C17.0185 27.2547 17.3168 27.3056 17.6056 27.4074C17.8945 27.5092 18.1537 27.669 18.3833 27.8868C18.613 28.1046 18.7941 28.3875 18.9267 28.7355C19.0592 29.0812 19.1255 29.5014 19.1255 29.9962V30.3726H14.7896V29.5771H18.085C18.085 29.2978 18.0282 29.0504 17.9146 28.835C17.801 28.6172 17.6412 28.4455 17.4352 28.32C17.2316 28.1946 16.9925 28.1318 16.7179 28.1318C16.4196 28.1318 16.1592 28.2052 15.9366 28.352C15.7164 28.4964 15.546 28.6858 15.4252 28.9202C15.3069 29.1522 15.2477 29.4043 15.2477 29.6766V30.298C15.2477 30.6626 15.3116 30.9727 15.4395 31.2284C15.5697 31.4841 15.7508 31.6794 15.9828 31.8144C16.2148 31.9469 16.4859 32.0132 16.796 32.0132C16.9972 32.0132 17.1807 31.9848 17.3464 31.928C17.5121 31.8688 17.6554 31.7812 17.7761 31.6652C17.8968 31.5492 17.9892 31.406 18.0531 31.2355L19.0581 31.4166C18.9776 31.7126 18.8332 31.9718 18.6248 32.1943C18.4189 32.4145 18.1596 32.5861 17.8471 32.7093C17.537 32.83 17.1831 32.8904 16.7853 32.8904ZM21.4764 32.7803L19.8713 27.3257H20.9686L22.0375 31.3314H22.0907L23.1632 27.3257H24.2605L25.3258 31.3137H25.3791L26.4409 27.3257H27.5382L25.9366 32.7803H24.8535L23.7456 28.8421H23.6639L22.5559 32.7803H21.4764ZM36.1994 27.8051C36.1307 27.5897 36.0384 27.3968 35.9224 27.2263C35.8088 27.0535 35.6726 26.9067 35.514 26.786C35.3554 26.6628 35.1743 26.5693 34.9707 26.5054C34.7695 26.4415 34.5481 26.4095 34.3066 26.4095C33.8971 26.4095 33.5278 26.5149 33.1987 26.7256C32.8696 26.9363 32.6092 27.2452 32.4174 27.6524C32.228 28.0573 32.1333 28.5532 32.1333 29.1404C32.1333 29.7298 32.2292 30.2282 32.421 30.6354C32.6127 31.0426 32.8755 31.3515 33.2093 31.5622C33.5431 31.7729 33.9231 31.8783 34.3493 31.8783C34.7446 31.8783 35.0891 31.7978 35.3826 31.6368C35.6786 31.4758 35.907 31.2485 36.068 30.955C36.2314 30.6591 36.313 30.311 36.313 29.911L36.5971 29.9642H34.5162V29.0587H37.3748V29.8861C37.3748 30.4969 37.2446 31.0272 36.9842 31.477C36.7261 31.9244 36.3687 32.2701 35.9118 32.5139C35.4572 32.7578 34.9364 32.8797 34.3493 32.8797C33.6911 32.8797 33.1135 32.7282 32.6163 32.4252C32.1215 32.1221 31.7356 31.6924 31.4586 31.1361C31.1816 30.5774 31.0431 29.9145 31.0431 29.1475C31.0431 28.5674 31.1236 28.0466 31.2846 27.585C31.4456 27.1233 31.6717 26.7315 31.9629 26.4095C32.2565 26.0852 32.6009 25.8378 32.9963 25.6673C33.394 25.4945 33.8284 25.4081 34.2995 25.4081C34.6925 25.4081 35.0583 25.4661 35.3968 25.5821C35.7377 25.6981 36.0408 25.8627 36.3059 26.0757C36.5734 26.2888 36.7948 26.5421 36.97 26.8357C37.1452 27.1269 37.2636 27.45 37.3251 27.8051H36.1994ZM40.2699 32.901C39.9242 32.901 39.6117 32.8371 39.3324 32.7093C39.053 32.579 38.8317 32.3908 38.6683 32.1446C38.5073 31.8984 38.4268 31.5966 38.4268 31.2391C38.4268 30.9313 38.486 30.678 38.6044 30.4791C38.7228 30.2803 38.8826 30.1228 39.0838 30.0068C39.285 29.8908 39.5099 29.8032 39.7585 29.7441C40.0071 29.6849 40.2604 29.6399 40.5185 29.6091C40.8452 29.5712 41.1103 29.5405 41.3139 29.5168C41.5175 29.4907 41.6655 29.4493 41.7578 29.3925C41.8501 29.3357 41.8963 29.2433 41.8963 29.1155V29.0906C41.8963 28.7805 41.8087 28.5402 41.6335 28.3698C41.4607 28.1993 41.2027 28.1141 40.8594 28.1141C40.5019 28.1141 40.2202 28.1934 40.0142 28.352C39.8106 28.5083 39.6697 28.6823 39.5916 28.874L38.5938 28.6468C38.7121 28.3153 38.8849 28.0478 39.1122 27.8442C39.3419 27.6382 39.6058 27.4891 39.9041 27.3968C40.2024 27.3021 40.5161 27.2547 40.8452 27.2547C41.063 27.2547 41.2938 27.2807 41.5376 27.3328C41.7839 27.3825 42.0135 27.4749 42.2266 27.6098C42.442 27.7448 42.6184 27.9377 42.7557 28.1887C42.893 28.4372 42.9616 28.7604 42.9616 29.1581V32.7803H41.9247V32.0345H41.8821C41.8134 32.1718 41.7105 32.3068 41.5732 32.4394C41.4358 32.5719 41.2595 32.682 41.044 32.7696C40.8286 32.8572 40.5705 32.901 40.2699 32.901ZM40.5007 32.0487C40.7943 32.0487 41.0452 31.9907 41.2536 31.8747C41.4643 31.7587 41.6241 31.6072 41.733 31.4202C41.8442 31.2308 41.8999 31.0284 41.8999 30.8129V30.1098C41.862 30.1477 41.7886 30.1832 41.6797 30.2164C41.5732 30.2471 41.4512 30.2744 41.3139 30.298C41.1766 30.3193 41.0429 30.3395 40.9126 30.3584C40.7824 30.375 40.6735 30.3892 40.5859 30.401C40.38 30.4271 40.1918 30.4709 40.0213 30.5324C39.8532 30.594 39.7183 30.6827 39.6165 30.7987C39.517 30.9124 39.4673 31.0639 39.4673 31.2533C39.4673 31.5161 39.5644 31.7149 39.7585 31.8499C39.9527 31.9825 40.2 32.0487 40.5007 32.0487ZM44.3759 32.7803V27.3257H45.3951V28.2135H45.4625C45.5762 27.9128 45.762 27.6785 46.0201 27.5104C46.2781 27.3399 46.5871 27.2547 46.9469 27.2547C47.3115 27.2547 47.6169 27.3399 47.8631 27.5104C48.1117 27.6808 48.2952 27.9152 48.4135 28.2135H48.4703C48.6006 27.9223 48.8077 27.6903 49.0918 27.5175C49.3759 27.3423 49.7144 27.2547 50.1074 27.2547C50.6022 27.2547 51.0059 27.4098 51.3184 27.7199C51.6332 28.03 51.7907 28.4976 51.7907 29.1226V32.7803H50.7289V29.222C50.7289 28.8527 50.6283 28.5852 50.427 28.4195C50.2258 28.2538 49.9855 28.1709 49.7061 28.1709C49.3605 28.1709 49.0918 28.2774 48.9 28.4905C48.7083 28.7012 48.6124 28.9723 48.6124 29.3037V32.7803H47.5542V29.1546C47.5542 28.8586 47.4618 28.6207 47.2772 28.4408C47.0925 28.2609 46.8522 28.1709 46.5563 28.1709C46.3551 28.1709 46.1692 28.2242 45.9988 28.3307C45.8307 28.4349 45.6945 28.5805 45.5904 28.7675C45.4886 28.9545 45.4377 29.1711 45.4377 29.4173V32.7803H44.3759ZM55.5646 32.8904C55.0272 32.8904 54.5644 32.7755 54.1761 32.5459C53.7902 32.3139 53.492 31.9884 53.2812 31.5693C53.0729 31.1479 52.9688 30.6543 52.9688 30.0885C52.9688 29.5298 53.0729 29.0374 53.2812 28.6112C53.492 28.1851 53.7855 27.8525 54.1619 27.6134C54.5407 27.3743 54.9834 27.2547 55.4901 27.2547C55.7978 27.2547 56.0961 27.3056 56.3849 27.4074C56.6738 27.5092 56.933 27.669 57.1626 27.8868C57.3923 28.1046 57.5734 28.3875 57.706 28.7355C57.8385 29.0812 57.9048 29.5014 57.9048 29.9962V30.3726H53.5689V29.5771H56.8643C56.8643 29.2978 56.8075 29.0504 56.6939 28.835C56.5803 28.6172 56.4205 28.4455 56.2145 28.32C56.0109 28.1946 55.7718 28.1318 55.4972 28.1318C55.1989 28.1318 54.9384 28.2052 54.7159 28.352C54.4957 28.4964 54.3253 28.6858 54.2045 28.9202C54.0862 29.1522 54.027 29.4043 54.027 29.6766V30.298C54.027 30.6626 54.0909 30.9727 54.2188 31.2284C54.349 31.4841 54.5301 31.6794 54.7621 31.8144C54.9941 31.9469 55.2652 32.0132 55.5753 32.0132C55.7765 32.0132 55.96 31.9848 56.1257 31.928C56.2914 31.8688 56.4347 31.7812 56.5554 31.6652C56.6761 31.5492 56.7685 31.406 56.8324 31.2355L57.8374 31.4166C57.7569 31.7126 57.6125 31.9718 57.4041 32.1943C57.1982 32.4145 56.9389 32.5861 56.6264 32.7093C56.3163 32.83 55.9624 32.8904 55.5646 32.8904ZM63.1703 28.6574L62.2079 28.8279C62.1677 28.7048 62.1038 28.5876 62.0162 28.4763C61.9309 28.365 61.8149 28.2739 61.6681 28.2029C61.5214 28.1318 61.3379 28.0963 61.1177 28.0963C60.8171 28.0963 60.5661 28.1638 60.3649 28.2987C60.1636 28.4313 60.063 28.603 60.063 28.8137C60.063 28.9959 60.1305 29.1427 60.2654 29.254C60.4004 29.3653 60.6182 29.4564 60.9189 29.5274L61.7853 29.7263C62.2872 29.8423 62.6613 30.021 62.9075 30.2625C63.1537 30.504 63.2768 30.8177 63.2768 31.2036C63.2768 31.5303 63.1821 31.8215 62.9927 32.0771C62.8057 32.3305 62.5441 32.5293 62.2079 32.6737C61.8741 32.8182 61.487 32.8904 61.0467 32.8904C60.4359 32.8904 59.9376 32.7602 59.5517 32.4997C59.1658 32.2369 58.929 31.8641 58.8414 31.3811L59.8677 31.2249C59.9316 31.4924 60.063 31.6948 60.2619 31.8321C60.4608 31.9671 60.72 32.0345 61.0396 32.0345C61.3876 32.0345 61.6658 31.9623 61.8741 31.8179C62.0824 31.6711 62.1866 31.4924 62.1866 31.2817C62.1866 31.1112 62.1227 30.968 61.9949 30.852C61.8694 30.736 61.6764 30.6484 61.416 30.5892L60.4927 30.3868C59.9837 30.2708 59.6073 30.0861 59.3635 29.8328C59.122 29.5795 59.0012 29.2587 59.0012 28.8705C59.0012 28.5485 59.0912 28.2668 59.2711 28.0253C59.4511 27.7838 59.6996 27.5956 60.0169 27.4607C60.3341 27.3234 60.6975 27.2547 61.1071 27.2547C61.6966 27.2547 62.1606 27.3825 62.4991 27.6382C62.8377 27.8915 63.0614 28.2313 63.1703 28.6574Z" fill="white"/>
<defs>
<clipPath id="clip0_1_3648">
<rect width="166" height="60" fill="white" transform="translate(42.2969 35.8696)"/>
</clipPath>
</defs>
</svg>
