<svg width="250" height="130" viewBox="0 0 250 130" fill="none" xmlns="http://www.w3.org/2000/svg">
<rect width="249.25" height="129.22" rx="10" fill="#19191A"/>
<path d="M194.257 47.0311C194.324 47.0711 194.392 47.1106 194.459 47.1499C195.217 47.5897 195.945 48.0845 196.649 48.6063C196.668 48.6207 196.688 48.6351 196.708 48.65C197.194 49.0113 197.666 49.3902 198.126 49.7839C198.175 49.8255 198.224 49.867 198.273 49.9085C198.47 50.0767 198.663 50.2491 198.853 50.4264C198.925 50.4936 198.998 50.5589 199.072 50.6239C199.271 50.8026 199.457 50.9955 199.645 51.1859C199.757 51.2998 199.871 51.413 199.984 51.5261C200.025 51.5669 200.066 51.6077 200.107 51.6485C200.135 51.6763 200.163 51.704 200.19 51.7317C200.338 51.8785 200.483 52.026 200.618 52.1846C200.681 52.2579 200.747 52.3281 200.813 52.3989C200.933 52.5292 201.046 52.6636 201.157 52.8019C201.238 52.9008 201.322 52.997 201.406 53.0933C201.565 53.2759 201.716 53.4631 201.864 53.6553C201.906 53.711 201.949 53.7665 201.992 53.822C202.199 54.0901 202.399 54.3623 202.595 54.6381C202.636 54.6966 202.678 54.755 202.72 54.8133C204.165 56.8308 205.295 59.0758 206.114 61.4171C206.121 61.4362 206.127 61.4553 206.134 61.475C206.906 63.6803 207.389 65.9974 207.551 68.3297C207.555 68.39 207.559 68.4503 207.564 68.5105C207.654 69.7775 207.65 71.0625 207.555 72.329C207.553 72.352 207.551 72.375 207.55 72.3987C207.428 74.0017 207.168 75.5918 206.764 77.1473C206.758 77.1677 206.753 77.1882 206.748 77.2093C206.368 78.6756 205.867 80.1066 205.238 81.4837C205.228 81.5047 205.219 81.5256 205.209 81.5472C204.801 82.4387 204.359 83.3076 203.854 84.1479C203.836 84.1779 203.818 84.2079 203.799 84.2388C203.142 85.3289 202.411 86.3702 201.607 87.3557C201.57 87.4008 201.534 87.4461 201.497 87.4914C201.253 87.7935 201 88.0883 200.736 88.3734C200.678 88.4374 200.621 88.502 200.564 88.5674C200.263 88.9133 199.94 89.2384 199.617 89.5631C199.599 89.5811 199.582 89.5991 199.563 89.6177C199.218 89.9646 199.218 89.9646 199.043 90.1141C198.955 90.19 198.872 90.2712 198.787 90.3514C198.641 90.4899 198.491 90.6214 198.333 90.7476C198.254 90.8131 198.178 90.8819 198.102 90.9519C197.986 91.0587 197.868 91.1596 197.744 91.2571C197.687 91.3021 197.63 91.3474 197.574 91.3933C197.303 91.6136 197.026 91.8249 196.745 92.0331C196.703 92.0645 196.661 92.096 196.619 92.1276C195.96 92.6212 195.265 93.0809 194.558 93.5009C194.531 93.5172 194.503 93.5335 194.475 93.5503C192.29 94.8433 189.938 95.8477 187.353 96.5052C187.334 96.5103 187.314 96.5153 187.293 96.5205C186.026 96.8418 184.737 97.0599 183.437 97.1926C183.415 97.1947 183.394 97.1969 183.372 97.1992C183.212 97.2156 183.05 97.2294 182.889 97.2421C182.843 97.2459 182.843 97.2459 182.797 97.2496C182.146 97.3008 181.497 97.3091 180.845 97.3079C180.762 97.3077 180.679 97.3076 180.596 97.3075C179.837 97.3065 179.08 97.3004 178.324 97.2209C178.252 97.2134 178.18 97.2064 178.108 97.1995C176.881 97.0808 175.668 96.8776 174.47 96.5903C174.447 96.5849 174.424 96.5795 174.401 96.574C172.101 96.0256 169.855 95.1598 167.488 93.8326C167.411 93.7874 167.334 93.7428 167.257 93.6982C166.857 93.4665 166.462 93.229 166.077 92.9712C166.03 92.9395 165.982 92.9082 165.935 92.877C165.492 92.585 165.057 92.2793 164.636 91.9562C164.576 91.9105 164.517 91.8652 164.457 91.8199C164.231 91.6476 164.008 91.4722 163.79 91.2902C163.739 91.2495 163.689 91.2087 163.639 91.168C163.367 90.9441 163.101 90.7133 162.841 90.4744C162.784 90.4218 162.725 90.3704 162.666 90.3195C162.315 90.0119 161.984 89.682 161.655 89.3509C161.585 89.2808 161.515 89.2109 161.445 89.141C161.4 89.0958 161.355 89.0506 161.31 89.0053C161.29 88.9848 161.269 88.9643 161.248 88.9431C161.135 88.8293 161.027 88.713 160.923 88.5912C160.855 88.5128 160.784 88.4377 160.713 88.3621C160.588 88.2268 160.469 88.088 160.354 87.9439C160.273 87.8452 160.19 87.7494 160.106 87.6535C159.947 87.4713 159.797 87.2843 159.65 87.0928C159.605 87.0345 159.559 86.9765 159.514 86.9185C159.283 86.624 159.061 86.324 158.845 86.0185C158.821 85.9853 158.821 85.9853 158.797 85.9514C157.16 83.6457 155.906 81.0839 153.98 72.9933C153.978 72.9715 153.976 72.9496 153.973 72.9271C153.89 72.1031 153.861 71.2776 153.863 70.4499C153.864 70.3808 153.864 70.3117 153.864 70.2426C153.868 67.7101 154.215 65.1848 155.144 62.069C155.151 62.0459 155.159 62.0227 155.167 61.9989C155.381 61.3419 155.611 60.694 155.878 60.0567C155.886 60.0393 155.893 60.0219 155.9 60.004C156.122 59.4748 156.36 58.9559 156.613 58.4412C156.629 58.4087 156.629 58.4087 156.645 58.3756C156.709 58.2457 156.773 58.1166 156.839 57.9877C156.852 57.9624 156.865 57.9371 156.878 57.911C157.09 57.4928 157.313 57.0836 157.553 56.681C157.6 56.6022 157.646 56.5232 157.693 56.4442C158.196 55.596 158.759 54.7826 159.359 54.0008C159.403 53.9443 159.446 53.8877 159.489 53.831C159.839 53.3701 160.209 52.9245 160.597 52.4954C160.648 52.4384 160.699 52.3808 160.749 52.3227C160.93 52.1147 161.115 51.9099 161.311 51.7168C161.359 51.6676 161.404 51.6166 161.449 51.5642C161.563 51.4317 161.686 51.3076 161.81 51.1837C161.831 51.162 161.853 51.1404 161.875 51.1181C161.994 50.999 162.115 50.8852 162.243 50.7752C162.305 50.721 162.362 50.6635 162.419 50.6044C162.513 50.5089 162.61 50.4189 162.712 50.3315C162.783 50.2691 162.853 50.2048 162.922 50.1403C163.049 50.0249 163.178 49.9155 163.311 49.808C163.386 49.7464 163.459 49.6835 163.532 49.6198C163.73 49.4468 163.935 49.2853 164.145 49.1265C164.251 49.0461 164.356 48.9641 164.46 48.8816C164.7 48.6924 164.945 48.5127 165.196 48.3383C165.261 48.293 165.325 48.2471 165.39 48.2011C167.341 46.8085 169.514 45.7221 178.792 43.4479C178.813 43.4465 178.834 43.445 178.855 43.4435C181.35 43.2664 183.863 43.4513 194.257 47.0311ZM173.339 47.4159C173.308 47.426 173.308 47.426 173.277 47.4362C172.454 47.7046 171.65 48.0168 170.862 48.376C170.843 48.3845 170.824 48.3931 170.805 48.4019C170.543 48.5219 170.285 48.6492 170.027 48.7795C169.958 48.8142 169.889 48.8482 169.82 48.8821C169.44 49.0689 169.071 49.2715 168.706 49.4849C168.679 49.5007 168.651 49.5164 168.623 49.5327C167.747 50.0424 166.905 50.6183 166.106 51.2422C166.079 51.2632 166.079 51.2632 166.052 51.2846C165.617 51.6241 165.193 51.9759 164.784 52.3475C164.728 52.3984 164.671 52.4484 164.614 52.4981C164.298 52.7756 163.998 53.0692 163.701 53.3676C163.637 53.432 163.573 53.4963 163.509 53.5605C163.467 53.6021 163.426 53.6437 163.384 53.6854C163.366 53.7042 163.347 53.7231 163.327 53.7425C163.218 53.8524 163.114 53.9654 163.013 54.0829C162.95 54.1563 162.884 54.2269 162.818 54.2978C162.698 54.4288 162.584 54.5637 162.472 54.7027C162.396 54.796 162.318 54.887 162.239 54.9781C162.087 55.1547 161.942 55.3354 161.8 55.5202C161.768 55.562 161.736 55.6037 161.704 55.6454C161.454 55.9683 161.213 56.2954 160.987 56.6354C160.94 56.7062 160.893 56.7768 160.845 56.8474C160.434 57.4583 160.047 58.0787 159.693 58.7246C159.676 58.7553 159.659 58.7859 159.642 58.8175C158.613 60.6988 157.851 62.7063 156.783 68.4461C156.78 68.4792 156.777 68.5123 156.774 68.5465C156.659 69.878 156.682 71.2549 156.811 72.5841C156.813 72.6092 156.816 72.6343 156.818 72.6601C156.959 74.1189 157.223 75.5689 157.63 76.9772C157.636 76.9976 157.642 77.018 157.648 77.039C158.187 78.9002 158.935 80.7199 159.919 82.3906C159.936 82.4198 159.953 82.449 159.971 82.4791C160.502 83.3827 161.082 84.2565 161.727 85.0832C161.752 85.1158 161.777 85.1484 161.803 85.1811C161.943 85.3626 162.087 85.5409 162.236 85.7157C162.317 85.8107 162.396 85.9069 162.474 86.0043C162.597 86.1567 162.729 86.2999 162.863 86.4433C162.927 86.5118 162.989 86.5816 163.05 86.6527C163.125 86.7397 163.204 86.8205 163.286 86.901C163.334 86.9506 163.379 87.0017 163.424 87.0547C163.553 87.2031 163.691 87.3412 163.83 87.4799C163.856 87.5056 163.881 87.5313 163.907 87.5578C164.037 87.6871 164.167 87.813 164.306 87.9314C164.357 87.9767 164.406 88.0243 164.453 88.0733C164.557 88.1785 164.667 88.2746 164.778 88.3709C164.81 88.3987 164.842 88.4266 164.874 88.4544C165.231 88.7661 165.59 89.0727 165.965 89.3629C165.987 89.3799 166.009 89.3969 166.031 89.4144C167.139 90.2742 168.319 91.0254 169.553 91.687C169.58 91.7014 169.607 91.7158 169.634 91.7307C170.772 92.345 171.973 92.8362 173.198 93.2458C173.227 93.2556 173.227 93.2556 173.257 93.2656C174.868 93.8022 176.537 94.1514 178.224 94.3317C178.244 94.3339 178.263 94.336 178.284 94.3382C178.434 94.3542 178.585 94.3674 178.736 94.3796C178.766 94.382 178.795 94.3844 178.826 94.3869C179.429 94.435 180.029 94.4466 180.634 94.4453C180.708 94.4451 180.782 94.445 180.855 94.4449C181.593 94.4439 182.325 94.4295 183.059 94.3512C183.106 94.3463 183.154 94.3414 183.201 94.3365C185.551 94.0903 187.876 93.514 191.386 91.9594C191.472 91.9168 191.558 91.8746 191.645 91.8325C192.022 91.6475 192.387 91.4451 192.75 91.2335C192.777 91.2181 192.803 91.2026 192.831 91.1867C193.225 90.9581 193.606 90.7126 193.984 90.4594C194.006 90.4451 194.027 90.4307 194.049 90.416C194.444 90.1517 194.83 89.8777 195.208 89.5897C195.237 89.5679 195.265 89.5461 195.295 89.5237C195.655 89.2481 196.005 88.96 196.349 88.6648C196.395 88.6253 196.442 88.5861 196.488 88.547C196.796 88.2866 197.093 88.0124 197.377 87.7257C197.442 87.6597 197.508 87.5966 197.579 87.5366C197.735 87.4015 197.88 87.2576 198.014 87.1008C198.096 87.0048 198.184 86.9151 198.273 86.8263C198.379 86.7213 198.481 86.6144 198.578 86.5008C198.634 86.4351 198.692 86.3712 198.75 86.3072C198.86 86.1856 198.963 86.0602 199.066 85.9328C199.129 85.8555 199.194 85.7796 199.259 85.704C199.418 85.5201 199.57 85.3322 199.716 85.1377C199.763 85.0753 199.81 85.0132 199.857 84.951C200.657 83.8893 201.363 82.7709 201.989 81.597C202.002 81.572 202.016 81.547 202.03 81.5211C203.149 79.4337 203.93 77.1388 204.763 70.3716C204.763 70.3397 204.763 70.3078 204.763 70.2749C204.759 67.7807 204.374 65.2872 203.515 62.6642C203.508 62.6446 203.501 62.6251 203.495 62.6049C202.998 61.1246 202.356 59.6736 201.565 58.3278C201.549 58.2998 201.532 58.2719 201.515 58.243C201.169 57.6521 200.811 57.0668 200.407 56.5139C200.374 56.4679 200.342 56.4219 200.31 56.3758C200.005 55.9431 199.68 55.5253 199.344 55.1168C199.308 55.0718 199.271 55.0265 199.234 54.9812C199.112 54.8298 198.987 54.6832 198.856 54.5393C198.802 54.4801 198.75 54.4202 198.697 54.3598C198.581 54.2262 198.463 54.0942 198.344 53.963C198.331 53.9489 198.319 53.9348 198.305 53.9203C198.072 53.663 197.83 53.4155 197.585 53.1694C197.57 53.1541 197.554 53.1387 197.539 53.1229C197.385 52.9685 197.232 52.8161 197.066 52.6744C196.983 52.6023 196.904 52.526 196.824 52.4503C196.681 52.3163 196.535 52.1895 196.382 52.067C196.311 52.008 196.242 51.9465 196.174 51.8834C196.018 51.7417 195.854 51.6129 195.688 51.4842C195.629 51.4382 195.57 51.3919 195.511 51.3454C195.218 51.1141 194.919 50.8916 194.615 50.6753C194.59 50.6577 194.565 50.6401 194.54 50.6219C192.689 49.3021 190.63 48.2661 188.483 47.5293C188.465 47.5228 188.446 47.5163 188.427 47.5097C186.268 46.7681 183.99 46.3538 173.339 47.4159Z" fill="white"/>
<path d="M165.427 20.0371C165.513 20.0749 165.564 20.1131 165.623 20.1866C165.638 20.2051 165.652 20.2236 165.668 20.2427C165.683 20.2625 165.699 20.2824 165.715 20.3028C165.74 20.3336 165.74 20.3336 165.765 20.3649C165.901 20.5364 166.032 20.7112 166.162 20.8874C166.188 20.922 166.214 20.9566 166.24 20.9912C166.453 21.2749 166.662 21.5616 166.868 21.851C166.883 21.8722 166.898 21.8933 166.914 21.9151C167.339 22.5147 167.745 23.1294 168.14 23.75C168.152 23.7695 168.165 23.789 168.177 23.8091C169.266 25.5151 170.243 27.2922 171.168 29.0918C171.213 29.1789 171.258 29.2659 171.303 29.3528C171.625 29.9739 171.934 30.6012 172.236 31.2324C172.253 31.2681 172.253 31.2681 172.271 31.3045C172.579 31.9473 172.88 32.5926 173.171 33.2432C173.197 33.302 173.224 33.3607 173.25 33.4194C173.716 34.4571 174.159 35.5047 174.581 36.5608C174.581 36.5407 174.581 36.5205 174.581 36.4997C174.564 34.5664 174.564 34.5664 174.666 33.7833C174.673 33.728 174.673 33.728 174.68 33.6715C174.971 31.4342 175.776 29.2232 177.124 27.4062C177.139 27.3861 177.154 27.366 177.169 27.3452C177.447 26.9714 177.743 26.617 178.057 26.2725C178.08 26.2467 178.103 26.2209 178.127 26.1943C178.388 25.9043 178.657 25.6134 178.956 25.3612C179.007 25.3172 179.058 25.2725 179.109 25.2272C179.361 25.004 179.622 24.7987 179.893 24.6003C179.912 24.6096 179.931 24.619 179.95 24.6286C179.942 24.6448 179.934 24.6609 179.927 24.6776C178.906 26.8456 178.293 29.1888 178.057 31.9126C178.055 31.9325 178.054 31.9524 178.052 31.9729C177.884 34.3091 178.066 36.6759 178.944 40.4626C178.961 40.5288 178.961 40.5288 178.961 40.5855C178.944 40.5866 178.926 40.5877 178.908 40.5889C177.023 40.7133 175.174 40.9526 173.338 41.4074C173.319 41.4122 173.3 41.4169 173.28 41.4218C171.029 41.9817 168.811 42.8593 166.804 44.0268C166.724 44.0733 166.643 44.1193 166.563 44.1652C166.51 44.1954 166.457 44.2256 166.404 44.2558C166.38 44.2695 166.356 44.2831 166.331 44.2971C166.203 44.3703 166.078 44.4459 165.956 44.5279C165.908 44.5534 165.908 44.5534 165.823 44.5534C165.814 44.529 165.806 44.5046 165.797 44.4794C165.262 42.9173 164.601 41.3847 163.76 39.9619C163.736 39.9203 163.736 39.9203 163.711 39.8779C163.364 39.2868 163.007 38.701 162.602 38.148C162.566 38.0978 162.53 38.0474 162.495 37.997C162.159 37.5224 161.807 37.0571 161.429 36.6156C161.364 36.5383 161.3 36.4596 161.237 36.3801C161.116 36.2307 160.986 36.0905 160.854 35.9508C160.773 35.8652 160.694 35.7789 160.617 35.6894C160.515 35.5713 160.406 35.4597 160.296 35.3491C160.276 35.3291 160.256 35.3091 160.235 35.2886C160.194 35.2467 160.152 35.2048 160.11 35.163C160.047 35.0996 159.983 35.036 159.92 34.9724C159.879 34.9314 159.839 34.8905 159.798 34.8495C159.779 34.8308 159.76 34.8121 159.741 34.7928C159.632 34.6832 159.519 34.5788 159.401 34.4774C159.339 34.4232 159.278 34.3672 159.217 34.3111C159.095 34.2008 158.969 34.096 158.842 33.9925C158.768 33.9323 158.696 33.871 158.624 33.8091C158.439 33.6505 158.249 33.5015 158.053 33.3581C158.026 33.3381 158.026 33.3381 157.998 33.3176C157.87 33.2241 157.742 33.1313 157.613 33.039C157.567 33.006 157.521 32.973 157.475 32.9399C157.152 32.7066 156.822 32.4923 156.478 32.2904C156.383 32.2344 156.289 32.1774 156.195 32.1199C156.166 32.1023 156.137 32.0846 156.107 32.0664C156.087 32.0531 156.067 32.0398 156.047 32.026C156.047 32.0167 156.047 32.0073 156.047 31.9977C156.303 31.9931 156.553 32.0051 156.808 32.0313C156.844 32.0351 156.881 32.0388 156.919 32.0427C159.476 32.3148 161.962 33.3306 163.93 35.002C163.959 35.0266 163.989 35.0512 164.018 35.0758C164.285 35.2997 164.546 35.5306 164.789 35.7803C164.835 35.8253 164.883 35.8662 164.933 35.9072C165.024 35.9841 165.099 36.0694 165.176 36.1605C165.233 36.2244 165.292 36.2835 165.353 36.3429C165.47 36.4591 165.574 36.583 165.677 36.7121C165.731 36.7784 165.786 36.8416 165.844 36.9045C166.019 37.1006 166.174 37.3135 166.331 37.5245C166.347 37.5453 166.362 37.5661 166.378 37.5876C166.649 37.953 166.894 38.3323 167.127 38.7228C167.142 38.748 167.157 38.7731 167.173 38.7991C167.184 38.818 167.196 38.837 167.207 38.8566C167.141 38.5212 167.074 38.186 167.005 37.851C166.569 35.7114 166.197 33.5584 165.378 25.7942C165.376 25.7629 165.374 25.7316 165.373 25.6993C165.329 24.8686 165.308 24.0389 165.309 23.2072C165.309 23.1377 165.309 23.0682 165.309 22.9986C165.309 22.0095 165.334 21.0223 165.427 20.0371ZM174.61 36.6459C174.638 36.7025 174.638 36.7025 174.638 36.7025L174.61 36.6459ZM167.235 38.9133C167.264 38.9699 167.264 38.9699 167.264 38.9699L167.235 38.9133Z" fill="white"/>
<path d="M184.881 50.1012C184.927 50.1012 184.927 50.1012 184.974 50.1011C185.452 50.1016 185.92 50.117 186.392 50.1933C186.44 50.2008 186.44 50.2008 186.488 50.2085C187.47 50.3684 188.41 50.6577 189.303 51.1003C189.341 51.1192 189.341 51.1192 189.38 51.1385C190.278 51.5832 191.063 52.184 191.771 52.8894C191.786 52.9037 191.8 52.918 191.815 52.9328C192.913 54.0259 193.736 55.5496 193.749 57.1266C193.741 58.0605 193.416 58.8678 192.778 59.5464C192.761 59.5652 192.744 59.5841 192.726 59.6035C191.715 60.6841 189.998 60.9566 188.6 61.0131C187.4 61.0507 186.208 60.911 185.064 60.5384C185.04 60.5304 185.015 60.5225 184.99 60.5143C184.004 60.194 183.071 59.6923 182.267 59.0362C182.253 59.0245 182.239 59.0128 182.224 59.0008C182.031 58.8429 181.846 58.6767 181.663 58.5065C181.645 58.4894 181.626 58.4722 181.607 58.4545C181.48 58.3341 181.364 58.2063 181.25 58.0726C181.225 58.0439 181.2 58.0153 181.175 57.9867C180.168 56.8203 179.524 55.3235 179.611 53.7645C179.682 52.8952 180.025 52.173 180.6 51.5254C180.617 51.5065 180.634 51.4876 180.651 51.4681C181.465 50.6049 182.743 50.2645 183.878 50.1366C183.901 50.1339 183.924 50.1312 183.947 50.1284C184.257 50.0969 184.57 50.1014 184.881 50.1012Z" fill="white"/>
<path d="M92.2227 64.3081C93.1644 64.3081 94.1061 64.3081 95.0763 64.3081C95.4622 65.2114 95.4622 65.2114 95.6099 65.5755C95.6572 65.6923 95.7048 65.809 95.7524 65.9256C95.762 65.9493 95.7717 65.9729 95.7816 65.9972C95.8792 66.2365 95.9783 66.4751 96.0776 66.7137C96.1127 66.7981 96.1478 66.8826 96.183 66.967C96.1918 66.9881 96.2006 67.0093 96.2096 67.0311C96.3149 67.2841 96.4196 67.5374 96.5243 67.7907C96.5342 67.8147 96.5441 67.8387 96.5544 67.8634C96.728 68.2834 96.901 68.7037 97.074 69.124C97.292 69.6537 97.5107 70.183 97.7296 70.7123C97.8193 70.9293 97.909 71.1464 97.9988 71.3635C98.0488 71.4846 98.0989 71.6057 98.1489 71.7268C98.1689 71.7752 98.189 71.8236 98.209 71.872C98.2189 71.896 98.2288 71.92 98.239 71.9447C98.8094 73.3246 98.8094 73.3246 98.8394 73.3972C98.8594 73.4457 98.8794 73.4941 98.8995 73.5426C98.9492 73.6629 98.9989 73.7831 99.0486 73.9034C99.1426 74.1307 99.2365 74.3581 99.3306 74.5854C99.3751 74.6931 99.4196 74.8007 99.4641 74.9084C99.4854 74.9598 99.5066 75.0112 99.5279 75.0626C99.5574 75.1338 99.5868 75.205 99.6163 75.2762C99.6293 75.3077 99.6293 75.3077 99.6426 75.3399C99.6845 75.4414 99.7261 75.543 99.7665 75.6451C99.9699 75.179 100.16 74.7078 100.35 74.236C100.48 73.9125 100.612 73.5893 100.743 73.2661C100.77 73.2006 100.796 73.135 100.823 73.0694C100.877 72.9362 100.931 72.803 100.985 72.6698C101.064 72.4753 101.143 72.2808 101.222 72.0863C101.235 72.0548 101.248 72.0233 101.261 71.9909C101.3 71.8958 101.338 71.8006 101.377 71.7055C101.521 71.3506 101.665 70.9958 101.809 70.6409C102.168 69.759 102.168 69.759 102.525 68.8766C102.684 68.483 102.843 68.0899 103.003 67.6968C103.015 67.6679 103.027 67.639 103.039 67.6092C103.051 67.5801 103.063 67.551 103.075 67.5211C103.243 67.1087 103.41 66.6963 103.578 66.2839C103.604 66.2188 103.631 66.1537 103.657 66.0886C103.789 65.7643 103.921 65.4399 104.051 65.1151C104.071 65.0655 104.091 65.0159 104.111 64.9663C104.147 64.8761 104.184 64.7859 104.22 64.6956C104.235 64.6561 104.251 64.6165 104.267 64.577C104.287 64.5264 104.287 64.5264 104.308 64.4748C104.344 64.3931 104.344 64.3931 104.4 64.3081C105.342 64.3081 106.284 64.3081 107.254 64.3081C107.254 69.0314 107.254 73.7547 107.254 78.6211C106.461 78.6211 105.669 78.6211 104.852 78.6211C104.843 75.1605 104.834 71.6998 104.824 68.1344C104.619 68.6675 104.414 69.2006 104.202 69.7499C103.969 70.3557 103.736 70.9615 103.503 71.5673C103.484 71.6173 103.484 71.6173 103.464 71.6683C103.438 71.7356 103.412 71.803 103.386 71.8703C103.322 72.0385 103.257 72.2066 103.192 72.3748C103.075 72.679 102.958 72.9833 102.841 73.2875C102.59 73.9391 102.34 74.5907 102.09 75.2427C101.89 75.7647 101.69 76.2866 101.489 76.8084C101.463 76.8754 101.438 76.9423 101.412 77.0092C101.205 77.5476 100.994 78.0843 100.784 78.6211C100.094 78.6211 99.4037 78.6211 98.6928 78.6211C98.615 78.4651 98.5461 78.315 98.4858 78.1527C98.4771 78.1298 98.4685 78.1068 98.4596 78.0832C98.441 78.0339 98.4225 77.9845 98.404 77.9351C98.3537 77.8009 98.303 77.6669 98.2523 77.5328C98.2419 77.5052 98.2315 77.4777 98.2208 77.4493C98.1179 77.1773 98.0128 76.9062 97.907 76.6354C97.8693 76.5388 97.8317 76.4422 97.794 76.3456C97.7845 76.3212 97.7749 76.2967 97.7651 76.2716C97.6469 75.9685 97.5298 75.6651 97.4126 75.3617C97.4013 75.3327 97.3901 75.3037 97.3786 75.2737C97.3215 75.126 97.2644 74.9782 97.2073 74.8304C97.1062 74.5687 97.0051 74.307 96.9039 74.0453C96.848 73.9007 96.7921 73.7561 96.7362 73.6116C96.7139 73.5537 96.6915 73.4958 96.6691 73.438C96.4454 72.8593 96.2218 72.2806 95.9981 71.702C95.987 71.6733 95.976 71.6447 95.9645 71.6152C95.9422 71.5573 95.9198 71.4994 95.8974 71.4415C95.8416 71.2971 95.7858 71.1528 95.73 71.0084C95.628 70.7446 95.5261 70.4808 95.4241 70.2171C95.3776 70.0967 95.3311 69.9763 95.2846 69.8559C95.2631 69.8003 95.2416 69.7446 95.2201 69.689C95.0125 69.1517 94.8042 68.6147 94.596 68.0777C94.5867 71.557 94.5773 75.0363 94.5677 78.6211C93.7939 78.6211 93.02 78.6211 92.2227 78.6211C92.2227 73.8978 92.2227 69.1745 92.2227 64.3081Z" fill="white"/>
<path d="M85.3278 64.0531C85.3704 64.0606 85.3704 64.0606 85.4139 64.0683C87.0751 64.3696 88.5589 65.2052 89.549 66.5955C89.9344 67.1533 90.1941 67.7588 90.4037 68.4005C90.4138 68.4313 90.4138 68.4313 90.424 68.4626C90.4467 68.55 90.4573 68.6402 90.4701 68.7296C89.6496 68.7296 88.8291 68.7296 87.9837 68.7296C87.8439 68.463 87.8439 68.463 87.7012 68.1911C87.0995 67.2253 86.1778 66.5631 85.0702 66.3066C84.3067 66.1441 83.4606 66.1381 82.7002 66.3205C82.6783 66.3256 82.6564 66.3308 82.6338 66.3361C81.9274 66.5082 81.2785 66.877 80.7524 67.3762C80.6942 67.4258 80.6942 67.4258 80.6094 67.4542C80.5901 67.4917 80.5714 67.5296 80.5529 67.5675C80.5127 67.6121 80.4713 67.6557 80.4293 67.6986C80.1217 68.0335 79.8901 68.4287 79.7053 68.843C79.6903 68.8766 79.6753 68.9102 79.6598 68.9448C79.3387 69.7087 79.2122 70.5265 79.2162 71.3513C79.2162 71.3746 79.2163 71.3978 79.2163 71.4218C79.2222 72.8343 79.592 74.1877 80.5529 75.2484C80.5703 75.2682 80.5877 75.288 80.6057 75.3084C80.9138 75.6395 81.3095 75.8975 81.7113 76.0987C81.731 76.1086 81.7507 76.1184 81.771 76.1286C82.1064 76.2941 82.4508 76.4058 82.8132 76.4955C82.8417 76.5026 82.8417 76.5026 82.8707 76.5099C84.0796 76.8045 85.4719 76.6422 86.5445 75.9995C86.8405 75.8159 87.1096 75.6015 87.3621 75.3618C87.3871 75.3385 87.4121 75.3153 87.4378 75.2913C88.2312 74.5293 88.5363 73.5253 88.7466 72.4708C87.003 72.4708 85.2595 72.4708 83.4631 72.4708C83.4631 71.8909 83.4631 71.311 83.4631 70.7136C85.8686 70.7136 88.2742 70.7136 90.7526 70.7136C90.7526 74.2736 90.7526 74.2736 89.679 75.8436C89.6679 75.8601 89.6568 75.8767 89.6454 75.8938C89.257 76.4729 88.77 76.9891 88.2097 77.4024C88.1856 77.4205 88.1856 77.4205 88.1609 77.439C86.5591 78.6367 84.5463 78.9802 82.5913 78.6986C80.8742 78.428 79.2489 77.5495 78.2107 76.1289C77.2059 74.7358 76.761 73.1058 76.7598 71.3938C76.7598 71.3676 76.7598 71.3414 76.7598 71.3144C76.7619 69.4424 77.2956 67.5234 78.5969 66.1329C78.6529 66.0729 78.706 66.0114 78.7588 65.9485C78.8754 65.8147 79.0055 65.6987 79.1402 65.5836C79.1627 65.5643 79.1627 65.5643 79.1857 65.5446C80.1181 64.7517 81.2737 64.2555 82.4742 64.0531C82.4976 64.0488 82.5209 64.0445 82.545 64.0401C83.4304 63.8825 84.4437 63.8928 85.3278 64.0531Z" fill="white"/>
<path d="M51.8477 64.0811C57.8475 64.0811 57.8475 64.0811 58.4026 64.1873C58.428 64.1921 58.4533 64.1969 58.4795 64.2019C59.6098 64.4247 60.634 64.9589 61.2988 65.929C62.0168 67.0138 62.1681 68.3632 61.9196 69.6258C61.7905 70.2255 61.5206 70.8179 61.115 71.2801C61.0959 71.3029 61.0769 71.3257 61.0572 71.3493C60.3881 72.1305 59.4432 72.494 58.4653 72.7099C58.402 72.7233 58.402 72.7233 58.3461 72.7539C58.3573 72.7711 58.3685 72.7883 58.38 72.8061C58.7095 73.3123 59.0374 73.8194 59.362 74.3289C59.4939 74.5358 59.6269 74.7419 59.7606 74.9476C59.9031 75.1671 60.0437 75.3879 60.1842 75.6086C60.3006 75.7913 60.4177 75.9734 60.5358 76.155C60.6931 76.3971 60.8485 76.6405 61.0036 76.884C61.12 77.0667 61.2371 77.2488 61.3551 77.4304C61.4978 77.6501 61.6396 77.8704 61.7807 78.0911C61.7999 78.1211 61.8191 78.151 61.8389 78.1819C61.8661 78.2245 61.8661 78.2245 61.8938 78.268C61.9098 78.293 61.9258 78.318 61.9423 78.3438C61.9796 78.4042 62.0154 78.4648 62.0504 78.5265C62.068 78.5576 62.0857 78.5887 62.1038 78.6208C61.7618 78.638 61.4198 78.651 61.0774 78.659C60.9183 78.6628 60.7595 78.668 60.6006 78.6764C59.5411 78.731 59.5411 78.731 59.319 78.5505C59.1587 78.3899 59.0754 78.1862 59.0018 77.9742C58.9513 77.8406 58.8764 77.7284 58.7964 77.6111C58.769 77.5681 58.7418 77.5251 58.7147 77.4819C58.694 77.4491 58.694 77.4491 58.6728 77.4156C58.5887 77.2821 58.5054 77.1481 58.422 77.0141C58.4042 76.9855 58.3864 76.9569 58.368 76.9274C58.3317 76.8691 58.2954 76.8108 58.2591 76.7525C58.188 76.6382 58.1169 76.524 58.0457 76.4098C58.0104 76.3532 57.9751 76.2965 57.9399 76.2399C57.852 76.0989 57.7641 75.9578 57.676 75.8169C57.4914 75.5211 57.3079 75.2248 57.1259 74.9274C56.9832 74.6944 56.8395 74.4622 56.6935 74.2313C56.5602 74.0204 56.4282 73.8087 56.2965 73.5968C56.2156 73.4666 56.1345 73.3365 56.0525 73.207C56.0392 73.1859 56.0259 73.1648 56.0122 73.143C55.9877 73.1043 55.9632 73.0657 55.9386 73.0272C55.8597 72.9019 55.8597 72.9019 55.8597 72.8389C55.3096 72.8389 54.7595 72.8389 54.1927 72.8389C54.1927 74.7469 54.1927 76.655 54.1927 78.6208C53.4189 78.6208 52.645 78.6208 51.8477 78.6208C51.8477 73.8227 51.8477 69.0246 51.8477 64.0811ZM54.1927 66.1217C54.1927 67.7772 54.1927 69.4327 54.1927 71.1384C54.67 71.1401 55.1473 71.1419 55.639 71.1437C55.8632 71.1448 55.8632 71.1448 56.092 71.146C56.2285 71.1463 56.2285 71.1463 56.3651 71.1465C56.4249 71.1466 56.4847 71.1469 56.5445 71.1473C57.3991 71.1533 58.3265 71.0685 58.973 70.4422C59.4628 69.9472 59.597 69.2536 59.5962 68.5793C59.5879 67.8843 59.3783 67.243 58.877 66.749C58.3372 66.2483 57.5397 66.1158 56.8293 66.1185C56.7856 66.1185 56.7856 66.1185 56.741 66.1185C56.6476 66.1185 56.5542 66.1187 56.4608 66.119C56.4027 66.119 56.3447 66.119 56.2866 66.119C56.0725 66.1192 55.8584 66.1196 55.6443 66.1199C54.9258 66.1208 54.9258 66.1208 54.1927 66.1217Z" fill="white"/>
<path d="M144.688 63.9308C144.713 63.9308 144.737 63.9309 144.763 63.9309C146.502 63.9369 148.333 64.4195 149.596 65.6849C149.627 65.7172 149.659 65.7495 149.69 65.7819C149.758 65.8497 149.825 65.9171 149.894 65.9825C150.675 66.7286 151.255 67.8519 151.499 68.8996C151.499 68.937 151.499 68.9744 151.499 69.013C150.669 69.013 149.839 69.013 148.984 69.013C148.872 68.7604 148.872 68.7604 148.758 68.5028C148.708 68.4106 148.66 68.3232 148.604 68.2353C148.591 68.2142 148.578 68.1932 148.565 68.1715C148.453 67.9959 148.331 67.8364 148.193 67.6809C148.162 67.6448 148.162 67.6448 148.13 67.608C147.739 67.1581 147.265 66.8189 146.724 66.5755C146.691 66.5604 146.659 66.5454 146.626 66.5299C145.537 66.0542 144.178 66.0338 143.067 66.4409C142.072 66.8417 141.306 67.5487 140.819 68.5028C140.809 68.5217 140.799 68.5405 140.789 68.56C140.348 69.4224 140.184 70.3783 140.188 71.3406C140.188 71.3766 140.188 71.3766 140.188 71.4133C140.193 72.8447 140.602 74.2098 141.581 75.2767C141.601 75.2981 141.62 75.3195 141.64 75.3415C142.339 76.0799 143.398 76.4865 144.399 76.5269C145.766 76.555 146.986 76.1919 147.995 75.2483C148.436 74.818 148.744 74.2806 148.984 73.7178C149.814 73.7178 150.644 73.7178 151.499 73.7178C151.285 74.787 150.745 75.7677 150.029 76.5804C150.01 76.6022 150.01 76.6022 149.991 76.6245C149.28 77.4342 148.36 78.0174 147.345 78.366C147.322 78.3739 147.299 78.3818 147.276 78.3899C145.754 78.9038 143.964 78.9167 142.429 78.451C142.407 78.4444 142.385 78.4377 142.362 78.4308C141.499 78.1623 140.699 77.7073 140.035 77.0925C139.978 77.0405 139.92 76.9911 139.861 76.9418C139.198 76.3562 138.7 75.5496 138.36 74.7382C138.351 74.7162 138.342 74.6943 138.333 74.6718C138.082 74.0671 137.917 73.4303 137.824 72.7825C137.819 72.7537 137.815 72.7249 137.811 72.6952C137.518 70.6048 137.877 68.3039 139.146 66.5794C139.314 66.3583 139.497 66.1521 139.688 65.952C139.711 65.9281 139.711 65.9281 139.734 65.9037C139.966 65.6601 140.208 65.4424 140.48 65.2434C140.509 65.2216 140.539 65.1998 140.569 65.1774C141.141 64.769 141.76 64.4632 142.429 64.2514C142.45 64.2447 142.471 64.238 142.493 64.231C142.741 64.1543 142.99 64.0956 143.245 64.0477C143.268 64.0433 143.291 64.0389 143.314 64.0344C143.769 63.9536 144.227 63.9288 144.688 63.9308Z" fill="white"/>
<path d="M68.5235 64.3047C68.5614 64.3048 68.5614 64.3048 68.6 64.305C68.6265 64.305 68.6529 64.305 68.6802 64.305C68.7681 64.305 68.856 64.3052 68.9439 64.3054C69.0047 64.3055 69.0654 64.3055 69.1262 64.3056C69.2865 64.3057 69.4468 64.306 69.6071 64.3063C69.7705 64.3066 69.934 64.3067 70.0974 64.3068C70.4183 64.3071 70.7393 64.3076 71.0602 64.3082C71.1851 64.6187 71.3089 64.9293 71.4232 65.244C71.4349 65.2759 71.4466 65.3079 71.4586 65.3409C71.4833 65.4084 71.508 65.4759 71.5326 65.5434C71.5913 65.7044 71.6503 65.8653 71.7092 66.0263C71.7224 66.0622 71.7356 66.0982 71.7488 66.1342C71.8647 66.4507 71.9819 66.7667 72.1003 67.0822C72.1342 67.1726 72.1681 67.263 72.2019 67.3534C72.2102 67.3755 72.2185 67.3976 72.2271 67.4204C72.3261 67.6848 72.4242 67.9495 72.5223 68.2142C72.5411 68.2649 72.5599 68.3156 72.5787 68.3663C72.6076 68.4442 72.6364 68.522 72.6653 68.5998C72.7829 68.9171 72.9007 69.2344 73.0185 69.5516C73.0412 69.6127 73.0639 69.6738 73.0866 69.7349C73.1323 69.858 73.1781 69.9811 73.2238 70.1042C73.3249 70.3765 73.4261 70.6488 73.5272 70.9211C73.5608 71.0115 73.5944 71.1019 73.6279 71.1924C73.7278 71.4613 73.8277 71.7302 73.9276 71.9992C74.1772 72.6713 74.4269 73.3435 74.6767 74.0155C74.8606 74.5102 75.0444 75.0048 75.2281 75.4995C75.261 75.5881 75.2939 75.6766 75.3268 75.7652C75.4281 76.0378 75.5293 76.3104 75.6304 76.5831C75.6776 76.7105 75.7249 76.8379 75.7722 76.9653C75.7951 77.0272 75.8181 77.089 75.841 77.1509C75.9477 77.4386 76.0545 77.7263 76.1639 78.013C76.1715 78.0329 76.1791 78.0527 76.1869 78.0732C76.2206 78.1617 76.2546 78.2501 76.2888 78.3384C76.3 78.3677 76.3113 78.3971 76.3228 78.4272C76.3324 78.452 76.342 78.4768 76.3519 78.5024C76.3719 78.5645 76.3719 78.5645 76.3719 78.6496C75.5328 78.6496 74.6937 78.6496 73.8291 78.6496C73.7411 78.397 73.6531 78.1445 73.5624 77.8843C73.3425 77.2536 73.1215 76.6233 72.8986 75.9936C72.8891 75.9666 72.8796 75.9397 72.8697 75.9119C72.8521 75.862 72.8344 75.8121 72.8167 75.7622C72.8051 75.7295 72.8051 75.7295 72.7933 75.6961C72.7866 75.6773 72.78 75.6584 72.7731 75.639C72.7573 75.594 72.7422 75.5488 72.7272 75.5035C70.7226 75.5035 68.7179 75.5035 66.6526 75.5035C66.4941 75.9618 66.3356 76.4201 66.1723 76.8923C66.0855 77.1398 65.9986 77.3873 65.9109 77.6345C65.8911 77.6904 65.8714 77.7462 65.8516 77.8021C65.7517 78.0847 65.6512 78.3672 65.5507 78.6496C64.7115 78.6496 63.8724 78.6496 63.0078 78.6496C63.0307 78.5349 63.0583 78.4398 63.0986 78.3312C63.105 78.314 63.1114 78.2968 63.1179 78.279C63.1391 78.2219 63.1603 78.1649 63.1816 78.1078C63.1967 78.0673 63.2117 78.0268 63.2267 77.9863C63.2671 77.8775 63.3076 77.7687 63.3481 77.6599C63.3905 77.5459 63.4329 77.4318 63.4752 77.3177C63.5735 77.053 63.6721 76.7884 63.7707 76.5239C63.7832 76.4902 63.7957 76.4566 63.8087 76.4219C63.9305 76.095 64.0527 75.7683 64.175 75.4416C64.3264 75.0375 64.4776 74.6333 64.6288 74.229C64.6453 74.1847 64.6619 74.1404 64.6785 74.0961C64.9165 73.4597 65.1538 72.823 65.3903 72.186C65.6158 71.5785 65.8426 70.9715 66.0697 70.3645C66.2929 69.7679 66.5156 69.171 66.7373 68.5738C67.0019 67.8613 67.2677 67.1493 67.534 66.4376C67.5579 66.3737 67.5818 66.3098 67.6057 66.2459C67.6214 66.204 67.6371 66.162 67.6528 66.12C67.7593 65.8355 67.8655 65.5508 67.9715 65.2661C68.007 65.1708 68.0425 65.0754 68.078 64.9801C68.1 64.9212 68.1219 64.8622 68.1438 64.8033C68.1732 64.7239 68.2028 64.6445 68.2324 64.5652C68.2452 64.5305 68.2452 64.5305 68.2583 64.4951C68.3255 64.3152 68.33 64.305 68.5235 64.3047ZM69.6757 66.9157C69.6643 66.949 69.6528 66.9823 69.641 67.0165C69.4377 67.6055 69.2338 68.1943 69.0241 68.781C68.8481 69.2737 68.6736 69.7669 68.4997 70.2603C68.4785 70.3203 68.4573 70.3804 68.4362 70.4404C68.3174 70.7773 68.1986 71.1143 68.0799 71.4512C68.0174 71.6288 67.9548 71.8063 67.8922 71.9837C67.8778 72.0247 67.8778 72.0247 67.8631 72.0665C67.7134 72.4907 67.562 72.9142 67.4085 73.337C67.3977 73.367 67.3977 73.367 67.3866 73.3977C67.3672 73.451 67.3479 73.5043 67.3285 73.5576C67.3009 73.6241 67.3009 73.6241 67.3024 73.6613C68.8781 73.6613 70.4539 73.6613 72.0773 73.6613C71.8979 73.1394 71.7181 72.6178 71.5352 72.0971C71.5179 72.0478 71.5179 72.0478 71.5003 71.9975C71.3441 71.5525 71.1869 71.1078 71.0283 70.6637C70.8553 70.1788 70.6839 69.6934 70.5128 69.2079C70.5058 69.1883 70.4989 69.1686 70.4918 69.1483C70.4294 68.9715 70.3671 68.7947 70.3048 68.618C70.1712 68.2389 70.0374 67.8598 69.9035 67.4808C69.883 67.4225 69.8624 67.3641 69.8418 67.3058C69.7958 67.1758 69.7499 67.0458 69.704 66.9157C69.6947 66.9157 69.6854 66.9157 69.6757 66.9157Z" fill="white"/>
<path d="M185.637 64.3047C185.675 64.3048 185.675 64.3048 185.713 64.305C185.74 64.305 185.766 64.305 185.793 64.305C185.881 64.305 185.969 64.3052 186.057 64.3054C186.118 64.3055 186.179 64.3055 186.24 64.3056C186.4 64.3057 186.56 64.306 186.72 64.3063C186.884 64.3066 187.047 64.3067 187.211 64.3068C187.532 64.3071 187.853 64.3076 188.173 64.3082C188.298 64.6187 188.422 64.9293 188.536 65.244C188.548 65.2759 188.56 65.3079 188.572 65.3409C188.597 65.4084 188.621 65.4759 188.646 65.5434C188.705 65.7044 188.764 65.8653 188.823 66.0263C188.836 66.0622 188.849 66.0982 188.862 66.1342C188.978 66.4507 189.095 66.7667 189.214 67.0822C189.247 67.1726 189.281 67.263 189.315 67.3534C189.324 67.3755 189.332 67.3976 189.34 67.4204C189.439 67.6848 189.538 67.9495 189.636 68.2142C189.654 68.2649 189.673 68.3156 189.692 68.3663C189.721 68.4442 189.75 68.522 189.779 68.5998C189.896 68.9171 190.014 69.2344 190.132 69.5516C190.155 69.6127 190.177 69.6738 190.2 69.7349C190.246 69.858 190.291 69.9811 190.337 70.1042C190.438 70.3765 190.539 70.6488 190.64 70.9211C190.674 71.0115 190.708 71.1019 190.741 71.1924C190.841 71.4613 190.941 71.7302 191.041 71.9992C191.29 72.6713 191.54 73.3435 191.79 74.0155C191.974 74.5102 192.158 75.0048 192.341 75.4995C192.374 75.5881 192.407 75.6766 192.44 75.7652C192.541 76.0378 192.643 76.3104 192.744 76.5831C192.791 76.7105 192.838 76.8379 192.885 76.9653C192.908 77.0272 192.931 77.089 192.954 77.1509C193.061 77.4389 193.168 77.7268 193.277 78.014C193.285 78.0339 193.292 78.0539 193.3 78.0744C193.334 78.1633 193.368 78.2522 193.402 78.3409C193.413 78.3703 193.425 78.3997 193.436 78.43C193.446 78.455 193.455 78.4799 193.465 78.5056C193.485 78.5645 193.485 78.5645 193.485 78.6212C192.646 78.6212 191.807 78.6212 190.942 78.6212C190.585 77.6446 190.585 77.6446 190.471 77.3142C190.458 77.2766 190.445 77.2389 190.432 77.2013C190.399 77.1052 190.365 77.009 190.332 76.9129C190.292 76.7961 190.251 76.6794 190.21 76.5627C190.179 76.4719 190.147 76.3811 190.116 76.2904C190.025 76.0278 189.933 75.7657 189.84 75.5035C187.836 75.5035 185.831 75.5035 183.766 75.5035C183.607 75.9618 183.449 76.4201 183.286 76.8923C183.123 77.3568 183.123 77.3568 183.052 77.5581C183.023 77.6402 182.994 77.7224 182.965 77.8046C182.946 77.8591 182.926 77.9135 182.907 77.968C182.899 77.9915 182.891 78.015 182.882 78.0392C182.813 78.2348 182.738 78.4273 182.664 78.6212C181.825 78.6212 180.986 78.6212 180.121 78.6212C180.216 78.3024 180.216 78.3024 180.276 78.1454C180.285 78.1197 180.285 78.1197 180.295 78.0934C180.316 78.0373 180.338 77.9812 180.359 77.9252C180.374 77.8851 180.389 77.845 180.404 77.8049C180.436 77.7201 180.468 77.6353 180.5 77.5505C180.576 77.3495 180.652 77.1484 180.728 76.9474C180.753 76.8807 180.778 76.8141 180.803 76.7474C180.925 76.4247 181.045 76.1016 181.165 75.7781C181.355 75.2643 181.546 74.7513 181.738 74.2383C181.982 73.588 182.225 72.9375 182.466 72.2866C182.704 71.6456 182.943 71.005 183.183 70.3645C183.406 69.7679 183.629 69.171 183.851 68.5738C184.115 67.8613 184.381 67.1493 184.647 66.4376C184.671 66.3737 184.695 66.3098 184.719 66.2459C184.735 66.204 184.75 66.162 184.766 66.12C184.873 65.8355 184.979 65.5508 185.085 65.2661C185.12 65.1708 185.156 65.0754 185.191 64.9801C185.213 64.9212 185.235 64.8622 185.257 64.8033C185.287 64.7239 185.316 64.6445 185.346 64.5652C185.358 64.5305 185.358 64.5305 185.372 64.4951C185.439 64.3152 185.443 64.305 185.637 64.3047ZM186.789 66.9157C186.778 66.949 186.766 66.9823 186.754 67.0165C186.551 67.6055 186.347 68.1943 186.137 68.781C185.961 69.2737 185.787 69.7669 185.613 70.2603C185.592 70.3203 185.571 70.3804 185.549 70.4404C185.431 70.7773 185.312 71.1143 185.193 71.4512C185.131 71.6288 185.068 71.8063 185.005 71.9837C184.991 72.0247 184.991 72.0247 184.976 72.0665C184.827 72.4907 184.675 72.9142 184.522 73.337C184.511 73.367 184.511 73.367 184.5 73.3977C184.481 73.451 184.461 73.5043 184.442 73.5576C184.414 73.6241 184.414 73.6241 184.416 73.6613C185.991 73.6613 187.567 73.6613 189.191 73.6613C189.011 73.1394 188.831 72.6178 188.648 72.0971C188.631 72.0478 188.631 72.0478 188.614 71.9975C188.457 71.5525 188.3 71.1078 188.142 70.6637C187.969 70.1788 187.797 69.6934 187.626 69.2079C187.619 69.1883 187.612 69.1686 187.605 69.1483C187.543 68.9715 187.48 68.7947 187.418 68.618C187.284 68.2389 187.151 67.8598 187.017 67.4808C186.996 67.4225 186.976 67.3641 186.955 67.3058C186.909 67.1758 186.863 67.0458 186.817 66.9157C186.808 66.9157 186.799 66.9157 186.789 66.9157Z" fill="white"/>
<path d="M114.465 64.3047C114.503 64.3048 114.503 64.3048 114.541 64.305C114.568 64.305 114.594 64.305 114.622 64.305C114.71 64.305 114.797 64.3052 114.885 64.3054C114.946 64.3055 115.007 64.3055 115.068 64.3056C115.228 64.3057 115.388 64.306 115.549 64.3063C115.712 64.3066 115.875 64.3067 116.039 64.3068C116.36 64.3071 116.681 64.3076 117.002 64.3082C117.127 64.6187 117.25 64.9293 117.365 65.244C117.376 65.2759 117.388 65.3079 117.4 65.3409C117.425 65.4084 117.449 65.4759 117.474 65.5434C117.533 65.7044 117.592 65.8653 117.651 66.0263C117.664 66.0622 117.677 66.0982 117.69 66.1342C117.806 66.4507 117.923 66.7667 118.042 67.0822C118.076 67.1726 118.109 67.263 118.143 67.3534C118.152 67.3755 118.16 67.3976 118.168 67.4204C118.268 67.6848 118.366 67.9495 118.464 68.2142C118.483 68.2649 118.501 68.3156 118.52 68.3663C118.549 68.4442 118.578 68.522 118.607 68.5998C118.724 68.9171 118.842 69.2344 118.96 69.5516C118.983 69.6127 119.005 69.6738 119.028 69.7349C119.074 69.858 119.119 69.9811 119.165 70.1042C119.266 70.3765 119.367 70.6488 119.469 70.9211C119.502 71.0115 119.536 71.1019 119.569 71.1924C119.669 71.4613 119.769 71.7302 119.869 71.9992C120.119 72.6713 120.368 73.3435 120.618 74.0155C120.802 74.5102 120.986 75.0048 121.17 75.4995C121.202 75.5881 121.235 75.6766 121.268 75.7652C121.369 76.0378 121.471 76.3104 121.572 76.5831C121.619 76.7105 121.666 76.8379 121.714 76.9653C121.737 77.0272 121.759 77.089 121.782 77.1509C121.889 77.4389 121.996 77.7268 122.105 78.014C122.113 78.0339 122.12 78.0539 122.128 78.0744C122.162 78.1633 122.196 78.2522 122.23 78.3409C122.241 78.3703 122.253 78.3997 122.264 78.43C122.274 78.455 122.283 78.4799 122.293 78.5056C122.313 78.5645 122.313 78.5645 122.313 78.6212C121.474 78.6212 120.635 78.6212 119.77 78.6212C119.414 77.6446 119.414 77.6446 119.299 77.3142C119.286 77.2766 119.273 77.2389 119.26 77.2013C119.227 77.1052 119.193 77.009 119.16 76.9129C119.12 76.7961 119.079 76.6794 119.039 76.5627C119.007 76.4719 118.976 76.3811 118.944 76.2904C118.853 76.0278 118.761 75.7657 118.669 75.5035C116.664 75.5035 114.659 75.5035 112.594 75.5035C112.435 75.9618 112.277 76.4201 112.114 76.8923C111.951 77.3568 111.951 77.3568 111.88 77.5581C111.851 77.6402 111.822 77.7224 111.793 77.8046C111.774 77.8591 111.755 77.9135 111.735 77.968C111.727 77.9915 111.719 78.015 111.71 78.0392C111.641 78.2348 111.566 78.4273 111.492 78.6212C110.653 78.6212 109.814 78.6212 108.949 78.6212C109.045 78.3024 109.045 78.3024 109.104 78.1454C109.114 78.1197 109.114 78.1197 109.123 78.0934C109.145 78.0373 109.166 77.9812 109.187 77.9252C109.202 77.8851 109.217 77.845 109.232 77.8049C109.264 77.7201 109.296 77.6353 109.328 77.5505C109.404 77.3495 109.48 77.1484 109.556 76.9474C109.581 76.8807 109.606 76.8141 109.631 76.7474C109.753 76.4247 109.873 76.1016 109.993 75.7781C110.183 75.2643 110.375 74.7513 110.566 74.2383C110.81 73.588 111.053 72.9375 111.294 72.2866C111.532 71.6456 111.771 71.005 112.011 70.3645C112.234 69.7679 112.457 69.171 112.679 68.5738C112.943 67.8613 113.209 67.1493 113.475 66.4376C113.499 66.3737 113.523 66.3098 113.547 66.2459C113.563 66.204 113.579 66.162 113.594 66.12C113.701 65.8355 113.807 65.5508 113.913 65.2661C113.948 65.1708 113.984 65.0754 114.019 64.9801C114.041 64.9212 114.063 64.8622 114.085 64.8033C114.115 64.7239 114.144 64.6445 114.174 64.5652C114.187 64.5305 114.187 64.5305 114.2 64.4951C114.267 64.3152 114.271 64.305 114.465 64.3047ZM115.617 66.9157C115.606 66.949 115.594 66.9823 115.582 67.0165C115.379 67.6055 115.175 68.1943 114.966 68.781C114.79 69.2737 114.615 69.7669 114.441 70.2603C114.42 70.3203 114.399 70.3804 114.378 70.4404C114.259 70.7773 114.14 71.1143 114.021 71.4512C113.959 71.6288 113.896 71.8063 113.834 71.9837C113.819 72.0247 113.819 72.0247 113.804 72.0665C113.655 72.4907 113.503 72.9142 113.35 73.337C113.339 73.367 113.339 73.367 113.328 73.3977C113.309 73.451 113.289 73.5043 113.27 73.5576C113.242 73.6241 113.242 73.6241 113.244 73.6613C114.82 73.6613 116.395 73.6613 118.019 73.6613C117.839 73.1394 117.659 72.6178 117.477 72.0971C117.459 72.0478 117.459 72.0478 117.442 71.9975C117.285 71.5525 117.128 71.1078 116.97 70.6637C116.797 70.1788 116.625 69.6934 116.454 69.2079C116.447 69.1883 116.44 69.1686 116.433 69.1483C116.371 68.9715 116.309 68.7947 116.246 68.618C116.113 68.2389 115.979 67.8598 115.845 67.4808C115.824 67.4225 115.804 67.3641 115.783 67.3058C115.737 67.1758 115.691 67.0458 115.645 66.9157C115.636 66.9157 115.627 66.9157 115.617 66.9157Z" fill="white"/>
<path d="M160.201 64.0811C166.011 64.0811 166.011 64.0811 166.602 64.1873C166.643 64.1945 166.643 64.1945 166.683 64.2017C167.53 64.3605 168.304 64.7031 168.932 65.2998C168.957 65.3234 168.982 65.347 169.008 65.3713C169.813 66.1439 170.147 67.2668 170.175 68.3608C170.176 68.3914 170.177 68.4221 170.178 68.4537C170.202 69.6479 169.863 70.7979 169.032 71.6725C168.802 71.908 168.563 72.1027 168.282 72.2721C168.263 72.2833 168.244 72.2946 168.225 72.3062C167.609 72.6707 166.92 72.8534 166.216 72.9452C166.178 72.9501 166.178 72.9501 166.139 72.9551C164.97 73.0924 163.658 73.009 162.546 73.009C162.546 74.8702 162.546 76.7315 162.546 78.6491C161.772 78.6491 160.998 78.6491 160.201 78.6491C160.201 73.8417 160.201 69.0342 160.201 64.0811ZM162.546 66.0367C162.546 67.6922 162.546 69.3477 162.546 71.0533C162.991 71.0551 163.436 71.0568 163.894 71.0586C164.033 71.0594 164.172 71.0602 164.315 71.061C164.443 71.0613 164.443 71.0613 164.57 71.0614C164.626 71.0616 164.681 71.0619 164.737 71.0623C165.537 71.0683 166.415 70.9902 167.039 70.4298C167.062 70.4095 167.085 70.3892 167.109 70.3682C167.521 69.9848 167.717 69.4381 167.751 68.8829C167.755 68.7737 167.756 68.6649 167.756 68.5556C167.756 68.5364 167.756 68.5171 167.756 68.4972C167.754 68.1842 167.731 67.8934 167.632 67.5955C167.626 67.5767 167.62 67.5579 167.614 67.5385C167.528 67.2812 167.407 67.0691 167.236 66.8586C167.215 66.8294 167.194 66.8002 167.173 66.7701C166.751 66.3271 166.137 66.1278 165.541 66.065C165.521 66.0627 165.5 66.0604 165.479 66.0579C165.183 66.0282 164.886 66.0331 164.588 66.0339C164.536 66.034 164.483 66.034 164.431 66.034C164.238 66.0342 164.046 66.0346 163.853 66.0349C163.206 66.0358 163.206 66.0358 162.546 66.0367Z" fill="white"/>
<path d="M39.8398 64.0811C45.6495 64.0811 45.6495 64.0811 46.2411 64.1873C46.2812 64.1945 46.2812 64.1945 46.322 64.2017C47.1684 64.3605 47.9426 64.7031 48.5703 65.2998C48.5957 65.3234 48.621 65.347 48.6471 65.3713C49.4512 66.1439 49.786 67.2668 49.8135 68.3608C49.8146 68.3914 49.8158 68.4221 49.8169 68.4537C49.841 69.6479 49.502 70.7979 48.6704 71.6725C48.4412 71.908 48.2018 72.1027 47.9205 72.2721C47.9018 72.2833 47.8832 72.2946 47.8639 72.3062C47.2478 72.6707 46.5591 72.8534 45.8544 72.9452C45.8166 72.9501 45.8166 72.9501 45.778 72.9551C44.6088 73.0924 43.2967 73.009 42.1849 73.009C42.1849 74.8609 42.1849 76.7128 42.1849 78.6208C41.411 78.6208 40.6372 78.6208 39.8398 78.6208C39.8398 73.8227 39.8398 69.0246 39.8398 64.0811ZM42.1849 66.0367C42.1849 67.6922 42.1849 69.3477 42.1849 71.0533C42.6296 71.0551 43.0742 71.0568 43.5323 71.0586C43.6714 71.0594 43.8106 71.0602 43.954 71.061C44.0813 71.0613 44.0813 71.0613 44.2087 71.0614C44.2644 71.0616 44.32 71.0619 44.3757 71.0623C45.1754 71.0683 46.054 70.9902 46.6773 70.4298C46.7005 70.4095 46.7237 70.3892 46.7476 70.3682C47.1592 69.9848 47.3557 69.4381 47.3899 68.8829C47.3932 68.7737 47.3944 68.6649 47.3942 68.5556C47.3942 68.5364 47.3942 68.5171 47.3942 68.4972C47.3931 68.1842 47.3694 67.8934 47.2706 67.5955C47.2646 67.5767 47.2585 67.5579 47.2523 67.5385C47.1669 67.2812 47.0455 67.0691 46.8751 66.8586C46.8541 66.8294 46.8331 66.8002 46.8115 66.7701C46.3892 66.3271 45.7754 66.1278 45.1798 66.065C45.1594 66.0627 45.1389 66.0604 45.1178 66.0579C44.8213 66.0282 44.5244 66.0331 44.2267 66.0339C44.1743 66.034 44.1219 66.034 44.0695 66.034C43.8769 66.0342 43.6843 66.0346 43.4917 66.0349C42.8448 66.0358 42.8448 66.0358 42.1849 66.0367Z" fill="white"/>
<path d="M190.828 64.0811C191.733 64.0811 192.637 64.0811 193.569 64.0811C193.892 64.6972 193.892 64.6972 194.003 64.927C194.03 64.9829 194.057 65.0387 194.084 65.0946C194.098 65.1235 194.112 65.1525 194.127 65.1824C194.206 65.3449 194.285 65.5072 194.364 65.6695C194.377 65.6956 194.377 65.6956 194.39 65.7224C194.544 66.0368 194.699 66.3503 194.855 66.6634C194.867 66.6866 194.879 66.7097 194.89 66.7336C195.006 66.9645 195.121 67.1953 195.236 67.426C195.435 67.8239 195.634 68.2216 195.824 68.624C195.936 68.8608 196.053 69.0951 196.17 69.3294C196.18 69.3492 196.19 69.3691 196.2 69.3895C196.292 69.5735 196.385 69.7575 196.477 69.9414C196.528 70.0434 196.579 70.1454 196.63 70.2474C196.65 70.2859 196.669 70.3244 196.688 70.3629C196.715 70.416 196.742 70.4691 196.768 70.5223C196.783 70.5524 196.798 70.5825 196.814 70.6136C196.846 70.6849 196.846 70.6849 196.846 70.7416C196.865 70.7416 196.884 70.7416 196.903 70.7416C196.913 70.7067 196.913 70.7067 196.924 70.6711C196.965 70.5551 197.017 70.4484 197.072 70.3388C197.084 70.316 197.095 70.2933 197.107 70.2698C197.144 70.1947 197.182 70.1197 197.22 70.0446C197.246 69.9918 197.272 69.9389 197.299 69.8861C197.369 69.7466 197.438 69.6073 197.508 69.4679C197.632 69.2203 197.756 68.9726 197.88 68.7249C197.9 68.6849 197.9 68.6849 197.92 68.644C198.072 68.3416 198.221 68.0388 198.365 67.7329C198.494 67.4601 198.629 67.1905 198.764 66.9206C198.777 66.8953 198.789 66.87 198.802 66.8439C198.908 66.6331 199.013 66.4225 199.118 66.2118C199.21 66.0289 199.301 65.8459 199.393 65.6629C199.411 65.6253 199.411 65.6253 199.431 65.5869C199.585 65.2771 199.739 64.967 199.885 64.653C199.976 64.4574 200.077 64.2726 200.18 64.0811C201.066 64.0811 201.952 64.0811 202.864 64.0811C202.84 64.2007 202.818 64.2682 202.763 64.3727C202.748 64.4014 202.733 64.4301 202.717 64.4597C202.701 64.4903 202.685 64.5208 202.668 64.5522C202.652 64.584 202.635 64.6158 202.618 64.6485C202.568 64.7429 202.519 64.8371 202.469 64.9313C202.433 65 202.397 65.0687 202.361 65.1375C202.338 65.1798 202.316 65.2222 202.294 65.2645C202.196 65.4506 202.099 65.6374 202.003 65.8241C201.883 66.055 201.763 66.2855 201.642 66.5156C201.55 66.6911 201.458 66.8669 201.367 67.0429C201.264 67.2415 201.16 67.4399 201.056 67.638C200.895 67.9446 200.735 68.2519 200.576 68.5592C200.405 68.8882 200.234 69.2172 200.061 69.5454C199.954 69.7498 199.847 69.9545 199.741 70.1593C199.653 70.3288 199.565 70.4981 199.476 70.6672C199.366 70.8758 199.257 71.0849 199.149 71.2942C199.029 71.5251 198.909 71.7556 198.788 71.9856C198.682 72.1875 198.577 72.3898 198.472 72.5922C198.459 72.6173 198.446 72.6424 198.433 72.6682C198.42 72.6934 198.407 72.7187 198.394 72.7447C198.358 72.8125 198.321 72.8768 198.28 72.942C198.093 73.2533 198.053 73.503 198.058 73.862C198.058 73.9143 198.057 73.9665 198.057 74.0188C198.056 74.1592 198.057 74.2995 198.058 74.4398C198.059 74.5871 198.058 74.7343 198.058 74.8816C198.057 75.1597 198.057 75.4379 198.058 75.716C198.06 76.0923 198.059 76.4687 198.059 76.845C198.058 77.437 198.06 78.0289 198.061 78.6208C197.269 78.6208 196.476 78.6208 195.66 78.6208C195.662 78.2444 195.664 77.8679 195.666 77.4801C195.667 77.2405 195.667 77.0009 195.667 76.7613C195.668 76.3817 195.668 76.002 195.671 75.6224C195.673 75.3458 195.674 75.0692 195.673 74.7926C195.673 74.6464 195.673 74.5003 195.675 74.3541C195.683 73.7128 195.684 73.1997 195.311 72.654C195.234 72.5384 195.17 72.4159 195.105 72.2933C195.09 72.266 195.075 72.2387 195.06 72.2105C194.908 71.9321 194.765 71.6488 194.621 71.3661C194.49 71.1089 194.358 70.8525 194.219 70.5998C194.054 70.3015 193.9 69.9977 193.745 69.6938C193.614 69.4366 193.482 69.1802 193.343 68.9276C193.19 68.6522 193.048 68.3721 192.905 68.0915C192.761 67.8098 192.618 67.5286 192.465 67.2519C192.318 66.9849 192.178 66.714 192.04 66.4423C192.028 66.4206 192.017 66.3988 192.006 66.3763C191.962 66.2912 191.919 66.2061 191.875 66.121C191.685 65.7493 191.489 65.381 191.293 65.0128C191.274 64.9785 191.256 64.9441 191.238 64.9098C191.158 64.761 191.079 64.6123 190.999 64.4637C190.975 64.42 190.952 64.3763 190.929 64.3326C190.918 64.3132 190.908 64.2937 190.897 64.2737C190.828 64.1442 190.828 64.1442 190.828 64.0811Z" fill="white"/>
<path d="M121.861 64.0811C125.311 64.0811 128.761 64.0811 132.315 64.0811C132.315 64.7171 132.315 65.3531 132.315 66.0083C130.982 66.0083 129.649 66.0083 128.275 66.0083C128.275 70.1705 128.275 74.3326 128.275 78.6208C127.492 78.6208 126.709 78.6208 125.902 78.6208C125.902 74.4587 125.902 70.2966 125.902 66.0083C124.568 66.0083 123.235 66.0083 121.861 66.0083C121.861 65.3723 121.861 64.7363 121.861 64.0811Z" fill="white"/>
<path d="M171.812 64.0811C172.586 64.0811 173.36 64.0811 174.158 64.0811C174.158 68.2712 174.158 72.4614 174.158 76.7785C175.808 76.7785 177.458 76.7785 179.159 76.7785C179.159 77.3958 179.159 78.0131 179.159 78.6491C176.734 78.6491 174.31 78.6491 171.812 78.6491C171.812 73.8417 171.812 69.0342 171.812 64.0811Z" fill="white"/>
<path d="M133.557 64.0811C134.331 64.0811 135.104 64.0811 135.902 64.0811C135.902 68.8792 135.902 73.6773 135.902 78.6208C135.128 78.6208 134.354 78.6208 133.557 78.6208C133.557 73.8227 133.557 69.0246 133.557 64.0811Z" fill="white"/>
</svg>
