<svg width="250" height="130" viewBox="0 0 250 130" fill="none" xmlns="http://www.w3.org/2000/svg">
<rect width="249.25" height="129.22" rx="10" fill="#19191A"/>
<path d="M65.6251 80.6475C65.5568 80.0704 65.2796 79.6224 64.7936 79.3034C64.3076 78.9845 63.7115 78.825 63.0053 78.825C62.4889 78.825 62.0371 78.9086 61.6498 79.0756C61.2663 79.2427 60.9664 79.4724 60.75 79.7648C60.5374 80.0571 60.431 80.3893 60.431 80.7614C60.431 81.0728 60.5051 81.3405 60.6532 81.5645C60.805 81.7847 60.9987 81.9688 61.2341 82.1169C61.4695 82.2612 61.7163 82.3808 61.9745 82.4757C62.2327 82.5668 62.47 82.6409 62.6864 82.6978L63.871 83.0168C64.1747 83.0965 64.5127 83.2066 64.8848 83.3471C65.2606 83.4876 65.6195 83.6793 65.9612 83.9223C66.3067 84.1615 66.5915 84.4691 66.8155 84.845C67.0395 85.2209 67.1515 85.6822 67.1515 86.2289C67.1515 86.8592 66.9863 87.4287 66.656 87.9375C66.3295 88.4463 65.8511 88.8507 65.2208 89.1506C64.5943 89.4506 63.833 89.6005 62.937 89.6005C62.1017 89.6005 61.3784 89.4657 60.7671 89.1962C60.1596 88.9266 59.6812 88.5507 59.3318 88.0685C58.9863 87.5863 58.7908 87.0263 58.7452 86.3884H60.2032C60.2412 86.8288 60.3893 87.1933 60.6475 87.4819C60.9094 87.7667 61.2398 87.9793 61.6384 88.1198C62.0409 88.2564 62.4738 88.3248 62.937 88.3248C63.4761 88.3248 63.9602 88.2375 64.3893 88.0628C64.8183 87.8844 65.1581 87.6376 65.4087 87.3224C65.6593 87.0035 65.7846 86.6314 65.7846 86.2061C65.7846 85.8189 65.6764 85.5037 65.46 85.2607C65.2436 85.0177 64.9588 84.8203 64.6057 84.6684C64.2526 84.5165 63.871 84.3836 63.4609 84.2697L62.0257 83.8597C61.1145 83.5977 60.3931 83.2237 59.8615 82.7377C59.3299 82.2517 59.0642 81.6157 59.0642 80.8298C59.0642 80.1767 59.2407 79.6072 59.5938 79.1212C59.9507 78.6314 60.4291 78.2517 61.029 77.9821C61.6327 77.7088 62.3067 77.5721 63.0509 77.5721C63.8027 77.5721 64.4709 77.7069 65.0556 77.9764C65.6403 78.2422 66.1036 78.6067 66.4453 79.0699C66.7908 79.5332 66.973 80.059 66.992 80.6475H65.6251ZM79.3152 83.5635C79.3152 84.7937 79.0931 85.8568 78.6489 86.7529C78.2046 87.649 77.5952 88.34 76.8207 88.826C76.0461 89.312 75.1614 89.555 74.1667 89.555C73.1719 89.555 72.2872 89.312 71.5127 88.826C70.7381 88.34 70.1287 87.649 69.6845 86.7529C69.2402 85.8568 69.0181 84.7937 69.0181 83.5635C69.0181 82.3333 69.2402 81.2702 69.6845 80.3742C70.1287 79.4781 70.7381 78.7871 71.5127 78.3011C72.2872 77.8151 73.1719 77.5721 74.1667 77.5721C75.1614 77.5721 76.0461 77.8151 76.8207 78.3011C77.5952 78.7871 78.2046 79.4781 78.6489 80.3742C79.0931 81.2702 79.3152 82.3333 79.3152 83.5635ZM77.9483 83.5635C77.9483 82.5536 77.7794 81.7012 77.4415 81.0063C77.1073 80.3115 76.6536 79.7856 76.0803 79.4287C75.5108 79.0718 74.8729 78.8934 74.1667 78.8934C73.4605 78.8934 72.8207 79.0718 72.2474 79.4287C71.6778 79.7856 71.2241 80.3115 70.8862 81.0063C70.5521 81.7012 70.385 82.5536 70.385 83.5635C70.385 84.5735 70.5521 85.4259 70.8862 86.1207C71.2241 86.8155 71.6778 87.3414 72.2474 87.6983C72.8207 88.0552 73.4605 88.2337 74.1667 88.2337C74.8729 88.2337 75.5108 88.0552 76.0803 87.6983C76.6536 87.3414 77.1073 86.8155 77.4415 86.1207C77.7794 85.4259 77.9483 84.5735 77.9483 83.5635ZM91.076 81.3765H89.6636C89.58 80.9703 89.4339 80.6134 89.225 80.3058C89.02 79.9983 88.7694 79.7401 88.4733 79.5313C88.1809 79.3186 87.8563 79.1592 87.4994 79.0529C87.1425 78.9465 86.7704 78.8934 86.3831 78.8934C85.6769 78.8934 85.0371 79.0718 84.4638 79.4287C83.8942 79.7856 83.4405 80.3115 83.1026 81.0063C82.7685 81.7012 82.6014 82.5536 82.6014 83.5635C82.6014 84.5735 82.7685 85.4259 83.1026 86.1207C83.4405 86.8155 83.8942 87.3414 84.4638 87.6983C85.0371 88.0552 85.6769 88.2337 86.3831 88.2337C86.7704 88.2337 87.1425 88.1805 87.4994 88.0742C87.8563 87.9679 88.1809 87.8103 88.4733 87.6015C88.7694 87.3889 89.02 87.1288 89.225 86.8212C89.4339 86.5099 89.58 86.153 89.6636 85.7505H91.076C90.9697 86.3466 90.7761 86.8801 90.4951 87.3509C90.2141 87.8217 89.8648 88.2223 89.4471 88.5526C89.0295 88.8791 88.5606 89.1278 88.0404 89.2987C87.524 89.4695 86.9716 89.555 86.3831 89.555C85.3883 89.555 84.5036 89.312 83.7291 88.826C82.9545 88.34 82.3451 87.649 81.9009 86.7529C81.4566 85.8568 81.2345 84.7937 81.2345 83.5635C81.2345 82.3333 81.4566 81.2702 81.9009 80.3742C82.3451 79.4781 82.9545 78.7871 83.7291 78.3011C84.5036 77.8151 85.3883 77.5721 86.3831 77.5721C86.9716 77.5721 87.524 77.6575 88.0404 77.8284C88.5606 77.9992 89.0295 78.2498 89.4471 78.5801C89.8648 78.9067 90.2141 79.3053 90.4951 79.7762C90.7761 80.2432 90.9697 80.7766 91.076 81.3765ZM94.7708 77.7315V89.3955H93.3584V77.7315H94.7708ZM98.0812 89.3955H96.6004L100.883 77.7315H102.341L106.624 89.3955H105.143L101.658 79.5768H101.567L98.0812 89.3955ZM98.628 84.8393H104.597V86.0922H98.628V84.8393ZM108.441 89.3955V77.7315H109.853V88.1425H115.275V89.3955H108.441ZM129.946 81.3765C129.821 80.993 129.656 80.6494 129.451 80.3457C129.25 80.0381 129.009 79.7762 128.728 79.5597C128.45 79.3433 128.135 79.1781 127.782 79.0642C127.429 78.9503 127.042 78.8934 126.62 78.8934C125.929 78.8934 125.301 79.0718 124.735 79.4287C124.169 79.7856 123.72 80.3115 123.385 81.0063C123.051 81.7012 122.884 82.5536 122.884 83.5635C122.884 84.5735 123.053 85.4259 123.391 86.1207C123.729 86.8155 124.187 87.3414 124.764 87.6983C125.341 88.0552 125.99 88.2337 126.711 88.2337C127.38 88.2337 127.968 88.0913 128.477 87.8065C128.99 87.518 129.388 87.1117 129.673 86.5877C129.962 86.06 130.106 85.4392 130.106 84.7254L130.539 84.8165H127.03V83.5635H131.473V84.8165C131.473 85.7771 131.268 86.6124 130.858 87.3224C130.451 88.0324 129.889 88.583 129.172 88.9741C128.458 89.3613 127.638 89.555 126.711 89.555C125.679 89.555 124.771 89.312 123.989 88.826C123.211 88.34 122.603 87.649 122.167 86.7529C121.734 85.8568 121.517 84.7937 121.517 83.5635C121.517 82.6409 121.641 81.8113 121.888 81.0747C122.138 80.3343 122.491 79.704 122.947 79.1838C123.402 78.6637 123.942 78.265 124.564 77.9878C125.187 77.7107 125.872 77.5721 126.62 77.5721C127.235 77.5721 127.809 77.6651 128.34 77.8511C128.876 78.0334 129.352 78.2935 129.77 78.6314C130.191 78.9655 130.543 79.3661 130.823 79.8331C131.104 80.2963 131.298 80.8108 131.404 81.3765H129.946ZM134.01 89.3955H132.529L136.812 77.7315H138.27L142.553 89.3955H141.072L137.587 79.5768H137.496L134.01 89.3955ZM134.557 84.8393H140.525V86.0922H134.557V84.8393ZM144.37 77.7315H146.056L150.019 87.4135H150.156L154.12 77.7315H155.806V89.3955H154.485V80.5336H154.371L150.726 89.3955H149.45L145.805 80.5336H145.691V89.3955H144.37V77.7315ZM160.05 77.7315V89.3955H158.638V77.7315H160.05ZM172.131 77.7315V89.3955H170.765L164.409 80.2375H164.295V89.3955H162.882V77.7315H164.249L170.628 86.9124H170.742V77.7315H172.131ZM182.931 81.3765C182.806 80.993 182.641 80.6494 182.436 80.3457C182.234 80.0381 181.993 79.7762 181.712 79.5597C181.435 79.3433 181.12 79.1781 180.767 79.0642C180.414 78.9503 180.027 78.8934 179.605 78.8934C178.914 78.8934 178.286 79.0718 177.72 79.4287C177.154 79.7856 176.704 80.3115 176.37 81.0063C176.036 81.7012 175.869 82.5536 175.869 83.5635C175.869 84.5735 176.038 85.4259 176.376 86.1207C176.714 86.8155 177.171 87.3414 177.748 87.6983C178.326 88.0552 178.975 88.2337 179.696 88.2337C180.364 88.2337 180.953 88.0913 181.462 87.8065C181.974 87.518 182.373 87.1117 182.658 86.5877C182.946 86.06 183.091 85.4392 183.091 84.7254L183.523 84.8165H180.015V83.5635H184.457V84.8165C184.457 85.7771 184.252 86.6124 183.842 87.3224C183.436 88.0324 182.874 88.583 182.157 88.9741C181.443 89.3613 180.623 89.555 179.696 89.555C178.663 89.555 177.756 89.312 176.974 88.826C176.196 88.34 175.588 87.649 175.151 86.7529C174.719 85.8568 174.502 84.7937 174.502 83.5635C174.502 82.6409 174.626 81.8113 174.872 81.0747C175.123 80.3343 175.476 79.704 175.932 79.1838C176.387 78.6637 176.926 78.265 177.549 77.9878C178.172 77.7107 178.857 77.5721 179.605 77.5721C180.22 77.5721 180.794 77.6651 181.325 77.8511C181.86 78.0334 182.337 78.2935 182.755 78.6314C183.176 78.9655 183.527 79.3661 183.808 79.8331C184.089 80.2963 184.283 80.8108 184.389 81.3765H182.931Z" fill="white"/>
<path d="M172.144 58.4105C172.144 57.5044 171.411 56.771 170.505 56.771C169.599 56.771 168.865 57.5044 168.865 58.4105C168.865 59.3165 169.599 60.05 170.505 60.05C171.411 60.05 172.144 59.3165 172.144 58.4105Z" fill="white"/>
<path d="M176.369 58.4105C176.369 57.5044 175.635 56.771 174.729 56.771C173.823 56.771 173.09 57.5044 173.09 58.4105C173.09 59.3165 173.823 60.05 174.729 60.05C175.635 60.05 176.369 59.3165 176.369 58.4105Z" fill="white"/>
<path d="M60.8563 60.9413L70.9617 52.2789H75.0364L63.0711 62.5232L75.7291 73.7959H71.7934L60.8563 64.1244V73.7959H58.0879V44.0503H60.8563V60.9413Z" fill="white"/>
<path d="M97.0899 52.2793V73.7987H94.3215V70.2393C92.0013 72.9813 89.1322 74.3524 85.719 74.3524C82.8308 74.3524 80.2661 73.2977 78.025 71.1884C75.7839 69.0648 74.6621 66.3227 74.6621 62.9599C74.6621 59.9542 75.7311 57.3295 77.8668 55.0884C80.0144 52.8473 82.6606 51.7256 85.7981 51.7256C87.5527 51.7256 89.1274 52.0947 90.5248 52.833C91.9366 53.5592 93.2022 54.6666 94.3215 56.1551V52.2793H97.0899ZM85.8964 54.3358C83.7344 54.3358 81.7881 55.146 80.0623 56.7687C78.3342 58.377 77.4713 60.4671 77.4713 63.039C77.4713 65.3064 78.2742 67.3246 79.885 69.0912C81.4933 70.8577 83.4971 71.7421 85.8964 71.7421C87.8595 71.7421 89.753 71.0039 91.5723 69.5274C93.4059 68.0365 94.3215 65.8961 94.3215 63.0989C94.3215 60.7523 93.5425 58.7078 91.9869 56.9676C90.4433 55.2155 88.4131 54.3382 85.8964 54.3382V54.3358Z" fill="white"/>
<path d="M100.021 44.0503H102.79V56.1355C105.031 53.1945 107.742 51.7252 110.918 51.7252C113.147 51.7252 115.038 52.5042 116.594 54.0598C118.149 55.6154 118.928 58.1009 118.928 61.5165V73.7983H116.16V62.0295C116.16 59.273 115.673 57.3028 114.695 56.1163C113.734 54.9298 112.289 54.3354 110.364 54.3354C108.308 54.3354 106.527 55.1336 105.024 56.7275C103.533 58.3239 102.79 60.4523 102.79 63.1153V73.7959H100.021V44.0503Z" fill="white"/>
<path d="M120.187 52.2793H136.107L123.787 71.4042H135.712V73.7963H119.02L131.342 54.6714H120.187V52.2793Z" fill="white"/>
<path d="M168.832 62.6484C168.832 65.8962 171.466 68.528 174.714 68.528C177.962 68.528 180.594 65.8962 180.594 62.6484H168.832Z" fill="white"/>
<path d="M166.143 70.1268C164.398 68.1278 163.341 65.5127 163.341 62.6484L163.348 52.2626H166.095V62.6484C166.095 63.3339 166.176 63.9979 166.327 64.6355C166.428 64.9207 166.517 65.2131 166.584 65.5127C167.437 67.9288 169.333 69.8487 171.735 70.7308C172.662 71.0711 173.662 71.2581 174.707 71.2581C179.462 71.2581 183.319 67.4015 183.319 62.646H183.326L183.336 52.2603H186.083V62.646C186.083 68.9283 180.989 74.0217 174.707 74.0217C172.981 74.0217 171.349 73.6358 169.884 72.9479C169.149 73.5448 167.583 74.0433 165.747 74.0313C164.381 74.0217 162.624 73.5999 162.238 73.4345C164.7 72.9503 165.819 72.2265 166.143 70.1244V70.1268Z" fill="white"/>
<path d="M151.943 55.201C151.943 54.295 152.677 53.5615 153.583 53.5615C154.489 53.5615 155.222 54.295 155.222 55.201C155.222 56.107 154.489 56.8405 153.583 56.8405C152.677 56.8405 151.943 56.1046 151.943 55.201Z" fill="white"/>
<path d="M147.799 55.201C147.799 54.295 148.532 53.5615 149.438 53.5615C150.344 53.5615 151.078 54.295 151.078 55.201C151.078 56.107 150.344 56.8405 149.438 56.8405C148.532 56.8405 147.799 56.1046 147.799 55.201Z" fill="white"/>
<path d="M155.255 59.439C155.255 62.6868 152.623 65.3186 149.376 65.3186C146.128 65.3186 143.496 62.6868 143.496 59.439H155.255Z" fill="white"/>
<path d="M157.943 66.9173C159.688 64.9183 160.745 62.3033 160.745 59.439L160.738 48.9213H157.991V59.439C157.991 60.1245 157.91 60.7884 157.759 61.426C157.656 61.7112 157.569 62.0036 157.502 62.3033C156.649 64.7169 154.753 66.6392 152.351 67.5213C151.426 67.8617 150.424 68.0486 149.379 68.0486C144.624 68.0486 140.767 64.192 140.767 59.4366H140.76L140.753 48.9189H138.006V59.4366C138.006 65.7188 143.099 70.8123 149.382 70.8123C151.107 70.8123 152.742 70.4264 154.204 69.7384C155.489 70.7811 157.124 71.4067 158.907 71.4067C159.952 71.4067 160.947 71.191 161.85 70.8051C160.103 70.0548 158.703 68.6574 157.946 66.9149L157.943 66.9173Z" fill="white"/>
</svg>
