<svg width="250" height="130" viewBox="0 0 250 130" fill="none" xmlns="http://www.w3.org/2000/svg">
<rect width="249.25" height="129.22" rx="10" fill="#19191A"/>
<path d="M200.004 56.2158C200.623 56.2158 201.038 56.8266 200.789 57.3728L193.186 74.0389C190.572 79.7481 188.167 81.8096 183.159 81.8096H181.728C181.255 81.8096 180.871 81.4404 180.871 80.9851V77.1143C180.871 76.6589 181.255 76.2896 181.728 76.2896H182.708C185.265 76.2896 186.036 75.6496 186.939 73.3281L179.469 57.3804C179.213 56.8343 179.629 56.2173 180.252 56.2173H185.596C185.951 56.2173 186.27 56.4281 186.396 56.7451L190.303 66.4912L193.935 56.762C194.057 56.4343 194.38 56.2158 194.743 56.2158H200.004Z" fill="white"/>
<path d="M178.283 57.022V74.025C178.283 74.4805 177.899 74.8497 177.426 74.8497H173.689C173.344 74.8497 173.03 74.6497 172.897 74.342L172.545 73.5297C170.957 74.7667 168.946 75.4805 166.693 75.4805C160.761 75.4805 156.521 71.3189 156.521 65.522C156.521 59.745 160.761 55.6343 166.693 55.6343C168.978 55.6343 171.019 56.3682 172.621 57.6389L173.075 56.6789C173.214 56.385 173.52 56.1959 173.856 56.1959H177.426C177.899 56.1974 178.283 56.5667 178.283 57.022ZM171.927 65.5374C171.927 63.1159 170.088 61.2974 167.585 61.2974C165.067 61.2974 163.243 63.1159 163.243 65.5374C163.243 67.9728 165.083 69.7912 167.585 69.7912C170.088 69.7912 171.927 67.9728 171.927 65.5374Z" fill="white"/>
<path d="M148.975 52.3517L152.727 49.6456C152.875 49.5379 153.056 49.481 153.242 49.481H154.456C154.93 49.481 155.314 49.8502 155.314 50.3056V74.044C155.314 74.4994 154.93 74.8687 154.456 74.8687H149.49C149.016 74.8687 148.633 74.4994 148.633 74.044V53.0117C148.633 52.7517 148.759 52.5071 148.975 52.3517Z" fill="white"/>
<path d="M132.398 76.0035V80.985C132.398 81.4403 132.014 81.8096 131.541 81.8096H130.326C130.141 81.8096 129.962 81.7527 129.813 81.645C128.835 80.9419 127.123 79.7065 126.059 78.9388C125.843 78.7835 125.717 78.5388 125.717 78.2788V71.625L127.987 73.5203C129.221 74.6435 130.723 75.4835 132.398 76.0035Z" fill="white"/>
<path d="M124.555 50.3052V59.4606L122.284 57.5621C121.051 56.439 119.547 55.6006 117.873 55.079V53.0098C117.873 52.7498 118 52.5052 118.217 52.3498C119.214 51.6329 120.998 50.3436 121.969 49.6436C122.118 49.5359 122.297 49.479 122.483 49.479H123.697C124.171 49.4805 124.555 49.8498 124.555 50.3052Z" fill="white"/>
<path d="M136.592 55.605C131.989 55.605 128.325 57.805 126.672 61.2327L132.434 66.0465C132.416 65.8818 132.408 65.7142 132.408 65.5418C132.408 63.0773 134.155 61.3757 136.592 61.3757C137.883 61.3757 138.981 61.8573 139.728 62.6757C139.798 62.7527 139.866 62.8327 139.93 62.9157C139.942 62.9327 139.957 62.9496 139.97 62.968C139.989 62.9942 140.008 63.0218 140.027 63.0496C140.045 63.0757 140.064 63.1018 140.082 63.128C140.098 63.1511 140.112 63.1757 140.126 63.1988C140.147 63.2311 140.166 63.2618 140.186 63.2942C140.198 63.3142 140.21 63.3357 140.222 63.3573C140.243 63.3942 140.264 63.4296 140.283 63.468C140.293 63.4865 140.302 63.5065 140.312 63.525C140.333 63.565 140.352 63.6065 140.371 63.6465C140.379 63.6635 140.387 63.6818 140.395 63.6988C140.414 63.7435 140.434 63.7865 140.453 63.8311C140.459 63.8465 140.466 63.8635 140.472 63.8788C140.491 63.9265 140.509 63.9742 140.525 64.0235C140.53 64.0373 140.534 64.0527 140.539 64.0665C140.557 64.1188 140.573 64.1696 140.589 64.2235C140.592 64.2357 140.597 64.248 140.6 64.2603C140.616 64.3173 140.63 64.3742 140.645 64.4311C140.646 64.4403 140.65 64.4496 140.651 64.4588C140.666 64.5203 140.679 64.5835 140.691 64.648C140.693 64.6527 140.693 64.6573 140.694 64.6635C140.747 64.9435 140.773 65.2373 140.773 65.5418C140.773 68.0065 139.026 69.708 136.59 69.708C135.298 69.708 134.432 69.1803 133.45 68.4111L121.48 58.4096C119.549 56.645 116.829 55.605 113.674 55.605C107.349 55.605 102.797 59.7618 102.797 65.5435C102.797 68.0557 103.662 70.265 105.162 71.9588C105.168 71.965 105.173 71.9727 105.179 71.9788C105.205 72.008 105.232 72.0373 105.259 72.0665C105.288 72.0973 105.317 72.1296 105.346 72.1603C105.35 72.165 105.354 72.1696 105.358 72.1742C107.302 74.2388 110.224 75.4818 113.674 75.4818C118.258 75.4818 121.928 73.2727 123.587 69.8511L117.832 65.0465C117.848 65.208 117.858 65.3742 117.858 65.545C117.858 68.0096 116.11 69.7111 113.675 69.7111C112.381 69.7111 111.282 69.2311 110.536 68.4127C110.458 68.3265 110.384 68.2373 110.314 68.145C110.309 68.1388 110.304 68.1342 110.301 68.128C110.274 68.0927 110.248 68.0557 110.224 68.0188C110.213 68.0018 110.202 67.9865 110.19 67.9696C110.168 67.9373 110.149 67.9035 110.128 67.8711C110.115 67.8496 110.101 67.828 110.088 67.8065C110.069 67.7757 110.051 67.7435 110.034 67.7111C110.019 67.6865 110.006 67.6618 109.992 67.6373C109.976 67.6065 109.958 67.5742 109.942 67.5418C109.93 67.5157 109.917 67.4896 109.904 67.4635C109.888 67.4311 109.874 67.3988 109.859 67.365C109.848 67.3388 109.835 67.3111 109.824 67.285C109.81 67.2511 109.797 67.2173 109.782 67.1818C109.773 67.1557 109.762 67.128 109.752 67.1018C109.739 67.0665 109.726 67.0296 109.715 66.9927C109.707 66.9665 109.699 66.9403 109.691 66.9142C109.68 66.8757 109.667 66.8357 109.658 66.7973C109.651 66.7727 109.645 66.748 109.638 66.7235C109.627 66.6818 109.618 66.6388 109.608 66.5973C109.603 66.5757 109.598 66.5542 109.594 66.5311C109.584 66.485 109.574 66.4388 109.566 66.3911C109.563 66.3742 109.562 66.3557 109.558 66.3388C109.55 66.2865 109.541 66.2342 109.534 66.1818C109.533 66.1727 109.533 66.1618 109.531 66.1527C109.507 65.9557 109.494 65.7527 109.494 65.545C109.494 63.0788 111.242 61.3788 113.677 61.3788C114.968 61.3788 115.936 61.9665 116.813 62.6788L128.786 72.6757C130.544 74.2835 132.96 75.2911 135.768 75.4557V75.4573C135.813 75.4603 135.861 75.4603 135.906 75.4635C135.96 75.4665 136.016 75.468 136.072 75.4711C136.133 75.4727 136.195 75.4757 136.258 75.4773C136.32 75.4788 136.381 75.4788 136.443 75.4803C136.493 75.4803 136.542 75.4818 136.592 75.4818C142.896 75.4818 147.469 71.3065 147.469 65.5435C147.469 59.7603 142.896 55.605 136.592 55.605Z" fill="white"/>
<path d="M95.1452 52.3517L98.8971 49.6456C99.0459 49.5379 99.2267 49.481 99.4124 49.481H100.627C101.1 49.481 101.484 49.8502 101.484 50.3056V74.044C101.484 74.4994 101.1 74.8687 100.627 74.8687H95.6603C95.1867 74.8687 94.8027 74.4994 94.8027 74.044V53.0117C94.8027 52.7517 94.9291 52.5071 95.1452 52.3517Z" fill="white"/>
<path d="M71.7773 65.5418C71.7773 59.7603 76.3293 55.605 82.6542 55.605C88.9582 55.605 93.5309 59.7603 93.5309 65.5418C93.5309 71.3035 88.9597 75.4803 82.6542 75.4803C76.3293 75.4803 71.7773 71.305 71.7773 65.5418ZM82.6542 69.7096C85.091 69.7096 86.8381 68.0096 86.8381 65.5435C86.8381 63.0927 85.091 61.3773 82.6542 61.3773C80.2173 61.3773 78.4701 63.0773 78.4701 65.5435C78.4701 68.0096 80.2173 69.7096 82.6542 69.7096Z" fill="white"/>
<path d="M60.2889 55.6349C66.2617 55.6349 70.4809 59.7609 70.4809 65.5579C70.4809 71.3548 66.2617 75.4809 60.2889 75.4809C58.0249 75.4809 56.0137 74.7517 54.4377 73.4856L54.0329 74.3764C53.8969 74.6764 53.5881 74.8702 53.2473 74.8702H49.7209C49.2473 74.8702 48.8633 74.5009 48.8633 74.0456V53.0117C48.8633 52.7517 48.9897 52.5071 49.2057 52.3517L52.9577 49.6456C53.1065 49.5379 53.2873 49.481 53.4729 49.481H54.6105C55.084 49.481 55.468 49.8502 55.468 50.3056V56.9194C56.8569 56.0964 58.4953 55.6349 60.2889 55.6349ZM63.7385 65.5579C63.7385 63.1225 61.8985 61.304 59.3961 61.304C56.8937 61.304 55.0537 63.1225 55.0537 65.5579C55.0537 67.9732 56.8937 69.7917 59.3961 69.7917C61.8825 69.7917 63.7385 67.9732 63.7385 65.5579Z" fill="white"/>
</svg>
