<svg width="250" height="130" viewBox="0 0 250 130" fill="none" xmlns="http://www.w3.org/2000/svg">
<rect width="249.25" height="129.22" rx="10" fill="#19191A"/>
<path d="M43.6074 40.6069C44.862 40.6069 45.8796 41.6239 45.8799 42.8784V73.7397C45.8799 74.9945 44.8622 76.0122 43.6074 76.0122H41.7139V47.2954C41.7139 46.0407 40.7315 44.7599 39.5195 44.4351L25.4316 40.6606V40.6069H43.6074Z" fill="white"/>
<circle cx="35.6553" cy="59.7832" r="1.51466" fill="white"/>
<path d="M69.3866 57.3014C68.8936 56.7908 68.3126 56.3947 67.6436 56.113C66.9745 55.8313 66.2175 55.6904 65.3724 55.6904C64.5625 55.6904 63.8406 55.8841 63.2068 56.2714C62.573 56.6588 62.08 57.2046 61.7279 57.9088C61.3758 58.5954 61.1997 59.3965 61.1997 60.3121C61.1997 61.2276 61.3758 62.0375 61.7279 62.7417C62.08 63.4284 62.573 63.9742 63.2068 64.3791C63.8406 64.7664 64.5625 64.9601 65.3724 64.9601C66.2527 64.9601 67.045 64.8193 67.7492 64.5376C68.4535 64.2383 69.0433 63.8069 69.5186 63.2435L71.2088 64.9073C70.575 65.6996 69.7475 66.3158 68.7264 66.7559C67.7228 67.1961 66.5608 67.4162 65.2403 67.4162C63.8494 67.4162 62.617 67.1169 61.543 66.5183C60.4866 65.9197 59.6591 65.0922 59.0605 64.0358C58.4619 62.9618 58.1626 61.7206 58.1626 60.3121C58.1626 58.9036 58.4619 57.6711 59.0605 56.6147C59.6591 55.5408 60.4866 54.7045 61.543 54.1059C62.617 53.4896 63.8494 53.1815 65.2403 53.1815C66.508 53.1815 67.626 53.3752 68.5943 53.7625C69.5803 54.1323 70.399 54.6604 71.0504 55.3471L69.3866 57.3014ZM82.2863 55.9281C81.2828 55.8753 80.4113 56.0513 79.6718 56.4563C78.95 56.8436 78.3866 57.3894 77.9816 58.0937C77.5943 58.7979 77.4006 59.6078 77.4006 60.5233L76.5555 60.4177C76.5555 58.8507 76.7844 57.5303 77.2422 56.4563C77.6999 55.3823 78.3602 54.5724 79.2229 54.0266C80.0856 53.4632 81.1067 53.1815 82.2863 53.1815V55.9281ZM74.3899 53.2872H77.427V67.3105H74.3899V53.2872ZM94.5021 59.2821C94.4669 58.4898 94.2821 57.8208 93.9475 57.275C93.6306 56.7116 93.1817 56.2802 92.6007 55.9809C92.0197 55.664 91.3506 55.5055 90.5935 55.5055C89.7484 55.5055 89.009 55.6992 88.3752 56.0866C87.7589 56.4739 87.2748 57.0197 86.9226 57.7239C86.5705 58.4106 86.3945 59.2205 86.3945 60.1536C86.3945 61.1572 86.5793 62.0287 86.949 62.7681C87.3364 63.5076 87.8646 64.0798 88.5336 64.4847C89.2203 64.8897 90.0037 65.0922 90.884 65.0922C92.451 65.0922 93.7715 64.5376 94.8455 63.4284L96.4564 65.0393C95.7698 65.7964 94.9335 66.3862 93.9475 66.8088C92.9616 67.2137 91.8612 67.4162 90.6464 67.4162C89.2027 67.4162 87.9438 67.1169 86.8698 66.5183C85.7958 65.9197 84.9595 65.0922 84.3609 64.0358C83.7623 62.9618 83.463 61.7206 83.463 60.3121C83.463 58.9036 83.7623 57.6711 84.3609 56.6147C84.9595 55.5408 85.7958 54.7045 86.8698 54.1059C87.9438 53.5072 89.1762 53.1991 90.5671 53.1815C92.2221 53.1815 93.5514 53.5248 94.555 54.2115C95.5585 54.8805 96.2716 55.8313 96.6941 57.0637C97.1167 58.2961 97.2663 59.7575 97.1431 61.4477H85.9191V59.2821H94.5021ZM110.028 59.2821C109.993 58.4898 109.808 57.8208 109.473 57.275C109.156 56.7116 108.707 56.2802 108.126 55.9809C107.545 55.664 106.876 55.5055 106.119 55.5055C105.274 55.5055 104.535 55.6992 103.901 56.0866C103.285 56.4739 102.801 57.0197 102.448 57.7239C102.096 58.4106 101.92 59.2205 101.92 60.1536C101.92 61.1572 102.105 62.0287 102.475 62.7681C102.862 63.5076 103.39 64.0798 104.059 64.4847C104.746 64.8897 105.53 65.0922 106.41 65.0922C107.977 65.0922 109.297 64.5376 110.371 63.4284L111.982 65.0393C111.296 65.7964 110.459 66.3862 109.473 66.8088C108.487 67.2137 107.387 67.4162 106.172 67.4162C104.728 67.4162 103.47 67.1169 102.396 66.5183C101.322 65.9197 100.485 65.0922 99.8868 64.0358C99.2881 62.9618 98.9888 61.7206 98.9888 60.3121C98.9888 58.9036 99.2881 57.6711 99.8868 56.6147C100.485 55.5408 101.322 54.7045 102.396 54.1059C103.47 53.5072 104.702 53.1991 106.093 53.1815C107.748 53.1815 109.077 53.5248 110.081 54.2115C111.084 54.8805 111.797 55.8313 112.22 57.0637C112.642 58.2961 112.792 59.7575 112.669 61.4477H101.445V59.2821H110.028ZM121.196 53.1551C122.499 53.1551 123.6 53.4456 124.497 54.0266C125.413 54.59 126.108 55.4087 126.584 56.4827C127.077 57.5391 127.314 58.8067 127.297 60.2856C127.314 61.7646 127.086 63.041 126.61 64.115C126.135 65.189 125.439 66.0165 124.524 66.5975C123.626 67.1609 122.534 67.4426 121.249 67.4426C119.911 67.4426 118.731 67.1433 117.71 66.5447C116.707 65.9285 115.923 65.0834 115.36 64.0094C114.796 62.9178 114.515 61.6677 114.515 60.2592C114.515 58.8507 114.796 57.6183 115.36 56.5619C115.923 55.4879 116.707 54.6516 117.71 54.053C118.714 53.4544 119.876 53.1551 121.196 53.1551ZM121.883 55.6112C121.038 55.6112 120.29 55.8137 119.638 56.2186C118.987 56.6235 118.476 57.1869 118.106 57.9088C117.754 58.6131 117.569 59.4229 117.552 60.3385C117.569 61.254 117.754 62.0639 118.106 62.7681C118.476 63.4724 118.987 64.027 119.638 64.4319C120.29 64.8369 121.038 65.0393 121.883 65.0393C122.728 65.0393 123.476 64.8369 124.128 64.4319C124.779 64.027 125.281 63.4724 125.633 62.7681C126.003 62.0639 126.188 61.254 126.188 60.3385C126.188 59.4053 126.003 58.5866 125.633 57.8824C125.281 57.1781 124.779 56.6235 124.128 56.2186C123.476 55.8137 122.728 55.6112 121.883 55.6112ZM126.188 47.7148H129.225V67.3105H126.188V47.7148ZM141.152 55.2415C140.113 55.2238 139.216 55.4439 138.458 55.9017C137.719 56.3418 137.147 56.9669 136.742 57.7768C136.337 58.569 136.134 59.5022 136.134 60.5762L135.421 60.4969C135.421 58.9828 135.65 57.6975 136.108 56.6412C136.566 55.5848 137.226 54.7749 138.089 54.2115C138.951 53.6481 139.973 53.3664 141.152 53.3664V55.2415ZM134.101 53.4192H136.161V67.3105H134.101V53.4192ZM149.579 53.3664C150.952 53.3664 152.167 53.6657 153.223 54.2643C154.297 54.8453 155.133 55.664 155.732 56.7204C156.331 57.7768 156.63 58.9916 156.63 60.3649C156.63 61.7382 156.331 62.953 155.732 64.0094C155.133 65.0657 154.297 65.8932 153.223 66.4919C152.167 67.0729 150.952 67.3634 149.579 67.3634C148.205 67.3634 146.982 67.0729 145.908 66.4919C144.851 65.8932 144.024 65.0657 143.425 64.0094C142.827 62.953 142.527 61.7382 142.527 60.3649C142.527 58.9916 142.827 57.7768 143.425 56.7204C144.024 55.664 144.851 54.8453 145.908 54.2643C146.982 53.6657 148.205 53.3664 149.579 53.3664ZM149.579 55.083C148.61 55.083 147.748 55.3119 146.991 55.7696C146.234 56.2098 145.644 56.826 145.221 57.6183C144.799 58.4106 144.587 59.3261 144.587 60.3649C144.587 61.4213 144.799 62.3544 145.221 63.1643C145.644 63.9566 146.234 64.5816 146.991 65.0393C147.748 65.4795 148.61 65.6996 149.579 65.6996C150.565 65.6996 151.427 65.4795 152.167 65.0393C152.924 64.5816 153.514 63.9566 153.936 63.1643C154.359 62.3544 154.57 61.4213 154.57 60.3649C154.57 59.3261 154.359 58.4106 153.936 57.6183C153.514 56.826 152.924 56.2098 152.167 55.7696C151.427 55.3119 150.565 55.083 149.579 55.083ZM165.904 53.3664C167.277 53.3664 168.492 53.6657 169.549 54.2643C170.623 54.8453 171.459 55.664 172.057 56.7204C172.656 57.7768 172.955 58.9916 172.955 60.3649C172.955 61.7382 172.656 62.953 172.057 64.0094C171.459 65.0657 170.623 65.8932 169.549 66.4919C168.492 67.0729 167.277 67.3634 165.904 67.3634C164.531 67.3634 163.307 67.0729 162.233 66.4919C161.177 65.8932 160.349 65.0657 159.751 64.0094C159.152 62.953 158.853 61.7382 158.853 60.3649C158.853 58.9916 159.152 57.7768 159.751 56.7204C160.349 55.664 161.177 54.8453 162.233 54.2643C163.307 53.6657 164.531 53.3664 165.904 53.3664ZM165.904 55.083C164.936 55.083 164.073 55.3119 163.316 55.7696C162.559 56.2098 161.969 56.826 161.546 57.6183C161.124 58.4106 160.913 59.3261 160.913 60.3649C160.913 61.4213 161.124 62.3544 161.546 63.1643C161.969 63.9566 162.559 64.5816 163.316 65.0393C164.073 65.4795 164.936 65.6996 165.904 65.6996C166.89 65.6996 167.753 65.4795 168.492 65.0393C169.249 64.5816 169.839 63.9566 170.262 63.1643C170.684 62.3544 170.895 61.4213 170.895 60.3649C170.895 59.3261 170.684 58.4106 170.262 57.6183C169.839 56.826 169.249 56.2098 168.492 55.7696C167.753 55.3119 166.89 55.083 165.904 55.083ZM187.036 59.2557C187.036 57.988 186.693 56.9933 186.006 56.2714C185.337 55.5496 184.395 55.1886 183.18 55.1886C181.754 55.2238 180.636 55.7344 179.826 56.7204C179.016 57.6887 178.611 58.9476 178.611 60.4969H177.925C177.925 58.8771 178.162 57.5479 178.638 56.5091C179.131 55.4527 179.826 54.6693 180.724 54.1587C181.622 53.6305 182.687 53.3664 183.92 53.3664C185.011 53.3664 185.935 53.5865 186.693 54.0266C187.467 54.4668 188.057 55.0918 188.462 55.9017C188.885 56.694 189.096 57.6535 189.096 58.7803V67.3105H187.036V59.2557ZM197.52 59.2557C197.52 57.988 197.177 56.9933 196.49 56.2714C195.804 55.5496 194.862 55.1886 193.665 55.1886C192.239 55.2238 191.121 55.7344 190.311 56.7204C189.501 57.6887 189.096 58.9476 189.096 60.4969H188.383C188.383 58.8771 188.62 57.5479 189.096 56.5091C189.589 55.4527 190.284 54.6693 191.182 54.1587C192.08 53.6305 193.154 53.3664 194.404 53.3664C195.478 53.3664 196.402 53.5865 197.177 54.0266C197.952 54.4668 198.542 55.0918 198.947 55.9017C199.369 56.694 199.58 57.6535 199.58 58.7803V67.3105H197.52V59.2557ZM176.578 53.4192H178.611V67.3105H176.578V53.4192ZM202.889 53.4192L213.849 53.4456V54.8981L205.134 65.6732L214.06 65.6996V67.337L202.651 67.3105V65.858L211.34 55.083L202.889 55.0566V53.4192Z" fill="white"/>
</svg>
