<svg width="250" height="130" viewBox="0 0 250 130" fill="none" xmlns="http://www.w3.org/2000/svg">
<rect width="249.25" height="129.22" rx="10" fill="#19191A"/>
<g clip-path="url(#clip0_1_3927)">
<path d="M109.24 82.6357H112.17C113.96 82.6357 115.425 82.7979 116.401 83.2844C117.377 83.7709 118.028 84.4195 118.679 85.5547C119.33 86.5276 119.493 87.8249 119.493 89.1222C119.493 90.0952 119.33 90.906 119.005 91.879C118.679 92.6898 118.191 93.3384 117.703 93.8249C117.052 94.3114 116.564 94.7979 115.913 94.9601C115.262 95.1222 114.123 95.2844 112.332 95.2844H109.24V82.6357ZM111.681 84.906V92.852H112.821C113.96 92.852 114.774 92.6898 115.262 92.5276C115.75 92.2033 116.238 91.879 116.564 91.2303C116.889 90.5817 117.052 89.933 117.052 88.9601C117.052 87.6628 116.727 86.5276 115.913 85.879C115.262 85.2303 114.123 84.906 112.658 84.906H111.681Z" fill="white"/>
<path d="M122.584 82.6357H120.143V95.2844H122.584V82.6357Z" fill="white"/>
<path d="M127.793 82.6357H130.234L135.279 95.2844H132.675L131.699 92.6898H126.328L125.352 95.2844H122.748L127.793 82.6357ZM128.932 85.879L127.142 90.2574H130.56L128.932 85.879Z" fill="white"/>
<path d="M73.9246 84.5813L72.1344 86.2029C70.9952 85.0678 69.6932 84.4191 68.2285 84.4191C66.9265 84.4191 65.9501 84.9056 64.9736 85.7164C63.9971 86.5273 63.6716 87.5002 63.6716 88.7975C63.6716 90.0948 64.1599 91.0678 64.9736 91.8786C65.7873 92.6894 66.9265 93.1759 68.2285 93.1759C69.0422 93.1759 69.856 93.0137 70.3442 92.6894C70.8324 92.3651 71.3207 91.8786 71.8089 91.0678H68.0658V88.7975H74.5756V89.284C74.5756 90.4191 74.2501 91.3921 73.7618 92.3651C73.1109 93.3381 72.4599 94.1489 71.4834 94.6354C70.5069 95.1219 69.5305 95.4462 68.2285 95.4462C66.9265 95.4462 65.6246 95.1219 64.6481 94.6354C63.6716 93.9867 62.8579 93.1759 62.2069 92.2029C61.556 91.23 61.2305 90.0948 61.2305 88.7975C61.2305 87.1759 61.8814 85.7164 63.0207 84.4191C64.4854 82.9597 66.1128 82.311 68.3913 82.311C69.5305 82.311 70.5069 82.4732 71.4834 82.9597C72.2971 83.1218 73.1109 83.7705 73.9246 84.5813Z" fill="white"/>
<path d="M79.4572 82.6357H81.8984L86.9435 95.2844H84.3396L83.3631 92.6898H77.9925L77.016 95.2844H74.4121L79.4572 82.6357ZM80.7592 85.879L78.969 90.2574H82.5494L80.7592 85.879Z" fill="white"/>
<path d="M100.287 82.6357H107.448V84.906H102.728V87.1763H107.448V89.6087H102.728V92.852H107.448V95.2844H100.287V82.6357Z" fill="white"/>
<path d="M147.159 82.6357L144.23 90.5817L141.789 82.7979H140.975H140.812H139.999L137.557 90.5817L134.628 82.6357H131.861L136.581 95.2844H138.859L140.975 87.6628L142.928 95.2844H145.206L149.926 82.6357H147.159Z" fill="white"/>
<path d="M155.458 82.311C157.249 82.311 158.876 82.9597 160.178 84.257C161.48 85.5543 162.131 87.1759 162.131 88.9597C162.131 90.7435 161.48 92.3651 160.178 93.6624C158.876 94.9597 157.249 95.6083 155.458 95.6083C153.668 95.6083 151.878 94.9597 150.576 93.6624C149.274 92.3651 148.623 90.7435 148.623 88.9597C148.623 87.8246 148.949 86.6894 149.437 85.7164C149.925 84.7435 150.901 83.9327 151.878 83.284C153.017 82.6354 154.156 82.311 155.458 82.311ZM155.296 84.5813C154.156 84.5813 153.18 85.0678 152.203 85.8786C151.227 86.6894 150.901 87.6624 150.901 88.9597C150.901 90.4191 151.39 91.3921 152.529 92.2029C153.343 92.8516 154.319 93.1759 155.296 93.1759C156.435 93.1759 157.411 92.6894 158.225 91.8786C159.039 91.0678 159.527 90.0948 159.527 88.7975C159.527 87.6624 159.039 86.5273 158.225 85.7164C157.574 85.0678 156.598 84.5813 155.296 84.5813Z" fill="white"/>
<path d="M163.109 82.6357H165.713C167.178 82.6357 168.154 82.7979 168.805 82.9601C169.456 83.2844 169.945 83.6087 170.27 84.2574C170.596 84.906 170.921 85.5547 170.921 86.3655C170.921 87.1763 170.758 87.8249 170.27 88.4736C169.782 89.1222 169.294 89.4466 168.48 89.7709L171.572 95.4466H168.805L165.876 90.0952H165.551V95.4466H163.109V82.6357ZM165.551 87.5006H166.364C167.178 87.5006 167.666 87.3384 167.992 87.1763C168.317 87.0141 168.48 86.6898 168.48 86.2033C168.48 85.879 168.48 85.7168 168.317 85.5547C168.154 85.3925 167.992 85.2303 167.666 85.0682C167.503 85.0682 167.015 84.906 166.364 84.906H165.551V87.5006Z" fill="white"/>
<path d="M171.896 82.6357H174.338V87.0141L177.918 82.6357H180.685L176.291 88.1493L181.173 95.2844H178.244L174.338 89.6087V95.2844H171.896V82.6357Z" fill="white"/>
<path d="M188.17 84.2569L186.38 85.8786C185.729 85.0677 185.078 84.5813 184.427 84.5813C184.102 84.5813 183.776 84.7434 183.614 84.9056C183.451 85.0677 183.288 85.2299 183.288 85.5542C183.288 85.7164 183.288 86.0407 183.451 86.2029C183.614 86.5272 184.265 87.0137 185.241 87.8245C186.218 88.6353 186.706 89.1218 187.031 89.284C187.519 89.7704 187.845 90.2569 188.008 90.7434C188.17 91.2299 188.333 91.7164 188.333 92.2029C188.333 93.1758 188.008 94.1488 187.194 94.7975C186.38 95.4461 185.567 95.7704 184.265 95.7704C183.288 95.7704 182.474 95.6083 181.823 95.1218C181.172 94.6353 180.521 93.9867 180.033 93.0137L182.149 91.7164C182.8 92.8515 183.451 93.338 184.265 93.338C184.753 93.338 185.078 93.1758 185.404 93.0137C185.729 92.6894 185.892 92.5272 185.892 92.2029C185.892 91.8786 185.729 91.5542 185.567 91.3921C185.404 91.0677 184.916 90.7434 184.102 90.0948C182.637 88.9596 181.823 88.1488 181.335 87.5002C180.847 86.8515 180.684 86.2029 180.684 85.7164C180.684 84.9056 181.01 84.0948 181.661 83.4461C182.312 82.7975 183.125 82.4731 184.265 82.4731C184.916 82.4731 185.567 82.6353 186.055 82.9596C187.031 82.9596 187.519 83.6083 188.17 84.2569Z" fill="white"/>
<path d="M86.9444 82.6357H89.2229L92.315 91.3925L95.2444 82.6357H97.6856L99.9641 95.2844H97.5229L96.0582 87.1763L93.2915 95.2844H91.1758L88.4092 87.1763L87.1072 95.2844H84.666L86.9444 82.6357Z" fill="white"/>
<path d="M183.614 36.4199L174.012 62.6902L166.038 37.0686H160.179C160.179 37.0686 154.809 61.2307 150.903 62.0415C145.369 63.1767 133.814 36.4199 133.814 36.4199L148.95 77.4469H156.599L163.109 52.7983L169.618 77.4469H177.105L192.24 36.4199H183.614Z" fill="white"/>
<path d="M127.956 53.9334C126.491 56.8524 120.632 76.6361 120.632 76.6361H114.774L106.636 51.1767L97.0343 77.4469H88.2461L103.381 36.4199H111.03L117.54 61.0686L124.05 36.4199H131.699L146.834 77.4469C146.834 77.4469 132.187 45.1767 127.956 53.9334Z" fill="white"/>
<path d="M73.1105 56.6898C73.1105 56.6898 86.9438 57.5006 87.9203 63.3385C88.5713 67.5547 84.9909 70.9601 78.9693 70.7979C73.7615 70.6358 65.4615 67.2304 65.4615 56.6898C65.4615 44.5277 76.2027 42.0952 82.8752 42.906C91.3379 43.879 95.2438 48.5817 96.5458 50.852L99.3125 43.7169C99.3125 43.7169 93.9419 37.2304 83.2007 35.7709C73.5987 34.6358 67.0889 38.0412 62.6948 42.7439C59.1144 46.6358 57.3242 51.3385 57.3242 56.6898C57.3242 60.5817 58.3007 64.3115 60.2536 67.5547C62.2066 70.9601 64.8105 73.5547 68.2281 75.3385C71.6458 77.1223 75.3889 78.0952 79.783 78.0952C82.387 78.0952 84.8281 77.7709 86.9438 76.9601L94.5929 56.6898H73.1105Z" fill="white"/>
</g>
<defs>
<clipPath id="clip0_1_3927">
<rect width="166" height="60" fill="white" transform="translate(41.8633 35.6069)"/>
</clipPath>
</defs>
</svg>
