<svg width="250" height="130" viewBox="0 0 250 130" fill="none" xmlns="http://www.w3.org/2000/svg">
<rect width="249.25" height="129.22" rx="10" fill="#19191A"/>
<path d="M63.5396 51.5618V55.6862H55.2893H51.1641C50.0256 55.6862 49.0609 56.0817 48.2699 56.8725C47.4788 57.6634 47.0833 58.6428 47.0833 59.8106C47.0833 60.365 47.1868 60.8935 47.3975 61.3924C47.6045 61.8913 47.8965 62.3311 48.2736 62.7044C48.6506 63.0777 49.0868 63.377 49.5858 63.5988C50.0848 63.8205 50.6134 63.9314 51.1678 63.9314H55.293C56.4315 63.9314 57.4997 64.1457 58.5015 64.5781C59.4995 65.0105 60.3755 65.5981 61.1259 66.3484C61.8763 67.0986 62.464 67.9745 62.8965 68.9723C63.3252 69.9739 63.5433 71.0419 63.5433 72.1802C63.5433 73.3185 63.3289 74.3866 62.8965 75.3881C62.464 76.3896 61.8763 77.2544 61.1259 77.9899C60.3755 78.7253 59.4995 79.3093 58.5015 79.738C57.4997 80.1704 56.4315 80.3847 55.293 80.3847H35.3066V76.2603H55.2893C56.4574 76.2603 57.4332 75.8648 58.2279 75.074C59.019 74.2831 59.4145 73.3185 59.4145 72.1802C59.4145 71.0124 59.019 70.0367 58.2279 69.2421C57.4369 68.4512 56.4574 68.0558 55.2893 68.0558H51.1641C50.0256 68.0558 48.9574 67.8414 47.9557 67.409C46.954 66.9803 46.089 66.389 45.3534 65.6388C44.6178 64.8886 44.0338 64.0127 43.605 63.0148C43.1725 62.0133 42.9582 60.9452 42.9582 59.807C42.9582 58.6687 43.1725 57.6006 43.605 56.5991C44.0338 55.6012 44.6178 54.7253 45.3534 53.9751C46.089 53.2249 46.9576 52.6336 47.9557 52.2049C48.9574 51.7762 50.0256 51.5581 51.1641 51.5581H55.2893H63.5396V51.5618Z" fill="white"/>
<path d="M76.8734 51.5215C78.2891 51.5215 79.6235 51.7913 80.8729 52.3345C82.1222 52.8778 83.2127 53.6133 84.1442 54.5409C85.0757 55.4722 85.8112 56.5698 86.3509 57.8338C86.8943 59.0977 87.1641 60.4356 87.1641 61.8547C87.1641 63.2702 86.8943 64.6043 86.3509 65.8535C85.8075 67.1026 85.072 68.1929 84.1442 69.1242C83.2127 70.0555 82.1222 70.791 80.8729 71.3305C79.6235 71.8738 78.2891 72.1436 76.8734 72.1436H74.833H72.7482V80.3924H68.623V51.5215H72.7482H76.8734ZM76.8734 68.0155C77.7346 68.0155 78.5405 67.8566 79.2908 67.535C80.0412 67.2172 80.6917 66.77 81.2499 66.2009C81.8044 65.6317 82.2405 64.9739 82.5621 64.2237C82.88 63.4734 83.0427 62.6826 83.0427 61.8473C83.0427 60.9862 82.8837 60.1806 82.5621 59.4303C82.2442 58.6801 81.8044 58.0296 81.2499 57.4716C80.6954 56.9172 80.0412 56.4701 79.2908 56.1374C78.5405 55.8048 77.7346 55.6385 76.8734 55.6385H72.7482V68.0118H74.833H76.8734V68.0155Z" fill="white"/>
<path d="M95.1662 80.3886H91.041V51.562H95.1662V80.3886Z" fill="white"/>
<path d="M125.372 51.562V80.3886L118.371 73.8472L104.746 61.06V80.3886H100.621V51.562L107.578 58.1034L121.243 70.935V51.562H125.372Z" fill="white"/>
<path d="M173.163 51.5618C175.163 51.5618 176.885 51.9868 178.331 52.8331C179.776 53.6794 180.929 54.7623 181.79 56.0817C182.652 57.401 183.188 58.8572 183.395 60.4537C183.602 62.0503 183.483 63.5914 183.04 65.077C182.596 66.5627 181.79 67.9154 180.622 69.1386C179.454 70.3619 177.913 71.2341 175.998 71.7626L182.456 80.3847H177.288L171.123 72.1359H169.082V80.3847H164.957V51.5581H169.082H173.163V51.5618ZM173.163 68.0151C174.024 68.0151 174.83 67.8562 175.58 67.5347C176.331 67.2169 176.981 66.7771 177.54 66.2227C178.094 65.6684 178.538 65.0142 178.874 64.264C179.207 63.5138 179.373 62.7081 179.373 61.847C179.373 60.9859 179.207 60.1802 178.874 59.43C178.541 58.6798 178.098 58.0293 177.54 57.4713C176.985 56.9169 176.331 56.4771 175.58 56.1593C174.83 55.8414 174.024 55.6788 173.163 55.6788H169.078V68.0077H171.119H173.163V68.0151Z" fill="white"/>
<path d="M199.846 51.562C201.85 51.562 203.727 51.9353 205.48 52.6855C207.232 53.4357 208.762 54.4632 210.07 55.7677C211.379 57.0723 212.407 58.5987 213.157 60.3504C213.907 62.0985 214.284 63.9759 214.284 65.9753C214.284 67.9747 213.907 69.8484 213.157 71.6002C212.407 73.3483 211.375 74.8783 210.07 76.1829C208.762 77.4875 207.232 78.5149 205.48 79.2651C203.727 80.0154 201.85 80.3886 199.846 80.3886C197.843 80.3886 195.965 80.0154 194.213 79.2651C192.461 78.5149 190.931 77.4875 189.622 76.1829C188.314 74.8783 187.286 73.3483 186.536 71.6002C185.785 69.8521 185.408 67.9747 185.408 65.9753C185.408 63.9759 185.782 62.1022 186.536 60.3504C187.286 58.6024 188.317 57.0723 189.622 55.7677C190.931 54.4632 192.461 53.4357 194.213 52.6855C195.965 51.9353 197.843 51.562 199.846 51.562ZM210.159 65.9753C210.159 64.5599 209.889 63.2257 209.346 61.9765C208.803 60.7274 208.067 59.6372 207.139 58.7058C206.208 57.7745 205.11 57.0391 203.849 56.4995C202.585 55.9562 201.247 55.6864 199.828 55.6864C198.408 55.6864 197.078 55.9562 195.828 56.4995C194.579 57.0428 193.488 57.7782 192.557 58.7058C191.626 59.6372 190.89 60.7274 190.35 61.9765C189.811 63.2257 189.537 64.5599 189.537 65.9753C189.537 67.3908 189.807 68.7323 190.35 69.9963C190.894 71.2602 191.629 72.3578 192.557 73.2891C193.488 74.2205 194.579 74.9559 195.828 75.4955C197.078 76.0351 198.412 76.3085 199.828 76.3085C201.244 76.3085 202.585 76.0388 203.849 75.4955C205.114 74.9522 206.211 74.2168 207.139 73.2891C208.071 72.3578 208.806 71.2639 209.346 69.9963C209.886 68.7323 210.159 67.3908 210.159 65.9753Z" fill="white"/>
<path d="M131.364 55.2171C131.364 54.6775 131.801 54.2415 132.34 54.2415C132.88 54.2415 133.316 54.6775 133.316 55.2171C133.316 55.7567 132.88 56.1928 132.34 56.1928C131.804 56.1965 131.364 55.7567 131.364 55.2171ZM134.795 52.8962C135.135 52.8962 135.412 52.619 135.412 52.279C135.412 51.939 135.135 51.6618 134.795 51.6618C134.455 51.6618 134.177 51.939 134.177 52.279C134.174 52.6227 134.451 52.8962 134.795 52.8962ZM160.692 65.4949C160.688 65.6206 160.688 65.7425 160.684 65.8682C160.681 66.0936 160.662 66.3154 160.651 66.5408C160.156 73.0785 155.953 78.6554 149.388 80.4552C146.808 81.1832 143.662 81.1463 140.864 80.5328C134.455 78.6923 129.749 72.8457 129.631 65.8682C129.686 64.061 130.037 62.0838 130.836 59.9181C128.607 68.2778 133.471 77.4543 142.816 77.033C146.619 76.9553 150.878 75.4881 152.833 73.0231C156.566 68.3148 156.267 63.4142 154.323 60.2063C151.994 56.3739 146.379 54.7662 141.962 56.5402C135.948 58.9498 134.466 66.2747 139.515 71.3452C137.704 71.1642 136.284 69.8559 135.334 68.3148C136.384 71.0311 138.942 74.457 144.209 74.7453C136.022 75.7025 131.782 68.8839 131.782 63.4992C131.782 55.2873 138.295 50.2057 146.12 50.2168C146.86 50.2168 147.592 50.2833 148.316 50.3905C155.347 51.8466 160.636 58.0444 160.692 65.4949ZM150.881 54.7847C150.6 54.3449 148.283 52.1866 144.416 52.1866C140.657 52.1866 135.397 54.6517 134.152 60.8974C137.297 54.5112 143.241 51.6544 150.881 54.7847ZM159.505 63.5029C158.988 57.793 154.807 52.8371 149.255 51.4179C148.279 51.2294 147.998 51.1592 149.388 51.7284C158.773 55.8824 159.18 65.591 157.731 67.7271C157.701 67.7715 157.653 67.7826 157.613 67.7826C157.516 67.7826 157.417 67.6902 157.328 67.5978C157.184 67.45 157.073 67.3021 157.025 67.535C155.794 73.6551 151.802 77.883 142.516 78.5852C143.851 79.2873 149.577 79.7604 153.694 76.3677C156.884 73.7401 158.943 70.3178 159.524 66.4706C159.612 65.4912 159.612 64.5008 159.505 63.5029Z" fill="white"/>
</svg>
