<svg width="250" height="130" viewBox="0 0 250 130" fill="none" xmlns="http://www.w3.org/2000/svg">
<g clip-path="url(#clip0_1_3978)">
<rect width="249.25" height="129.22" rx="10" fill="#19191A"/>
<g clip-path="url(#clip1_1_3978)">
<path d="M98.3821 64.1464C98.3821 57.7377 93.5686 53.2388 87.4885 53.2388C81.4506 53.2388 76.5527 57.7377 76.5527 64.1464C76.5527 70.5552 81.4506 75.0965 87.4885 75.0965C93.5264 75.0541 98.3821 70.5552 98.3821 64.1464ZM81.8306 64.1464C81.8306 60.3691 84.0262 57.9499 87.4885 57.9499C90.8664 57.9499 93.1042 60.3691 93.1042 64.1464C93.1042 67.8814 90.9086 70.343 87.4885 70.343C84.0262 70.343 81.8306 67.8814 81.8306 64.1464Z" fill="white"/>
<path d="M112.611 74.8416H117.762V64.9525C117.762 60.4112 115.144 57.7373 111.259 57.7373C108.979 57.7373 107.164 58.7559 106.15 60.1565V57.9071H100.957V74.8416H106.15V65.6316C106.15 63.3397 107.417 62.0664 109.402 62.0664C111.386 62.0664 112.653 63.3397 112.653 65.6316V74.8416H112.611Z" fill="white"/>
<path d="M121.055 74.8416H126.248V52.3472H121.055V74.8416Z" fill="white"/>
<path d="M137.524 68.5178L133.597 57.9072H127.812L134.695 74.29L130.81 82.9057H136.384L146.982 57.9072H141.366L137.524 68.5178Z" fill="white"/>
<path d="M153.736 60.2838V57.8646H148.543V82.9055H153.736V72.4647C154.665 73.9077 156.481 75.0961 158.93 75.0961C163.068 75.0961 166.403 71.7007 166.403 66.353C166.403 61.0053 163.11 57.6523 158.93 57.6523C156.481 57.6523 154.708 58.7983 153.736 60.2838ZM161.168 66.353C161.168 69.0693 159.394 70.5548 157.452 70.5548C155.51 70.5548 153.736 69.0693 153.736 66.353C153.736 63.6367 155.51 62.1512 157.452 62.1512C159.394 62.1937 161.168 63.6367 161.168 66.353Z" fill="white"/>
<path d="M168.852 74.8416H174.045V52.3472H168.852V74.8416Z" fill="white"/>
<path d="M176.453 66.353C176.453 71.7007 179.747 75.0961 183.884 75.0961C186.418 75.0961 188.191 73.9501 189.12 72.4647V74.8839H194.313V57.9069H189.12V60.3262C188.191 58.8407 186.418 57.6947 183.884 57.6947C179.747 57.6523 176.453 61.0052 176.453 66.353ZM189.12 66.353C189.12 69.0693 187.389 70.5547 185.404 70.5547C183.462 70.5547 181.689 69.0268 181.689 66.353C181.689 63.6791 183.462 62.1936 185.404 62.1936C187.389 62.1936 189.12 63.6791 189.12 66.353Z" fill="white"/>
<path d="M205.543 68.5178L201.617 57.9072H195.832L202.714 74.29L198.83 82.9057H204.403L215.001 57.9072H209.386L205.543 68.5178Z" fill="white"/>
<path d="M51.8942 79.8498C43.154 79.8498 36.0605 72.7195 36.0605 63.9339C36.0605 55.1484 43.154 48.0181 51.8942 48.0181C60.6344 48.0181 67.7279 55.1484 67.7279 63.9339C67.7279 72.7195 60.6344 79.8498 51.8942 79.8498ZM51.8942 52.2623C45.4763 52.2623 40.2829 57.4827 40.2829 63.9339C40.2829 70.3852 45.4763 75.6056 51.8942 75.6056C58.3121 75.6056 63.5055 70.3852 63.5055 63.9339C63.5055 57.4827 58.3121 52.2623 51.8942 52.2623Z" fill="white"/>
<path d="M51.8951 69.2395C54.81 69.2395 57.173 66.8642 57.173 63.9342C57.173 61.0042 54.81 58.6289 51.8951 58.6289C48.9802 58.6289 46.6172 61.0042 46.6172 63.9342C46.6172 66.8642 48.9802 69.2395 51.8951 69.2395Z" fill="white"/>
</g>
<path d="M-0.5 15.6826H82.5L68.8992 29.2835L82.5 42.8843H-0.5V15.6826Z" fill="#EF0C27"/>
<path d="M12.169 25.4099V32.6826H11.1605L7.46378 27.3488H7.39631V32.6826H6.29901V25.4099H7.31463L11.0149 30.7508H11.0824V25.4099H12.169ZM16.0353 32.7927C15.4979 32.7927 15.0351 32.6779 14.6468 32.4482C14.2609 32.2162 13.9627 31.8907 13.752 31.4717C13.5436 31.0503 13.4395 30.5567 13.4395 29.9909C13.4395 29.4321 13.5436 28.9397 13.752 28.5136C13.9627 28.0874 14.2562 27.7548 14.6326 27.5157C15.0114 27.2766 15.4541 27.157 15.9608 27.157C16.2685 27.157 16.5668 27.2079 16.8556 27.3097C17.1445 27.4115 17.4037 27.5713 17.6333 27.7892C17.863 28.007 18.0441 28.2899 18.1767 28.6379C18.3092 28.9835 18.3755 29.4037 18.3755 29.8985V30.2749H14.0396V29.4795H17.335C17.335 29.2001 17.2782 28.9527 17.1646 28.7373C17.051 28.5195 16.8912 28.3479 16.6852 28.2224C16.4816 28.0969 16.2425 28.0342 15.9679 28.0342C15.6696 28.0342 15.4092 28.1076 15.1866 28.2544C14.9664 28.3988 14.796 28.5882 14.6752 28.8225C14.5569 29.0545 14.4977 29.3067 14.4977 29.5789V30.2004C14.4977 30.565 14.5616 30.8751 14.6895 31.1308C14.8197 31.3865 15.0008 31.5818 15.2328 31.7167C15.4648 31.8493 15.7359 31.9156 16.046 31.9156C16.2472 31.9156 16.4307 31.8872 16.5964 31.8303C16.7621 31.7712 16.9054 31.6836 17.0261 31.5676C17.1468 31.4516 17.2392 31.3083 17.3031 31.1379L18.3081 31.319C18.2276 31.6149 18.0832 31.8741 17.8748 32.0967C17.6689 32.3169 17.4096 32.4885 17.0971 32.6116C16.787 32.7323 16.4331 32.7927 16.0353 32.7927ZM20.7264 32.6826L19.1213 27.2281H20.2186L21.2875 31.2338H21.3407L22.4132 27.2281H23.5105L24.5758 31.216H24.6291L25.6909 27.2281H26.7882L25.1866 32.6826H24.1035L22.9956 28.7444H22.9139L21.8059 32.6826H20.7264ZM35.4494 27.7075C35.3807 27.492 35.2884 27.2991 35.1724 27.1286C35.0588 26.9558 34.9226 26.809 34.764 26.6883C34.6054 26.5652 34.4243 26.4717 34.2207 26.4078C34.0195 26.3438 33.7981 26.3119 33.5566 26.3119C33.1471 26.3119 32.7778 26.4172 32.4487 26.6279C32.1196 26.8386 31.8592 27.1476 31.6674 27.5548C31.478 27.9596 31.3833 28.4556 31.3833 29.0427C31.3833 29.6322 31.4792 30.1305 31.671 30.5377C31.8627 30.9449 32.1255 31.2539 32.4593 31.4646C32.7931 31.6753 33.1731 31.7806 33.5993 31.7806C33.9946 31.7806 34.3391 31.7001 34.6326 31.5392C34.9286 31.3782 35.157 31.1509 35.318 30.8573C35.4814 30.5614 35.563 30.2134 35.563 29.8133L35.8471 29.8666H33.7662V28.961H36.6248V29.7884C36.6248 30.3992 36.4946 30.9295 36.2342 31.3794C35.9761 31.8268 35.6187 32.1724 35.1618 32.4163C34.7072 32.6601 34.1864 32.782 33.5993 32.782C32.9411 32.782 32.3635 32.6305 31.8663 32.3275C31.3715 32.0245 30.9856 31.5948 30.7086 31.0384C30.4316 30.4797 30.2931 29.8169 30.2931 29.0498C30.2931 28.4698 30.3736 27.949 30.5346 27.4873C30.6956 27.0257 30.9217 26.6338 31.2129 26.3119C31.5065 25.9875 31.8509 25.7401 32.2463 25.5697C32.644 25.3969 33.0784 25.3105 33.5495 25.3105C33.9425 25.3105 34.3083 25.3685 34.6468 25.4845C34.9877 25.6005 35.2908 25.765 35.5559 25.9781C35.8234 26.1911 36.0448 26.4445 36.22 26.738C36.3952 27.0292 36.5136 27.3524 36.5751 27.7075H35.4494ZM39.5199 32.8034C39.1742 32.8034 38.8617 32.7394 38.5824 32.6116C38.303 32.4814 38.0817 32.2932 37.9183 32.047C37.7573 31.8008 37.6768 31.4989 37.6768 31.1414C37.6768 30.8337 37.736 30.5803 37.8544 30.3815C37.9728 30.1826 38.1326 30.0252 38.3338 29.9092C38.535 29.7932 38.7599 29.7056 39.0085 29.6464C39.2571 29.5872 39.5104 29.5422 39.7685 29.5115C40.0952 29.4736 40.3603 29.4428 40.5639 29.4191C40.7675 29.3931 40.9155 29.3517 41.0078 29.2948C41.1001 29.238 41.1463 29.1457 41.1463 29.0178V28.993C41.1463 28.6829 41.0587 28.4426 40.8835 28.2721C40.7107 28.1017 40.4527 28.0164 40.1094 28.0164C39.7519 28.0164 39.4702 28.0957 39.2642 28.2544C39.0606 28.4106 38.9197 28.5846 38.8416 28.7764L37.8438 28.5491C37.9621 28.2177 38.1349 27.9501 38.3622 27.7465C38.5919 27.5406 38.8558 27.3914 39.1541 27.2991C39.4524 27.2044 39.7661 27.157 40.0952 27.157C40.313 27.157 40.5438 27.1831 40.7876 27.2352C41.0339 27.2849 41.2635 27.3772 41.4766 27.5122C41.692 27.6471 41.8684 27.8401 42.0057 28.091C42.143 28.3396 42.2116 28.6627 42.2116 29.0605V32.6826H41.1747V31.9369H41.1321C41.0634 32.0742 40.9605 32.2091 40.8232 32.3417C40.6858 32.4743 40.5095 32.5844 40.294 32.672C40.0786 32.7596 39.8205 32.8034 39.5199 32.8034ZM39.7507 31.9511C40.0443 31.9511 40.2952 31.8931 40.5036 31.7771C40.7143 31.6611 40.8741 31.5096 40.983 31.3225C41.0942 31.1331 41.1499 30.9307 41.1499 30.7153V30.0122C41.112 30.05 41.0386 30.0856 40.9297 30.1187C40.8232 30.1495 40.7012 30.1767 40.5639 30.2004C40.4266 30.2217 40.2929 30.2418 40.1626 30.2607C40.0324 30.2773 39.9235 30.2915 39.8359 30.3034C39.63 30.3294 39.4418 30.3732 39.2713 30.4347C39.1032 30.4963 38.9683 30.5851 38.8665 30.7011C38.767 30.8147 38.7173 30.9662 38.7173 31.1556C38.7173 31.4184 38.8144 31.6173 39.0085 31.7522C39.2027 31.8848 39.45 31.9511 39.7507 31.9511ZM43.6259 32.6826V27.2281H44.6451V28.1159H44.7125C44.8262 27.8152 45.012 27.5808 45.2701 27.4127C45.5281 27.2423 45.8371 27.157 46.1969 27.157C46.5615 27.157 46.8669 27.2423 47.1131 27.4127C47.3617 27.5832 47.5452 27.8176 47.6635 28.1159H47.7203C47.8506 27.8247 48.0577 27.5927 48.3418 27.4198C48.6259 27.2446 48.9644 27.157 49.3574 27.157C49.8522 27.157 50.2559 27.3121 50.5684 27.6222C50.8832 27.9324 51.0407 28.3999 51.0407 29.0249V32.6826H49.9789V29.1244C49.9789 28.7551 49.8783 28.4875 49.677 28.3218C49.4758 28.1561 49.2355 28.0732 48.9561 28.0732C48.6105 28.0732 48.3418 28.1798 48.15 28.3928C47.9583 28.6035 47.8624 28.8746 47.8624 29.2061V32.6826H46.8042V29.0569C46.8042 28.761 46.7118 28.5231 46.5272 28.3431C46.3425 28.1632 46.1022 28.0732 45.8063 28.0732C45.6051 28.0732 45.4192 28.1265 45.2488 28.233C45.0807 28.3372 44.9445 28.4828 44.8404 28.6698C44.7386 28.8569 44.6877 29.0735 44.6877 29.3197V32.6826H43.6259ZM54.8146 32.7927C54.2772 32.7927 53.8144 32.6779 53.4261 32.4482C53.0402 32.2162 52.742 31.8907 52.5312 31.4717C52.3229 31.0503 52.2188 30.5567 52.2188 29.9909C52.2188 29.4321 52.3229 28.9397 52.5312 28.5136C52.742 28.0874 53.0355 27.7548 53.4119 27.5157C53.7907 27.2766 54.2334 27.157 54.7401 27.157C55.0478 27.157 55.3461 27.2079 55.6349 27.3097C55.9238 27.4115 56.183 27.5713 56.4126 27.7892C56.6423 28.007 56.8234 28.2899 56.956 28.6379C57.0885 28.9835 57.1548 29.4037 57.1548 29.8985V30.2749H52.8189V29.4795H56.1143C56.1143 29.2001 56.0575 28.9527 55.9439 28.7373C55.8303 28.5195 55.6705 28.3479 55.4645 28.2224C55.2609 28.0969 55.0218 28.0342 54.7472 28.0342C54.4489 28.0342 54.1884 28.1076 53.9659 28.2544C53.7457 28.3988 53.5753 28.5882 53.4545 28.8225C53.3362 29.0545 53.277 29.3067 53.277 29.5789V30.2004C53.277 30.565 53.3409 30.8751 53.4688 31.1308C53.599 31.3865 53.7801 31.5818 54.0121 31.7167C54.2441 31.8493 54.5152 31.9156 54.8253 31.9156C55.0265 31.9156 55.21 31.8872 55.3757 31.8303C55.5414 31.7712 55.6847 31.6836 55.8054 31.5676C55.9261 31.4516 56.0185 31.3083 56.0824 31.1379L57.0874 31.319C57.0069 31.6149 56.8625 31.8741 56.6541 32.0967C56.4482 32.3169 56.1889 32.4885 55.8764 32.6116C55.5663 32.7323 55.2124 32.7927 54.8146 32.7927ZM62.4203 28.5597L61.4579 28.7302C61.4177 28.6071 61.3538 28.4899 61.2662 28.3786C61.1809 28.2674 61.0649 28.1762 60.9181 28.1052C60.7714 28.0342 60.5879 27.9987 60.3677 27.9987C60.0671 27.9987 59.8161 28.0661 59.6149 28.2011C59.4136 28.3337 59.313 28.5053 59.313 28.716C59.313 28.8983 59.3805 29.0451 59.5154 29.1563C59.6504 29.2676 59.8682 29.3588 60.1689 29.4298L61.0353 29.6286C61.5372 29.7446 61.9113 29.9234 62.1575 30.1649C62.4037 30.4063 62.5268 30.72 62.5268 31.1059C62.5268 31.4326 62.4321 31.7238 62.2427 31.9795C62.0557 32.2328 61.7941 32.4317 61.4579 32.5761C61.1241 32.7205 60.737 32.7927 60.2967 32.7927C59.6859 32.7927 59.1876 32.6625 58.8017 32.4021C58.4158 32.1393 58.179 31.7664 58.0914 31.2835L59.1177 31.1272C59.1816 31.3947 59.313 31.5972 59.5119 31.7345C59.7108 31.8694 59.97 31.9369 60.2896 31.9369C60.6376 31.9369 60.9158 31.8647 61.1241 31.7203C61.3324 31.5735 61.4366 31.3947 61.4366 31.184C61.4366 31.0136 61.3727 30.8704 61.2449 30.7544C61.1194 30.6383 60.9264 30.5508 60.666 30.4916L59.7427 30.2892C59.2337 30.1731 58.8573 29.9885 58.6135 29.7352C58.372 29.4819 58.2512 29.1611 58.2512 28.7728C58.2512 28.4508 58.3412 28.1691 58.5211 27.9276C58.7011 27.6862 58.9496 27.498 59.2669 27.363C59.5841 27.2257 59.9475 27.157 60.3571 27.157C60.9466 27.157 61.4106 27.2849 61.7491 27.5406C62.0877 27.7939 62.3114 28.1336 62.4203 28.5597Z" fill="white"/>
</g>
<defs>
<clipPath id="clip0_1_3978">
<rect width="249.25" height="129.22" rx="10" fill="white"/>
</clipPath>
<clipPath id="clip1_1_3978">
<rect width="179" height="57" fill="white" transform="translate(35.8633 36.7285)"/>
</clipPath>
</defs>
</svg>
