<svg width="250" height="130" viewBox="0 0 250 130" fill="none" xmlns="http://www.w3.org/2000/svg">
<rect width="249.25" height="129.22" rx="10" fill="#19191A"/>
<g clip-path="url(#clip0_1_4000)">
<path d="M58.5248 51.8344L75.2611 59.6169C74.8677 59.3544 66.9095 54.0048 64.4517 49.7764C61.9314 45.4411 62.112 42.234 64.2458 39.1301C66.3803 36.0262 71.6515 34.076 79.6745 34.5893C87.6974 35.1027 96.5242 37.5331 103.142 43.4755C103.142 43.4755 97.4947 33.4603 83.1205 30.6642C68.7463 27.8681 57.6885 33.5118 51.3119 39.3094C49.6209 40.8464 48.753 42.3133 48.4668 43.7117C48.5964 47.9755 58.5248 51.8344 58.5248 51.8344Z" fill="white"/>
<path d="M64.2465 90.5752C62.112 87.4713 61.9322 84.2642 64.4525 79.9289C66.9728 75.5936 75.2781 70.0776 75.2781 70.0776L58.5248 77.8678C58.5248 77.8678 48.5925 81.7283 48.4668 85.9936C48.753 87.392 49.6209 88.8589 51.3119 90.3966C57.6893 96.1942 68.7463 101.839 83.1205 99.0419C97.4947 96.2458 103.142 86.2306 103.142 86.2306C96.5242 92.1729 87.6974 94.6034 79.6745 95.1168C71.6515 95.6301 66.3803 93.6799 64.2458 90.5759L64.2465 90.5752Z" fill="white"/>
<path d="M58.5239 77.8681L75.2772 70.078C75.2772 70.078 80.0346 67.5382 80.0346 65.0238C80.0346 64.9661 80.0323 64.9091 80.0292 64.8522C80.0323 64.7952 80.0346 64.7383 80.0346 64.6805C80.0346 62.1662 75.2772 59.6264 75.2772 59.6264C75.2772 59.6264 75.271 59.6218 75.261 59.6156L58.5247 51.8331C58.5247 51.8331 48.5963 47.9742 48.4667 43.7104C47.6737 47.5871 51.355 50.9373 54.3975 53.8034C58.463 57.6323 60.2704 61.4366 60.2373 64.8522C60.2704 68.2678 58.463 72.0721 54.3975 75.901C51.355 78.7663 47.6744 82.1173 48.4667 85.9931C48.5924 81.7278 58.5247 77.8674 58.5247 77.8674L58.5239 77.8681Z" fill="white"/>
<path d="M89.4405 66.5398C89.4405 66.9385 89.6403 67.2371 90.04 67.4364C90.4388 67.6358 90.9448 67.7389 91.5574 67.7451C92.1691 67.752 92.7685 67.7258 93.3548 67.6681C93.9411 67.6104 94.495 67.5427 95.0165 67.4657C95.538 67.3887 95.8381 67.3503 95.9152 67.3503C95.9669 68.4685 95.7447 69.2589 95.2487 69.7215C94.7527 70.184 93.7575 70.4157 92.2625 70.4157C90.2012 70.4157 88.6869 69.9978 87.721 69.1627C86.7544 68.3277 86.2715 66.8815 86.2715 64.8243C86.2715 63.7961 86.4034 62.9249 86.6672 62.2114C86.9311 61.498 87.3176 60.9554 87.8267 60.5821C88.3359 60.2096 88.9021 59.9456 89.5277 59.7917C90.1526 59.6378 90.8839 59.5601 91.7209 59.5601C93.3186 59.5601 94.4942 59.8972 95.2479 60.5721C96.0016 61.2471 96.3788 62.3238 96.3788 63.8015C96.3788 64.3672 96.2693 64.8205 96.0502 65.1607C95.8311 65.5016 95.5442 65.7294 95.1901 65.8449C94.8352 65.9603 94.4101 66.0442 93.9149 66.0958C93.4188 66.1473 92.929 66.1635 92.4461 66.1442C91.9631 66.125 91.4409 66.1473 90.8808 66.212C90.3208 66.2766 89.8402 66.3851 89.4413 66.5398H89.4405ZM89.3441 64.5149C89.5632 64.361 89.9204 64.2579 90.4164 64.2063C90.9124 64.1547 91.3761 64.1263 91.8081 64.1193C92.2393 64.1132 92.6227 64.0231 92.9583 63.8492C93.2931 63.676 93.4543 63.4028 93.4412 63.0295C93.4412 62.6955 93.1774 62.4192 92.649 62.2007C91.9145 61.892 91.1994 61.8666 90.5036 62.1237C89.537 62.4708 89.1505 63.2681 89.3441 64.5142V64.5149Z" fill="white"/>
<path d="M108.826 63.2236V70.2418C108.374 70.2672 107.988 70.2642 107.666 70.2326C107.344 70.2003 107.038 70.1264 106.748 70.011C106.458 69.8955 106.246 69.7054 106.11 69.4422C105.975 69.179 105.913 68.848 105.927 68.4494V63.2821C105.734 62.3439 104.857 61.9706 103.298 62.1638C102.487 62.2669 102.016 62.3439 101.887 62.3955C101.926 62.6141 101.945 62.8711 101.945 63.1666V68.4494C101.958 68.848 101.893 69.179 101.752 69.4422C101.61 69.7054 101.397 69.8955 101.114 70.011C100.83 70.1264 100.528 70.2011 100.206 70.2326C99.8839 70.2649 99.4974 70.268 99.0469 70.2418V60.8524C99.0469 60.0173 100.393 59.5671 103.086 59.5024C106.9 59.4001 108.813 60.64 108.826 63.2236H108.826Z" fill="white"/>
<path d="M118.932 55.3765C119.125 55.5181 119.367 55.6081 119.656 55.6466C119.946 55.6851 120.21 55.7043 120.448 55.7043C120.687 55.7043 120.915 55.7397 121.134 55.8105C121.353 55.8813 121.524 56.0514 121.646 56.3216C121.769 56.5917 121.83 56.9835 121.83 57.4976V68.8735C121.817 68.8865 121.756 68.9604 121.646 69.0951C121.537 69.2298 121.437 69.3391 121.347 69.423C121.257 69.5069 121.089 69.6154 120.845 69.7508C120.6 69.8855 120.33 69.9917 120.033 70.0687C119.737 70.1457 119.337 70.2165 118.835 70.2811C118.333 70.345 117.765 70.3773 117.134 70.3773C115.15 70.3773 113.726 69.9502 112.863 69.0951C112 68.2408 111.568 66.817 111.568 64.8244C111.568 64.0533 111.671 63.3621 111.878 62.7518C112.084 62.1415 112.358 61.6428 112.699 61.2572C113.04 60.8716 113.443 60.5507 113.907 60.2929C114.371 60.0358 114.842 59.8557 115.318 59.7533C115.795 59.651 116.291 59.5994 116.806 59.5994C117.798 59.5994 118.507 59.7533 118.932 60.062V55.3765H118.932ZM118.932 65.0168V62.2793C118.764 62.2277 118.581 62.1831 118.381 62.1446C118.181 62.1061 117.933 62.0769 117.636 62.0576C117.34 62.0384 117.059 62.0415 116.796 62.0676C116.532 62.0938 116.257 62.1708 115.974 62.2993C115.691 62.4278 115.446 62.5979 115.24 62.8103C115.034 63.0227 114.865 63.3183 114.737 63.6969C114.609 64.0764 114.545 64.5227 114.545 65.0369C114.545 65.551 114.622 65.9496 114.777 66.3091C114.931 66.6692 115.122 66.9455 115.347 67.1379C115.572 67.3311 115.849 67.475 116.178 67.572C116.506 67.669 116.803 67.7259 117.066 67.7452C117.33 67.7644 117.617 67.7583 117.927 67.7259C118.236 67.6944 118.451 67.6651 118.574 67.639C118.696 67.6136 118.809 67.5874 118.912 67.562H118.931C118.944 67.562 118.944 66.7139 118.931 65.0168H118.932Z" fill="white"/>
<path d="M124.576 64.901C124.562 64.824 124.553 64.7209 124.546 64.5924C124.539 64.4638 124.559 64.2137 124.604 63.8404C124.649 63.4679 124.723 63.1108 124.826 62.7707C124.929 62.4305 125.109 62.0541 125.367 61.6424C125.625 61.2314 125.943 60.8781 126.324 60.5818C126.703 60.2863 127.215 60.0392 127.86 59.8391C128.505 59.6398 129.239 59.5405 130.064 59.5405C130.644 59.5405 131.178 59.5859 131.667 59.6752C132.157 59.7653 132.578 59.8876 132.933 60.0416C133.287 60.1955 133.603 60.3887 133.881 60.6203C134.158 60.852 134.386 61.0798 134.566 61.3045C134.747 61.5293 134.898 61.7963 135.021 62.1049C135.143 62.4136 135.236 62.6806 135.301 62.9053C135.365 63.1301 135.41 63.3941 135.436 63.6958C135.461 63.9982 135.478 64.226 135.484 64.38C135.491 64.5339 135.491 64.7301 135.484 64.968C135.478 65.2058 135.475 65.3374 135.475 65.3635C135.475 65.569 135.468 65.7561 135.456 65.9231C135.443 66.0901 135.404 66.3541 135.34 66.7135C135.275 67.0737 135.186 67.3946 135.069 67.6778C134.954 67.961 134.77 68.2689 134.519 68.6029C134.267 68.9377 133.971 69.2171 133.63 69.4418C133.288 69.6665 132.844 69.8566 132.296 70.0106C131.748 70.1645 131.133 70.2422 130.451 70.2422C129.769 70.2422 129.111 70.1976 128.557 70.1075C128.003 70.0175 127.532 69.899 127.146 69.7512C126.76 69.6034 126.422 69.401 126.132 69.144C125.842 68.8869 125.606 68.6237 125.426 68.3536C125.246 68.0834 125.098 67.7494 124.982 67.3507C124.866 66.9528 124.779 66.5696 124.721 66.2032C124.664 65.8369 124.615 65.4028 124.576 64.9018L124.576 64.901ZM127.455 65.0742C127.494 65.5244 127.549 65.8807 127.62 66.144C127.691 66.4072 127.819 66.6681 128.006 66.9251C128.193 67.1822 128.473 67.3684 128.847 67.4846C129.22 67.6001 129.697 67.6578 130.277 67.6578C130.728 67.6578 131.114 67.587 131.437 67.4454C131.758 67.3038 131.997 67.1437 132.152 66.9636C132.306 66.7835 132.429 66.5657 132.519 66.3079C132.609 66.0508 132.661 65.8584 132.673 65.7291C132.686 65.6006 132.693 65.459 132.693 65.3051V64.794C132.693 64.7109 132.686 64.5854 132.673 64.4177C132.66 64.2507 132.638 64.106 132.605 63.9836C132.573 63.8612 132.528 63.7173 132.47 63.5495C132.413 63.3825 132.342 63.2378 132.258 63.1155C132.174 62.9931 132.065 62.8684 131.93 62.7391C131.795 62.6106 131.643 62.5044 131.475 62.4212C131.308 62.3381 131.105 62.2704 130.867 62.2188C130.628 62.1673 130.368 62.1419 130.084 62.1419C129.568 62.1419 129.13 62.2127 128.769 62.3543C128.408 62.4959 128.144 62.6598 127.977 62.8461C127.809 63.0323 127.681 63.2771 127.59 63.5788C127.5 63.8812 127.451 64.116 127.445 64.2822C127.438 64.4492 127.442 64.6616 127.455 64.9187V65.0726V65.0742Z" fill="white"/>
<path d="M145.313 59.5405C145.3 59.5667 145.304 59.7014 145.323 59.9454C145.342 60.1893 145.339 60.4241 145.313 60.6488C145.287 60.8735 145.236 61.1152 145.158 61.3715C145.081 61.6285 144.923 61.834 144.685 61.9887C144.446 62.1426 144.14 62.2204 143.767 62.2204C143.226 62.2204 142.807 62.2396 142.511 62.2781C142.215 62.3166 141.95 62.4128 141.719 62.5675C141.486 62.7214 141.332 62.9408 141.255 63.2232C141.178 63.5064 141.139 63.892 141.139 64.38V70.5501C140.907 70.3831 140.601 70.2515 140.221 70.1545C139.841 70.0583 139.519 69.9844 139.255 69.9328C138.99 69.8813 138.756 69.7304 138.55 69.4795C138.344 69.2286 138.24 68.8661 138.24 68.3905V63.2232C138.24 63.1462 138.243 63.04 138.249 62.9053C138.256 62.7707 138.279 62.5844 138.317 62.3458C138.356 62.108 138.42 61.8702 138.51 61.6324C138.6 61.3946 138.735 61.1475 138.916 60.8897C139.097 60.6326 139.315 60.4079 139.573 60.2147C139.831 60.0215 140.163 59.8615 140.568 59.7329C140.974 59.6044 141.429 59.5405 141.931 59.5405H145.313Z" fill="white"/>
<path d="M150.569 74.5033C150.337 74.3363 150.031 74.2362 149.651 74.2047C149.271 74.1724 148.949 74.1562 148.684 74.1562C148.42 74.1562 148.185 74.0177 147.979 73.7414C147.773 73.4651 147.67 73.0118 147.67 72.3822V61.0063C147.682 60.994 147.744 60.9193 147.854 60.7846C147.963 60.65 148.063 60.5438 148.153 60.4668C148.243 60.3898 148.41 60.2805 148.655 60.1389C148.9 59.9973 149.17 59.888 149.467 59.8111C149.763 59.7341 150.162 59.6633 150.665 59.5986C151.167 59.5348 151.734 59.5024 152.366 59.5024C154.35 59.5024 155.773 59.9296 156.637 60.7846C157.5 61.6397 157.932 63.0627 157.932 65.0553C157.932 66.0197 157.778 66.8547 157.469 67.562C157.159 68.2693 156.744 68.8127 156.222 69.1913C155.701 69.5707 155.146 69.847 154.56 70.0202C153.974 70.1934 153.352 70.2803 152.696 70.2803C151.807 70.2803 151.098 70.1903 150.57 70.0102V74.5025L150.569 74.5033ZM150.569 64.8621V67.5997C150.775 67.6644 150.997 67.7152 151.235 67.7536C151.474 67.7921 151.773 67.8244 152.134 67.8498C152.494 67.876 152.83 67.8375 153.139 67.7344C153.449 67.632 153.745 67.4835 154.028 67.2911C154.311 67.0987 154.537 66.7901 154.705 66.366C154.872 65.9419 154.956 65.434 154.956 64.8429C154.956 64.3542 154.876 63.9301 154.715 63.5707C154.553 63.2113 154.367 62.9342 154.154 62.7418C153.941 62.5494 153.661 62.4047 153.313 62.3077C152.965 62.2115 152.675 62.1538 152.444 62.1346C152.211 62.1153 151.922 62.1253 151.574 62.1638C151.226 62.2023 151.013 62.2285 150.936 62.2408C150.859 62.2539 150.743 62.2793 150.588 62.3177H150.569C150.556 62.3177 150.556 63.1659 150.569 64.8629V64.8621Z" fill="white"/>
<path d="M163.556 59.9069C164.188 59.6498 165.244 59.5213 166.726 59.5213C167.448 59.5213 168.066 59.6437 168.582 59.8877C169.097 60.1316 169.47 60.4118 169.703 60.7265C169.935 61.0413 170.111 61.4015 170.234 61.8063C170.356 62.2112 170.424 62.5136 170.437 62.7122C170.449 62.9115 170.449 63.0816 170.437 63.2232V70.2415C168.504 70.4985 167.538 69.9013 167.538 68.4482V66.3271C167.55 64.4123 167.461 63.2455 167.267 62.8276C167.074 62.4097 166.468 62.1881 165.45 62.1627C164.819 62.1627 164.188 62.2781 163.556 62.5098V68.4482C163.582 69.2194 163.34 69.7243 162.832 69.9621C162.323 70.1999 161.599 70.293 160.658 70.2415V55.2021C160.89 55.3692 161.196 55.4692 161.576 55.5008C161.956 55.5331 162.278 55.5492 162.543 55.5492C162.807 55.5492 163.042 55.6878 163.248 55.9641C163.454 56.2404 163.557 56.6937 163.557 57.3232V59.9069H163.556Z" fill="white"/>
<path d="M173.663 58.4417C173.367 58.133 173.219 57.7667 173.219 57.3426C173.219 56.9186 173.37 56.5553 173.673 56.2536C173.976 55.9519 174.34 55.8003 174.765 55.8003C175.19 55.8003 175.554 55.9519 175.857 56.2536C176.159 56.5561 176.311 56.9186 176.311 57.3426C176.311 57.7667 176.16 58.13 175.857 58.4317C175.554 58.7341 175.191 58.885 174.765 58.885C174.339 58.885 173.972 58.7372 173.663 58.4417ZM176.195 61.4686C176.195 60.8391 176.092 60.3857 175.886 60.1094C175.68 59.8332 175.444 59.6946 175.181 59.6946C174.917 59.6946 174.594 59.6785 174.214 59.6461C173.834 59.6146 173.528 59.5145 173.296 59.3475V70.2409C174.236 70.2924 174.961 70.1993 175.47 69.9615C175.979 69.7237 176.22 69.2188 176.194 68.4476V61.4678L176.195 61.4686Z" fill="white"/>
<path d="M188.833 63.2236V70.2418C188.382 70.2672 187.996 70.2642 187.674 70.2326C187.351 70.2003 187.046 70.1264 186.756 70.011C186.466 69.8955 186.254 69.7054 186.118 69.4422C185.983 69.179 185.921 68.848 185.934 68.4494V63.2821C185.741 62.3439 184.864 61.9706 183.306 62.1638C182.495 62.2669 182.024 62.3439 181.895 62.3955C181.934 62.6141 181.953 62.8711 181.953 63.1666V68.4494C181.965 68.848 181.901 69.179 181.76 69.4422C181.618 69.7054 181.405 69.8955 181.122 70.011C180.838 70.1264 180.536 70.2011 180.214 70.2326C179.892 70.2649 179.505 70.268 179.055 70.2418V60.8524C179.055 60.0173 180.401 59.5671 183.094 59.5024C186.908 59.4001 188.821 60.64 188.834 63.2236H188.833Z" fill="white"/>
<path d="M192.351 62.2401C192.351 62.2016 192.344 62.15 192.332 62.0861C192.319 62.0223 192.316 61.8968 192.322 61.7098C192.329 61.5235 192.348 61.3465 192.38 61.1795C192.413 61.0125 192.477 60.8232 192.574 60.6108C192.67 60.3983 192.799 60.219 192.96 60.0712C193.122 59.9235 193.34 59.798 193.618 59.6949C193.895 59.5925 194.22 59.541 194.594 59.541H195.134C195.469 59.5287 195.814 59.5287 196.168 59.541C196.522 59.5541 196.876 59.5702 197.231 59.5895C197.585 59.6087 197.93 59.6633 198.265 59.7534C198.6 59.8434 198.918 59.9527 199.221 60.0813C199.524 60.2098 199.802 60.393 200.052 60.6308C200.304 60.8686 200.523 61.1418 200.71 61.4504C200.896 61.759 201.041 62.1385 201.145 62.5879C201.247 63.0382 201.299 63.5454 201.299 64.111V66.2321C201.299 66.7593 201.241 67.238 201.125 67.6683C201.01 68.0993 200.865 68.4494 200.69 68.7188C200.517 68.9889 200.301 69.2268 200.043 69.4323C199.785 69.6377 199.544 69.7886 199.319 69.8856C199.093 69.9818 198.832 70.0587 198.536 70.1172C198.239 70.1749 198.01 70.2104 197.85 70.2234C197.689 70.2365 197.499 70.2427 197.28 70.2427H194.613C194.574 70.2427 194.516 70.2396 194.439 70.2334C194.362 70.2273 194.217 70.208 194.004 70.1757C193.791 70.1434 193.588 70.0957 193.396 70.031C193.203 69.9671 192.987 69.8609 192.748 69.7132C192.51 69.5654 192.307 69.3922 192.14 69.1929C191.972 68.9936 191.83 68.7334 191.715 68.4117C191.599 68.0908 191.541 67.7306 191.541 67.3319C191.541 66.6254 191.631 66.0305 191.812 65.5487C191.992 65.0669 192.266 64.6936 192.633 64.4304C193.001 64.1672 193.409 63.984 193.861 63.8809C194.311 63.7786 194.859 63.727 195.503 63.727C196.624 63.727 197.388 63.6531 197.794 63.5053C198.199 63.3576 198.402 63.129 198.402 62.8211C198.402 62.384 197.98 62.0885 197.136 61.9345C196.292 61.7806 195.397 61.7483 194.45 61.8383C193.503 61.9284 192.804 62.0631 192.353 62.2431L192.351 62.2401ZM198.477 65.1516C198.425 65.2162 198.351 65.2932 198.255 65.3832C198.158 65.4733 197.942 65.5926 197.608 65.7396C197.273 65.8873 196.925 65.9612 196.564 65.9612C195.933 65.9612 195.421 66.0382 195.027 66.1929C194.634 66.3468 194.438 66.5662 194.438 66.8486C194.438 67.1826 194.58 67.4335 194.863 67.6005C195.146 67.7675 195.713 67.8514 196.564 67.8514C196.912 67.8514 197.179 67.8484 197.366 67.8422C197.553 67.836 197.726 67.7876 197.888 67.6975C198.049 67.6075 198.161 67.5243 198.226 67.4466C198.29 67.3696 198.344 67.2057 198.39 66.9548C198.435 66.7039 198.461 66.463 198.467 66.2321C198.473 66.0005 198.476 65.6411 198.476 65.1523L198.477 65.1516Z" fill="white"/>
</g>
<defs>
<clipPath id="clip0_1_4000">
<rect width="154" height="71" fill="white" transform="translate(47.8633 29.8496)"/>
</clipPath>
</defs>
</svg>
