<svg width="20" height="20" viewBox="0 0 20 20" fill="none" xmlns="http://www.w3.org/2000/svg">
<g clip-path="url(#clip0_7901_834)">
<path d="M0.507812 3.51562L0.950012 3.9389C1.03195 4.01733 2.98462 5.85938 5.4567 5.85938C6.31607 5.85938 7.11273 5.6366 7.78976 5.34286C7.11609 6.61499 6.72363 8.0217 6.64413 9.4841C4.0036 9.76944 1.94107 12.0114 1.94107 14.7266C1.94107 17.6343 4.30679 20 7.21451 20C8.51852 20 9.76974 19.5157 10.7318 18.6549C11.6652 19.4908 12.897 20 14.2458 20C17.1536 20 19.5192 17.6343 19.5192 14.7266C19.5192 12.0169 17.4648 9.77829 14.8317 9.48593V6.2442C14.8317 4.26331 15.6032 2.40097 17.0038 1.00021L18.0042 0H16.5895C13.9902 0 11.5395 1.00616 9.66827 2.836C9.02405 2.3114 7.40112 1.17188 5.4567 1.17188C2.98462 1.17188 1.03195 3.01392 0.950012 3.09235L0.507812 3.51562ZM3.11295 14.7266C3.11295 12.4649 4.953 10.625 7.21451 10.625C8.22861 10.625 9.20181 11.0016 9.9501 11.6711C9.33472 12.5337 8.97232 13.5886 8.97232 14.7266C8.97232 15.8646 9.33472 16.9194 9.9501 17.782C9.20181 18.4515 8.22861 18.8281 7.21451 18.8281C4.953 18.8281 3.11295 16.9882 3.11295 14.7266ZM18.3473 14.7266C18.3473 16.9882 16.5074 18.8281 14.2458 18.8281C11.9843 18.8281 10.1442 16.9882 10.1442 14.7266C10.1442 12.4649 11.9843 10.625 14.2458 10.625C16.5074 10.625 18.3473 12.4649 18.3473 14.7266ZM15.2419 1.27594C14.2433 2.68326 13.6598 4.41467 13.6598 6.2442V9.48578C12.5418 9.60999 11.5282 10.085 10.7318 10.7982C9.91928 10.0711 8.90045 9.61304 7.81769 9.48807C8.07281 5.30975 11.209 1.90475 15.2419 1.27594ZM5.4567 2.34375C6.78436 2.34375 7.97531 3.04382 8.62823 3.51669C7.97775 3.98926 6.79108 4.6875 5.4567 4.6875C4.12903 4.6875 2.93777 3.98712 2.28516 3.51456C2.93564 3.04199 4.12231 2.34375 5.4567 2.34375Z" fill="white"/>
<path d="M11.3164 14.7266H12.4883C12.4883 13.7573 13.2769 12.9687 14.2461 12.9687V11.7969C12.6306 11.7969 11.3164 13.1111 11.3164 14.7266Z" fill="white"/>
<path d="M4.28516 14.7266H5.45703C5.45703 13.7573 6.24561 12.9687 7.21484 12.9687V11.7969C5.5994 11.7969 4.28516 13.1111 4.28516 14.7266Z" fill="white"/>
</g>
<defs>
<clipPath id="clip0_7901_834">
<rect width="20" height="20" fill="white"/>
</clipPath>
</defs>
</svg>
