<svg width="20" height="20" viewBox="0 0 20 20" fill="none" xmlns="http://www.w3.org/2000/svg">
<path d="M9.16602 14.1668L10.8327 15.8335C10.9968 15.9976 11.1917 16.1279 11.4062 16.2167C11.6207 16.3055 11.8505 16.3513 12.0827 16.3513C12.3148 16.3513 12.5447 16.3055 12.7592 16.2167C12.9737 16.1279 13.1685 15.9976 13.3327 15.8335C13.4968 15.6693 13.627 15.4745 13.7159 15.26C13.8047 15.0455 13.8504 14.8156 13.8504 14.5835C13.8504 14.3513 13.8047 14.1215 13.7159 13.907C13.627 13.6925 13.4968 13.4976 13.3327 13.3335" stroke="white" stroke-width="2" stroke-linecap="round" stroke-linejoin="round"/>
<path d="M11.6669 11.6666L13.7502 13.7499C14.0817 14.0815 14.5313 14.2677 15.0002 14.2677C15.469 14.2677 15.9187 14.0815 16.2502 13.7499C16.5817 13.4184 16.768 12.9688 16.768 12.4999C16.768 12.0311 16.5817 11.5815 16.2502 11.2499L13.0169 8.0166C12.5481 7.54843 11.9127 7.28546 11.2502 7.28546C10.5877 7.28546 9.95227 7.54843 9.48352 8.0166L8.75019 8.74993C8.41867 9.08145 7.96903 9.2677 7.50019 9.2677C7.03135 9.2677 6.58171 9.08145 6.25019 8.74993C5.91867 8.41841 5.73242 7.96877 5.73242 7.49993C5.73242 7.03109 5.91867 6.58145 6.25019 6.24993L8.59186 3.90826C9.35206 3.15005 10.3434 2.66706 11.4091 2.53574C12.4747 2.40443 13.5537 2.63229 14.4752 3.18326L14.8669 3.4166C15.2217 3.63075 15.6436 3.70503 16.0502 3.62493L17.5002 3.33326" stroke="white" stroke-width="2" stroke-linecap="round" stroke-linejoin="round"/>
<path d="M17.4993 2.5L18.3327 11.6667H16.666M2.49935 2.5L1.66602 11.6667L7.08268 17.0833C7.4142 17.4149 7.86384 17.6011 8.33268 17.6011C8.80152 17.6011 9.25116 17.4149 9.58268 17.0833C9.9142 16.7518 10.1004 16.3022 10.1004 15.8333C10.1004 15.3645 9.9142 14.9149 9.58268 14.5833M2.49935 3.33333H9.16602" stroke="white" stroke-width="2" stroke-linecap="round" stroke-linejoin="round"/>
</svg>
