<svg width="24" height="24" viewBox="0 0 24 24" fill="none" xmlns="http://www.w3.org/2000/svg">
<g clip-path="url(#clip0_7901_2268)">
<path d="M21.2571 11.2153H2.72296C1.42822 11.2153 0.375 12.2686 0.375 13.5633V21.6522C0.375 22.9467 1.42822 23.9999 2.72296 23.9999H21.2571C22.5518 23.9999 23.605 22.9467 23.605 21.6522V13.5633C23.605 12.2686 22.5518 11.2153 21.2571 11.2153ZM22.1988 21.6522C22.1988 22.1713 21.7764 22.5937 21.2571 22.5937H2.72296C2.20367 22.5937 1.78125 22.1713 1.78125 21.6522V13.5633C1.78125 13.044 2.20367 12.6216 2.72296 12.6216H21.2571C21.7764 12.6216 22.1988 13.044 22.1988 13.5633V21.6522Z" fill="white"/>
<path d="M11.991 7.5301C12.5497 7.5301 13.1083 7.31788 13.5337 6.89326C13.9462 6.48164 14.1733 5.93416 14.1733 5.3517C14.1733 4.76924 13.9462 4.22176 13.5337 3.81013C12.683 2.96108 11.2989 2.96108 10.4482 3.81013C10.0356 4.22176 9.80859 4.76924 9.80859 5.3517C9.80859 5.93416 10.0356 6.48164 10.4482 6.89326C10.8735 7.31788 11.4322 7.5301 11.991 7.5301ZM11.4415 4.80531C11.5931 4.65407 11.792 4.57863 11.991 4.57863C12.1899 4.57863 12.3887 4.65425 12.5402 4.80531C12.6865 4.95125 12.767 5.14534 12.767 5.3517C12.767 5.55806 12.6865 5.75197 12.5403 5.89808C12.2373 6.20039 11.7446 6.20021 11.4415 5.89808C11.2952 5.75197 11.2148 5.55806 11.2148 5.3517C11.2148 5.14534 11.2954 4.95143 11.4415 4.80531Z" fill="white"/>
<path d="M14.5608 8.42629C14.6982 8.56398 14.8783 8.63283 15.0585 8.63283C15.2383 8.63283 15.418 8.56435 15.5553 8.42739C16.3783 7.60579 16.8317 6.51357 16.8317 5.35158C16.8317 4.1896 16.3783 3.09719 15.5553 2.27578C15.2804 2.00149 14.8351 2.00185 14.5608 2.2767C14.2866 2.55154 14.2871 2.99685 14.5619 3.27114C15.1188 3.82687 15.4255 4.5657 15.4255 5.35158C15.4255 6.13729 15.1188 6.8763 14.5619 7.43203C14.2871 7.70632 14.2866 8.15145 14.5608 8.42629Z" fill="white"/>
<path d="M8.42486 8.42755C8.56219 8.56451 8.74182 8.63299 8.92163 8.63299C9.10181 8.63299 9.28198 8.56414 9.41931 8.42645C9.6936 8.15161 9.69305 7.70648 9.41821 7.43219C8.86139 6.87628 8.55469 6.13745 8.55469 5.35156C8.55469 4.56586 8.86139 3.82703 9.41821 3.27112C9.69305 2.99683 9.6936 2.5517 9.41931 2.27686C9.14502 2.00183 8.69971 2.00147 8.42486 2.27576C7.60181 3.09735 7.14862 4.18957 7.14844 5.35156C7.14844 6.51355 7.60181 7.60595 8.42486 8.42755Z" fill="white"/>
<path d="M6.48706 19.78H4.59961V14.7319C4.59961 14.3436 4.28485 14.0288 3.89648 14.0288C3.50812 14.0288 3.19336 14.3436 3.19336 14.7319V20.4831C3.19336 20.8715 3.50812 21.1862 3.89648 21.1862H6.48706C6.87524 21.1862 7.19018 20.8715 7.19018 20.4831C7.19018 20.0949 6.87524 19.78 6.48706 19.78Z" fill="white"/>
<path d="M8.66602 14.0288C8.27765 14.0288 7.96289 14.3436 7.96289 14.7319V20.4831C7.96289 20.8715 8.27765 21.1862 8.66602 21.1862C9.0542 21.1862 9.36914 20.8715 9.36914 20.4831V14.7319C9.36914 14.3436 9.0542 14.0288 8.66602 14.0288Z" fill="white"/>
<path d="M14.8147 14.059C14.4432 13.9468 14.0506 14.1572 13.9383 14.5289L12.8752 18.0505L11.8119 14.5289C11.6997 14.157 11.3073 13.9468 10.9356 14.059C10.5639 14.1713 10.3535 14.5637 10.4657 14.9354L12.2021 20.6865C12.2023 20.6871 12.2025 20.6876 12.2027 20.6882C12.394 21.3005 13.3367 21.3376 13.5478 20.6882C13.548 20.6876 13.5481 20.6872 13.5483 20.6865L15.2847 14.9354C15.397 14.5635 15.1864 14.1713 14.8147 14.059Z" fill="white"/>
<path d="M20.084 15.4351C20.4724 15.4351 20.7872 15.1203 20.7872 14.7319C20.7872 14.3436 20.4724 14.0288 20.084 14.0288H16.9121C16.5237 14.0288 16.209 14.3436 16.209 14.7319V20.4831C16.209 20.8715 16.5237 21.1862 16.9121 21.1862H19.9894C20.3777 21.1862 20.6925 20.8715 20.6925 20.4831C20.6925 20.0949 20.3777 19.78 19.9894 19.78H17.6152V17.9485H19.6105C19.9989 17.9485 20.3137 17.6338 20.3137 17.2454C20.3137 16.8571 19.9989 16.5423 19.6105 16.5423H17.6152V15.4351H20.084Z" fill="white"/>
<path d="M17.8744 5.35146C17.8744 6.91921 17.2627 8.39339 16.1518 9.50209C15.8769 9.77638 15.8764 10.2217 16.1507 10.4965C16.2882 10.634 16.4682 10.7029 16.6484 10.7029C16.8282 10.7029 17.0078 10.6344 17.1451 10.4975C18.5223 9.12306 19.2807 7.29549 19.2807 5.35146C19.2807 3.40761 18.5223 1.57986 17.1451 0.205467C16.8703 -0.0688244 16.4252 -0.0684582 16.1507 0.206383C15.8764 0.481224 15.8769 0.926536 16.1518 1.20083C17.2627 2.30953 17.8744 3.78353 17.8744 5.35146Z" fill="white"/>
<path d="M7.33154 10.7031C7.51172 10.7031 7.69189 10.6342 7.82922 10.4967C8.10351 10.2219 8.10315 9.77654 7.82812 9.50225C6.71722 8.39355 6.10547 6.91937 6.10547 5.35144C6.10547 3.78369 6.71722 2.30951 7.82812 1.20081C8.10296 0.926513 8.10351 0.481201 7.82922 0.206543C7.55475 -0.068481 7.10962 -0.0688472 6.83478 0.205445C5.45764 1.58002 4.69922 3.40759 4.69922 5.35144C4.69922 7.29547 5.45764 9.12304 6.83478 10.4976C6.97211 10.6346 7.15173 10.7031 7.33154 10.7031Z" fill="white"/>
</g>
<defs>
<clipPath id="clip0_7901_2268">
<rect width="24" height="24" fill="white"/>
</clipPath>
</defs>
</svg>
