<svg width="24" height="24" viewBox="0 0 24 24" fill="none" xmlns="http://www.w3.org/2000/svg">
<path d="M23.5684 5.06225C23.1874 4.48876 22.6058 4.09802 21.9309 3.96215L13.6884 2.30102C12.5334 2.06829 11.4 2.6513 10.8862 3.6516H2.57757C1.15631 3.6516 0 4.80792 0 6.22918V19.1963C0 20.6176 1.15631 21.7739 2.57757 21.7739H10.9856C11.8597 21.7739 12.633 21.3361 13.0994 20.6689L18.3505 21.7272H18.3506C18.5217 21.7616 18.6923 21.7783 18.8606 21.7783C20.0619 21.7783 21.1403 20.9316 21.3867 19.7096L23.9484 6.99804C24.0844 6.32311 23.9495 5.63574 23.5684 5.06225ZM18.6282 20.3488H18.6284L13.5599 19.3274C13.5623 19.284 13.5634 19.2403 13.5634 19.1963V13.1277L15.1578 16.2897L19.3788 12.691L16.8812 7.73852L13.5634 10.5671V6.22918C13.5634 5.29772 13.0666 4.48034 12.3243 4.02734C12.5929 3.74133 12.9988 3.59631 13.4106 3.67925L21.6531 5.34039C21.9598 5.40209 22.2242 5.5797 22.3975 5.84045C22.5707 6.10101 22.632 6.41357 22.5701 6.72027L20.0085 19.4318C19.8807 20.065 19.2621 20.4766 18.6282 20.3488ZM10.9856 20.3678H2.57757C1.93158 20.3678 1.40588 19.8423 1.40588 19.1963V6.22918C1.40588 5.58318 1.93158 5.05767 2.57757 5.05767H10.9856C11.6318 5.05767 12.1573 5.58318 12.1573 6.22918V19.1963C12.1573 19.8423 11.6318 20.3678 10.9856 20.3678ZM14.4131 11.6903L16.4315 9.96929L17.6259 12.3378L15.6075 14.0588L14.4131 11.6903Z" fill="white"/>
<path d="M9.97339 13.465C10.3731 13.012 10.5934 12.4296 10.5934 11.825C10.5934 10.4579 9.4812 9.3457 8.11413 9.3457C7.63788 9.3457 7.17627 9.48322 6.78204 9.73462C6.38763 9.48322 5.92621 9.3457 5.44977 9.3457C4.08289 9.3457 2.9707 10.4579 2.9707 11.825C2.9707 12.5358 3.27649 13.2134 3.80988 13.6842C4.11877 13.9568 6.7749 16.3101 6.7749 16.3101C6.7749 16.3101 9.63299 13.8506 9.97339 13.465ZM4.37659 11.825C4.37659 11.2332 4.85815 10.7518 5.44977 10.7518C5.75738 10.7518 6.05072 10.8843 6.25488 11.1158L6.78204 11.7134L7.3092 11.1158C7.51318 10.8843 7.8067 10.7518 8.11413 10.7518C8.70593 10.7518 9.18732 11.2332 9.18732 11.825C9.18732 12.0866 9.0921 12.3387 8.91925 12.5347C8.74768 12.7289 7.68896 13.6633 6.78809 14.4435C6.12634 13.8572 4.96088 12.8247 4.74023 12.6301C4.50916 12.4261 4.37659 12.1328 4.37659 11.825Z" fill="white"/>
</svg>
