<svg width="20" height="20" viewBox="0 0 20 20" fill="none" xmlns="http://www.w3.org/2000/svg">
<g clip-path="url(#clip0_7901_820)">
<path d="M18.2381 19.9977H11.9649V12.4828H8.03502V19.9977H1.76182V12.4828C1.03752 12.4828 0.415343 12.0671 0.138214 11.3979C-0.138915 10.7288 0.00703049 9.99492 0.519188 9.48277L10 0.00195312L19.4808 9.4828C19.993 9.99492 20.139 10.7288 19.8618 11.3979C19.5846 12.0671 18.9625 12.4828 18.2382 12.4828V19.9977H18.2381ZM13.1366 18.8261H17.0665V11.3112H18.2381C18.6013 11.3112 18.7442 11.0344 18.7793 10.9496C18.8144 10.8647 18.9091 10.568 18.6523 10.3113L9.99996 1.65891L1.34761 10.3113C1.09083 10.568 1.18549 10.8648 1.22064 10.9496C1.25575 11.0344 1.39865 11.3112 1.76178 11.3112H2.93341V18.8261H6.86336V11.3112H13.1365V18.8261H13.1366Z" fill="white"/>
</g>
<defs>
<clipPath id="clip0_7901_820">
<rect width="20" height="20" fill="white"/>
</clipPath>
</defs>
</svg>
