<svg width="24" height="24" viewBox="0 0 24 24" fill="none" xmlns="http://www.w3.org/2000/svg">
<g clip-path="url(#clip0_7901_2322)">
<path d="M19.2254 5.7691L20.9229 6.06026L24 2.98307L21.4537 2.54631L21.0169 0L17.9397 3.07715L18.2309 4.77464L17.4918 5.51376C15.5688 3.82682 13.1291 2.90501 10.5475 2.90501C4.7182 2.90501 0 7.62242 0 13.4525C0 19.2818 4.7174 24 10.5475 24C16.3768 24 21.095 19.2826 21.095 13.4525C21.095 10.8709 20.1732 8.43124 18.4862 6.50822L19.2254 5.7691ZM20.0902 2.91561L20.2357 3.76428L21.0844 3.90984L20.4431 4.55108L19.5944 4.40552L19.4489 3.55685L20.0902 2.91561ZM19.6887 13.4525C19.6887 18.4929 15.5879 22.5937 10.5475 22.5937C5.50706 22.5937 1.40633 18.4929 1.40633 13.4525C1.40633 8.41207 5.50706 4.31135 10.5475 4.31135C12.8152 4.31135 14.8924 5.14169 16.4917 6.51385L14.4954 8.51023C13.4123 7.64332 12.0395 7.12401 10.5475 7.12401C7.05796 7.12401 4.219 9.96297 4.219 13.4525C4.219 16.942 7.05796 19.781 10.5475 19.781C14.037 19.781 16.876 16.942 16.876 13.4525C16.876 11.9605 16.3567 10.5877 15.4898 9.50465L17.4862 7.50827C18.8583 9.10769 19.6887 11.1848 19.6887 13.4525ZM15.4697 13.4525C15.4697 16.1666 13.2616 18.3747 10.5475 18.3747C7.83341 18.3747 5.62533 16.1666 5.62533 13.4525C5.62533 10.7384 7.83341 8.53034 10.5475 8.53034C11.6515 8.53034 12.6717 8.89571 13.4937 9.51187L11.4564 11.5492C11.181 11.4171 10.8727 11.343 10.5475 11.343C9.38432 11.343 8.438 12.2893 8.438 13.4525C8.438 14.6157 9.38432 15.562 10.5475 15.562C11.7107 15.562 12.657 14.6157 12.657 13.4525C12.657 13.1272 12.5829 12.819 12.4508 12.5436L14.4881 10.5063C15.1043 11.3283 15.4697 12.3485 15.4697 13.4525ZM11.2507 13.4525C11.2507 13.8402 10.9352 14.1557 10.5475 14.1557C10.1598 14.1557 9.84433 13.8402 9.84433 13.4525C9.84433 13.0648 10.1598 12.7493 10.5475 12.7493C10.9352 12.7493 11.2507 13.0648 11.2507 13.4525Z" fill="white"/>
</g>
<defs>
<clipPath id="clip0_7901_2322">
<rect width="24" height="24" fill="white"/>
</clipPath>
</defs>
</svg>
