<svg width="24" height="24" viewBox="0 0 24 24" fill="none" xmlns="http://www.w3.org/2000/svg">
<g clip-path="url(#clip0_7901_2214)">
<path d="M21.5336 4.72488L22.5804 4.72563L22.5814 3.31962L19.3635 3.31727L18.9483 6.55938L20.3432 6.73793L20.4807 5.66388C21.8504 7.48648 22.5921 9.69195 22.5938 12.0105C22.5959 14.8396 21.496 17.4985 19.4968 19.4974C17.4995 21.4944 14.8434 22.5939 12.0168 22.5939H12.0088C9.17892 22.5918 6.5176 21.4879 4.515 19.4857C2.51236 17.4835 1.40832 14.8225 1.40625 11.993C1.40419 9.16395 2.50407 6.5051 4.50324 4.50621C7.50263 1.50734 11.9887 0.59004 15.932 2.16931L16.4549 0.864118C11.9883 -0.924773 6.9068 0.11454 3.50893 3.51199C1.24378 5.77671 -0.00234045 8.78904 3.30013e-06 11.9941C0.00234705 15.1987 1.25264 18.2124 3.52055 20.4799C5.78846 22.7475 8.80261 23.9976 12.0077 24H12.0167C15.2188 23.9999 18.2282 22.7542 20.4911 20.4916C22.7562 18.2269 24.0023 15.2146 24 12.0095C23.9981 9.34235 23.1316 6.80745 21.5336 4.72488Z" fill="white"/>
<path d="M4.6875 12.0018C4.6875 16.0333 7.96786 19.3132 12 19.3132C16.0321 19.3132 19.3125 16.0333 19.3125 12.0018C19.3125 7.97032 16.0321 4.69043 12 4.69043C7.96786 4.69043 4.6875 7.97027 4.6875 12.0018ZM17.9062 12.0018C17.9062 15.258 15.2567 17.9072 12 17.9072C8.74327 17.9072 6.09375 15.258 6.09375 12.0018C6.09375 8.74559 8.74327 6.09645 12 6.09645C15.2567 6.09645 17.9062 8.74559 17.9062 12.0018Z" fill="white"/>
<path d="M11.2969 8.98779V12.7047H15.0143V11.2986H12.7031V8.98779H11.2969Z" fill="white"/>
</g>
<defs>
<clipPath id="clip0_7901_2214">
<rect width="24" height="24" fill="white"/>
</clipPath>
</defs>
</svg>
