<svg width="24" height="24" viewBox="0 0 24 24" fill="none" xmlns="http://www.w3.org/2000/svg">
<g clip-path="url(#clip0_7901_2255)">
<path d="M22.9453 10.6157C22.9453 9.42967 22.4403 8.2989 21.5743 7.50444C21.8079 6.35281 21.5519 5.14107 20.8548 4.1816C20.1576 3.22203 19.0845 2.60407 17.9169 2.47042C17.4289 1.40139 16.5095 0.571626 15.3816 0.205172C14.2537 -0.161282 13.0221 -0.0304428 11.9991 0.547624C10.9759 -0.0305365 9.74436 -0.161376 8.61645 0.205172C7.48849 0.571626 6.56909 1.40143 6.08118 2.47042C4.91365 2.60416 3.8404 3.22212 3.14331 4.1816C2.44617 5.14107 2.19012 6.35276 2.42371 7.50444C1.55781 8.29885 1.05273 9.42967 1.05273 10.6157C1.05273 11.8017 1.55776 12.9325 2.42371 13.7269C2.19012 14.8786 2.44617 16.0903 3.14331 17.0497C3.72592 17.8516 4.5712 18.4148 5.51469 18.6562L2.92902 24H9.215L10.5802 21.1786C11.0753 21.0999 11.5567 20.9337 11.9991 20.6838C12.4415 20.9337 12.9228 21.0999 13.4179 21.1786L14.7832 24.0001H21.0691L18.4834 18.6562C19.4269 18.4148 20.2722 17.8516 20.8548 17.0498C21.5519 16.0903 21.808 14.8786 21.5744 13.7269C22.4403 12.9325 22.9453 11.8017 22.9453 10.6157ZM5.17191 22.5937L6.60875 19.6242C7.1196 20.2717 7.81533 20.7659 8.61654 21.0263C8.75539 21.0713 8.89594 21.1082 9.03737 21.1383L8.33316 22.5937H5.17191ZM15.665 22.5937L14.9612 21.139C15.1025 21.1088 15.2429 21.0713 15.3817 21.0263C16.1829 20.7659 16.8786 20.2717 17.3895 19.6242L18.8263 22.5937H15.665ZM20.3686 12.8984L19.951 13.1994L20.1119 13.6884C20.3941 14.5468 20.2465 15.4943 19.717 16.2231C19.1895 16.9492 18.3384 17.3819 17.4385 17.3818C17.4352 17.3818 17.4318 17.3818 17.4284 17.3818L16.9136 17.3799L16.7563 17.8701C16.4802 18.7304 15.8039 19.4103 14.9471 19.6887C14.0903 19.967 13.1435 19.8146 12.4145 19.2808L11.9991 18.9768L11.5838 19.2808C10.8547 19.8145 9.90792 19.967 9.05116 19.6887C8.19439 19.4103 7.51802 18.7304 7.2419 17.8701L7.08462 17.3799L6.56984 17.3818C6.56642 17.3818 6.56314 17.3818 6.55972 17.3818C5.65997 17.3818 4.80874 16.9491 4.28121 16.2231C3.75171 15.4943 3.60408 14.5467 3.88639 13.6884L4.04723 13.1994L3.62968 12.8984C2.89682 12.3699 2.45925 11.5166 2.45925 10.6157C2.45925 9.71484 2.89677 8.86154 3.62968 8.33307L4.04718 8.03202L3.88634 7.54302C3.60408 6.68471 3.75166 5.73719 4.28116 5.00836C4.80874 4.2822 5.65983 3.8496 6.55972 3.8496H6.5698L7.08453 3.85143L7.24181 3.36131C7.51793 2.50098 8.1943 1.82114 9.05106 1.54277C9.90778 1.26436 10.8546 1.41681 11.5837 1.95053L11.999 2.25459L12.4144 1.95053C13.1434 1.41681 14.0902 1.26436 14.947 1.54277C15.8038 1.82114 16.4801 2.50094 16.7563 3.36131L16.9135 3.85143L17.4283 3.8496H17.4383C18.3381 3.8496 19.1894 4.28225 19.7169 5.00836C20.2464 5.73719 20.394 6.68476 20.1117 7.54307L19.9509 8.03206L20.3684 8.33312C21.1013 8.86159 21.5388 9.71493 21.5388 10.6158C21.539 11.5166 21.1014 12.3699 20.3686 12.8984Z" fill="white"/>
<path d="M11.9987 3.53711C8.09542 3.53711 4.91992 6.71261 4.91992 10.6159C4.91992 14.5191 8.09542 17.6946 11.9987 17.6946C15.9019 17.6946 19.0774 14.5191 19.0774 10.6159C19.0774 6.71261 15.9019 3.53711 11.9987 3.53711ZM11.9987 16.2882C8.87089 16.2882 6.3263 13.7436 6.3263 10.6159C6.3263 7.48808 8.87089 4.94348 11.9987 4.94348C15.1264 4.94348 17.671 7.48808 17.671 10.6159C17.671 13.7436 15.1264 16.2882 11.9987 16.2882Z" fill="white"/>
<path d="M10.9002 11.7135L9.40851 10.2219L8.41406 11.2163L10.9002 13.7024L15.3752 9.22736L14.3808 8.23291L10.9002 11.7135Z" fill="white"/>
</g>
<defs>
<clipPath id="clip0_7901_2255">
<rect width="24" height="24" fill="white"/>
</clipPath>
</defs>
</svg>
