<svg width="24" height="24" viewBox="0 0 24 24" fill="none" xmlns="http://www.w3.org/2000/svg">
<path d="M14.1094 2.10938C14.1094 0.946266 13.1631 0 12 0C10.8369 0 9.89062 0.946266 9.89062 2.10938C9.89062 3.27248 10.8369 4.21875 12 4.21875C13.1631 4.21875 14.1094 3.27248 14.1094 2.10938ZM12 2.8125C11.6123 2.8125 11.2969 2.49708 11.2969 2.10938C11.2969 1.72167 11.6123 1.40625 12 1.40625C12.3877 1.40625 12.7031 1.72167 12.7031 2.10938C12.7031 2.49708 12.3877 2.8125 12 2.8125Z" fill="white"/>
<path d="M15.5156 7.78125C15.5156 5.83781 13.9437 4.21875 12 4.21875C10.0566 4.21875 8.48438 5.83758 8.48438 7.78125V8.48438H15.5156V7.78125ZM10.0105 7.07812C10.3031 6.2422 11.0961 5.625 12 5.625C12.9039 5.625 13.6969 6.2422 13.9895 7.07812H10.0105Z" fill="white"/>
<path d="M22.5469 10.5938C22.5469 9.43064 21.6006 8.48438 20.4375 8.48438C19.2744 8.48438 18.3281 9.43064 18.3281 10.5938C18.3281 11.7569 19.2744 12.7031 20.4375 12.7031C21.6006 12.7031 22.5469 11.7569 22.5469 10.5938ZM20.4375 11.2969C20.0498 11.2969 19.7344 10.9815 19.7344 10.5938C19.7344 10.206 20.0498 9.89062 20.4375 9.89062C20.8252 9.89062 21.1406 10.206 21.1406 10.5938C21.1406 10.9815 20.8252 11.2969 20.4375 11.2969Z" fill="white"/>
<path d="M24 16.2188C24 14.2755 22.3813 12.7031 20.4375 12.7031C18.499 12.7031 16.9219 14.2802 16.9219 16.2188V16.9219H24V16.2188ZM18.4486 15.5156C18.7388 14.6971 19.5208 14.1094 20.4375 14.1094C21.3558 14.1094 22.1621 14.7055 22.4655 15.5156H18.4486Z" fill="white"/>
<path d="M5.67188 10.5938C5.67188 9.43064 4.72561 8.48438 3.5625 8.48438C2.39939 8.48438 1.45312 9.43064 1.45312 10.5938C1.45312 11.7569 2.39939 12.7031 3.5625 12.7031C4.72561 12.7031 5.67188 11.7569 5.67188 10.5938ZM3.5625 11.2969C3.1748 11.2969 2.85938 10.9815 2.85938 10.5938C2.85938 10.206 3.1748 9.89062 3.5625 9.89062C3.9502 9.89062 4.26562 10.206 4.26562 10.5938C4.26562 10.9815 3.9502 11.2969 3.5625 11.2969Z" fill="white"/>
<path d="M7.07812 16.2188C7.07812 14.2802 5.50102 12.7031 3.5625 12.7031C1.61916 12.7031 0 14.275 0 16.2188V16.9219H7.07812V16.2188ZM1.53445 15.5156C1.83792 14.7055 2.64422 14.1094 3.5625 14.1094C4.47919 14.1094 5.2612 14.6971 5.55141 15.5156H1.53445Z" fill="white"/>
<path d="M9.89062 17.625C9.89062 18.7881 10.8369 19.7344 12 19.7344C13.1631 19.7344 14.1094 18.7881 14.1094 17.625C14.1094 16.4619 13.1631 15.5156 12 15.5156C10.8369 15.5156 9.89062 16.4619 9.89062 17.625ZM12.7031 17.625C12.7031 18.0127 12.3877 18.3281 12 18.3281C11.6123 18.3281 11.2969 18.0127 11.2969 17.625C11.2969 17.2373 11.6123 16.9219 12 16.9219C12.3877 16.9219 12.7031 17.2373 12.7031 17.625Z" fill="white"/>
<path d="M15.5156 23.2969C15.5156 21.3584 13.9385 19.7812 12 19.7812C10.0615 19.7812 8.48438 21.3584 8.48438 23.2969V24H15.5156V23.2969ZM10.0111 22.5938C10.3013 21.7753 11.0833 21.1875 12 21.1875C12.9167 21.1875 13.6987 21.7753 13.9889 22.5938H10.0111Z" fill="white"/>
<path d="M4.26562 6.375C4.26562 5.20617 5.23158 4.21875 6.375 4.21875H7.07812V2.8125H6.375C4.43161 2.8125 2.85938 4.43133 2.85938 6.375V7.07812H4.26562V6.375Z" fill="white"/>
<path d="M19.7344 6.375V7.07812H21.1406V6.375C21.1406 4.43161 19.5687 2.8125 17.625 2.8125H16.9219V4.21875H17.625C18.7684 4.21875 19.7344 5.20617 19.7344 6.375Z" fill="white"/>
<path d="M2.85938 18.3281V19.0312C2.85938 20.9746 4.43133 22.5938 6.375 22.5938H7.07812V21.1875H6.375C5.23158 21.1875 4.26562 20.2001 4.26562 19.0312V18.3281H2.85938Z" fill="white"/>
<path d="M21.1406 19.0312V18.3281H19.7344V19.0312C19.7344 20.2001 18.7684 21.1875 17.625 21.1875H16.9219V22.5938H17.625C19.5684 22.5938 21.1406 20.9749 21.1406 19.0312Z" fill="white"/>
</svg>
