<svg width="21" height="24" viewBox="0 0 21 24" fill="none" xmlns="http://www.w3.org/2000/svg">
<path d="M11.5916 13.3695L11.9996 13.6601L12.4075 13.3695C14.9193 11.5803 16.6763 10.0042 17.7789 8.55112C18.8483 7.14187 19.3682 5.75845 19.3682 4.32192C19.3682 1.9388 17.4294 0 15.0463 0C13.8871 0 12.8004 0.457219 11.9996 1.25498C11.1988 0.457172 10.1121 0 8.95283 0C6.5697 0 4.63086 1.9388 4.63086 4.32197C4.63086 5.7585 5.1507 7.14188 6.22016 8.55117C7.3228 10.0042 9.07981 11.5803 11.5916 13.3695ZM8.95283 1.40625C9.95014 1.40625 10.868 1.90805 11.408 2.74852L11.9996 3.66919L12.5911 2.74852C13.1312 1.90805 14.049 1.40625 15.0463 1.40625C16.654 1.40625 17.962 2.71425 17.962 4.32197C17.962 5.9445 17.2421 8.11505 11.9991 11.9309C8.98522 9.747 6.03716 7.15847 6.03716 4.32197C6.03716 2.71425 7.34511 1.40625 8.95283 1.40625Z" fill="white"/>
<path d="M19.1938 16.7414C18.3713 15.919 17.0331 15.919 16.2107 16.7414L14.8482 18.104C14.8757 17.9682 14.8902 17.8276 14.8902 17.6838V15.5744H9.26156C8.70136 15.2683 8.07253 15.1074 7.43006 15.1074C5.82389 15.1074 4.44675 16.1032 3.88116 17.5095L3.53142 17.1598L0 20.6912V24.0001H7.7317L9.0517 22.6801L8.97731 22.6057H14.274C15.5887 22.6057 16.8247 22.0937 17.7543 21.1641L20.6854 18.233L19.1938 16.7414ZM1.4062 22.5938V21.2737L3.53137 19.1485L6.97664 22.5938H1.4062ZM16.7599 20.1697C16.0959 20.8337 15.213 21.1994 14.274 21.1994H7.57106L5.02767 18.656C5.16488 17.452 6.18994 16.5137 7.43002 16.5137C7.88058 16.5137 8.32031 16.6386 8.70159 16.8751L8.87184 16.9806H13.4839V17.6838C13.4839 18.0715 13.1685 18.3869 12.7808 18.3869H9.59227V19.7931H14.274C14.8374 19.7931 15.3671 19.5737 15.7655 19.1753L17.205 17.7358C17.4792 17.4616 17.9253 17.4616 18.1994 17.7358L18.6966 18.233L16.7599 20.1697Z" fill="white"/>
</svg>
