<svg width="22" height="24" viewBox="0 0 22 24" fill="none" xmlns="http://www.w3.org/2000/svg">
<path d="M19.6141 17.4145L19.5872 17.3827C18.2756 15.8294 16.4799 14.7721 14.4815 14.3386C15.5285 13.5896 16.3381 12.5292 16.7745 11.2941H18.3822C19.283 11.2941 20.0158 10.5613 20.0158 9.66052V9.17647C20.0158 4.11656 15.8992 0 10.8393 0C5.77944 0 1.66287 4.11656 1.66287 9.17647V9.66052C1.66287 10.5613 2.39572 11.2941 3.29647 11.2941H4.84584C5.28946 12.5495 6.11868 13.6241 7.19073 14.3751C5.25619 14.8292 3.52052 15.8707 2.24367 17.3827L2.21657 17.4148C0.745789 19.1566 0 21.1347 0 23.2941V24H21.831V23.2941C21.831 21.1347 21.0852 19.1566 19.6141 17.4145ZM10.8102 14.1046C8.85327 14.1046 7.16014 12.9541 6.37111 11.2941H9.89821V9.88235H5.94687C5.91506 9.65689 5.89821 9.42668 5.89821 9.19256C5.89821 6.48405 8.10174 4.28052 10.8102 4.28052C13.5187 4.28052 15.7222 6.48405 15.7222 9.19256C15.7222 11.9011 13.5187 14.1046 10.8102 14.1046ZM18.6041 9.66052C18.6041 9.78287 18.5046 9.88235 18.3823 9.88235H17.0962C17.1209 9.65572 17.134 9.42565 17.134 9.19256C17.134 8.94842 17.1196 8.70762 17.0926 8.47059H18.5717C18.5928 8.70315 18.6041 8.93849 18.6041 9.17647V9.66052ZM10.8394 1.41176C14.387 1.41176 17.3865 3.80329 18.3105 7.05882H16.7632C15.8859 4.61864 13.5487 2.86875 10.8102 2.86875C8.07172 2.86875 5.73454 4.61864 4.85727 7.05882H3.36824C4.29224 3.80329 7.29176 1.41176 10.8394 1.41176ZM3.29652 9.88235C3.17417 9.88235 3.07468 9.78287 3.07468 9.66052V9.17647C3.07468 8.93849 3.08607 8.70315 3.10711 8.47059H4.52791C4.50085 8.70762 4.48645 8.94842 4.48645 9.19256C4.48645 9.42565 4.49953 9.65572 4.52424 9.88235H3.29652ZM1.44428 22.5882C1.58824 21.043 2.20908 19.6119 3.29525 18.3257L3.32235 18.2936C4.80579 16.5369 7.02861 15.5294 9.42089 15.5294H12.4101C14.8024 15.5294 17.0252 16.5369 18.5089 18.2938L18.5357 18.3256C19.6219 19.6119 20.2427 21.043 20.3867 22.5882H1.44428Z" fill="white"/>
</svg>
