<svg width="23" height="24" viewBox="0 0 23 24" fill="none" xmlns="http://www.w3.org/2000/svg">
<path d="M6.99903 3.88382V16.6592C6.25564 15.9961 5.27605 15.5923 4.20379 15.5923C1.88582 15.5923 0 17.4782 0 19.7962C0 22.1142 1.88582 24 4.20379 24C6.51889 24 8.40275 22.1189 8.40753 19.8049H8.40763V9.53787L20.9118 6.36814V13.2679C20.1684 12.6048 19.1889 12.201 18.1166 12.201C15.7986 12.201 13.9128 14.0868 13.9128 16.4048C13.9128 18.7228 15.7986 20.6086 18.1166 20.6086C20.4346 20.6086 22.3204 18.7228 22.3204 16.4048V0L6.99903 3.88382ZM4.20384 22.5914C2.66259 22.5914 1.40864 21.3375 1.40864 19.7961C1.40864 18.2548 2.66254 17.0009 4.20384 17.0009C5.74513 17.0009 6.99908 18.2548 6.99908 19.7961C6.99903 21.3375 5.74513 22.5914 4.20384 22.5914ZM8.40763 8.0848V4.9799L20.9118 1.81022V4.91507L8.40763 8.0848ZM18.1166 19.2001C16.5753 19.2001 15.3214 17.9461 15.3214 16.4048C15.3214 14.8636 16.5753 13.6096 18.1166 13.6096C19.6579 13.6096 20.9118 14.8635 20.9118 16.4048C20.9118 17.9462 19.6579 19.2001 18.1166 19.2001Z" fill="white"/>
</svg>
