<svg width="24" height="24" viewBox="0 0 24 24" fill="none" xmlns="http://www.w3.org/2000/svg">
<path d="M20.4853 3.51469C18.2188 1.24823 15.2053 0 12 0C8.79469 0 5.78123 1.24823 3.51469 3.51469C1.24823 5.78123 0 8.79469 0 12C0 15.2053 1.24823 18.2188 3.51469 20.4853C5.78123 22.7518 8.79469 24 12 24C15.2053 24 18.2188 22.7518 20.4853 20.4853C22.7518 18.2188 24 15.2053 24 12C24 8.79469 22.7518 5.78123 20.4853 3.51469ZM16.6941 2.50491C18.7713 3.53602 20.464 5.22872 21.4951 7.30594L18.889 8.38542C18.1544 6.99103 17.009 5.84559 15.6146 5.11102L16.6941 2.50491ZM18.375 12C18.375 15.5152 15.5152 18.375 12 18.375C8.48484 18.375 5.625 15.5152 5.625 12C5.625 8.4848 8.48484 5.625 12 5.625C15.5152 5.625 18.375 8.4848 18.375 12ZM12 1.40625C13.1872 1.40625 14.3294 1.60256 15.3958 1.96439L14.3162 4.57078C13.5843 4.34208 12.8063 4.21875 12 4.21875C11.1937 4.21875 10.4157 4.34208 9.68377 4.57078L8.60419 1.96439C9.67064 1.60256 10.8128 1.40625 12 1.40625ZM7.30594 2.50491L8.38542 5.11102C6.99103 5.84559 5.84559 6.99103 5.11102 8.38542L2.50491 7.30594C3.53602 5.22872 5.22872 3.53602 7.30594 2.50491ZM1.40625 12C1.40625 10.8128 1.60256 9.67064 1.96439 8.60419L4.57078 9.68377C4.34208 10.4157 4.21875 11.1937 4.21875 12C4.21875 12.8063 4.34208 13.5843 4.57078 14.3162L1.96439 15.3958C1.60256 14.3294 1.40625 13.1872 1.40625 12ZM7.30594 21.4951C5.22872 20.464 3.53602 18.7713 2.50491 16.6941L5.11102 15.6146C5.84559 17.009 6.99103 18.1544 8.38542 18.889L7.30594 21.4951ZM12 22.5938C10.8128 22.5938 9.67064 22.3974 8.60419 22.0356L9.68377 19.4292C10.4157 19.6579 11.1937 19.7812 12 19.7812C12.8063 19.7812 13.5843 19.6579 14.3162 19.4292L15.3958 22.0356C14.3294 22.3974 13.1872 22.5938 12 22.5938ZM16.6941 21.4951L15.6146 18.889C17.009 18.1544 18.1544 17.009 18.889 15.6146L21.4951 16.6941C20.464 18.7713 18.7713 20.464 16.6941 21.4951ZM19.4292 14.3162C19.6579 13.5843 19.7812 12.8063 19.7812 12C19.7812 11.1937 19.6579 10.4157 19.4292 9.68377L22.0356 8.60419C22.3974 9.67064 22.5938 10.8128 22.5938 12C22.5938 13.1872 22.3974 14.3294 22.0356 15.3958L19.4292 14.3162Z" fill="white"/>
</svg>
