<svg width="24" height="24" viewBox="0 0 24 24" fill="none" xmlns="http://www.w3.org/2000/svg">
<path d="M22.9347 12L24 10.0994L22.3995 8.62101L22.8254 6.48422L20.8463 5.57278L20.5911 3.40894L18.4273 3.1537L17.5158 1.17464L15.379 1.60059L13.9006 0L12 1.06533L10.0994 0L8.62106 1.60055L6.48427 1.17459L5.57283 3.15366L3.40898 3.40889L3.15375 5.57273L1.17469 6.48417L1.60064 8.62097L0 10.0994L1.06533 12L0 13.9006L1.60055 15.3789L1.17459 17.5157L3.15366 18.4272L3.40889 20.591L5.57273 20.8462L6.48417 22.8253L8.62097 22.3994L10.0993 23.9999L11.9999 22.9346L13.9005 23.9999L15.3788 22.3994L17.5156 22.8253L18.4271 20.8462L20.5909 20.591L20.8462 18.4272L22.8252 17.5157L22.3993 15.3789L23.9998 13.9006L22.9347 12ZM22.23 13.6202L20.8654 14.8806L21.2285 16.7022L19.5413 17.4792L19.3237 19.3238L17.4791 19.5414L16.7022 21.2286L14.8806 20.8655L13.6202 22.2299L12 21.3217L10.3798 22.2299L9.11939 20.8654L7.29778 21.2285L6.52083 19.5413L4.6762 19.3237L4.45861 17.4791L2.77144 16.7022L3.13453 14.8806L1.77 13.6202L2.6782 12L1.77 10.3797L3.13453 9.1193L2.77144 7.29769L4.45861 6.52073L4.6762 4.67611L6.52083 4.45852L7.29778 2.77134L9.11939 3.13444L10.3798 1.76991L12 2.67811L13.6202 1.76991L14.8806 3.13444L16.7022 2.77134L17.4792 4.45852L19.3238 4.67611L19.5414 6.52073L21.2286 7.29769L20.8655 9.1193L22.23 10.3797L21.3218 12L22.23 13.6202Z" fill="white"/>
</svg>
