<svg width="24" height="24" viewBox="0 0 24 24" fill="none" xmlns="http://www.w3.org/2000/svg">
<path d="M20.4853 3.51469C18.2188 1.24823 15.2053 0 12 0C8.79469 0 5.78123 1.24823 3.51469 3.51469C1.24823 5.78123 0 8.79469 0 12C0 15.2053 1.24823 18.2188 3.51469 20.4853C5.78123 22.7518 8.79469 24 12 24C15.2053 24 18.2188 22.7518 20.4853 20.4853C22.7518 18.2188 24 15.2053 24 12C24 8.79469 22.7518 5.78123 20.4853 3.51469ZM21.5044 16.6755L20.0193 15.818C20.4767 14.8612 20.7678 13.8105 20.8549 12.7031H22.5698C22.4765 14.1209 22.1031 15.4633 21.5044 16.6755ZM11.2969 20.8549V22.5698C9.87909 22.4765 8.53678 22.1031 7.32455 21.5044L8.18198 20.0193C9.1388 20.4766 10.1895 20.7678 11.2969 20.8549ZM12.7031 20.8549C13.8105 20.7678 14.8612 20.4766 15.818 20.0193L16.6754 21.5044C15.4632 22.1031 14.1209 22.4765 12.7031 22.5698V20.8549H12.7031ZM12 19.4765C7.87748 19.4765 4.52353 16.1226 4.52353 12C4.52353 7.87744 7.87748 4.52353 12 4.52353C16.1225 4.52353 19.4765 7.87748 19.4765 12C19.4765 16.1225 16.1225 19.4765 12 19.4765ZM1.43016 12.7031H3.14508C3.23222 13.8105 3.52336 14.8612 3.98072 15.818L2.49563 16.6755C1.89689 15.4633 1.52353 14.1209 1.43016 12.7031ZM2.49563 7.32455L3.98072 8.18198C3.52336 9.13875 3.23222 10.1895 3.14508 11.2969H1.43016C1.52353 9.87909 1.89689 8.53673 2.49563 7.32455ZM12.7031 3.14508V1.43016C14.1209 1.52353 15.4632 1.89689 16.6755 2.49563L15.818 3.98072C14.8612 3.52336 13.8105 3.23222 12.7031 3.14508ZM11.2969 3.14508C10.1895 3.23222 9.1388 3.52336 8.18198 3.98072L7.32455 2.49563C8.53673 1.89689 9.87909 1.52353 11.2969 1.43016V3.14508ZM20.8549 11.2969C20.7678 10.1895 20.4766 9.13875 20.0193 8.18198L21.5044 7.32455C22.1031 8.53673 22.4765 9.87909 22.5698 11.2969H20.8549ZM20.7996 6.10767L19.3139 6.96544C18.6988 6.07458 17.9254 5.30123 17.0346 4.68609L17.8923 3.20044C19.0397 3.97125 20.0287 4.96027 20.7996 6.10767ZM6.10767 3.20039L6.96539 4.68605C6.07453 5.30119 5.30119 6.07453 4.68605 6.96539L3.20039 6.10763C3.97125 4.96027 4.96027 3.97125 6.10767 3.20039ZM3.20044 17.8923L4.68609 17.0346C5.30123 17.9254 6.07458 18.6988 6.96544 19.3139L6.10772 20.7996C4.96027 20.0287 3.97125 19.0397 3.20044 17.8923ZM17.8923 20.7996L17.0346 19.314C17.9255 18.6988 18.6988 17.9255 19.314 17.0346L20.7996 17.8924C20.0287 19.0397 19.0397 20.0287 17.8923 20.7996Z" fill="white"/>
<path d="M16.0412 7.95936C15.7666 7.68482 15.3214 7.68477 15.0468 7.95936L13.4163 9.58991C12.9916 9.3395 12.5064 9.20554 12.0005 9.20554C11.4946 9.20554 11.0094 9.33946 10.5848 9.58991L8.95421 7.95936C8.67966 7.68477 8.23445 7.68477 7.95985 7.95936C7.68526 8.23396 7.68526 8.67913 7.95985 8.95372L9.5904 10.5843C9.33999 11.0089 9.20607 11.4941 9.20607 12C9.20607 12.506 9.33999 12.9912 9.5904 13.4158L7.95985 15.0463C7.68526 15.3209 7.68526 15.7661 7.95985 16.0407C8.09715 16.178 8.2771 16.2467 8.45701 16.2467C8.63691 16.2467 8.81691 16.178 8.95416 16.0407L10.5847 14.4102C11.0094 14.6606 11.4946 14.7945 12.0005 14.7945C12.5064 14.7945 12.9916 14.6606 13.4162 14.4102L15.0468 16.0407C15.1841 16.178 15.364 16.2467 15.5439 16.2467C15.7239 16.2467 15.9039 16.1781 16.0411 16.0407C16.3157 15.7661 16.3157 15.3209 16.0411 15.0463L14.4106 13.4158C14.661 12.9912 14.7949 12.506 14.7949 12C14.7949 11.4941 14.661 11.0089 14.4106 10.5843L16.0411 8.95372C16.3158 8.67918 16.3158 8.23396 16.0412 7.95936ZM11.0189 12.9816C10.7567 12.7194 10.6123 12.3708 10.6123 12C10.6123 11.6293 10.7567 11.2806 11.0189 11.0184C11.2895 10.7478 11.645 10.6125 12.0005 10.6125C12.356 10.6125 12.7115 10.7478 12.9821 11.0185C13.2444 11.2806 13.3887 11.6293 13.3887 12.0001C13.3887 12.3709 13.2444 12.7195 12.9821 12.9817C12.4409 13.5229 11.5601 13.5229 11.0189 12.9816Z" fill="white"/>
</svg>
