<svg width="22" height="24" viewBox="0 0 22 24" fill="none" xmlns="http://www.w3.org/2000/svg">
<path d="M7.27895 10.3982L6.58424 11.8354L5.86311 10.3932V8.43652H4.44727V10.7274L6.13349 14.0999H7.06233L8.69479 10.7224V8.43652H7.27895V10.3982Z" fill="white"/>
<path d="M10.1094 8.43652H11.5252V14.0999H10.1094V8.43652Z" fill="white"/>
<path d="M15.0652 8.43652H12.9414V14.0999H14.3572V12.6841H15.0652C16.2363 12.6841 17.1889 11.7313 17.1889 10.5603C17.1889 9.3892 16.2362 8.43652 15.0652 8.43652ZM15.0652 11.2682H14.3572V9.85237H15.0652C15.4556 9.85237 15.7731 10.1699 15.7731 10.5603C15.7731 10.9506 15.4555 11.2682 15.0652 11.2682Z" fill="white"/>
<path d="M20.0424 11.2682L21.6352 4.89693H20.0206V2.96544L10.8176 0L1.61463 2.96544V4.89693H0L1.59282 11.2682L0 17.6395H3.79536C6.46106 22.2069 10.6156 23.8627 10.8176 24C11.0395 23.8492 15.1826 22.1922 17.8399 17.6395H21.6352L20.0424 11.2682ZM18.6047 4.89693H17.1889V3.54055L18.6047 3.99674V4.89693ZM15.7731 3.08432V4.89693H5.86216V3.08432L10.8176 1.48758L15.7731 3.08432ZM3.03047 3.99674L4.44631 3.54055V4.89693H3.03047V3.99674ZM10.8176 22.4126C8.61276 21.2476 6.78533 19.6152 5.46426 17.6395H7.00314C8.0199 18.9116 9.14875 20.1451 10.501 20.8212L10.8176 20.9795L11.1341 20.8212C12.4864 20.1451 13.6152 18.9116 14.632 17.6395H16.1709C14.8499 19.6152 13.0224 21.2476 10.8176 22.4126ZM8.84803 17.6395H12.7871C12.1713 18.3359 11.5178 18.9598 10.8176 19.3805C10.1174 18.9598 9.46387 18.3359 8.84803 17.6395ZM19.8218 16.2237H1.81341L3.05227 11.2682L1.81341 6.31277H19.8218L18.5829 11.2682L19.8218 16.2237Z" fill="white"/>
</svg>
