<svg width="19" height="20" viewBox="0 0 19 20" fill="none" xmlns="http://www.w3.org/2000/svg">
<path d="M18.4844 14.1019L13.7825 1.18099C13.6189 0.733669 13.2845 0.369499 12.8528 0.168331C12.421 -0.0328367 11.9271 -0.0545826 11.4794 0.107862L4.90906 2.49849H1.79687C1.32047 2.49898 0.863712 2.68846 0.526841 3.02533C0.189969 3.3622 0.000496345 3.81895 0 4.29536V18.0454C0.000496345 18.5218 0.189969 18.9785 0.526841 19.3154C0.863712 19.6523 1.32047 19.8417 1.79687 19.8422H10.5469C10.987 19.8416 11.4116 19.6796 11.7404 19.3869C12.0691 19.0943 12.2791 18.6912 12.3306 18.2541L17.4112 16.4047C17.8585 16.2412 18.2227 15.9069 18.4239 15.4752C18.6251 15.0435 18.6468 14.5496 18.4844 14.1019ZM11.25 18.0454C11.2498 18.2318 11.1756 18.4105 11.0438 18.5423C10.912 18.6741 10.7333 18.7482 10.5469 18.7485H1.79687C1.61047 18.7482 1.43177 18.6741 1.29996 18.5423C1.16816 18.4105 1.094 18.2318 1.09375 18.0454V4.29536C1.094 4.10896 1.16816 3.93026 1.29996 3.79845C1.43177 3.66664 1.61047 3.59248 1.79687 3.59224H10.5469C10.7333 3.59248 10.912 3.66664 11.0438 3.79845C11.1756 3.93026 11.2498 4.10896 11.25 4.29536V18.0454ZM17.0372 15.3772L12.3437 17.0854V4.29536C12.3433 3.81895 12.1538 3.3622 11.8169 3.02533C11.48 2.68846 11.0233 2.49898 10.5469 2.49849H8.10687L11.8534 1.13474C12.0287 1.07129 12.222 1.0799 12.3909 1.15869C12.5598 1.23747 12.6906 1.38 12.7547 1.55505L17.4575 14.476C17.5209 14.6513 17.5123 14.8445 17.4335 15.0135C17.3548 15.1824 17.2122 15.3132 17.0372 15.3772Z" fill="white"/>
</svg>
