<svg width="19" height="24" viewBox="0 0 19 24" fill="none" xmlns="http://www.w3.org/2000/svg">
<path d="M15.358 9.37645L15.2305 9.25047L15.2069 9.23088C13.3585 7.69646 12.4596 5.39446 12.7408 2.91503L13.0715 0L10.2352 1.53039C7.22095 3.15673 5.23646 6.16973 4.90247 9.53868L1.71992 8.60942L1.47145 9.17686C0.470233 11.4624 -0.0245175 13.6563 0.000934145 15.698C0.0287661 17.9249 0.921403 20.013 2.51442 21.5778C4.10432 23.1397 6.20783 24 8.43714 24H9.80109C14.4271 24 18.2115 20.2725 18.2373 15.6905C18.2518 13.1085 17.3097 11.0429 15.358 9.37645ZM8.77789 22.5904C7.05634 22.5904 5.63819 21.1966 5.61677 19.4833C5.60798 18.7813 5.74824 18.0265 6.03425 17.2331L8.03449 17.817L8.04291 16.886C8.05518 15.5343 8.73743 14.286 9.84704 13.5432C9.84375 14.9181 10.4161 16.1748 11.4631 17.0561L11.5043 17.0967L11.5437 17.1328C12.2942 17.7702 12.6264 18.4962 12.6209 19.4868C12.6112 21.1983 11.1932 22.5904 9.45996 22.5904H8.77789ZM13.53 21.5258C13.8459 20.9152 14.0262 20.2251 14.0303 19.4948C14.0381 18.0979 13.53 16.9795 12.477 16.0763L12.4114 16.0114L12.3878 15.992C11.5446 15.2918 11.1511 14.2807 11.2798 13.1449L11.5212 11.0173L9.50958 12.1027C8.0246 12.904 7.00727 14.3351 6.71778 15.9644L5.22089 15.5273L4.97242 16.0946C4.45149 17.2837 4.19404 18.4297 4.20759 19.5011C4.21638 20.2113 4.38777 20.8956 4.70307 21.5112C2.75355 20.2835 1.44106 18.1287 1.41029 15.6804C1.38942 14.0079 1.76369 12.2047 2.52321 10.3123L6.25397 11.4016L6.2624 10.4705C6.29169 7.25041 8.07038 4.30004 10.9045 2.77093L11.3672 2.52117L11.3405 2.75628C11.0059 5.70592 12.078 8.45177 14.2828 10.2955L14.3857 10.3973L14.425 10.4333C16.0765 11.8357 16.84 13.5038 16.8279 15.6826C16.814 18.1397 15.4971 20.3009 13.53 21.5258Z" fill="white"/>
</svg>
