<svg width="178" height="86" viewBox="0 0 178 86" fill="none" xmlns="http://www.w3.org/2000/svg">
<rect width="177.143" height="86" rx="10" fill="#19191A"/>
<path d="M49.0029 43.7575C49.7813 43.7512 50.5596 43.7473 51.338 43.7439C51.5577 43.7421 51.7774 43.7402 52.0037 43.7384C53.0557 43.7349 54.0564 43.7397 55.0898 43.9755C55.133 45.3518 55.0265 46.5103 54.6569 47.8303C54.6099 47.9999 54.5628 48.1695 54.5144 48.3443C53.2984 52.5281 50.8805 56.0988 47.2434 58.3664C45.5732 59.2821 43.9057 59.855 42.0765 60.3211C41.9463 60.3593 41.8162 60.3974 41.6821 60.4367C38.1292 61.2534 34.2738 60.3869 31.1621 58.5776C31.5815 57.1559 32.1137 55.829 32.7363 54.4912C32.8183 54.3116 32.9003 54.1321 32.9847 53.9472C33.1429 53.6037 33.3038 53.2616 33.4679 52.9212C33.6418 52.557 33.8019 52.1857 33.9579 51.8129C34.3105 51.3855 34.3105 51.3855 35.0107 51.2544C35.2932 51.2484 35.5759 51.247 35.8584 51.2493C40.5368 51.1065 44.5324 49.1556 47.8174 45.7369C48.291 45.1157 48.636 44.4522 49.0029 43.7575Z" fill="white"/>
<path d="M48.6012 29.0431C48.7338 29.1521 48.8663 29.2611 49.0029 29.3734C49.0029 29.5172 49.0029 29.6611 49.0029 29.8093C49.1864 29.8936 49.1864 29.8936 49.3735 29.9795C49.8803 30.2666 50.224 30.5832 50.6296 31.0079C50.7584 31.1406 50.8872 31.2732 51.0199 31.4098C51.3117 31.7707 51.3117 31.7707 51.3117 32.2066C51.4503 32.2066 51.5888 32.2066 51.7315 32.2066C53.6665 35.5769 55.0898 38.6621 55.0898 42.6679C53.3582 42.6679 51.6266 42.6679 49.8425 42.6679C50.564 40.6655 50.564 40.6655 50.7906 40.0405C50.8794 39.7923 50.8794 39.7923 50.9698 39.5392C51.0605 39.2875 51.0605 39.2875 51.153 39.0308C51.4817 37.9875 51.5658 36.9932 51.5872 35.898C51.5951 35.6348 51.6029 35.3715 51.611 35.1003C51.5774 34.3722 51.5774 34.3722 51.1371 33.8557C50.6906 33.4505 50.6906 33.4505 50.0524 33.5143C49.4227 33.2963 49.4227 33.2963 49.1341 32.9558C48.7982 32.5832 48.7982 32.5832 48.229 32.6017C48.0688 32.6151 47.9086 32.6286 47.7436 32.6425C47.6743 32.7864 47.605 32.9302 47.5337 33.0784C47.3952 33.0784 47.2566 33.0784 47.1139 33.0784C47.01 33.2942 47.01 33.2942 46.904 33.5143C46.8347 33.3704 46.7655 33.2266 46.6941 33.0784C46.4539 33.1863 46.4539 33.1863 46.2087 33.2963C45.6447 33.5143 45.6447 33.5143 45.015 33.5143C45.015 33.3704 45.015 33.2266 45.015 33.0784C44.8591 33.2088 44.7033 33.3391 44.5427 33.4734C43.9655 33.9502 43.9655 33.9502 43.4801 34.2907C43.3633 34.3941 43.2464 34.4975 43.126 34.604C43.126 34.8198 43.126 35.0355 43.126 35.2578C42.9182 35.3657 42.9182 35.3657 42.7062 35.4758C42.6337 35.9839 42.5639 36.4925 42.4963 37.0014C42.3577 37.2171 42.2192 37.4329 42.0765 37.6552C42.215 37.6552 42.3535 37.6552 42.4963 37.6552C42.4963 37.799 42.4963 37.9429 42.4963 38.0911C42.7041 38.1989 42.7041 38.1989 42.9161 38.309C42.8684 38.5068 42.8208 38.7046 42.7718 38.9084C42.6929 39.76 42.856 39.8448 43.3358 40.4884C43.2703 41.0878 43.2703 41.0878 43.126 41.5781C39.92 41.2595 37.349 39.1051 35.3108 36.6557C34.0938 35.0247 33.2641 33.1915 32.4215 31.3349C32.2931 31.0581 32.1647 30.7814 32.0361 30.5048C31.1621 28.5939 31.1621 28.5939 31.1621 27.8478C36.8845 24.6544 43.2629 25.4968 48.6012 29.0431Z" fill="white"/>
<path d="M45.0146 29.5913C45.1531 29.7352 45.2917 29.879 45.4344 30.0272C45.5946 29.9463 45.7547 29.8654 45.9198 29.782C46.1059 29.7191 46.2921 29.6561 46.4838 29.5913C46.6916 29.7352 46.8994 29.879 47.1135 30.0272C47.5654 29.96 47.5654 29.96 47.9531 29.8093C48.057 30.1329 48.057 30.1329 48.163 30.4631C48.2885 30.4136 48.4141 30.3642 48.5434 30.3132C48.6949 30.2908 48.8464 30.2683 49.0025 30.2451C49.2911 30.5176 49.2911 30.5176 49.6322 30.899C50.0468 31.1274 50.4665 31.3462 50.8916 31.5528C51.0301 31.6247 51.1686 31.6966 51.3114 31.7707C51.3114 31.9146 51.3114 32.0584 51.3114 32.2066C51.4499 32.2066 51.5884 32.2066 51.7311 32.2066C53.6661 35.5769 55.0894 38.6621 55.0894 42.6678C53.3578 42.6678 51.6262 42.6678 49.8421 42.6678C50.5636 40.6655 50.5636 40.6655 50.7903 40.0405C50.8494 39.875 50.9085 39.7096 50.9695 39.5392C51.0601 39.2875 51.0601 39.2875 51.1527 39.0308C51.4813 37.9875 51.5654 36.9932 51.5868 35.898C51.5947 35.6348 51.6025 35.3715 51.6106 35.1003C51.5771 34.3722 51.5771 34.3722 51.1367 33.8557C50.6902 33.4504 50.6902 33.4504 50.052 33.5143C49.4223 33.2963 49.4223 33.2963 49.1337 32.9558C48.7978 32.5831 48.7978 32.5831 48.2286 32.6016C48.0684 32.6151 47.9082 32.6286 47.7432 32.6425C47.6739 32.7863 47.6047 32.9302 47.5333 33.0784C47.3948 33.0784 47.2562 33.0784 47.1135 33.0784C47.0443 33.2222 46.975 33.3661 46.9036 33.5143C46.7997 33.2985 46.7997 33.2985 46.6937 33.0784C46.5336 33.1503 46.3734 33.2222 46.2084 33.2963C45.6443 33.5143 45.6443 33.5143 45.0146 33.5143C45.0146 33.3704 45.0146 33.2266 45.0146 33.0784C44.8588 33.2087 44.7029 33.3391 44.5423 33.4734C43.9651 33.9502 43.9651 33.9502 43.4798 34.2907C43.3629 34.3941 43.246 34.4975 43.1256 34.604C43.1256 34.8197 43.1256 35.0355 43.1256 35.2578C42.987 35.3297 42.8485 35.4016 42.7058 35.4757C42.6333 35.9839 42.5635 36.4925 42.4959 37.0013C42.3574 37.2171 42.2188 37.4329 42.0761 37.6552C42.2146 37.6552 42.3532 37.6552 42.4959 37.6552C42.4959 37.799 42.4959 37.9428 42.4959 38.091C42.6344 38.163 42.773 38.2349 42.9157 38.309C42.8681 38.5068 42.8204 38.7046 42.7714 38.9083C42.6925 39.76 42.8556 39.8448 43.3355 40.4884C43.2699 41.0878 43.2699 41.0878 43.1256 41.5781C41.8734 41.4675 40.8927 41.0581 39.7673 40.4884C39.8033 40.3564 39.8393 40.2243 39.8763 40.0883C40.0024 39.499 39.9281 39.1036 39.7673 38.5269C39.6288 38.3831 39.4902 38.2393 39.3475 38.091C39.2011 37.8039 39.0601 37.5137 38.9277 37.2193C39.0663 37.0754 39.2048 36.9316 39.3475 36.7834C39.2696 36.5452 39.1917 36.3069 39.1114 36.0615C39.0508 35.7963 38.9902 35.531 38.9277 35.2578C39.1355 34.9342 39.1355 34.9342 39.3475 34.604C39.3475 34.3163 39.3475 34.0286 39.3475 33.7322C39.486 33.5884 39.6246 33.4445 39.7673 33.2963C39.7673 33.0806 39.7673 32.8648 39.7673 32.6425C40.4669 31.9887 40.4669 31.9887 41.0267 31.9887C41.1652 32.1325 41.3037 32.2764 41.4464 32.4246C41.3772 32.1369 41.3079 31.8492 41.2365 31.5528C41.5009 31.2913 41.7682 31.0331 42.0368 30.7764C42.2596 30.5602 42.2596 30.5602 42.4869 30.3396C42.6284 30.2365 42.7699 30.1334 42.9157 30.0272C43.1235 30.0991 43.3313 30.171 43.5454 30.2451C44.2387 30.1573 44.5127 30.1125 45.0146 29.5913Z" fill="white"/>
<path d="M48.3588 32.3433C49.0802 32.435 49.2895 32.6134 49.8411 33.0788C50.0533 33.1462 50.2654 33.2137 50.4839 33.2831C51.1978 33.5513 51.3547 33.7152 51.7302 34.3865C52.1629 37.1235 51.284 40.0476 50.051 42.4503C50.8129 42.5222 51.5748 42.5942 52.3598 42.6683C52.3598 42.7402 52.3598 42.8121 52.3598 42.8862C50.2115 42.9489 48.1839 42.7702 46.0631 42.4503C45.6649 42.3955 45.6649 42.3955 45.2588 42.3397C43.3878 42.0698 43.3878 42.0698 42.9147 41.5786C43.0532 41.2909 43.1918 41.0032 43.3345 40.7068C43.1959 40.6349 43.0574 40.5629 42.9147 40.4888C42.9147 40.345 42.9147 40.2012 42.9147 40.053C42.7762 39.8372 42.6376 39.6214 42.4949 39.3991C42.5382 39.2238 42.5815 39.0485 42.6261 38.8679C42.6521 38.6836 42.678 38.4993 42.7048 38.3094C42.3199 37.8006 42.3199 37.8006 41.8652 37.4377C41.9258 37.3208 41.9864 37.2039 42.0489 37.0835C42.3032 36.5556 42.3032 36.5556 42.4818 35.9257C42.9224 34.607 43.5339 33.8984 44.5938 33.0788C44.7324 33.0788 44.8709 33.0788 45.0136 33.0788C45.1521 32.935 45.2907 32.7911 45.4334 32.6429C46.0273 32.722 46.5439 32.882 47.1125 33.0788C47.1905 32.9709 47.2684 32.8631 47.3487 32.7519C47.7422 32.425 47.7422 32.425 48.3588 32.3433Z" fill="white"/>
<path d="M45.2249 27.1941C45.0863 27.4099 44.9478 27.6256 44.8051 27.8479C43.9918 27.6572 43.9918 27.6572 43.7556 27.412C43.5478 27.484 43.34 27.5559 43.126 27.63C42.9182 27.63 42.7104 27.63 42.4963 27.63C42.0415 27.8116 42.0415 27.8116 41.8666 28.2838C41.7281 27.9961 41.5895 27.7084 41.4468 27.412C41.1698 27.484 40.8927 27.5559 40.6072 27.63C40.6029 27.7828 40.5986 27.9356 40.5941 28.0931C40.3029 29.0203 39.6593 29.4505 38.9281 30.0273C38.7896 29.8835 38.6511 29.7397 38.5083 29.5915C38.8547 29.2319 39.201 28.8723 39.5578 28.5017C39.4885 28.5737 39.4193 28.6456 39.3479 28.7197C38.7182 28.7197 38.7182 28.7197 38.2984 28.5017C38.4023 28.8254 38.4023 28.8254 38.5083 29.1556C38.3698 29.3713 38.2313 29.5871 38.0885 29.8094C38.0193 29.7375 37.95 29.6656 37.8787 29.5915C37.818 29.7263 37.7574 29.8612 37.695 30.0001C37.4589 30.4632 37.4589 30.4632 37.0391 30.8991C36.5807 31.4322 36.4172 31.7216 36.3045 32.4383C36.1929 33.1187 36.0815 33.3166 35.5698 33.7324C35.7084 33.8043 35.8469 33.8762 35.9896 33.9503C35.8511 33.9503 35.7126 33.9503 35.5698 33.9503C35.5006 34.4537 35.4313 34.9572 35.3599 35.4759C35.4985 35.5478 35.637 35.6197 35.7797 35.6938C35.468 35.8017 35.468 35.8017 35.1501 35.9118C34.2716 35.0898 33.7759 34.2926 33.2741 33.1875C33.2033 33.0355 33.1324 32.8834 33.0593 32.7268C32.8445 32.2639 32.6329 31.7995 32.4215 31.335C32.2923 31.0566 32.163 30.7782 32.0337 30.4998C31.1621 28.5936 31.1621 28.5936 31.1621 27.8479C35.4327 25.4647 40.7863 25.0738 45.2249 27.1941Z" fill="white"/>
<path d="M49.004 43.9756C47.64 47.0763 44.2322 49.2628 41.3167 50.4866C39.0276 51.3311 36.925 51.4463 34.5215 51.3857C36.0196 48.133 39.125 46.2312 42.2875 45.0653C44.5756 44.2899 46.6102 43.9362 49.004 43.9756Z" fill="white"/>
<path d="M48.3588 32.3433C49.0802 32.435 49.2895 32.6134 49.8411 33.0788C50.0533 33.1462 50.2654 33.2137 50.4839 33.2831C51.1777 33.5437 51.3957 33.7112 51.7302 34.3865C51.7695 34.9858 51.7695 34.9858 51.7302 35.4762C50.3762 35.3108 50.3762 35.3108 49.7231 35.0131C49.0644 34.7675 48.631 34.9053 47.9521 35.0403C47.8006 34.9953 47.6491 34.9504 47.493 34.9041C47.3674 34.8771 47.2419 34.8501 47.1125 34.8224C46.7758 35.0807 46.7758 35.0807 46.4829 35.4762C46.3357 35.611 46.1885 35.7459 46.0368 35.8848C45.5905 36.4101 45.5069 36.7508 45.4334 37.4377C45.2949 37.4377 45.1563 37.4377 45.0136 37.4377C44.9443 37.7973 44.8751 38.1569 44.8037 38.5274C44.9423 38.5274 45.0808 38.5274 45.2235 38.5274C45.3416 38.9496 45.3416 38.9496 45.4334 39.3991C45.3641 39.4711 45.2949 39.543 45.2235 39.6171C45.362 39.7609 45.5006 39.9048 45.6433 40.053C45.5646 40.6251 45.5646 40.6251 45.4334 41.1427C45.5719 41.1427 45.7105 41.1427 45.8532 41.1427C45.8532 41.2865 45.8532 41.4304 45.8532 41.5786C45.9917 41.5786 46.1302 41.5786 46.273 41.5786C46.3422 41.7943 46.4115 42.0101 46.4829 42.2324C45.209 42.2875 44.14 42.1666 42.9147 41.7965C43.0532 41.4369 43.1918 41.0773 43.3345 40.7068C43.1959 40.6349 43.0574 40.5629 42.9147 40.4888C42.9147 40.345 42.9147 40.2012 42.9147 40.053C42.7762 39.8372 42.6376 39.6214 42.4949 39.3991C42.5382 39.2238 42.5815 39.0485 42.6261 38.8679C42.6521 38.6836 42.678 38.4993 42.7048 38.3094C42.3199 37.8006 42.3199 37.8006 41.8652 37.4377C41.9258 37.3208 41.9864 37.2039 42.0489 37.0835C42.3032 36.5556 42.3032 36.5556 42.4818 35.9257C42.9224 34.607 43.5339 33.8984 44.5938 33.0788C44.7324 33.0788 44.8709 33.0788 45.0136 33.0788C45.1521 32.935 45.2907 32.7911 45.4334 32.6429C46.0273 32.722 46.5439 32.882 47.1125 33.0788C47.1905 32.9709 47.2684 32.8631 47.3487 32.7519C47.7422 32.425 47.7422 32.425 48.3588 32.3433Z" fill="white"/>
<path d="M51.7308 32.8608C51.8694 32.8608 52.0079 32.8608 52.1506 32.8608C53.3003 34.9908 54.3268 37.0093 54.8792 39.3991C54.9409 39.6402 54.9409 39.6402 55.0038 39.8861C55.1337 40.8041 55.0891 41.7404 55.0891 42.6682C53.3575 42.6682 51.6259 42.6682 49.8418 42.6682C50.0756 42.0389 50.3093 41.4096 50.5502 40.7612C51.5122 38.0826 51.8043 35.7246 51.7308 32.8608Z" fill="white"/>
<path d="M48.7935 34.3857C49.9913 34.4873 50.716 34.808 51.732 35.4755C51.732 36.1227 51.732 36.77 51.732 37.4369C51.5978 37.2571 51.4636 37.0773 51.3253 36.8921C50.561 36.2443 50.198 36.2089 49.2444 36.2697C48.34 36.4251 47.8933 36.7873 47.3636 37.5459C47.0693 38.0887 47.0693 38.0887 47.1143 38.7446C46.9758 38.7446 46.8373 38.7446 46.6946 38.7446C46.8672 40.1077 47.1868 40.9517 48.113 41.9456C48.3737 42.2317 48.3737 42.2317 48.3737 42.4496C47.6118 42.4496 46.8499 42.4496 46.0649 42.4496C46.1341 42.1619 46.2034 41.8742 46.2748 41.5778C45.9285 41.434 45.5821 41.2901 45.2253 41.1419C45.2946 40.9262 45.3638 40.7104 45.4352 40.4881C45.2967 40.3443 45.1581 40.2004 45.0154 40.0522C45.0941 39.5891 45.0941 39.5891 45.2253 39.1805C45.0868 39.1805 44.9483 39.1805 44.8055 39.1805C44.5482 38.2657 44.6333 37.8132 45.0548 36.9738C45.1443 36.7889 45.2339 36.6041 45.3262 36.4136C45.6631 35.883 45.9792 35.6077 46.4847 35.2575C46.6925 35.0755 46.6925 35.0755 46.9044 34.8897C47.3242 34.6037 47.3242 34.6037 48.1638 34.6037C48.3023 34.6756 48.4409 34.7475 48.5836 34.8216C48.6528 34.6778 48.7221 34.5339 48.7935 34.3857Z" fill="white"/>
<path d="M46.4845 46.3727C46.419 47.0473 46.3595 47.3768 45.8835 47.8566C43.5891 49.4411 40.7395 51.3097 37.8789 51.1674C38.6398 49.6963 38.6398 49.6963 39.3482 49.206C39.491 49.0509 39.491 49.0509 39.6368 48.8927C41.3116 47.2205 44.2053 46.2436 46.4845 46.3727Z" fill="white"/>
<path d="M46.5093 45.2699C46.7392 45.2719 46.9692 45.2738 47.2062 45.2759C47.4716 45.2797 47.4716 45.2797 47.7424 45.2835C47.5811 46.1997 47.2075 46.487 46.483 47.0271C46.483 46.8113 46.483 46.5955 46.483 46.3732C44.4268 46.6053 41.8652 47.1715 40.3962 48.7706C40.118 48.9194 39.8382 49.065 39.5566 49.2065C39.4181 49.3503 39.2795 49.4942 39.1368 49.6424C39.0026 49.7772 38.8684 49.9121 38.7301 50.051C38.287 50.4911 38.287 50.4911 38.0086 51.0045C37.6676 51.3859 37.6676 51.3859 36.9985 51.4404C36.8037 51.4224 36.6089 51.4044 36.4082 51.3859C36.4082 50.5141 36.4082 50.5141 36.8936 49.9284C37.4577 49.4244 37.4577 49.4244 38.0873 49.2065C38.1566 48.9907 38.2259 48.775 38.2972 48.5527C40.1837 46.9752 42.4909 46.1419 44.8039 45.5015C45.3841 45.2002 45.863 45.2628 46.5093 45.2699Z" fill="white"/>
<path d="M45.0146 29.5913C45.1531 29.7352 45.2917 29.879 45.4344 30.0272C45.5946 29.9463 45.7547 29.8654 45.9198 29.782C46.1059 29.7191 46.2921 29.6561 46.4838 29.5913C46.6916 29.7352 46.8994 29.879 47.1135 30.0272C47.5654 29.96 47.5654 29.96 47.9531 29.8093C48.057 30.3487 48.057 30.3487 48.163 30.899C47.5333 30.899 47.5333 30.899 47.0217 30.6538C46.4954 30.3987 46.4954 30.3987 46.0378 30.6538C45.908 30.7347 45.7781 30.8156 45.6443 30.899C45.1545 30.899 44.6648 30.899 44.175 30.899C43.8308 31.2146 43.8308 31.2146 43.5454 31.6345C43.0945 32.2527 42.7393 32.5189 42.0761 32.8604C41.8683 33.1841 41.8683 33.1841 41.6563 33.5143C41.5178 33.5143 41.3793 33.5143 41.2365 33.5143C41.1673 33.73 41.098 33.9458 41.0267 34.1681C40.8189 34.1681 40.6111 34.1681 40.397 34.1681C40.1842 34.9572 40.0824 35.7543 39.9772 36.5655C39.7001 36.5655 39.4231 36.5655 39.1376 36.5655C39.0064 35.9525 39.0064 35.9525 38.9277 35.2578C39.1355 34.9342 39.1355 34.9342 39.3475 34.604C39.3475 34.3163 39.3475 34.0286 39.3475 33.7322C39.486 33.5884 39.6246 33.4445 39.7673 33.2963C39.7673 33.0806 39.7673 32.8648 39.7673 32.6425C40.4669 31.9887 40.4669 31.9887 41.0267 31.9887C41.1652 32.1325 41.3037 32.2764 41.4464 32.4246C41.3772 32.1369 41.3079 31.8492 41.2365 31.5528C41.5009 31.2913 41.7682 31.0331 42.0368 30.7764C42.2596 30.5602 42.2596 30.5602 42.4869 30.3396C42.6284 30.2365 42.7699 30.1334 42.9157 30.0272C43.1235 30.0991 43.3313 30.171 43.5454 30.2451C44.2387 30.1573 44.5127 30.1125 45.0146 29.5913Z" fill="white"/>
<path d="M50.054 37.0015C50.5388 37.0734 51.0237 37.1453 51.5232 37.2194C51.4313 39.0976 50.8629 40.7701 50.054 42.45C49.2483 42.1092 48.7296 41.6058 48.165 40.9244C47.9682 40.3659 47.9682 40.3659 47.9551 39.8347C48.0883 39.5407 48.2276 39.2496 48.3749 38.9629C48.3056 38.7472 48.2363 38.5314 48.165 38.3091C48.3728 38.2372 48.5806 38.1653 48.7946 38.0912C48.8639 37.8754 48.9332 37.6596 49.0045 37.4373C49.2816 37.4373 49.5587 37.4373 49.8441 37.4373C49.9134 37.2935 49.9826 37.1497 50.054 37.0015Z" fill="white"/>
<path d="M37.25 25.8863C40.0235 25.7746 42.6702 25.9731 45.2259 27.194C45.0874 27.4097 44.9488 27.6255 44.8061 27.8478C43.9928 27.6571 43.9928 27.6571 43.7567 27.4119C43.5489 27.4838 43.3411 27.5558 43.127 27.6299C42.9192 27.6299 42.7114 27.6299 42.4973 27.6299C42.0425 27.8115 42.0425 27.8115 41.8676 28.2837C41.7291 27.996 41.5906 27.7083 41.4478 27.4119C41.1708 27.4838 40.8937 27.5558 40.6083 27.6299C40.6039 27.7827 40.5996 27.9355 40.5952 28.093C40.304 29.0202 39.6603 29.4503 38.9291 30.0272C38.7906 29.8834 38.6521 29.7395 38.5094 29.5913C38.6825 29.4205 38.8557 29.2497 39.0341 29.0737C39.6071 28.5807 39.6071 28.5807 39.5588 28.0657C39.4203 28.0657 39.2818 28.0657 39.139 28.0657C38.8855 27.2761 39.025 27.0542 39.3489 26.3222C38.6563 26.2503 37.9636 26.1784 37.25 26.1043C37.25 26.0323 37.25 25.9604 37.25 25.8863Z" fill="white"/>
<path d="M45.8563 47.463C44.4387 49.1312 42.4582 50.1738 40.3991 50.7321C39.8063 50.7542 39.8063 50.7542 39.3496 50.7321C39.8851 49.3616 41.2232 48.6525 42.4611 48.0427C43.6359 47.5646 44.5982 47.3644 45.8563 47.463Z" fill="white"/>
<path d="M37.0393 28.0659C37.4482 28.5436 37.6554 28.8435 37.7477 29.4825C37.6529 30.1384 37.4555 30.403 37.0393 30.8992C36.4412 31.6157 36.336 32.1485 36.1997 33.0786C36.0612 33.2224 35.9227 33.3663 35.7799 33.5145C35.6414 33.1549 35.5029 32.7953 35.3601 32.4248C35.2216 32.5686 35.0831 32.7124 34.9404 32.8606C34.8711 32.501 34.8018 32.1414 34.7305 31.7709C34.869 31.699 35.0075 31.6271 35.1503 31.553C35.2888 31.6249 35.4273 31.6968 35.57 31.7709C35.5008 31.5552 35.4315 31.3394 35.3601 31.1171C35.4987 30.9013 35.6372 30.6856 35.7799 30.4633C35.6414 30.1756 35.5029 29.8879 35.3601 29.5915C35.8796 29.8073 35.8796 29.8073 36.4096 30.0274C36.3403 29.8116 36.2711 29.5959 36.1997 29.3736C36.269 29.1578 36.3382 28.942 36.4096 28.7197C36.5481 28.7197 36.6867 28.7197 36.8294 28.7197C36.8987 28.504 36.9679 28.2882 37.0393 28.0659Z" fill="white"/>
<path d="M45.0147 33.0786C45.1721 33.46 45.1721 33.46 45.2246 33.9504C44.8396 34.4538 44.5311 34.7624 43.9521 34.9992C43.2938 35.4182 43.1711 36.0513 42.9157 36.7836C42.8811 36.9544 42.8465 37.1253 42.8108 37.3012C42.7762 37.4181 42.7415 37.535 42.7058 37.6554C42.4981 37.7273 42.2903 37.7992 42.0762 37.8733C42.0762 37.1252 42.2566 36.6161 42.496 35.9119C42.5392 35.7006 42.5825 35.4893 42.6271 35.2717C43.0154 34.3736 43.9814 33.0786 45.0147 33.0786Z" fill="white"/>
<path d="M41.2383 26.1045C42.6587 26.3104 43.9375 26.5251 45.2262 27.1942C45.0184 27.5178 45.0184 27.5178 44.8064 27.848C43.9931 27.6573 43.9931 27.6573 43.757 27.4121C43.5492 27.4841 43.3414 27.556 43.1273 27.6301C42.9195 27.6301 42.7117 27.6301 42.4976 27.6301C42.0429 27.8117 42.0429 27.8117 41.868 28.2839C41.7626 27.9617 41.6578 27.6393 41.5531 27.3168C41.4947 27.1373 41.4362 26.9578 41.376 26.7728C41.2383 26.3224 41.2383 26.3224 41.2383 26.1045Z" fill="white"/>
<path d="M34.3102 33.0786C34.6565 33.0786 35.0029 33.0786 35.3597 33.0786C35.3597 33.2944 35.3597 33.5101 35.3597 33.7324C35.5675 33.8044 35.7753 33.8763 35.9893 33.9504C35.8508 33.9504 35.7123 33.9504 35.5696 33.9504C35.5003 34.4538 35.431 34.9573 35.3597 35.476C35.4982 35.5479 35.6367 35.6198 35.7795 35.6939C35.5717 35.7658 35.3639 35.8378 35.1498 35.9119C34.1635 34.9666 34.1635 34.9666 33.9035 34.3726C33.8869 33.8359 34.0449 33.5323 34.3102 33.0786Z" fill="white"/>
<path d="M44.3874 48.5522C43.7481 49.3026 43.1552 49.6543 42.2623 50.0233C41.9303 50.1632 41.9303 50.1632 41.5916 50.306C41.0292 50.5137 41.0292 50.5137 40.6094 50.5137C40.9161 49.6651 41.2986 49.4294 42.0786 49.0562C42.2648 48.9654 42.4509 48.8747 42.6427 48.7812C42.8029 48.7056 42.9631 48.6301 43.1281 48.5522C43.6509 48.2808 43.844 48.3829 44.3874 48.5522Z" fill="white"/>
<path d="M42.9174 30.0273C43.1945 30.1712 43.4715 30.315 43.757 30.4632C43.6185 30.7509 43.4799 31.0386 43.3372 31.335C43.2679 31.2631 43.1987 31.1912 43.1273 31.1171C43.0321 31.2249 42.9368 31.3328 42.8387 31.444C42.4976 31.7709 42.4976 31.7709 42.0778 31.7709C42.0086 31.9147 41.9393 32.0586 41.868 32.2068C41.7294 32.2068 41.5909 32.2068 41.4482 32.2068C41.3789 31.991 41.3096 31.7752 41.2383 31.5529C41.7924 31.0495 42.3465 30.546 42.9174 30.0273Z" fill="white"/>
<path d="M38.2986 27.1938C38.7052 27.3437 38.7052 27.3437 39.1381 27.6297C39.2955 28.2018 39.2955 28.2018 39.348 28.7194C38.7183 28.7194 38.7183 28.7194 38.0887 28.5015C38.0194 28.6453 37.9501 28.7892 37.8788 28.9374C37.7402 28.6497 37.6017 28.362 37.459 28.0656C37.6668 27.9937 37.8746 27.9218 38.0887 27.8477C38.1579 27.6319 38.2272 27.4161 38.2986 27.1938Z" fill="white"/>
<path d="M39.3486 37.437C39.6765 37.832 39.6765 37.832 39.9782 38.3088C39.909 38.5245 39.8397 38.7403 39.7683 38.9626C39.9069 39.0345 40.0454 39.1064 40.1881 39.1805C40.1189 39.5402 40.0496 39.8998 39.9782 40.2703C39.7012 40.1983 39.4241 40.1264 39.1387 40.0523C39.1733 39.922 39.2079 39.7916 39.2436 39.6573C39.3719 39.1558 39.3719 39.1558 39.3486 38.5267C39.3486 38.1635 39.3486 37.8002 39.3486 37.437Z" fill="white"/>
<path d="M44.5963 33.0786C44.7349 33.0786 44.8734 33.0786 45.0161 33.0786C45.1735 33.46 45.1735 33.46 45.226 33.9504C44.8193 34.4408 44.8193 34.4408 44.3864 34.8221C44.1094 34.6783 43.8323 34.5345 43.5469 34.3863C43.6854 34.3863 43.8239 34.3863 43.9667 34.3863C44.0316 34.211 44.0965 34.0357 44.1634 33.855C44.3864 33.2966 44.3864 33.2966 44.5963 33.0786Z" fill="white"/>
<path d="M37.039 28.0659C37.1776 28.2817 37.3161 28.4974 37.4588 28.7197C37.2752 29.5234 37.2752 29.5234 37.039 30.2453C36.8313 30.1734 36.6235 30.1015 36.4094 30.0274C36.1995 29.3736 36.1995 29.3736 36.4094 28.7197C36.5479 28.7197 36.6864 28.7197 36.8292 28.7197C36.8984 28.504 36.9677 28.2882 37.039 28.0659Z" fill="white"/>
<path d="M34.3115 33.0786C34.5193 33.1505 34.7271 33.2225 34.9412 33.2966C34.8756 33.8142 34.8756 33.8142 34.7313 34.3863C34.5235 34.5301 34.3157 34.6739 34.1017 34.8221C33.9063 34.2542 33.8605 34.0284 34.0885 33.46C34.1621 33.3342 34.2357 33.2083 34.3115 33.0786Z" fill="white"/>
<path d="M42.9174 30.8989C43.0559 30.8989 43.1945 30.8989 43.3372 30.8989C43.2679 31.0428 43.1987 31.1866 43.1273 31.3348C43.058 31.191 42.9888 31.0471 42.9174 30.8989ZM42.0778 31.3348C42.2164 31.5506 42.3549 31.7663 42.4976 31.9886C41.8743 32.528 41.8743 32.528 41.2383 33.0783C41.5181 32.4972 41.798 31.916 42.0778 31.3348ZM42.4976 31.3348C42.7054 31.3348 42.9132 31.3348 43.1273 31.3348C43.1273 31.4787 43.1273 31.6225 43.1273 31.7707C42.9195 31.7707 42.7117 31.7707 42.4976 31.7707C42.4976 31.6269 42.4976 31.483 42.4976 31.3348Z" fill="white"/>
<path d="M46.2741 35.2578C46.4184 35.6256 46.4184 35.6256 46.484 36.1296C46.1822 36.7289 46.1822 36.7289 45.8543 37.2193C45.785 37.0754 45.7158 36.9316 45.6444 36.7834C45.5059 36.7115 45.3673 36.6396 45.2246 36.5655C45.5709 36.1339 45.9173 35.7024 46.2741 35.2578Z" fill="white"/>
<path d="M43.7556 33.7324C43.8999 34.0866 43.8999 34.0866 43.9655 34.6042C43.6638 35.3125 43.6638 35.3125 43.3358 35.9118C43.0997 35.5304 43.0997 35.5304 42.916 35.0401C43.1138 34.4582 43.3329 34.1713 43.7556 33.7324Z" fill="white"/>
<path d="M46.0654 32.4248C46.4809 32.4248 46.8965 32.4248 47.3247 32.4248C47.394 32.6406 47.4632 32.8563 47.5346 33.0786C47.3961 33.0786 47.2575 33.0786 47.1148 33.0786C47.0456 33.2225 46.9763 33.3663 46.9049 33.5145C46.8357 33.3707 46.7664 33.2268 46.695 33.0786C46.2795 33.2944 46.2795 33.2944 45.8555 33.5145C45.9247 33.1549 45.994 32.7953 46.0654 32.4248Z" fill="white"/>
<path d="M41.2383 26.1045C41.8617 26.2124 41.8617 26.2124 42.4976 26.3224C42.4284 26.682 42.3591 27.0416 42.2877 27.4121C42.0079 27.4121 41.728 27.4121 41.4482 27.4121C41.3789 26.9806 41.3096 26.5491 41.2383 26.1045Z" fill="white"/>
<path d="M45.0155 37.437C45.154 37.437 45.2925 37.437 45.4353 37.437C45.4353 37.7966 45.4353 38.1562 45.4353 38.5267C45.2967 38.5267 45.1582 38.5267 45.0155 38.5267C44.9462 38.7425 44.877 38.9582 44.8056 39.1805C44.6744 38.6766 44.6744 38.6766 44.5957 38.0908C44.7342 37.8751 44.8728 37.6593 45.0155 37.437Z" fill="white"/>
<path d="M72.388 50.7905H65.1896V38.7875H72.1118V40.9889H67.8932V43.659H71.8189V45.852H67.8932V48.5975H72.388V50.7905ZM82.2148 42.2193L79.0257 50.7905H76.0124L72.974 42.2193H75.8031L77.293 47.501C77.4604 48.0981 77.5581 48.6059 77.586 49.0244H77.6195C77.6585 48.6282 77.7618 48.1371 77.9292 47.5512L79.4526 42.2193H82.2148ZM87.2621 50.9998C85.8335 50.9998 84.7091 50.6008 83.8888 49.8028C83.0741 48.9993 82.6668 47.9111 82.6668 46.5384C82.6668 45.121 83.0909 44.0134 83.9391 43.2154C84.7872 42.4119 85.934 42.0101 87.3792 42.0101C88.8022 42.0101 89.9182 42.4119 90.7274 43.2154C91.5365 44.0134 91.9411 45.0708 91.9411 46.3877C91.9411 47.8107 91.5225 48.9351 90.6855 49.761C89.8541 50.5869 88.7129 50.9998 87.2621 50.9998ZM87.329 44.0357C86.704 44.0357 86.2186 44.2505 85.8726 44.6802C85.5266 45.1099 85.3536 45.7181 85.3536 46.5049C85.3536 48.1511 86.0177 48.9742 87.3458 48.9742C88.6125 48.9742 89.2458 48.1288 89.2458 46.438C89.2458 44.8365 88.6069 44.0357 87.329 44.0357ZM96.302 50.7905H93.657V38.1012H96.302V50.7905ZM106.673 50.7905H104.036V49.4848H103.994C103.341 50.4948 102.468 50.9998 101.374 50.9998C99.3878 50.9998 98.3946 49.7973 98.3946 47.3922V42.2193H101.031V47.1578C101.031 48.3687 101.511 48.9742 102.471 48.9742C102.945 48.9742 103.325 48.8096 103.609 48.4803C103.894 48.1455 104.036 47.6935 104.036 47.1243V42.2193H106.673V50.7905ZM114.089 50.6901C113.698 50.8966 113.11 50.9998 112.323 50.9998C110.459 50.9998 109.527 50.0316 109.527 48.0953V44.1696H108.138V42.2193H109.527V40.3695L112.164 39.6162V42.2193H114.089V44.1696H112.164V47.6349C112.164 48.5278 112.518 48.9742 113.227 48.9742C113.506 48.9742 113.793 48.8933 114.089 48.7314V50.6901ZM116.926 40.8634C116.48 40.8634 116.114 40.7322 115.83 40.4699C115.545 40.2021 115.403 39.8757 115.403 39.4906C115.403 39.0944 115.545 38.7708 115.83 38.5197C116.114 38.2686 116.48 38.143 116.926 38.143C117.378 38.143 117.744 38.2686 118.023 38.5197C118.308 38.7708 118.45 39.0944 118.45 39.4906C118.45 39.8924 118.308 40.2216 118.023 40.4783C117.744 40.735 117.378 40.8634 116.926 40.8634ZM118.232 50.7905H115.587V42.2193H118.232V50.7905ZM124.543 50.9998C123.115 50.9998 121.99 50.6008 121.17 49.8028C120.355 48.9993 119.948 47.9111 119.948 46.5384C119.948 45.121 120.372 44.0134 121.22 43.2154C122.069 42.4119 123.215 42.0101 124.661 42.0101C126.084 42.0101 127.2 42.4119 128.009 43.2154C128.818 44.0134 129.222 45.0708 129.222 46.3877C129.222 47.8107 128.804 48.9351 127.967 49.761C127.135 50.5869 125.994 50.9998 124.543 50.9998ZM124.61 44.0357C123.985 44.0357 123.5 44.2505 123.154 44.6802C122.808 45.1099 122.635 45.7181 122.635 46.5049C122.635 48.1511 123.299 48.9742 124.627 48.9742C125.894 48.9742 126.527 48.1288 126.527 46.438C126.527 44.8365 125.888 44.0357 124.61 44.0357ZM139.217 50.7905H136.58V46.0278C136.58 44.6997 136.106 44.0357 135.157 44.0357C134.699 44.0357 134.323 44.2115 134.027 44.563C133.731 44.9146 133.583 45.361 133.583 45.9023V50.7905H130.938V42.2193H133.583V43.5753H133.617C134.247 42.5318 135.165 42.0101 136.371 42.0101C138.268 42.0101 139.217 43.1875 139.217 45.5423V50.7905Z" fill="white"/>
</svg>
