<svg width="178" height="86" viewBox="0 0 178 86" fill="none" xmlns="http://www.w3.org/2000/svg">
<rect width="177.143" height="86" rx="10" fill="#19191A"/>
<g clip-path="url(#clip0_1_3457)">
<path d="M35.9734 48.9099L39.5724 43.7347L35.9132 38.3404H38.3075L40.8523 41.9053L43.3519 38.3091H44.0145L47.7339 33.0712C45.7763 31.7266 43.4423 30.9448 40.9125 30.9448C34.1213 30.9605 28.625 36.6205 28.625 43.6095C28.625 47.6747 30.4922 51.3021 33.3985 53.6161L36.5155 48.9099H35.9734V48.9099ZM35.1904 48.0656H32.7359C32.7058 48.0656 32.6907 48.0344 32.6907 48.0187V40.3104C32.6907 39.7007 32.4649 39.4974 31.2602 39.4974C31.2301 39.4974 31.215 39.4662 31.215 39.4505V38.575C31.215 38.5437 31.2451 38.528 31.2602 38.528H33.3382C34.7387 38.528 35.2506 39.2003 35.2506 40.5138V48.0188C35.2506 48.05 35.2205 48.0656 35.1905 48.0656L35.1904 48.0656Z" fill="white" stroke="white" stroke-width="0.00457424" stroke-miterlimit="10"/>
<path d="M48.6368 33.7588L45.4143 38.3243H46.0317L42.4328 43.484L46.0468 48.8782H43.5923L41.0926 45.4228L38.6532 48.9252H37.9605L34.4219 54.3506C36.3041 55.5702 38.5328 56.2582 40.927 56.2582C47.7183 56.2582 53.2146 50.5981 53.2146 43.6091C53.2146 39.6377 51.4226 36.0885 48.6369 33.7588H48.6368ZM51.8141 48.0652L46.2577 48.1121C46.2577 47.4398 46.2276 46.9551 46.2577 45.3446C46.2577 45.0945 46.5437 44.6254 46.8449 44.3283C47.9893 43.1713 49.7964 42.1237 49.7964 41.3576V40.4194C49.7964 39.966 49.6909 39.5594 49.1489 39.5751C48.1851 39.5908 48.411 40.2319 48.411 40.9667C48.411 40.9823 48.396 40.9979 48.396 41.0136L46.3782 42.5615C46.3481 42.5928 46.2879 42.5615 46.2879 42.5146C46.2728 41.7172 46.1674 40.7791 46.2578 40.2788C46.4686 39.153 47.4173 38.4338 49.1038 38.4494C51.0162 38.4651 51.7239 39.2312 51.8293 39.7628C51.9649 40.5133 51.9649 41.2481 51.8594 41.7798C51.7238 42.4364 50.9559 43.1713 49.7362 44.219C49.0285 44.8287 48.5316 45.3759 48.5165 45.6105C48.5014 45.9388 48.5165 46.5017 48.5316 46.6737C48.5316 46.7049 48.5616 46.7206 48.5917 46.7206H51.8292C51.8593 46.7206 51.8895 46.7518 51.8895 46.7831V48.0183C51.8594 48.0496 51.8443 48.0652 51.8142 48.0652L51.8141 48.0652Z" fill="white" stroke="white" stroke-width="0.00457424" stroke-miterlimit="10"/>
</g>
<path d="M69.5993 37.6506V49.5103H67.051V40.5306C66.9108 40.6546 66.7436 40.7733 66.5494 40.8865C66.3607 40.9944 66.1584 41.0942 65.9427 41.1859C65.727 41.2721 65.5032 41.3476 65.2713 41.4124C65.0393 41.4717 64.8101 41.5148 64.5836 41.5418V39.3899C65.247 39.1958 65.8726 38.9477 66.4605 38.6457C67.0483 38.3436 67.5795 38.012 68.0541 37.6506H69.5993ZM83.1982 49.5103H80.0999L78.1017 45.7323C78.0262 45.5921 77.948 45.3332 77.8671 44.9557H77.8347C77.797 45.1337 77.708 45.4033 77.5677 45.7647L75.5615 49.5103H72.4469L76.1439 43.7099L72.7624 37.9095H75.9417L77.6001 41.3881C77.7295 41.6632 77.8455 41.9894 77.948 42.367H77.9803C78.045 42.1404 78.1664 41.8034 78.3444 41.3557L80.1888 37.9095H83.1012L79.6226 43.6613L83.1982 49.5103ZM86.7254 47.3907H91.644V49.5103H83.9263V48.6366C83.9263 48.0433 84.0261 47.5121 84.2257 47.0429C84.4252 46.5683 84.676 46.1449 84.978 45.7728C85.28 45.3952 85.609 45.0636 85.965 44.7777C86.3263 44.4865 86.6688 44.2249 86.9924 43.993C87.3321 43.7503 87.6288 43.5184 87.8822 43.2973C88.1411 43.0762 88.3568 42.8577 88.5294 42.642C88.7074 42.4209 88.8395 42.1998 88.9258 41.9787C89.0121 41.7521 89.0553 41.5121 89.0553 41.2587C89.0553 40.7625 88.915 40.3877 88.6346 40.1342C88.3541 39.8807 87.9254 39.754 87.3483 39.754C86.3506 39.754 85.396 40.1504 84.4845 40.9432V38.6942C85.4931 38.0416 86.631 37.7153 87.8984 37.7153C88.4863 37.7153 89.0121 37.7935 89.4759 37.9499C89.9451 38.1009 90.3415 38.3194 90.6651 38.6052C90.9887 38.891 91.2341 39.2389 91.4013 39.6488C91.5739 40.0533 91.6602 40.5063 91.6602 41.0079C91.6602 41.5418 91.5766 42.0164 91.4094 42.4317C91.2476 42.847 91.0292 43.2245 90.7541 43.5643C90.4845 43.904 90.1717 44.2168 89.8157 44.5027C89.4598 44.7831 89.0903 45.0555 88.7074 45.3197C88.4485 45.5031 88.1977 45.6865 87.955 45.8698C87.7177 46.0478 87.5074 46.2258 87.324 46.4038C87.1407 46.5764 86.9951 46.7462 86.8872 46.9134C86.7793 47.0806 86.7254 47.2397 86.7254 47.3907ZM101.983 48.5637C101.983 50.1008 101.538 51.29 100.648 52.1313C99.7581 52.9781 98.4691 53.4014 96.781 53.4014C95.6646 53.4014 94.7801 53.2423 94.1276 52.9241V50.7723C94.9797 51.2684 95.8399 51.5165 96.7082 51.5165C97.5711 51.5165 98.2399 51.2873 98.7145 50.8289C99.1891 50.3759 99.4264 49.7583 99.4264 48.9763V48.3211H99.394C98.8116 49.2487 97.9513 49.7125 96.8134 49.7125C95.7563 49.7125 94.9177 49.3404 94.2975 48.5961C93.6772 47.8518 93.3671 46.8541 93.3671 45.6029C93.3671 44.2007 93.7123 43.087 94.4026 42.2618C95.0929 41.4366 96.0017 41.0241 97.1289 41.0241C98.1374 41.0241 98.8925 41.4124 99.394 42.189H99.4264V41.2263H101.983V48.5637ZM99.4587 45.5301V44.8748C99.4587 44.3517 99.3023 43.9067 98.9895 43.54C98.6821 43.1679 98.2803 42.9818 97.7842 42.9818C97.2179 42.9818 96.7729 43.2029 96.4493 43.6452C96.1257 44.0874 95.9639 44.7103 95.9639 45.5139C95.9639 46.2042 96.1177 46.7516 96.4251 47.1561C96.7325 47.5552 97.1531 47.7548 97.6871 47.7548C98.2156 47.7548 98.6417 47.5525 98.9653 47.148C99.2942 46.7381 99.4587 46.1988 99.4587 45.5301ZM111.011 49.5103H108.592V48.3211H108.56C108.004 49.2487 107.182 49.7125 106.092 49.7125C105.289 49.7125 104.655 49.486 104.191 49.033C103.733 48.5745 103.504 47.9651 103.504 47.2047C103.504 45.5975 104.456 44.6699 106.359 44.4218L108.608 44.1224C108.608 43.2164 108.118 42.7634 107.136 42.7634C106.149 42.7634 105.211 43.0573 104.321 43.6452V41.7198C104.677 41.5364 105.162 41.3746 105.777 41.2344C106.397 41.0942 106.961 41.0241 107.468 41.0241C109.83 41.0241 111.011 42.2025 111.011 44.5593V49.5103ZM108.608 46.1449V45.5867L107.104 45.7809C106.273 45.8887 105.858 46.2635 105.858 46.9053C105.858 47.1966 105.958 47.4366 106.157 47.6253C106.362 47.8087 106.637 47.9004 106.982 47.9004C107.462 47.9004 107.853 47.7359 108.155 47.4069C108.457 47.0725 108.608 46.6519 108.608 46.1449ZM126.187 49.5103H123.639V44.7858C123.639 43.5831 123.197 42.9818 122.312 42.9818C121.892 42.9818 121.549 43.1625 121.285 43.5238C121.021 43.8851 120.889 44.3355 120.889 44.8748V49.5103H118.332V44.7373C118.332 43.5669 117.898 42.9818 117.03 42.9818C116.593 42.9818 116.242 43.1544 115.978 43.4995C115.719 43.8447 115.59 44.3139 115.59 44.9072V49.5103H113.033V41.2263H115.59V42.5207H115.622C115.886 42.0784 116.256 41.7198 116.73 41.4447C117.21 41.1643 117.734 41.0241 118.3 41.0241C119.47 41.0241 120.271 41.5391 120.703 42.5692C121.334 41.5391 122.261 41.0241 123.485 41.0241C125.287 41.0241 126.187 42.1351 126.187 44.3571V49.5103ZM129.504 39.9158C129.073 39.9158 128.72 39.789 128.444 39.5355C128.169 39.2767 128.032 38.9612 128.032 38.589C128.032 38.2061 128.169 37.8933 128.444 37.6506C128.72 37.4079 129.073 37.2866 129.504 37.2866C129.941 37.2866 130.294 37.4079 130.564 37.6506C130.839 37.8933 130.977 38.2061 130.977 38.589C130.977 38.9773 130.839 39.2955 130.564 39.5436C130.294 39.7917 129.941 39.9158 129.504 39.9158ZM130.766 49.5103H128.21V41.2263H130.766V49.5103ZM140.919 49.5103H138.371V44.9072C138.371 43.6236 137.912 42.9818 136.995 42.9818C136.553 42.9818 136.189 43.1517 135.903 43.4914C135.617 43.8312 135.475 44.2627 135.475 44.7858V49.5103H132.918V41.2263H135.475V42.5368H135.507C136.116 41.5283 137.003 41.0241 138.168 41.0241C140.002 41.0241 140.919 42.162 140.919 44.438V49.5103ZM151.072 48.5637C151.072 50.1008 150.627 51.29 149.737 52.1313C148.847 52.9781 147.558 53.4014 145.87 53.4014C144.754 53.4014 143.869 53.2423 143.216 52.9241V50.7723C144.069 51.2684 144.929 51.5165 145.797 51.5165C146.66 51.5165 147.329 51.2873 147.803 50.8289C148.278 50.3759 148.515 49.7583 148.515 48.9763V48.3211H148.483C147.9 49.2487 147.04 49.7125 145.902 49.7125C144.845 49.7125 144.007 49.3404 143.386 48.5961C142.766 47.8518 142.456 46.8541 142.456 45.6029C142.456 44.2007 142.801 43.087 143.492 42.2618C144.182 41.4366 145.091 41.0241 146.218 41.0241C147.226 41.0241 147.981 41.4124 148.483 42.189H148.515V41.2263H151.072V48.5637ZM148.548 45.5301V44.8748C148.548 44.3517 148.391 43.9067 148.078 43.54C147.771 43.1679 147.369 42.9818 146.873 42.9818C146.307 42.9818 145.862 43.2029 145.538 43.6452C145.215 44.0874 145.053 44.7103 145.053 45.5139C145.053 46.2042 145.207 46.7516 145.514 47.1561C145.821 47.5552 146.242 47.7548 146.776 47.7548C147.305 47.7548 147.731 47.5525 148.054 47.148C148.383 46.7381 148.548 46.1988 148.548 45.5301Z" fill="white"/>
<defs>
<clipPath id="clip0_1_3457">
<rect width="24.5995" height="25.324" fill="white" transform="translate(28.6211 30.938)"/>
</clipPath>
</defs>
</svg>
