<svg width="178" height="86" viewBox="0 0 178 86" fill="none" xmlns="http://www.w3.org/2000/svg">
<rect width="177.143" height="86" rx="10" fill="#19191A"/>
<g clip-path="url(#clip0_1_3479)">
<path d="M57.0355 42.3397C57.5959 41.5069 57.8888 40.5269 57.8761 39.5274L57.8639 32.2323C57.8761 32.0803 57.8761 31.9276 57.8639 31.7756C57.7719 30.4757 57.1738 29.2613 56.1948 28.3864C55.2278 27.4863 53.9424 26.9946 52.613 27.0163H47.7031V42.3397H57.0355ZM53.7704 30.9463C54.0965 31.2422 54.2931 31.6517 54.3186 32.0881L54.3308 32.2323L54.343 39.5274C54.344 39.755 54.2992 39.9804 54.2114 40.1908C54.1236 40.4012 53.9944 40.5924 53.8313 40.7533C53.6682 40.9142 53.4744 41.0416 53.2611 41.1283C53.0478 41.2149 52.8193 41.259 52.5886 41.2581H51.1753V30.4896H52.5642C53.0113 30.481 53.444 30.6448 53.7704 30.9463Z" fill="white"/>
<path d="M58.2168 46.0297C58.154 45.1865 57.8775 44.3724 57.4127 43.6621H47.7148V58.9735H52.9658C53.6583 58.985 54.3458 58.8554 54.9852 58.5927C55.6246 58.3301 56.2021 57.9401 56.6817 57.4472C57.1763 56.9677 57.5681 56.3951 57.8339 55.7633C58.0997 55.1316 58.234 54.4535 58.229 53.7695L58.2168 46.4744C58.229 46.3264 58.229 46.1777 58.2168 46.0297ZM54.6958 53.7695C54.6978 54.0001 54.6524 54.2286 54.5624 54.4414C54.4723 54.6541 54.3395 54.8467 54.172 55.0074C54.0155 55.1671 53.8281 55.2941 53.6209 55.3808C53.4137 55.4675 53.1909 55.5122 52.9658 55.5122H51.2236V44.7438H52.978C53.4133 44.7397 53.833 44.9036 54.1476 45.2005C54.4726 45.4985 54.6725 45.9059 54.708 46.3422L54.7202 46.4864L54.6958 53.7695Z" fill="white"/>
<path d="M124.103 42.3039H127.611V30.4899H130.779L130.791 27.0166H120.606L120.594 30.4899H124.103V42.3039Z" fill="white"/>
<path d="M124.104 43.626V58.9734H127.612V43.626H124.104Z" fill="white"/>
<path d="M119.254 42.3039V41.2583H113.601V30.4899H119.254L119.266 27.0166L110.08 27.0286V42.3039H119.254Z" fill="white"/>
<path d="M110.08 43.626V58.9734H113.613L113.625 44.7317H119.278L119.266 43.626H110.08Z" fill="white"/>
<path d="M100.723 42.3041L100.735 32.2327C100.733 32.0021 100.779 31.7736 100.869 31.5608C100.959 31.3481 101.092 31.1555 101.259 30.9948C101.577 30.6801 102.006 30.4993 102.456 30.4903C102.906 30.4813 103.342 30.645 103.672 30.9467C103.997 31.2448 104.197 31.6521 104.232 32.0885L104.244 32.2327V42.3041H107.729V32.2207C107.741 32.0687 107.741 31.916 107.729 31.764C107.631 30.4655 107.034 29.2529 106.06 28.3748C105.098 27.4835 103.822 26.9964 102.502 27.0167C101.815 27.007 101.134 27.1375 100.5 27.4002C99.8673 27.6629 99.296 28.052 98.8227 28.5431C98.3304 29.0242 97.9401 29.5971 97.6745 30.2285C97.4088 30.8599 97.2732 31.5371 97.2754 32.2207V42.292L100.723 42.3041Z" fill="white"/>
<path d="M104.233 43.626V53.7695C104.233 54.2274 104.05 54.6669 103.724 54.9929C103.398 55.319 102.955 55.5055 102.491 55.5121C102.046 55.5195 101.616 55.3575 101.289 55.0598C100.962 54.7621 100.765 54.3516 100.737 53.9137C100.737 53.8656 100.725 53.8175 100.725 53.7695L100.737 43.626H97.2767V53.7695C97.2645 53.9215 97.2645 54.0742 97.2767 54.2262C97.3741 55.5247 97.9712 56.7372 98.9458 57.6153C99.936 58.5225 101.245 59.0135 102.596 58.9843C103.947 58.9551 105.234 58.4081 106.183 57.4591C106.675 56.978 107.065 56.405 107.331 55.7737C107.597 55.1423 107.732 54.4651 107.73 53.7815V43.638H104.233V43.626Z" fill="white"/>
<path d="M86.3718 42.3041H92.0979C91.4644 41.7873 90.8309 41.2585 90.1973 40.7417C89.0643 39.7201 88.4308 38.4221 88.2968 36.8477C88.2724 36.5954 88.2602 36.331 88.2602 36.0425L88.2846 32.2207C88.2832 31.886 88.3805 31.5582 88.5647 31.2771C88.7488 30.9961 89.0118 30.7739 89.3217 30.6376C89.6315 30.5013 89.9749 30.4568 90.3099 30.5096C90.6449 30.5624 90.9571 30.7101 91.2085 30.9347C91.5335 31.2328 91.7335 31.6401 91.769 32.0765L91.7812 32.2207V34.6484H95.2656V32.2327C95.2778 32.0807 95.2778 31.928 95.2656 31.776C95.1735 30.4761 94.5754 29.2617 93.5965 28.3868C92.6062 27.48 91.2968 26.9892 89.9459 27.0183C88.5951 27.0475 87.3088 27.5944 86.3596 28.5431C85.8658 29.0237 85.4737 29.5963 85.206 30.2276C84.9383 30.8589 84.8003 31.5364 84.8002 32.2207L84.788 37.0881C84.7758 37.4727 84.788 37.8573 84.8123 38.2299C84.9585 39.8643 85.4702 41.2104 86.3718 42.3041Z" fill="white"/>
<path d="M93.5725 43.626H87.8342C88.492 44.1668 89.1621 44.7196 89.8322 45.2605C90.9652 46.282 91.55 47.58 91.6841 49.1544C91.7084 49.4068 91.6962 49.9717 91.6962 49.9476L91.7084 53.7695C91.7109 54.0012 91.6646 54.2309 91.5723 54.444C91.48 54.6571 91.3438 54.8489 91.1724 55.0074C90.8516 55.3206 90.4211 55.5003 89.9699 55.5093C89.5186 55.5182 89.0811 55.3557 88.7479 55.0554C88.4217 54.7595 88.2251 54.3501 88.1996 53.9137C88.1996 53.8656 88.1875 53.8175 88.1875 53.7695L88.224 51.3418H84.7396V53.7695C84.7274 53.9215 84.7274 54.0742 84.7396 54.2262C84.827 55.5247 85.4208 56.7394 86.3965 57.6153C87.1506 58.2897 88.0867 58.7339 89.0914 58.8941C90.0962 59.0543 91.1265 58.9236 92.0575 58.5178C92.9884 58.112 93.7801 57.4486 94.3366 56.608C94.8931 55.7673 95.1905 54.7855 95.1928 53.7815L95.205 48.9141C95.2172 48.5295 95.205 48.1449 95.1806 47.7723C95.0344 46.1018 94.4984 44.7196 93.5725 43.626Z" fill="white"/>
<path d="M75.8345 42.3039H79.3311V30.4899H82.4865L82.4987 27.0166L72.3501 27.0286L72.3379 30.5019H75.8345V42.3039Z" fill="white"/>
<path d="M75.8325 43.626L75.8203 58.9734H79.3169L79.3291 43.626H75.8325Z" fill="white"/>
<path d="M69.8509 42.3039V41.2583H64.2344V30.4899L69.8265 30.5019L69.8387 27.0286L60.7622 27.0166L60.75 42.3039H69.8509Z" fill="white"/>
<path d="M64.2588 44.7317L69.8387 44.7437V43.626H60.75V58.9734H69.8265L69.8509 55.5121L64.2466 55.5001L64.2588 44.7317Z" fill="white"/>
<path d="M38.2852 48.9023V36.896L44.4255 42.9532L38.2852 48.9023Z" fill="white"/>
<path d="M138.285 48.9741V36.9678L132.145 42.9769L138.285 48.9741Z" fill="white"/>
</g>
<defs>
<clipPath id="clip0_1_3479">
<rect width="100" height="32" fill="white" transform="translate(38.2852 27)"/>
</clipPath>
</defs>
</svg>
