<svg width="250" height="130" viewBox="0 0 250 130" fill="none" xmlns="http://www.w3.org/2000/svg">
<rect width="249.25" height="129.22" rx="10" fill="#19191A"/>
<path d="M67.8371 65.9935C68.8525 65.9852 69.8679 65.9802 70.8833 65.9757C71.17 65.9734 71.4566 65.971 71.7519 65.9685C73.1243 65.964 74.4298 65.9703 75.7779 66.2778C75.8342 68.0734 75.6953 69.5847 75.2131 71.3068C75.1518 71.528 75.0904 71.7493 75.0272 71.9772C73.4408 77.4354 70.2866 82.0935 65.5417 85.0519C63.3627 86.2465 61.1874 86.9939 58.8011 87.6019C58.6313 87.6517 58.4615 87.7015 58.2865 87.7527C53.6516 88.8181 48.6219 87.6877 44.5625 85.3273C45.1096 83.4726 45.8039 81.7416 46.6161 79.9963C46.7231 79.7621 46.83 79.5279 46.9402 79.2866C47.1466 78.8386 47.3565 78.3923 47.5706 77.9482C47.7974 77.473 48.0063 76.9887 48.2099 76.5023C48.6698 75.9447 48.6698 75.9447 49.5832 75.7737C49.9518 75.7659 50.3205 75.764 50.6892 75.767C56.7924 75.5808 62.005 73.0357 66.2905 68.5757C66.9084 67.7653 67.3584 66.8997 67.8371 65.9935Z" fill="white"/>
<path d="M67.313 46.7974C67.486 46.9396 67.6589 47.0818 67.8371 47.2284C67.8371 47.416 67.8371 47.6037 67.8371 47.797C68.0764 47.907 68.0764 47.907 68.3206 48.0191C68.9818 48.3936 69.43 48.8066 69.9592 49.3608C70.1272 49.5338 70.2952 49.7067 70.4683 49.885C70.8491 50.3559 70.8491 50.3559 70.8491 50.9245C71.0298 50.9245 71.2106 50.9245 71.3968 50.9245C73.9211 55.3213 75.7779 59.3462 75.7779 64.5719C73.5189 64.5719 71.2599 64.5719 68.9324 64.5719C69.8736 61.9597 69.8736 61.9597 70.1693 61.1443C70.285 60.8206 70.285 60.8206 70.4031 60.4904C70.5214 60.1621 70.5214 60.1621 70.6421 59.8271C71.0708 58.4661 71.1806 57.169 71.2085 55.7402C71.2187 55.3968 71.229 55.0534 71.2395 54.6996C71.1957 53.7497 71.1957 53.7497 70.6213 53.0758C70.0388 52.5472 70.0388 52.5472 69.2062 52.6305C68.3848 52.3461 68.3848 52.3461 68.0083 51.9019C67.57 51.4157 67.57 51.4157 66.8274 51.4399C66.6185 51.4575 66.4095 51.475 66.1942 51.4932C66.1038 51.6808 66.0135 51.8685 65.9204 52.0618C65.7397 52.0618 65.5589 52.0618 65.3727 52.0618C65.2372 52.3433 65.2372 52.3433 65.0989 52.6305C65.0086 52.4428 64.9182 52.2552 64.8251 52.0618C64.5117 52.2026 64.5117 52.2026 64.1919 52.3461C63.456 52.6305 63.456 52.6305 62.6346 52.6305C62.6346 52.4428 62.6346 52.2552 62.6346 52.0618C62.4312 52.2319 62.2279 52.4019 62.0185 52.5771C61.2655 53.1991 61.2655 53.1991 60.6323 53.6434C60.4798 53.7782 60.3273 53.9131 60.1702 54.0521C60.1702 54.3335 60.1702 54.615 60.1702 54.905C59.8991 55.0458 59.8991 55.0458 59.6225 55.1893C59.528 55.8523 59.4369 56.5157 59.3487 57.1796C59.168 57.4611 58.9873 57.7425 58.8011 58.0326C58.9818 58.0326 59.1625 58.0326 59.3487 58.0326C59.3487 58.2202 59.3487 58.4079 59.3487 58.6012C59.6198 58.7419 59.6198 58.7419 59.8964 58.8855C59.8342 59.1435 59.7721 59.4016 59.7081 59.6674C59.6052 60.7784 59.8179 60.8891 60.444 61.7287C60.3584 62.5106 60.3584 62.5106 60.1702 63.1503C55.9877 62.7346 52.6337 59.9241 49.9747 56.7287C48.3871 54.6009 47.3047 52.2093 46.2054 49.7872C46.038 49.4262 45.8704 49.0653 45.7027 48.7044C44.5625 46.2115 44.5625 46.2115 44.5625 45.2381C52.0278 41.0721 60.3488 42.1711 67.313 46.7974Z" fill="white"/>
<path d="M62.6341 47.5127C62.8148 47.7003 62.9956 47.888 63.1817 48.0813C63.3907 47.9758 63.5997 47.8702 63.815 47.7615C64.0578 47.6794 64.3006 47.5973 64.5508 47.5127C64.8219 47.7003 65.093 47.888 65.3723 48.0813C65.9618 47.9937 65.9618 47.9937 66.4676 47.797C66.6031 48.2192 66.6031 48.2192 66.7414 48.65C66.9052 48.5855 67.0689 48.521 67.2377 48.4545C67.4354 48.4252 67.633 48.3959 67.8367 48.3657C68.2132 48.7211 68.2132 48.7211 68.6581 49.2186C69.199 49.5166 69.7465 49.8021 70.301 50.0716C70.4818 50.1654 70.6625 50.2592 70.8487 50.3559C70.8487 50.5436 70.8487 50.7312 70.8487 50.9245C71.0294 50.9245 71.2101 50.9245 71.3963 50.9245C73.9206 55.3213 75.7774 59.3462 75.7774 64.572C73.5184 64.572 71.2594 64.572 68.9319 64.572C69.8732 61.9598 69.8732 61.9598 70.1689 61.1443C70.246 60.9285 70.3232 60.7127 70.4027 60.4904C70.521 60.1621 70.521 60.1621 70.6416 59.8271C71.0703 58.4661 71.1801 57.169 71.2081 55.7402C71.2183 55.3968 71.2285 55.0534 71.2391 54.6996C71.1953 53.7497 71.1953 53.7497 70.6209 53.0758C70.0383 52.5472 70.0383 52.5472 69.2058 52.6305C68.3843 52.3462 68.3843 52.3462 68.0078 51.9019C67.5695 51.4158 67.5695 51.4158 66.827 51.4399C66.618 51.4575 66.409 51.4751 66.1938 51.4932C66.1034 51.6808 66.013 51.8685 65.9199 52.0618C65.7392 52.0618 65.5585 52.0618 65.3723 52.0618C65.2819 52.2495 65.1916 52.4371 65.0985 52.6305C64.9629 52.349 64.9629 52.349 64.8247 52.0618C64.6157 52.1557 64.4067 52.2495 64.1915 52.3462C63.4556 52.6305 63.4556 52.6305 62.6341 52.6305C62.6341 52.4428 62.6341 52.2552 62.6341 52.0618C62.4308 52.2319 62.2275 52.4019 62.018 52.5772C61.265 53.1991 61.265 53.1991 60.6318 53.6434C60.4793 53.7782 60.3268 53.9131 60.1697 54.0521C60.1697 54.3336 60.1697 54.615 60.1697 54.905C59.989 54.9989 59.8083 55.0927 59.6221 55.1894C59.5275 55.8523 59.4365 56.5157 59.3483 57.1796C59.1676 57.4611 58.9868 57.7426 58.8006 58.0326C58.9814 58.0326 59.1621 58.0326 59.3483 58.0326C59.3483 58.2202 59.3483 58.4079 59.3483 58.6012C59.529 58.695 59.7097 58.7889 59.8959 58.8855C59.8338 59.1436 59.7717 59.4016 59.7077 59.6674C59.6048 60.7784 59.8175 60.8891 60.4436 61.7287C60.358 62.5106 60.358 62.5106 60.1697 63.1503C58.5362 63.006 57.2568 62.472 55.7886 61.7287C55.8356 61.5565 55.8825 61.3842 55.9309 61.2067C56.0953 60.438 55.9983 59.9221 55.7886 59.1699C55.6079 58.9822 55.4272 58.7945 55.241 58.6012C55.05 58.2266 54.866 57.848 54.6934 57.4639C54.8741 57.2763 55.0548 57.0886 55.241 56.8953C55.1393 56.5845 55.0377 56.2737 54.933 55.9535C54.8539 55.6075 54.7748 55.2615 54.6934 54.905C54.9644 54.4828 54.9644 54.4828 55.241 54.0521C55.241 53.6768 55.241 53.3015 55.241 52.9148C55.4217 52.7271 55.6024 52.5395 55.7886 52.3462C55.7886 52.0647 55.7886 51.7832 55.7886 51.4932C56.7014 50.6402 56.7014 50.6402 57.4315 50.6402C57.6123 50.8279 57.793 51.0155 57.9792 51.2089C57.8888 50.8336 57.7985 50.4583 57.7054 50.0716C58.0502 49.7305 58.3989 49.3937 58.7493 49.0587C59.04 48.7767 59.04 48.7767 59.3365 48.4889C59.5211 48.3544 59.7057 48.2199 59.8959 48.0813C60.167 48.1752 60.4381 48.269 60.7174 48.3657C61.622 48.2511 61.9794 48.1926 62.6341 47.5127Z" fill="white"/>
<path d="M66.9967 51.1025C67.9379 51.2222 68.2109 51.455 68.9305 52.0621C69.2072 52.1501 69.484 52.238 69.7691 52.3287C70.7004 52.6784 70.905 52.8923 71.3949 53.768C71.9594 57.3387 70.8128 61.1533 69.2043 64.2879C70.1983 64.3817 71.1923 64.4756 72.2163 64.5722C72.2163 64.6661 72.2163 64.7599 72.2163 64.8566C69.4136 64.9384 66.7685 64.7053 64.0018 64.2879C63.4824 64.2165 63.4824 64.2165 62.9525 64.1435C60.5116 63.7915 60.5116 63.7915 59.8945 63.1506C60.0752 62.7753 60.2559 62.4 60.4421 62.0134C60.2614 61.9195 60.0807 61.8257 59.8945 61.729C59.8945 61.5414 59.8945 61.3537 59.8945 61.1604C59.7138 60.8789 59.533 60.5974 59.3468 60.3074C59.4033 60.0787 59.4598 59.85 59.518 59.6144C59.5519 59.374 59.5858 59.1335 59.6207 58.8858C59.1186 58.2221 59.1186 58.2221 58.5254 57.7485C58.6045 57.5961 58.6835 57.4436 58.765 57.2865C59.0968 56.5978 59.0968 56.5978 59.3297 55.7761C59.9045 54.0557 60.7023 53.1313 62.085 52.0621C62.2658 52.0621 62.4465 52.0621 62.6327 52.0621C62.8134 51.8745 62.9941 51.6868 63.1803 51.4935C63.9551 51.5966 64.629 51.8054 65.3709 52.0621C65.4725 51.9214 65.5742 51.7806 65.6789 51.6356C66.1923 51.2092 66.1923 51.2092 66.9967 51.1025Z" fill="white"/>
<path d="M62.9084 44.3853C62.7277 44.6668 62.5469 44.9483 62.3607 45.2383C61.2997 44.9895 61.2997 44.9895 60.9916 44.6696C60.7206 44.7635 60.4495 44.8573 60.1702 44.954C59.8991 44.954 59.628 44.954 59.3487 44.954C58.7555 45.1909 58.7555 45.1909 58.5273 45.8069C58.3465 45.4316 58.1658 45.0563 57.9796 44.6696C57.6182 44.7635 57.2567 44.8573 56.8844 44.954C56.8787 45.1533 56.8731 45.3527 56.8672 45.5581C56.4874 46.7677 55.6477 47.3289 54.6938 48.0815C54.5131 47.8938 54.3324 47.7062 54.1462 47.5128C54.598 47.0437 55.0498 46.5746 55.5153 46.0912C55.4249 46.1851 55.3345 46.2789 55.2414 46.3756C54.42 46.3756 54.42 46.3756 53.8723 46.0912C54.0079 46.5135 54.0079 46.5135 54.1462 46.9442C53.9654 47.2257 53.7847 47.5072 53.5985 47.7972C53.5082 47.7033 53.4178 47.6095 53.3247 47.5128C53.2456 47.6888 53.1666 47.8647 53.0851 48.0459C52.7771 48.6501 52.7771 48.6501 52.2294 49.2188C51.6314 49.9143 51.4181 50.2918 51.2711 51.2268C51.1256 52.1144 50.9801 52.3726 50.3127 52.9149C50.4934 53.0088 50.6741 53.1026 50.8603 53.1993C50.6796 53.1993 50.4989 53.1993 50.3127 53.1993C50.2223 53.856 50.132 54.5128 50.0389 55.1895C50.2196 55.2833 50.4003 55.3772 50.5865 55.4738C50.1799 55.6146 50.1799 55.6146 49.7651 55.7582C48.6191 54.6858 47.9723 53.6458 47.3178 52.2041C47.2253 52.0058 47.1328 51.8074 47.0376 51.6031C46.7573 50.9992 46.4812 50.3935 46.2054 49.7874C46.0369 49.4242 45.8683 49.061 45.6995 48.6979C44.5625 46.2111 44.5625 46.2111 44.5625 45.2383C50.1338 42.1292 57.118 41.6193 62.9084 44.3853Z" fill="white"/>
<path d="M67.8388 66.2783C66.0594 70.3234 61.6136 73.1758 57.8102 74.7724C54.8238 75.874 52.0809 76.0243 48.9453 75.9452C50.8998 71.7019 54.9509 69.2208 59.0766 67.6999C62.0617 66.6883 64.7159 66.2268 67.8388 66.2783Z" fill="white"/>
<path d="M66.9967 51.1025C67.9379 51.2222 68.2109 51.455 68.9305 52.0621C69.2072 52.1501 69.484 52.238 69.7691 52.3287C70.6742 52.6686 70.9585 52.8871 71.3949 53.768C71.4462 54.5499 71.4462 54.5499 71.3949 55.1897C69.6285 54.9739 69.6285 54.9739 68.7765 54.5855C67.9172 54.2652 67.3518 54.4449 66.4661 54.621C66.2685 54.5624 66.0708 54.5037 65.8672 54.4433C65.7034 54.4081 65.5396 54.3729 65.3709 54.3367C64.9316 54.6737 64.9316 54.6737 64.5494 55.1897C64.3574 55.3656 64.1654 55.5415 63.9675 55.7228C63.3852 56.408 63.2762 56.8526 63.1803 57.7485C62.9996 57.7485 62.8189 57.7485 62.6327 57.7485C62.5423 58.2177 62.452 58.6868 62.3589 59.1701C62.5396 59.1701 62.7203 59.1701 62.9065 59.1701C63.0605 59.721 63.0605 59.721 63.1803 60.3074C63.09 60.4013 62.9996 60.4951 62.9065 60.5918C63.0872 60.7794 63.2679 60.9671 63.4541 61.1604C63.3514 61.9067 63.3514 61.9067 63.1803 62.582C63.361 62.582 63.5418 62.582 63.728 62.582C63.728 62.7696 63.728 62.9573 63.728 63.1506C63.9087 63.1506 64.0894 63.1506 64.2756 63.1506C64.3659 63.4321 64.4563 63.7136 64.5494 64.0036C62.8876 64.0755 61.493 63.9178 59.8945 63.435C60.0752 62.9658 60.2559 62.4967 60.4421 62.0134C60.2614 61.9195 60.0807 61.8257 59.8945 61.729C59.8945 61.5414 59.8945 61.3537 59.8945 61.1604C59.7138 60.8789 59.533 60.5974 59.3468 60.3074C59.4033 60.0787 59.4598 59.85 59.518 59.6144C59.5519 59.374 59.5858 59.1335 59.6207 58.8858C59.1186 58.2221 59.1186 58.2221 58.5254 57.7485C58.6045 57.5961 58.6835 57.4436 58.765 57.2865C59.0968 56.5978 59.0968 56.5978 59.3297 55.7761C59.9045 54.0557 60.7023 53.1313 62.085 52.0621C62.2658 52.0621 62.4465 52.0621 62.6327 52.0621C62.8134 51.8745 62.9941 51.6868 63.1803 51.4935C63.9551 51.5966 64.629 51.8054 65.3709 52.0621C65.4725 51.9214 65.5742 51.7806 65.6789 51.6356C66.1923 51.2092 66.1923 51.2092 66.9967 51.1025Z" fill="white"/>
<path d="M71.396 51.7778C71.5767 51.7778 71.7575 51.7778 71.9436 51.7778C73.4435 54.5565 74.7827 57.1898 75.5033 60.3075C75.5838 60.6219 75.5838 60.6219 75.6659 60.9427C75.8353 62.1403 75.7771 63.3618 75.7771 64.5723C73.5181 64.5723 71.2591 64.5723 68.9316 64.5723C69.2366 63.7513 69.5416 62.9303 69.8558 62.0845C71.1108 58.59 71.4918 55.5138 71.396 51.7778Z" fill="white"/>
<path d="M67.5641 53.7676C69.1268 53.9 70.0721 54.3185 71.3975 55.1892C71.3975 56.0336 71.3975 56.878 71.3975 57.7481C71.2225 57.5135 71.0474 57.2789 70.867 57.0373C69.87 56.1921 69.3963 56.146 68.1524 56.2254C66.9725 56.4281 66.3897 56.9005 65.6987 57.8902C65.3148 58.5983 65.3148 58.5983 65.3735 59.454C65.1928 59.454 65.0121 59.454 64.8259 59.454C65.0511 61.2323 65.4681 62.3334 66.6763 63.63C67.0164 64.0031 67.0164 64.0031 67.0164 64.2875C66.0225 64.2875 65.0285 64.2875 64.0044 64.2875C64.0948 63.9121 64.1852 63.5368 64.2783 63.1502C63.8265 62.9625 63.3747 62.7749 62.9092 62.5815C62.9995 62.3 63.0899 62.0186 63.183 61.7286C63.0023 61.5409 62.8215 61.3533 62.6353 61.1599C62.738 60.5557 62.738 60.5557 62.9092 60.0226C62.7284 60.0226 62.5477 60.0226 62.3615 60.0226C62.0258 58.8292 62.1368 58.2389 62.6867 57.1439C62.8035 56.9027 62.9203 56.6616 63.0407 56.4131C63.4803 55.7208 63.8927 55.3617 64.5521 54.9049C64.8232 54.6674 64.8232 54.6674 65.0997 54.4251C65.6474 54.0519 65.6474 54.0519 66.7426 54.0519C66.9233 54.1457 67.1041 54.2396 67.2903 54.3362C67.3806 54.1486 67.471 53.9609 67.5641 53.7676Z" fill="white"/>
<path d="M64.5508 69.4055C64.4653 70.2855 64.3877 70.7154 63.7668 71.3413C60.7736 73.4083 57.056 75.8461 53.3242 75.6605C54.3168 73.7414 54.3168 73.7414 55.241 73.1016C55.4273 72.8993 55.4273 72.8993 55.6175 72.6929C57.8024 70.5115 61.5775 69.2371 64.5508 69.4055Z" fill="white"/>
<path d="M64.5838 67.9664C64.8838 67.9689 65.1838 67.9715 65.493 67.9741C65.8392 67.9791 65.8392 67.9791 66.1925 67.9841C65.9821 69.1794 65.4947 69.5541 64.5496 70.2587C64.5496 69.9772 64.5496 69.6957 64.5496 69.4057C61.8671 69.7085 58.5253 70.4472 56.6088 72.5333C56.2459 72.7274 55.881 72.9173 55.5135 73.1019C55.3328 73.2896 55.1521 73.4772 54.9659 73.6705C54.7908 73.8465 54.6158 74.0224 54.4354 74.2036C53.8573 74.7777 53.8573 74.7777 53.4941 75.4475C53.0492 75.9451 53.0492 75.9451 52.1764 76.0162C51.9222 75.9927 51.6681 75.9693 51.4062 75.9451C51.4062 74.8078 51.4062 74.8078 52.0395 74.0437C52.7753 73.3862 52.7753 73.3862 53.5968 73.1019C53.6872 72.8204 53.7775 72.5389 53.8706 72.2489C56.3316 70.191 59.3415 69.104 62.359 68.2684C63.116 67.8754 63.7407 67.957 64.5838 67.9664Z" fill="white"/>
<path d="M62.6341 47.5127C62.8148 47.7003 62.9956 47.888 63.1817 48.0813C63.3907 47.9758 63.5997 47.8702 63.815 47.7615C64.0578 47.6794 64.3006 47.5973 64.5508 47.5127C64.8219 47.7003 65.093 47.888 65.3723 48.0813C65.9618 47.9937 65.9618 47.9937 66.4676 47.797C66.6031 48.5007 66.6031 48.5007 66.7414 49.2186C65.9199 49.2186 65.9199 49.2186 65.2525 48.8988C64.5659 48.5659 64.5659 48.5659 63.969 48.8988C63.7996 49.0043 63.6301 49.1099 63.4556 49.2186C62.8167 49.2186 62.1777 49.2186 61.5388 49.2186C61.0898 49.6304 61.0898 49.6304 60.7174 50.1782C60.1293 50.9847 59.6658 51.332 58.8006 51.7775C58.5296 52.1997 58.5296 52.1997 58.253 52.6305C58.0723 52.6305 57.8916 52.6305 57.7054 52.6305C57.615 52.9119 57.5246 53.1934 57.4315 53.4834C57.1605 53.4834 56.8894 53.4834 56.6101 53.4834C56.3325 54.5129 56.1996 55.5528 56.0625 56.611C55.701 56.611 55.3396 56.611 54.9672 56.611C54.796 55.8113 54.796 55.8113 54.6934 54.905C54.9644 54.4828 54.9644 54.4828 55.241 54.0521C55.241 53.6768 55.241 53.3015 55.241 52.9148C55.4217 52.7271 55.6024 52.5395 55.7886 52.3462C55.7886 52.0647 55.7886 51.7832 55.7886 51.4932C56.7014 50.6402 56.7014 50.6402 57.4315 50.6402C57.6123 50.8279 57.793 51.0155 57.9792 51.2089C57.8888 50.8336 57.7985 50.4583 57.7054 50.0716C58.0502 49.7305 58.3989 49.3937 58.7493 49.0587C59.04 48.7767 59.04 48.7767 59.3365 48.4889C59.5211 48.3544 59.7057 48.2199 59.8959 48.0813C60.167 48.1752 60.4381 48.269 60.7174 48.3657C61.622 48.2511 61.9794 48.1926 62.6341 47.5127Z" fill="white"/>
<path d="M69.2089 57.1797C69.8414 57.2735 70.4739 57.3673 71.1256 57.464C71.0056 59.9142 70.2642 62.0962 69.2089 64.2877C68.1578 63.8431 67.4812 63.1864 66.7445 62.2975C66.4878 61.5689 66.4878 61.5689 66.4707 60.8759C66.6445 60.4924 66.8263 60.1126 67.0183 59.7386C66.928 59.4571 66.8376 59.1756 66.7445 58.8856C67.0156 58.7918 67.2867 58.698 67.566 58.6013C67.6563 58.3198 67.7467 58.0383 67.8398 57.7483C68.2012 57.7483 68.5627 57.7483 68.9351 57.7483C69.0254 57.5607 69.1158 57.373 69.2089 57.1797Z" fill="white"/>
<path d="M52.5039 42.6792C56.1222 42.5334 59.575 42.7924 62.909 44.3851C62.7283 44.6666 62.5476 44.9481 62.3614 45.2381C61.3003 44.9893 61.3003 44.9893 60.9923 44.6694C60.7212 44.7633 60.4501 44.8571 60.1708 44.9538C59.8998 44.9538 59.6287 44.9538 59.3494 44.9538C58.7561 45.1907 58.7561 45.1907 58.5279 45.8067C58.3472 45.4314 58.1665 45.0561 57.9803 44.6694C57.6188 44.7633 57.2574 44.8571 56.885 44.9538C56.8794 45.1531 56.8737 45.3525 56.8679 45.5579C56.488 46.7675 55.6484 47.3287 54.6945 48.0813C54.5137 47.8936 54.333 47.706 54.1468 47.5126C54.3727 47.2898 54.5986 47.067 54.8314 46.8374C55.5789 46.1942 55.5789 46.1942 55.5159 45.5224C55.3352 45.5224 55.1545 45.5224 54.9683 45.5224C54.6376 44.4922 54.8196 44.2027 55.2421 43.2478C54.3385 43.154 53.4349 43.0602 52.5039 42.9635C52.5039 42.8697 52.5039 42.7759 52.5039 42.6792Z" fill="white"/>
<path d="M63.7306 70.8274C61.8812 73.0037 59.2975 74.3638 56.6113 75.0922C55.838 75.121 55.838 75.121 55.2422 75.0922C55.9407 73.3043 57.6864 72.3792 59.3013 71.5837C60.834 70.96 62.0893 70.6987 63.7306 70.8274Z" fill="white"/>
<path d="M52.2288 45.5225C52.7623 46.1457 53.0325 46.5369 53.1529 47.3705C53.0293 48.2261 52.7718 48.5713 52.2288 49.2186C51.4486 50.1534 51.3113 50.8485 51.1335 52.0618C50.9528 52.2495 50.7721 52.4371 50.5859 52.6305C50.4052 52.1614 50.2245 51.6922 50.0383 51.2089C49.8575 51.3965 49.6768 51.5842 49.4906 51.7775C49.4003 51.3084 49.3099 50.8393 49.2168 50.3559C49.3975 50.2621 49.5782 50.1683 49.7644 50.0716C49.9452 50.1654 50.1259 50.2592 50.3121 50.3559C50.2217 50.0744 50.1314 49.793 50.0383 49.503C50.219 49.2215 50.3997 48.94 50.5859 48.65C50.4052 48.2747 50.2245 47.8994 50.0383 47.5127C50.716 47.7942 50.716 47.7942 51.4073 48.0813C51.317 47.7999 51.2266 47.5184 51.1335 47.2284C51.2239 46.9469 51.3143 46.6654 51.4073 46.3754C51.5881 46.3754 51.7688 46.3754 51.955 46.3754C52.0453 46.0939 52.1357 45.8125 52.2288 45.5225Z" fill="white"/>
<path d="M62.6342 52.062C62.8396 52.5596 62.8396 52.5596 62.9081 53.1993C62.4058 53.856 62.0034 54.2586 61.248 54.5676C60.3892 55.1141 60.2292 55.9401 59.8961 56.8955C59.8509 57.1183 59.8057 57.3411 59.7591 57.5707C59.714 57.7232 59.6688 57.8757 59.6222 58.0328C59.3512 58.1266 59.0801 58.2204 58.8008 58.3171C58.8008 57.3411 59.0361 56.6769 59.3484 55.7582C59.4049 55.4826 59.4614 55.207 59.5196 54.923C60.0261 53.7515 61.2863 52.062 62.6342 52.062Z" fill="white"/>
<path d="M57.707 42.9639C59.5601 43.2324 61.2284 43.5126 62.9096 44.3855C62.6385 44.8077 62.6385 44.8077 62.362 45.2384C61.3009 44.9897 61.3009 44.9897 60.9929 44.6698C60.7218 44.7636 60.4507 44.8574 60.1714 44.9541C59.9003 44.9541 59.6292 44.9541 59.3499 44.9541C58.7567 45.191 58.7567 45.191 58.5285 45.8071C58.3911 45.3867 58.2543 44.9661 58.1178 44.5454C58.0415 44.3112 57.9653 44.077 57.8867 43.8357C57.707 43.2482 57.707 43.2482 57.707 42.9639Z" fill="white"/>
<path d="M48.6708 52.062C49.1226 52.062 49.5744 52.062 50.0399 52.062C50.0399 52.3435 50.0399 52.625 50.0399 52.915C50.3109 53.0088 50.582 53.1026 50.8613 53.1993C50.6806 53.1993 50.4999 53.1993 50.3137 53.1993C50.2233 53.8561 50.133 54.5129 50.0399 55.1895C50.2206 55.2834 50.4013 55.3772 50.5875 55.4739C50.3164 55.5677 50.0453 55.6615 49.766 55.7582C48.4794 54.525 48.4794 54.525 48.1402 53.7502C48.1185 53.05 48.3247 52.6539 48.6708 52.062Z" fill="white"/>
<path d="M61.8155 72.2487C60.9814 73.2277 60.208 73.6864 59.043 74.1679C58.6099 74.3504 58.6099 74.3504 58.1681 74.5366C57.4344 74.8076 57.4344 74.8076 56.8867 74.8076C57.2868 73.7006 57.7859 73.393 58.8035 72.9062C59.0463 72.7878 59.2891 72.6694 59.5393 72.5475C59.7483 72.4489 59.9573 72.3503 60.1725 72.2487C60.8546 71.8946 61.1065 72.0279 61.8155 72.2487Z" fill="white"/>
<path d="M59.8976 48.0815C60.259 48.2692 60.6205 48.4568 60.9929 48.6502C60.8121 49.0255 60.6314 49.4008 60.4452 49.7875C60.3549 49.6936 60.2645 49.5998 60.1714 49.5031C60.0472 49.6439 59.9229 49.7846 59.7949 49.9296C59.3499 50.3561 59.3499 50.3561 58.8023 50.3561C58.7119 50.5438 58.6216 50.7314 58.5285 50.9248C58.3478 50.9248 58.167 50.9248 57.9809 50.9248C57.8905 50.6433 57.8001 50.3618 57.707 50.0718C58.4299 49.415 59.1528 48.7582 59.8976 48.0815Z" fill="white"/>
<path d="M53.8746 44.3853C54.4051 44.5807 54.4051 44.5807 54.9698 44.9539C55.1752 45.7002 55.1752 45.7002 55.2437 46.3755C54.4222 46.3755 54.4222 46.3755 53.6008 46.0912C53.5104 46.2788 53.42 46.4665 53.3269 46.6598C53.1462 46.2845 52.9655 45.9092 52.7793 45.5225C53.0504 45.4287 53.3215 45.3349 53.6008 45.2382C53.6911 44.9567 53.7815 44.6753 53.8746 44.3853Z" fill="white"/>
<path d="M55.2426 57.748C55.6704 58.2634 55.6704 58.2634 56.064 58.8853C55.9737 59.1668 55.8833 59.4483 55.7902 59.7383C55.9709 59.8321 56.1516 59.9259 56.3378 60.0226C56.2475 60.4917 56.1571 60.9609 56.064 61.4442C55.7026 61.3504 55.3411 61.2566 54.9688 61.1599C55.0139 60.9898 55.0591 60.8198 55.1057 60.6446C55.2731 59.9904 55.2731 59.9904 55.2426 59.1697C55.2426 58.6958 55.2426 58.2219 55.2426 57.748Z" fill="white"/>
<path d="M62.0878 52.062C62.2686 52.062 62.4493 52.062 62.6355 52.062C62.8408 52.5596 62.8408 52.5596 62.9093 53.1993C62.3788 53.839 62.3788 53.839 61.814 54.3366C61.4526 54.1489 61.0911 53.9613 60.7188 53.7679C60.8995 53.7679 61.0802 53.7679 61.2664 53.7679C61.3511 53.5392 61.4358 53.3105 61.5231 53.0749C61.814 52.3463 61.814 52.3463 62.0878 52.062Z" fill="white"/>
<path d="M52.2299 45.5225C52.4107 45.8039 52.5914 46.0854 52.7776 46.3754C52.538 47.4239 52.538 47.4239 52.2299 48.3657C51.9589 48.2718 51.6878 48.178 51.4085 48.0813C51.1347 47.2284 51.1347 47.2284 51.4085 46.3754C51.5892 46.3754 51.7699 46.3754 51.9561 46.3754C52.0465 46.0939 52.1368 45.8125 52.2299 45.5225Z" fill="white"/>
<path d="M48.6722 52.062C48.9432 52.1558 49.2143 52.2497 49.4936 52.3463C49.408 53.0216 49.408 53.0216 49.2198 53.7679C48.9487 53.9556 48.6776 54.1432 48.3983 54.3366C48.1435 53.5957 48.0837 53.3011 48.3812 52.5596C48.4772 52.3954 48.5732 52.2312 48.6722 52.062Z" fill="white"/>
<path d="M59.8976 49.2188C60.0783 49.2188 60.259 49.2188 60.4452 49.2188C60.3549 49.4064 60.2645 49.5941 60.1714 49.7874C60.081 49.5997 59.9907 49.4121 59.8976 49.2188ZM58.8023 49.7874C58.983 50.0689 59.1637 50.3503 59.3499 50.6404C58.5367 51.344 58.5367 51.344 57.707 52.062C58.0721 51.3038 58.4372 50.5456 58.8023 49.7874ZM59.3499 49.7874C59.621 49.7874 59.8921 49.7874 60.1714 49.7874C60.1714 49.975 60.1714 50.1627 60.1714 50.356C59.9003 50.356 59.6292 50.356 59.3499 50.356C59.3499 50.1684 59.3499 49.9807 59.3499 49.7874Z" fill="white"/>
<path d="M64.2773 54.9053C64.4655 55.3851 64.4655 55.3851 64.5511 56.0426C64.1575 56.8244 64.1575 56.8244 63.7297 57.4642C63.6393 57.2765 63.5489 57.0889 63.4558 56.8955C63.2751 56.8017 63.0944 56.7079 62.9082 56.6112C63.36 56.0482 63.8118 55.4853 64.2773 54.9053Z" fill="white"/>
<path d="M60.9918 52.915C61.18 53.3771 61.18 53.3771 61.2656 54.0523C60.872 54.9764 60.872 54.9764 60.4441 55.7582C60.1361 55.2607 60.1361 55.2607 59.8965 54.621C60.1545 53.8619 60.4403 53.4876 60.9918 52.915Z" fill="white"/>
<path d="M64.0043 51.209C64.5464 51.209 65.0886 51.209 65.6472 51.209C65.7376 51.4905 65.8279 51.7719 65.921 52.0619C65.7403 52.0619 65.5596 52.0619 65.3734 52.0619C65.283 52.2496 65.1927 52.4373 65.0996 52.6306C65.0092 52.4429 64.9188 52.2553 64.8257 52.0619C64.2836 52.3434 64.2836 52.3434 63.7305 52.6306C63.8208 52.1615 63.9112 51.6923 64.0043 51.209Z" fill="white"/>
<path d="M57.707 42.9639C58.5203 43.1046 58.5203 43.1046 59.3499 43.2482C59.2596 43.7173 59.1692 44.1864 59.0761 44.6698C58.711 44.6698 58.3459 44.6698 57.9809 44.6698C57.8905 44.1068 57.8001 43.5439 57.707 42.9639Z" fill="white"/>
<path d="M62.6355 57.748C62.8162 57.748 62.997 57.748 63.1832 57.748C63.1832 58.2172 63.1832 58.6863 63.1832 59.1697C63.0024 59.1697 62.8217 59.1697 62.6355 59.1697C62.5452 59.4511 62.4548 59.7326 62.3617 60.0226C62.1906 59.3651 62.1906 59.3651 62.0879 58.601C62.2686 58.3195 62.4493 58.0381 62.6355 57.748Z" fill="white"/>
<path d="M98.3454 74.3843H88.9545V58.7255H97.9851V61.5974H92.4816V65.0807H97.6029V67.9417H92.4816V71.5233H98.3454V74.3843ZM111.165 63.2026L107.005 74.3843H103.074L99.1098 63.2026H102.801L104.744 70.0929C104.963 70.8718 105.09 71.5342 105.127 72.0802H105.17C105.221 71.5634 105.356 70.9227 105.574 70.1584L107.562 63.2026H111.165ZM117.75 74.6573C115.886 74.6573 114.419 74.1368 113.349 73.0958C112.286 72.0475 111.755 70.6279 111.755 68.8371C111.755 66.988 112.308 65.543 113.415 64.502C114.521 63.4537 116.017 62.9296 117.903 62.9296C119.759 62.9296 121.215 63.4537 122.27 64.502C123.326 65.543 123.854 66.9225 123.854 68.6405C123.854 70.4969 123.308 71.9638 122.216 73.0412C121.131 74.1186 119.642 74.6573 117.75 74.6573ZM117.837 65.5721C117.022 65.5721 116.388 65.8524 115.937 66.4129C115.486 66.9735 115.26 67.767 115.26 68.7934C115.26 70.9409 116.126 72.0147 117.859 72.0147C119.511 72.0147 120.338 70.9118 120.338 68.7061C120.338 66.6168 119.504 65.5721 117.837 65.5721ZM129.543 74.3843H126.092V57.8301H129.543V74.3843ZM143.072 74.3843H139.633V72.6808H139.578C138.726 73.9984 137.587 74.6573 136.16 74.6573C133.569 74.6573 132.273 73.0885 132.273 69.9509V63.2026H135.712V69.6451C135.712 71.2249 136.339 72.0147 137.591 72.0147C138.209 72.0147 138.704 71.8 139.076 71.3705C139.447 70.9337 139.633 70.344 139.633 69.6015V63.2026H143.072V74.3843ZM152.747 74.2532C152.238 74.5226 151.47 74.6573 150.443 74.6573C148.012 74.6573 146.796 73.3942 146.796 70.8681V65.7468H144.983V63.2026H146.796V60.7893L150.236 59.8065V63.2026H152.747V65.7468H150.236V70.2676C150.236 71.4323 150.698 72.0147 151.622 72.0147C151.986 72.0147 152.361 71.9092 152.747 71.698V74.2532ZM156.449 61.4336C155.867 61.4336 155.39 61.2625 155.018 60.9203C154.647 60.5709 154.462 60.1451 154.462 59.6427C154.462 59.1259 154.647 58.7037 155.018 58.3761C155.39 58.0485 155.867 57.8847 156.449 57.8847C157.039 57.8847 157.515 58.0485 157.879 58.3761C158.251 58.7037 158.436 59.1259 158.436 59.6427C158.436 60.1669 158.251 60.5964 157.879 60.9313C157.515 61.2661 157.039 61.4336 156.449 61.4336ZM158.152 74.3843H154.702V63.2026H158.152V74.3843ZM166.386 74.6573C164.522 74.6573 163.055 74.1368 161.985 73.0958C160.922 72.0475 160.391 70.6279 160.391 68.8371C160.391 66.988 160.944 65.543 162.051 64.502C163.157 63.4537 164.653 62.9296 166.539 62.9296C168.395 62.9296 169.851 63.4537 170.907 64.502C171.962 65.543 172.49 66.9225 172.49 68.6405C172.49 70.4969 171.944 71.9638 170.852 73.0412C169.767 74.1186 168.279 74.6573 166.386 74.6573ZM166.473 65.5721C165.658 65.5721 165.024 65.8524 164.573 66.4129C164.122 66.9735 163.896 67.767 163.896 68.7934C163.896 70.9409 164.762 72.0147 166.495 72.0147C168.147 72.0147 168.974 70.9118 168.974 68.7061C168.974 66.6168 168.14 65.5721 166.473 65.5721ZM185.528 74.3843H182.088V68.171C182.088 66.4384 181.469 65.5721 180.232 65.5721C179.635 65.5721 179.144 65.8014 178.758 66.2601C178.372 66.7187 178.179 67.3011 178.179 68.0072V74.3843H174.728V63.2026H178.179V64.9715H178.223C179.045 63.6102 180.243 62.9296 181.815 62.9296C184.29 62.9296 185.528 64.4656 185.528 67.5377V74.3843Z" fill="white"/>
</svg>
