<svg width="250" height="130" viewBox="0 0 250 130" fill="none" xmlns="http://www.w3.org/2000/svg">
<rect width="249.25" height="129.22" rx="10" fill="#19191A"/>
<g clip-path="url(#clip0_1_3626)">
<path d="M52.583 74.0223L57.4409 67.0367L52.5017 59.7556H55.7335L59.1685 64.5674L62.5426 59.7133H63.4369L68.4574 52.6432C65.815 50.8282 62.6645 49.7729 59.2498 49.7729C50.083 49.7941 42.6641 57.4341 42.6641 66.8677C42.6641 72.355 45.1845 77.2513 49.1073 80.3748L53.3147 74.0223H52.583V74.0223ZM51.5261 72.8827H48.213C48.1723 72.8827 48.152 72.8405 48.152 72.8194V62.4147C48.152 61.5916 47.8471 61.3173 46.2211 61.3173C46.1804 61.3173 46.1601 61.2751 46.1601 61.254V60.0722C46.1601 60.03 46.2007 60.0088 46.2211 60.0088H49.026C50.9163 60.0088 51.6074 60.9163 51.6074 62.6892V72.8194C51.6074 72.8616 51.5668 72.8827 51.5262 72.8827L51.5261 72.8827Z" fill="white" stroke="white" stroke-width="0.00617434" stroke-miterlimit="10"/>
<path d="M69.6757 53.5718L65.3259 59.7344H66.1593L61.3015 66.699L66.1796 73.9801H62.8666L59.4925 69.316L56.1997 74.0435H55.2648L50.4883 81.3668C53.0289 83.013 56.0372 83.9415 59.269 83.9415C68.4359 83.9415 75.8548 76.3016 75.8548 66.8678C75.8548 61.5072 73.4359 56.7164 69.6758 53.5718H69.6757ZM73.9644 72.8826L66.4643 72.946C66.4643 72.0385 66.4237 71.3842 66.4643 69.2104C66.4643 68.8727 66.8505 68.2396 67.257 67.8386C68.8017 66.2769 71.2409 64.8628 71.2409 63.8287V62.5623C71.2409 61.9503 71.0985 61.4015 70.3669 61.4227C69.066 61.4438 69.3709 62.3092 69.3709 63.301C69.3709 63.3221 69.3506 63.3432 69.3506 63.3643L66.627 65.4538C66.5864 65.4959 66.5051 65.4538 66.5051 65.3904C66.4847 64.3141 66.3424 63.0478 66.4645 62.3725C66.749 60.8529 68.0296 59.8821 70.306 59.9032C72.8874 59.9243 73.8427 60.9584 73.985 61.676C74.1679 62.6891 74.1679 63.6809 74.0256 64.3986C73.8426 65.2849 72.806 66.2769 71.1597 67.691C70.2044 68.514 69.5336 69.2527 69.5132 69.5693C69.4929 70.0124 69.5132 70.7722 69.5336 71.0044C69.5336 71.0465 69.5742 71.0677 69.6148 71.0677H73.9848C74.0254 71.0677 74.0662 71.1098 74.0662 71.1521V72.8194C74.0256 72.8615 74.0052 72.8827 73.9645 72.8827L73.9644 72.8826Z" fill="white" stroke="white" stroke-width="0.00617434" stroke-miterlimit="10"/>
</g>
<path d="M108.408 58.3761V74.3843H104.968V62.2635C104.779 62.4309 104.553 62.5911 104.291 62.7439C104.036 62.8895 103.763 63.0242 103.472 63.148C103.181 63.2644 102.879 63.3663 102.566 63.4537C102.253 63.5338 101.943 63.592 101.638 63.6284V60.7238C102.533 60.4617 103.378 60.1269 104.171 59.7192C104.965 59.3115 105.682 58.8638 106.322 58.3761H108.408ZM126.764 74.3843H122.582L119.884 69.2848C119.782 69.0955 119.677 68.7461 119.568 68.2365H119.524C119.473 68.4767 119.353 68.8407 119.164 69.3285L116.456 74.3843H112.252L117.242 66.5549L112.677 58.7255H116.969L119.207 63.4209C119.382 63.7922 119.539 64.2326 119.677 64.7422H119.721C119.808 64.4365 119.972 63.9815 120.212 63.3773L122.702 58.7255H126.633L121.937 66.4894L126.764 74.3843ZM131.525 71.5233H138.164V74.3843H127.747V73.205C127.747 72.4042 127.881 71.6871 128.151 71.0538C128.42 70.4132 128.758 69.8417 129.166 69.3394C129.574 68.8298 130.018 68.3821 130.498 67.9963C130.986 67.6032 131.448 67.2501 131.885 66.9371C132.344 66.6095 132.744 66.2965 133.086 65.998C133.436 65.6995 133.727 65.4047 133.96 65.1135C134.2 64.815 134.378 64.5166 134.495 64.2181C134.611 63.9123 134.67 63.5884 134.67 63.2462C134.67 62.5765 134.48 62.0706 134.102 61.7284C133.723 61.3863 133.144 61.2152 132.366 61.2152C131.019 61.2152 129.73 61.7502 128.5 62.8204V59.7847C129.861 58.9039 131.397 58.4634 133.108 58.4634C133.902 58.4634 134.611 58.569 135.237 58.7801C135.871 58.9839 136.406 59.2788 136.843 59.6646C137.279 60.0504 137.611 60.52 137.836 61.0732C138.069 61.6192 138.186 62.2307 138.186 62.9077C138.186 63.6284 138.073 64.269 137.847 64.8296C137.629 65.3901 137.334 65.8997 136.963 66.3583C136.599 66.817 136.177 67.2392 135.696 67.625C135.216 68.0036 134.717 68.3712 134.2 68.7279C133.851 68.9754 133.512 69.2229 133.185 69.4704C132.864 69.7107 132.58 69.9509 132.333 70.1911C132.085 70.4241 131.889 70.6534 131.743 70.8791C131.598 71.1047 131.525 71.3195 131.525 71.5233ZM152.119 73.1067C152.119 75.1814 151.519 76.7866 150.317 77.9222C149.116 79.0652 147.376 79.6366 145.098 79.6366C143.591 79.6366 142.397 79.4219 141.516 78.9924V76.0877C142.666 76.7575 143.828 77.0924 145 77.0924C146.164 77.0924 147.067 76.783 147.708 76.1642C148.348 75.5527 148.669 74.7191 148.669 73.6636V72.7791H148.625C147.839 74.0312 146.678 74.6573 145.142 74.6573C143.715 74.6573 142.583 74.155 141.746 73.1504C140.908 72.1457 140.49 70.799 140.49 69.1101C140.49 67.2173 140.956 65.7141 141.887 64.6003C142.819 63.4865 144.046 62.9296 145.567 62.9296C146.929 62.9296 147.948 63.4537 148.625 64.502H148.669V63.2026H152.119V73.1067ZM148.712 69.0118V68.1273C148.712 67.4212 148.501 66.8206 148.079 66.3256C147.664 65.8233 147.122 65.5721 146.452 65.5721C145.688 65.5721 145.087 65.8706 144.65 66.4675C144.213 67.0645 143.995 67.9053 143.995 68.99C143.995 69.9218 144.202 70.6607 144.617 71.2067C145.032 71.7454 145.6 72.0147 146.321 72.0147C147.034 72.0147 147.609 71.7417 148.046 71.1957C148.49 70.6425 148.712 69.9145 148.712 69.0118ZM164.306 74.3843H161.041V72.7791H160.997C160.247 74.0312 159.137 74.6573 157.666 74.6573C156.582 74.6573 155.726 74.3515 155.1 73.74C154.481 73.1212 154.172 72.2986 154.172 71.2722C154.172 69.1028 155.457 67.8507 158.027 67.5158L161.062 67.1118C161.062 65.8888 160.4 65.2773 159.075 65.2773C157.743 65.2773 156.476 65.674 155.275 66.4675V63.8687C155.755 63.6211 156.411 63.4027 157.241 63.2135C158.078 63.0242 158.838 62.9296 159.523 62.9296C162.711 62.9296 164.306 64.5202 164.306 67.7015V74.3843ZM161.062 69.8417V69.0882L159.031 69.3503C157.91 69.4959 157.35 70.0019 157.35 70.8681C157.35 71.2613 157.484 71.5852 157.754 71.84C158.03 72.0875 158.402 72.2113 158.868 72.2113C159.515 72.2113 160.043 71.9892 160.451 71.5452C160.859 71.0938 161.062 70.526 161.062 69.8417ZM184.791 74.3843H181.351V68.0072C181.351 66.3838 180.754 65.5721 179.56 65.5721C178.992 65.5721 178.53 65.816 178.173 66.3037C177.817 66.7915 177.638 67.3993 177.638 68.1273V74.3843H174.188V67.9417C174.188 66.362 173.602 65.5721 172.43 65.5721C171.84 65.5721 171.367 65.8051 171.01 66.271C170.661 66.7369 170.486 67.3702 170.486 68.171V74.3843H167.035V63.2026H170.486V64.9497H170.53C170.886 64.3528 171.385 63.8687 172.026 63.4974C172.674 63.1188 173.38 62.9296 174.144 62.9296C175.724 62.9296 176.805 63.6248 177.387 65.0152C178.239 63.6248 179.491 62.9296 181.144 62.9296C183.575 62.9296 184.791 64.4292 184.791 67.4285V74.3843ZM189.268 61.4336C188.685 61.4336 188.209 61.2625 187.837 60.9203C187.466 60.5709 187.28 60.1451 187.28 59.6427C187.28 59.1259 187.466 58.7037 187.837 58.3761C188.209 58.0485 188.685 57.8847 189.268 57.8847C189.858 57.8847 190.334 58.0485 190.698 58.3761C191.07 58.7037 191.255 59.1259 191.255 59.6427C191.255 60.1669 191.07 60.5964 190.698 60.9313C190.334 61.2661 189.858 61.4336 189.268 61.4336ZM190.971 74.3843H187.521V63.2026H190.971V74.3843ZM204.675 74.3843H201.236V68.171C201.236 66.4384 200.617 65.5721 199.379 65.5721C198.783 65.5721 198.291 65.8014 197.905 66.2601C197.519 66.7187 197.327 67.3011 197.327 68.0072V74.3843H193.876V63.2026H197.327V64.9715H197.37C198.193 63.6102 199.39 62.9296 200.963 62.9296C203.438 62.9296 204.675 64.4656 204.675 67.5377V74.3843ZM218.38 73.1067C218.38 75.1814 217.779 76.7866 216.578 77.9222C215.377 79.0652 213.637 79.6366 211.358 79.6366C209.851 79.6366 208.658 79.4219 207.777 78.9924V76.0877C208.927 76.7575 210.088 77.0924 211.26 77.0924C212.425 77.0924 213.327 76.783 213.968 76.1642C214.609 75.5527 214.929 74.7191 214.929 73.6636V72.7791H214.885C214.099 74.0312 212.938 74.6573 211.402 74.6573C209.975 74.6573 208.843 74.155 208.006 73.1504C207.169 72.1457 206.75 70.799 206.75 69.1101C206.75 67.2173 207.216 65.7141 208.148 64.6003C209.08 63.4865 210.306 62.9296 211.828 62.9296C213.189 62.9296 214.208 63.4537 214.885 64.502H214.929V63.2026H218.38V73.1067ZM214.973 69.0118V68.1273C214.973 67.4212 214.762 66.8206 214.339 66.3256C213.924 65.8233 213.382 65.5721 212.712 65.5721C211.948 65.5721 211.347 65.8706 210.911 66.4675C210.474 67.0645 210.255 67.9053 210.255 68.99C210.255 69.9218 210.463 70.6607 210.878 71.2067C211.293 71.7454 211.861 72.0147 212.581 72.0147C213.295 72.0147 213.87 71.7417 214.307 71.1957C214.751 70.6425 214.973 69.9145 214.973 69.0118Z" fill="white"/>
<defs>
<clipPath id="clip0_1_3626">
<rect width="33.2046" height="34.1824" fill="white" transform="translate(42.6582 49.7642)"/>
</clipPath>
</defs>
</svg>
