<svg width="250" height="130" viewBox="0 0 250 130" fill="none" xmlns="http://www.w3.org/2000/svg">
<rect width="249.25" height="129.22" rx="10" fill="#19191A"/>
<g clip-path="url(#clip0_1_3773)">
<path d="M70.436 63.6253C71.4055 62.1679 71.9123 60.4528 71.8903 58.7037L71.8692 45.9372C71.8903 45.6713 71.8903 45.404 71.8692 45.138C71.71 42.8632 70.6753 40.738 68.9817 39.207C67.3087 37.6317 65.0849 36.7713 62.785 36.8093H54.291V63.6253H70.436ZM64.7874 43.6868C65.3516 44.2046 65.6918 44.9212 65.7358 45.6849L65.7569 45.9372L65.778 58.7037C65.7797 59.1019 65.7023 59.4965 65.5504 59.8647C65.3984 60.2329 65.1749 60.5675 64.8928 60.849C64.6106 61.1306 64.2753 61.3536 63.9063 61.5052C63.5374 61.6568 63.1419 61.734 62.7429 61.7324H60.298V42.8876H62.7007C63.4741 42.8725 64.2228 43.1592 64.7874 43.6868Z" fill="white"/>
<path d="M72.4809 70.0823C72.3722 68.6067 71.8939 67.182 71.0898 65.939H54.3125V92.7339H63.3967C64.5947 92.754 65.784 92.5272 66.8902 92.0676C67.9963 91.6079 68.9955 90.9254 69.8252 90.0628C70.6807 89.2238 71.3586 88.2217 71.8184 87.1161C72.2782 86.0105 72.5107 84.824 72.5019 83.627L72.4809 70.8605C72.502 70.6015 72.502 70.3413 72.4809 70.0823ZM66.3896 83.627C66.393 84.0304 66.3145 84.4304 66.1587 84.8027C66.0029 85.175 65.7732 85.512 65.4833 85.7933C65.2127 86.0727 64.8885 86.2949 64.53 86.4466C64.1715 86.5984 63.7861 86.6766 63.3967 86.6766H60.3827V67.8319H63.4178C64.1709 67.8248 64.8969 68.1116 65.4412 68.6311C66.0034 69.1526 66.3493 69.8655 66.4107 70.6291L66.4318 70.8815L66.3896 83.627Z" fill="white"/>
<path d="M186.465 63.5624H192.535V42.8879H198.015L198.036 36.8096H180.416L180.395 42.8879H186.465V63.5624Z" fill="white"/>
<path d="M186.465 65.8755V92.7335H192.535V65.8755H186.465Z" fill="white"/>
<path d="M178.076 63.5624V61.7326H168.296V42.8879H178.076L178.097 36.8096L162.205 36.8306V63.5624H178.076Z" fill="white"/>
<path d="M162.205 65.8755V92.7335H168.317L168.338 67.8104H178.118L178.097 65.8755H162.205Z" fill="white"/>
<path d="M146.018 63.563L146.039 45.9381C146.035 45.5346 146.114 45.1347 146.27 44.7624C146.425 44.39 146.655 44.0531 146.945 43.7718C147.494 43.2211 148.236 42.9046 149.015 42.8889C149.793 42.8732 150.547 43.1596 151.118 43.6877C151.68 44.2092 152.026 44.9221 152.088 45.6857L152.109 45.9381V63.563H158.137V45.9171C158.158 45.6511 158.158 45.3838 158.137 45.1178C157.968 42.8455 156.935 40.7234 155.249 39.1868C153.585 37.6269 151.378 36.7746 149.095 36.8102C147.907 36.793 146.728 37.0215 145.632 37.4812C144.537 37.9409 143.548 38.6219 142.73 39.4812C141.878 40.3232 141.203 41.3258 140.743 42.4308C140.284 43.5357 140.049 44.7208 140.053 45.9171V63.542L146.018 63.563Z" fill="white"/>
<path d="M152.088 65.8755V83.6266C152.087 84.428 151.771 85.1971 151.207 85.7677C150.643 86.3383 149.877 86.6646 149.074 86.6762C148.305 86.6891 147.56 86.4056 146.994 85.8846C146.429 85.3636 146.087 84.6453 146.039 83.879C146.039 83.7948 146.018 83.7107 146.018 83.6266L146.039 65.8755H140.053V83.6266C140.032 83.8926 140.032 84.1598 140.053 84.4258C140.221 86.6982 141.254 88.8202 142.94 90.3569C144.653 91.9443 146.919 92.8036 149.256 92.7526C151.593 92.7015 153.818 91.7442 155.46 90.0835C156.312 89.2415 156.987 88.2388 157.447 87.1339C157.906 86.029 158.141 84.8439 158.137 83.6476V65.8965H152.088V65.8755Z" fill="white"/>
<path d="M121.19 63.5628H131.096C130 62.6584 128.904 61.733 127.808 60.8286C125.848 59.0409 124.752 56.7694 124.52 54.0142C124.478 53.5725 124.457 53.1098 124.457 52.605L124.499 45.9168C124.496 45.3312 124.665 44.7575 124.983 44.2656C125.302 43.7737 125.757 43.3849 126.293 43.1464C126.829 42.9079 127.423 42.8301 128.003 42.9224C128.582 43.0148 129.122 43.2732 129.557 43.6664C130.119 44.188 130.465 44.9009 130.527 45.6644L130.548 45.9168V50.1653H136.576V45.9379C136.597 45.6719 136.597 45.4046 136.576 45.1386C136.417 42.8638 135.382 40.7386 133.688 39.2076C131.975 37.6206 129.71 36.7617 127.373 36.8127C125.036 36.8637 122.811 37.8208 121.169 39.481C120.314 40.3221 119.636 41.3241 119.173 42.4289C118.71 43.5337 118.471 44.7193 118.471 45.9168L118.45 54.4348C118.429 55.1079 118.45 55.7809 118.492 56.4329C118.745 59.2933 119.63 61.6488 121.19 63.5628Z" fill="white"/>
<path d="M133.646 65.8755H123.719C124.857 66.8219 126.016 67.7894 127.176 68.7359C129.136 70.5236 130.147 72.7951 130.379 75.5503C130.421 75.9919 130.4 76.9804 130.4 76.9384L130.421 83.6266C130.426 84.0321 130.346 84.4341 130.186 84.807C130.026 85.1799 129.791 85.5157 129.494 85.7929C128.939 86.3411 128.194 86.6556 127.414 86.6713C126.633 86.6869 125.876 86.4026 125.3 85.877C124.736 85.3592 124.395 84.6426 124.351 83.879C124.351 83.7948 124.33 83.7107 124.33 83.6266L124.393 79.3781H118.365V83.6266C118.344 83.8926 118.344 84.1598 118.365 84.4258C118.517 86.6983 119.544 88.824 121.232 90.3569C122.536 91.5371 124.156 92.3144 125.894 92.5947C127.632 92.875 129.415 92.6463 131.025 91.9362C132.636 91.2261 134.006 90.0651 134.968 88.594C135.931 87.1229 136.446 85.4047 136.449 83.6476L136.471 75.1296C136.492 74.4566 136.471 73.7836 136.428 73.1316C136.175 70.2081 135.248 67.7894 133.646 65.8755Z" fill="white"/>
<path d="M102.959 63.5624H109.008V42.8879H114.467L114.488 36.8096L96.9312 36.8306L96.9102 42.9089H102.959V63.5624Z" fill="white"/>
<path d="M102.957 65.8755L102.936 92.7335H108.985L109.006 65.8755H102.957Z" fill="white"/>
<path d="M92.6098 63.5624V61.7326H82.8933V42.8879L92.5676 42.9089L92.5887 36.8306L76.8863 36.8096L76.8652 63.5624H92.6098Z" fill="white"/>
<path d="M82.9354 67.8104L92.5887 67.8315V65.8755H76.8652V92.7335H92.5676L92.6098 86.6762L82.9143 86.6552L82.9354 67.8104Z" fill="white"/>
<path d="M37.998 75.1097V54.0986L48.6209 64.6988L37.998 75.1097Z" fill="white"/>
<path d="M210.998 75.2352V54.2241L200.375 64.7402L210.998 75.2352Z" fill="white"/>
</g>
<defs>
<clipPath id="clip0_1_3773">
<rect width="173" height="56" fill="white" transform="translate(38 36.7803)"/>
</clipPath>
</defs>
</svg>
