<svg width="250" height="130" viewBox="0 0 250 130" fill="none" xmlns="http://www.w3.org/2000/svg">
<rect width="249.25" height="129.22" rx="10" fill="#19191A"/>
<g clip-path="url(#clip0_1_3711)">
<mask id="mask0_1_3711" style="mask-type:luminance" maskUnits="userSpaceOnUse" x="30" y="48" width="191" height="35">
<path d="M220.707 48.8691H30.707V82.8691H220.707V48.8691Z" fill="white"/>
</mask>
<g mask="url(#mask0_1_3711)">
<path fill-rule="evenodd" clip-rule="evenodd" d="M87.7144 48.8691H97.8151C97.403 49.2247 97.0677 49.6745 96.8791 50.313C95.489 50.3783 94.0919 50.5815 92.7019 50.937C91.1441 51.3361 89.789 52.3011 89.789 53.9626C89.789 54.4995 89.9287 55.0074 90.1662 55.45L90.1523 55.1017L90.3618 54.9929C90.5504 54.8913 90.7529 54.8043 90.9486 54.7172C91.4515 54.4995 91.9754 54.3181 92.4993 54.1658C95.5728 53.2661 100.099 53.2661 103.173 54.1658C103.697 54.3181 104.221 54.5068 104.724 54.7172C104.919 54.797 105.122 54.8913 105.31 54.9929L105.52 55.1017L105.506 55.45C105.743 55.0074 105.883 54.4995 105.883 53.9626C105.883 52.3011 104.528 51.3216 102.97 50.937C101.489 50.5742 100.008 50.3565 98.5276 50.3058C98.8349 49.8994 99.3099 49.6382 99.7849 49.3843C100.085 49.2174 100.386 49.0578 100.658 48.8691H107.958C108.95 48.8691 109.76 49.7108 109.76 50.7411V80.99C109.76 82.0202 108.95 82.8619 107.958 82.8619H87.7144C86.7224 82.8619 85.9122 82.0202 85.9122 80.99V50.7411C85.9052 49.7108 86.7155 48.8691 87.7144 48.8691ZM99.3449 63.5981C101.908 62.0817 103.082 60.3331 103.229 57.4381C102.188 60.9788 100.665 62.6912 99.3449 63.5981ZM90.697 59.0706C91.0603 64.1496 96.3412 64.5777 97.8361 67.4509C99.3309 64.5777 104.612 64.1423 104.975 59.0706L105.143 55.3267C101.531 53.3749 94.1478 53.3749 90.5364 55.3267L90.697 59.0706Z" fill="white"/>
<path fill-rule="evenodd" clip-rule="evenodd" d="M60.1089 48.8691H80.3523C81.3441 48.8691 82.1544 49.7108 82.1544 50.7411V80.99C82.1544 82.0202 81.3441 82.8619 80.3523 82.8619H60.1089C59.1169 82.8619 58.3066 82.0202 58.3066 80.99V50.7411C58.3066 49.7108 59.1169 48.8691 60.1089 48.8691ZM71.8511 72.1381C74.4148 70.6216 75.5883 68.873 75.7349 65.9779C74.6941 69.5187 73.1714 71.2311 71.8511 72.1381ZM63.0986 67.8862C63.4618 72.9652 68.7427 73.4005 70.2375 76.2665C71.7324 73.3933 77.0132 72.9579 77.3765 67.8862L77.5441 64.1423C73.9328 62.1905 66.5493 62.1905 62.9379 64.1423L63.0986 67.8862ZM69.2806 59.1286C67.8905 59.1939 66.4935 59.3971 65.1033 59.7526C63.5456 60.1517 62.1905 61.1167 62.1905 62.7782C62.1905 63.3151 62.3302 63.823 62.5677 64.2656L62.5537 63.9174L62.7633 63.8086C62.9519 63.707 63.1544 63.6199 63.35 63.5328C63.853 63.3151 64.3769 63.1338 64.9008 62.9814C67.9743 62.0817 72.5008 62.0817 75.5743 62.9814C76.0982 63.1338 76.6221 63.3224 77.125 63.5328C77.3206 63.6126 77.5232 63.707 77.7118 63.8086L77.9214 63.9174L77.9074 64.2656C78.1449 63.823 78.2846 63.3151 78.2846 62.7782C78.2846 61.1167 76.9294 60.1372 75.3718 59.7526C73.8908 59.3898 72.4099 59.1722 70.9291 59.1214C71.2365 58.715 71.7115 58.4538 72.1865 58.1999C73.2343 57.6267 74.2541 57.068 74.3798 55.4645C72.4379 55.7185 73.4158 55.6242 71.5019 56.8504C70.5798 57.3583 69.6368 57.8734 69.2806 59.1286Z" fill="white"/>
<path fill-rule="evenodd" clip-rule="evenodd" d="M32.5092 48.8691H35.4221L35.492 50.4581C35.8552 55.5371 41.1361 55.9652 42.631 58.8384C44.1257 55.9652 49.4066 55.5298 49.7699 50.4581L49.8398 48.8691H52.7526C53.7445 48.8691 54.5548 49.7108 54.5548 50.7411V80.99C54.5548 82.0202 53.7445 82.8619 52.7526 82.8619H49.8468L49.9376 80.8521C46.3261 78.9003 38.9427 78.9003 35.3313 80.8521L35.4221 82.8619H32.5092C31.5173 82.8691 30.707 82.0202 30.707 80.99V50.7411C30.707 49.7108 31.5173 48.8691 32.5092 48.8691ZM48.1632 48.8691C47.1365 51.8947 45.7464 53.4257 44.524 54.2601C46.8501 52.8815 48.0306 51.307 48.3379 48.8691H48.1632ZM41.681 75.8457C40.2908 75.911 38.8938 76.1141 37.5037 76.4697C35.946 76.8687 34.5909 77.8337 34.5909 79.4952C34.5909 80.0322 34.7306 80.5401 34.9681 80.9827L34.9541 80.6344L35.1636 80.5256C35.3523 80.4239 35.5548 80.3369 35.7504 80.2499C36.2534 80.0322 36.7773 79.8508 37.3011 79.6984C40.3747 78.7987 44.9011 78.7987 47.9747 79.6984C48.4986 79.8508 49.0224 80.0394 49.5254 80.2499C49.721 80.3297 49.9236 80.4239 50.1122 80.5256L50.3218 80.6344L50.3078 80.9827C50.5453 80.5401 50.6849 80.0322 50.6849 79.4952C50.6849 77.8337 49.3298 76.8542 47.7721 76.4697C46.2912 76.1069 44.8103 75.8892 43.3294 75.8384C43.6368 75.4321 44.1118 75.1709 44.5868 74.917C45.6346 74.3437 46.6544 73.785 46.7802 72.1816C44.8383 72.4355 45.8162 72.3412 43.9023 73.5674C42.9802 74.0681 42.0372 74.5832 41.681 75.8457Z" fill="white"/>
<path fill-rule="evenodd" clip-rule="evenodd" d="M129.311 68.4232C133.37 68.4232 135.864 65.804 135.864 62.2415V62.1907C135.864 58.6789 133.447 57.3294 130.974 56.894L135.578 52.3302V49.1958H123.277V52.7583H130.429L126.085 57.2931L126.706 59.9414H128.369C130.604 59.9414 131.931 60.8049 131.931 62.343V62.3939C131.931 63.8015 130.862 64.6866 129.353 64.6866C127.51 64.6866 126.21 63.874 124.96 62.4156L122.215 65.1582C123.773 67.0737 126.036 68.4232 129.311 68.4232Z" fill="white"/>
<path fill-rule="evenodd" clip-rule="evenodd" d="M156.198 68.4231C161.814 68.4231 165.894 64.0189 165.894 58.6425V58.5917C165.894 53.2153 161.863 48.8691 156.247 48.8691C150.631 48.8691 146.551 53.2733 146.551 58.6425V58.6933C146.551 64.077 150.582 68.4231 156.198 68.4231ZM156.247 64.5849C153.019 64.5849 150.735 61.8858 150.735 58.6425V58.5917C150.735 55.3484 152.97 52.7074 156.198 52.7074C159.425 52.7074 161.71 55.4065 161.71 58.6498V58.7006C161.71 61.9438 159.474 64.5849 156.247 64.5849Z" fill="white"/>
<path fill-rule="evenodd" clip-rule="evenodd" d="M166.725 68.0969H170.804L172.466 63.8596H180.164L181.826 68.0969H186.01L178.222 49.0581H174.527L166.725 68.0969ZM173.905 60.1883L176.322 54.0573L178.739 60.1883H173.905Z" fill="white"/>
<path fill-rule="evenodd" clip-rule="evenodd" d="M188.826 68.0968H192.836V62.3213L194.938 60.0502L200.582 68.0968H205.388L197.641 57.2133L205.053 49.1958H200.219L192.836 57.46V49.1958H188.826V68.0968Z" fill="white"/>
<path fill-rule="evenodd" clip-rule="evenodd" d="M214.021 68.3724C217.947 68.3724 220.707 66.2683 220.707 62.5099V62.459C220.707 59.1649 218.625 57.7864 214.937 56.7851C211.793 55.9507 211.011 55.5444 211.011 54.3037V54.2456C211.011 53.3242 211.814 52.5986 213.351 52.5986C214.888 52.5986 216.474 53.3024 218.08 54.4633L220.162 51.3289C218.317 49.7907 216.054 48.9272 213.4 48.9272C209.684 48.9272 207.029 51.1983 207.029 54.6229V54.6737C207.029 58.4249 209.397 59.4842 213.065 60.4565C216.11 61.2691 216.732 61.8061 216.732 62.8581V62.9089C216.732 64.019 215.747 64.6938 214.105 64.6938C212.024 64.6938 210.312 63.8013 208.671 62.401L206.303 65.3468C208.483 67.3711 211.27 68.3724 214.021 68.3724Z" fill="white"/>
<path fill-rule="evenodd" clip-rule="evenodd" d="M126.211 82.8686C127.602 82.8686 128.677 82.3027 129.459 81.6134V78.1887H126.156V79.6906H127.839V80.8152C127.412 81.1345 126.875 81.2868 126.267 81.2868C124.919 81.2868 123.969 80.2276 123.969 78.7837V78.7619C123.969 77.4196 124.933 76.3023 126.149 76.3023C127.029 76.3023 127.553 76.5924 128.132 77.1003L129.187 75.7798C128.398 75.0833 127.566 74.6987 126.204 74.6987C123.906 74.6987 122.223 76.5344 122.223 78.7837V78.8054C122.216 81.1417 123.844 82.8686 126.211 82.8686Z" fill="white"/>
<path fill-rule="evenodd" clip-rule="evenodd" d="M140.838 82.7315H142.542L143.234 80.9611H146.447L147.139 82.7315H148.885L145.63 74.7793H144.086L140.838 82.7315ZM143.835 79.4302L144.847 76.8689L145.86 79.4302H143.835Z" fill="white"/>
<path fill-rule="evenodd" clip-rule="evenodd" d="M160.5 82.731H162.134V77.6086L164.251 80.9534H164.3L166.438 77.5795V82.731H168.1V74.8369H166.298L164.3 78.1745L162.302 74.8369H160.5V82.731Z" fill="white"/>
<path d="M182.099 74.8369H180.43V82.731H182.099V74.8369Z" fill="white"/>
<path fill-rule="evenodd" clip-rule="evenodd" d="M194.428 82.731H196.083V77.7102L199.765 82.731H201.183V74.8369H199.534V79.6981L195.971 74.8369H194.428V82.731Z" fill="white"/>
<path fill-rule="evenodd" clip-rule="evenodd" d="M217.095 82.8686C218.485 82.8686 219.561 82.3027 220.343 81.6134V78.1887H217.039V79.6906H218.723V80.8152C218.297 81.1345 217.759 81.2868 217.151 81.2868C215.803 81.2868 214.846 80.2276 214.846 78.7837V78.7619C214.846 77.4196 215.81 76.3023 217.026 76.3023C217.906 76.3023 218.43 76.5924 219.009 77.1003L220.064 75.7798C219.275 75.0833 218.443 74.6987 217.081 74.6987C214.784 74.6987 213.1 76.5344 213.1 78.7837V78.8054C213.1 81.1417 214.734 82.8686 217.095 82.8686Z" fill="white"/>
</g>
</g>
<defs>
<clipPath id="clip0_1_3711">
<rect width="190" height="34" fill="white" transform="translate(30.707 48.8696)"/>
</clipPath>
</defs>
</svg>
