<svg width="250" height="130" viewBox="0 0 250 130" fill="none" xmlns="http://www.w3.org/2000/svg">
<rect width="249.25" height="129.22" rx="10" fill="#19191A"/>
<g clip-path="url(#clip0_1_3665)">
<path d="M97.8184 66.9308V75.5715H93.6116V67.548C93.6116 65.7929 92.5145 64.9856 91.1629 64.9856C89.6154 64.9856 88.53 65.8865 88.53 67.8844V75.5715H84.3086V61.4989H88.53V62.821C89.2907 61.7797 90.6861 61.1128 92.5555 61.1128C95.399 61.1128 97.8184 63.1311 97.8184 66.9308Z" fill="white"/>
<path d="M107.163 72.193C107.663 72.2077 108.16 72.1206 108.625 71.9371C109.089 71.7535 109.512 71.4774 109.867 71.1254L113.243 73.0647C111.865 74.9807 109.782 75.9635 107.099 75.9635C102.287 75.9635 99.3027 72.7283 99.3027 68.5338C99.3027 64.3392 102.351 61.1128 106.798 61.1128C110.908 61.1128 113.948 64.2953 113.948 68.5425C113.95 69.1105 113.894 69.6772 113.778 70.2332H103.787C104.32 71.687 105.607 72.193 107.163 72.193ZM109.752 67.0712C109.302 65.439 108.035 64.8481 106.769 64.8481C105.165 64.8481 104.095 65.635 103.703 67.0712H109.752Z" fill="white"/>
<path d="M120.558 65.5534V70.526C120.558 71.737 121.599 71.8511 123.457 71.737V75.5718C117.943 76.1334 116.337 74.472 116.337 70.5319V65.5592H114.09V61.4992H116.34V58.8256L120.561 57.5591V61.4992H123.451V65.5534H120.558Z" fill="white"/>
<path d="M139.305 61.4989V74.8607C139.305 79.5906 135.619 81.5884 131.875 81.5884C128.949 81.5884 126.498 80.4886 125.205 78.1807L128.806 76.101C129.341 77.0838 130.157 77.8736 132.024 77.8736C133.993 77.8736 135.204 76.8586 135.204 74.8607V73.5737C134.276 74.7262 132.925 75.4019 131.094 75.4019C127.097 75.4019 124.172 72.1375 124.172 68.2529C124.172 64.3684 127.089 61.1128 131.085 61.1128C132.916 61.1128 134.268 61.7885 135.195 62.9439V61.4989H139.305ZM135.195 68.2529C135.195 66.3107 133.788 64.9885 131.79 64.9885C129.792 64.9885 128.385 66.3107 128.385 68.2529C128.385 70.1952 129.792 71.5173 131.79 71.5173C133.788 71.5173 135.195 70.1952 135.195 68.2529Z" fill="white"/>
<path d="M156.135 61.4989V75.5715H151.914V74.2494C150.984 75.317 149.606 75.9635 147.719 75.9635C144.033 75.9635 140.99 72.7283 140.99 68.5338C140.99 64.3392 144.033 61.1128 147.733 61.1128C149.62 61.1128 150.998 61.7622 151.929 62.8298V61.4989H156.135ZM151.914 68.5338C151.914 66.4248 150.507 65.1026 148.564 65.1026C146.622 65.1026 145.215 66.4248 145.215 68.5338C145.215 70.6427 146.622 71.9678 148.564 71.9678C150.507 71.9678 151.914 70.6457 151.914 68.5338Z" fill="white"/>
<path d="M179.635 66.9313V75.572H175.414V67.2969C175.414 65.8899 174.738 64.989 173.387 64.989C171.98 64.989 171.193 65.9748 171.193 67.6216V75.572H166.968V67.2969C166.968 65.8899 166.295 64.989 164.944 64.989C163.537 64.989 162.747 65.9748 162.747 67.6216V75.572H158.525V61.4994H162.747V62.7952C163.396 61.8387 164.634 61.1045 166.521 61.1045C168.179 61.1045 169.42 61.7802 170.207 62.9619C170.994 61.8387 172.29 61.1045 174.288 61.1045C177.523 61.1133 179.635 63.4124 179.635 66.9313Z" fill="white"/>
<path d="M181.408 57.7289C181.408 57.2279 181.557 56.7382 181.835 56.3216C182.114 55.905 182.509 55.5804 182.972 55.3886C183.435 55.1969 183.944 55.1467 184.436 55.2445C184.927 55.3422 185.379 55.5835 185.733 55.9377C186.087 56.292 186.329 56.7434 186.426 57.2347C186.524 57.7261 186.474 58.2355 186.282 58.6983C186.091 59.1612 185.766 59.5568 185.349 59.8352C184.933 60.1135 184.443 60.2621 183.942 60.2621C183.272 60.2552 182.631 59.9861 182.158 59.5125C181.684 59.039 181.415 58.3986 181.408 57.7289ZM181.829 61.4994H186.057V75.572H181.829V61.4994Z" fill="white"/>
<path d="M201.953 66.9308V75.5715H197.732V67.548C197.732 65.7929 196.632 64.9856 195.283 64.9856C193.733 64.9856 192.665 65.8865 192.665 67.8844V75.5715H188.443V61.4989H192.665V62.821C193.425 61.7797 194.833 61.1128 196.69 61.1128C199.531 61.1128 201.953 63.1311 201.953 66.9308Z" fill="white"/>
<path d="M218.584 61.4989V74.8607C218.584 79.5906 214.898 81.5884 211.156 81.5884C208.23 81.5884 205.779 80.4886 204.483 78.1807L208.087 76.101C208.622 77.0838 209.439 77.8736 211.305 77.8736C213.274 77.8736 214.485 76.8586 214.485 74.8607V73.5737C213.555 74.7262 212.206 75.4019 210.389 75.4019C206.393 75.4019 203.465 72.1375 203.465 68.2529C203.465 64.3684 206.37 61.1128 210.366 61.1128C212.197 61.1128 213.546 61.7885 214.462 62.9439V61.4989H218.584ZM214.488 68.2529C214.488 66.3107 213.081 64.9885 211.083 64.9885C209.085 64.9885 207.675 66.3107 207.675 68.2529C207.675 70.1952 209.082 71.5173 211.083 71.5173C213.084 71.5173 214.476 70.1952 214.476 68.2529H214.488Z" fill="white"/>
<path d="M219.932 61.078V61.6421H219.859V61.078H219.932ZM220.113 61.078V61.1392H219.678V61.078H220.113ZM220.221 61.078H220.293L220.478 61.5379L220.662 61.078H220.735L220.506 61.6421H220.449L220.221 61.078ZM220.197 61.078H220.261L220.272 61.422V61.6421H220.197V61.078ZM220.695 61.078H220.759V61.6421H220.684V61.422L220.695 61.078Z" fill="white"/>
<path d="M76.3515 58.7555C76.8356 58.0026 77.1666 57.1617 77.3257 56.2809C77.4848 55.4001 77.4688 54.4966 77.2786 53.622C77.0885 52.7474 76.7279 51.9187 76.2174 51.1835C75.707 50.4482 75.0567 49.8206 74.3037 49.3367C73.5507 48.8526 72.7098 48.5216 71.8289 48.3626C70.9479 48.2035 70.0443 48.2195 69.1696 48.4097C68.2949 48.5998 67.4661 48.9604 66.7308 49.4707C65.9954 49.9811 65.3678 50.6313 64.8837 51.3842L57.6286 62.6605L50.4173 51.3784C50.4173 51.3579 50.3852 51.3374 50.3735 51.3169C50.2916 51.1941 50.2038 51.0742 50.1131 50.9542C50.0634 50.8899 50.0166 50.8226 49.9639 50.7583C49.9112 50.6939 49.7972 50.5623 49.7094 50.4657C49.6216 50.3692 49.5719 50.3136 49.4988 50.2405L49.2735 50.0299C49.177 49.9422 49.0833 49.8544 48.9809 49.7725C48.8786 49.6906 48.8522 49.676 48.7879 49.6262C48.6679 49.5356 48.548 49.4478 48.4251 49.3659L48.3637 49.322C48.3169 49.2899 48.2671 49.2665 48.2174 49.2372C48.0975 49.1641 47.9746 49.091 47.8488 49.0266C47.723 48.9622 47.6703 48.9388 47.5826 48.895C47.4948 48.8511 47.369 48.7955 47.2608 48.7516L46.9273 48.6259L46.6523 48.5352C46.5294 48.4972 46.4036 48.465 46.2778 48.4357C46.152 48.4065 46.1052 48.3948 46.0175 48.3772C45.9297 48.3597 45.7629 48.3304 45.6342 48.31L45.3417 48.2778C45.2344 48.2661 45.1203 48.2544 44.9994 48.2427H44.6835H44.3675C44.2476 48.2427 44.1276 48.2427 44.0077 48.2661C43.8877 48.2895 43.8234 48.2866 43.7327 48.3012C43.642 48.3158 43.4752 48.3392 43.3494 48.3655C43.2236 48.3919 43.1739 48.4006 43.0891 48.4211C43.0042 48.4416 42.8375 48.4942 42.7088 48.5352C42.58 48.5761 42.5245 48.5937 42.4162 48.6259C42.308 48.658 42.1939 48.7048 42.0856 48.7487C41.9774 48.7926 41.8692 48.8423 41.7638 48.892C41.6585 48.9418 41.5854 48.9739 41.4976 49.0208C41.4099 49.0676 41.249 49.1582 41.1261 49.2314C41.0793 49.2606 41.0296 49.284 40.9827 49.3162L40.9535 49.3571C40.8277 49.439 40.7078 49.5268 40.5878 49.6145L40.3947 49.7637C40.2923 49.8456 40.1958 49.9334 40.1022 50.0211C40.0086 50.1089 39.9501 50.1586 39.8798 50.2288C39.8096 50.299 39.7365 50.378 39.6692 50.454C39.6019 50.5301 39.4937 50.6471 39.4118 50.7466C39.3299 50.846 39.3123 50.8753 39.2626 50.9425C39.1719 51.0595 39.0841 51.1795 39.0022 51.3052C38.9876 51.3257 38.973 51.3433 38.9583 51.3667L25.9488 71.5644C25.4644 72.317 25.1331 73.1576 24.9739 74.0383C24.8146 74.9189 24.8306 75.8223 25.0208 76.6968C25.211 77.5713 25.5717 78.3997 26.0823 79.1347C26.5929 79.8697 27.2434 80.4969 27.9966 80.9803C28.7493 81.4647 29.59 81.7959 30.4708 81.9551C31.3515 82.1143 32.255 82.0984 33.1296 81.9083C34.0042 81.7181 34.8328 81.3574 35.5679 80.8469C36.303 80.3363 36.9302 79.6859 37.4137 78.9328L44.66 67.6711L51.883 78.9562C52.8573 80.4785 54.3963 81.5515 56.1618 81.9394C57.9272 82.3272 59.7744 81.998 61.2971 81.0242C61.3556 80.9862 61.4083 80.9423 61.4639 80.9043C61.4806 80.8952 61.4963 80.8845 61.5107 80.8721C61.6774 80.7551 61.8413 80.6352 61.9934 80.5065L62.049 80.4567C62.2011 80.328 62.3415 80.1905 62.4878 80.0501L62.5434 79.9887C62.6809 79.8454 62.8125 79.6962 62.9354 79.547C62.9617 79.5178 62.9822 79.4856 63.0085 79.4534C63.1197 79.3072 63.2279 79.1609 63.3274 79.0059L63.3654 78.9562L76.3515 58.7555Z" fill="white"/>
<path opacity="0.25" d="M50.5753 51.6504C50.5109 51.5393 50.4436 51.4281 50.3734 51.3169L50.2272 51.1063C50.1921 51.0537 50.1511 51.004 50.1131 50.9542C50.075 50.9045 50.0224 50.8226 49.9639 50.7583C49.9054 50.6939 49.7942 50.5623 49.7094 50.4657C49.6245 50.3692 49.5719 50.3136 49.4987 50.2405C49.4256 50.1674 49.3495 50.1001 49.2735 50.0299C49.1974 49.9597 49.0833 49.8573 48.9809 49.7725C48.8785 49.6877 48.8522 49.676 48.7878 49.6262C48.6679 49.5356 48.5509 49.4478 48.4251 49.3659L48.3636 49.322C48.3168 49.2899 48.2671 49.2665 48.2174 49.2372C48.0945 49.1641 47.9716 49.091 47.8488 49.0266C47.7259 48.9622 47.6703 48.9359 47.5825 48.895C47.4948 48.854 47.369 48.7955 47.2607 48.7516C47.1525 48.7078 47.0413 48.6668 46.9272 48.6259L46.6523 48.5352C46.5294 48.4972 46.4036 48.465 46.2778 48.4357C46.152 48.4065 46.1052 48.3948 46.0174 48.3772C45.9297 48.3597 45.7629 48.3304 45.6342 48.31L45.3416 48.2778C45.2344 48.2661 45.1203 48.2544 44.9994 48.2427H44.6834H44.3675C44.2475 48.2427 44.1276 48.2427 44.0076 48.2661L43.7151 48.3012C43.5893 48.3187 43.4606 48.3392 43.3348 48.3655C43.209 48.3919 43.1593 48.4006 43.0744 48.4211C42.9896 48.4416 42.8375 48.4942 42.7087 48.5352C42.58 48.5761 42.5244 48.5937 42.4162 48.6259C42.3079 48.658 42.1939 48.7048 42.0856 48.7487C41.9774 48.7926 41.8691 48.8423 41.7638 48.892C41.6585 48.9418 41.5854 48.9739 41.4976 49.0208C41.4098 49.0676 41.2489 49.1582 41.1261 49.2314C41.0793 49.2606 41.0295 49.284 40.9798 49.3162L40.9535 49.3571C40.8277 49.439 40.7077 49.5268 40.5878 49.6145C40.5234 49.6643 40.4561 49.7111 40.3947 49.7637C40.3333 49.8164 40.1958 49.9334 40.1022 50.0211C40.0085 50.1089 39.95 50.1557 39.8769 50.2288C39.8038 50.3019 39.7365 50.378 39.6692 50.454C39.6019 50.5301 39.4937 50.6442 39.4117 50.7466C39.3298 50.8489 39.3123 50.8753 39.2625 50.9425C39.1719 51.0595 39.0841 51.1795 39.0022 51.3052C38.9876 51.3257 38.9729 51.3433 38.9583 51.3667L31.1151 63.5321L26.3262 70.9736C26.768 71.6496 27.372 72.2043 28.0832 72.5871C28.7943 72.97 29.59 73.1687 30.3977 73.1652C31.2054 73.1617 31.9993 72.9561 32.7072 72.5672C33.415 72.1782 34.0142 71.6183 34.4502 70.9385L40.62 61.3559L42.9837 57.682L43.0539 57.5825C43.5773 56.8039 44.2567 56.1425 45.0491 55.6402C45.2675 55.5008 45.4941 55.3748 45.7278 55.2629C47.2072 54.5344 48.9015 54.3701 50.4934 54.8008C52.0852 55.2316 53.4654 56.2278 54.3755 57.603L50.5753 51.6504Z" fill="white"/>
<path d="M44.4473 68.0014C44.5175 67.8932 44.5965 67.7908 44.6725 67.6885V67.6709L44.4473 68.0014Z" fill="white"/>
<path d="M64.4109 74.6738C63.3537 75.1114 62.2154 75.3189 61.0718 75.2824C59.9282 75.2458 58.8054 74.9661 57.7783 74.4619C56.7512 73.9577 55.8433 73.2405 55.115 72.3581C54.3867 71.4757 53.8548 70.4483 53.5546 69.3443C53.5546 69.3267 53.5546 69.3121 53.5546 69.2945C53.537 69.2302 53.5224 69.1658 53.5078 69.1015C53.2141 68.2313 52.6886 67.4576 51.9878 66.8639C51.287 66.2701 50.4375 65.8788 49.5308 65.7319C48.624 65.5851 47.6944 65.6883 46.842 66.0306C45.9896 66.3728 45.2467 66.941 44.6934 67.674L49.8041 75.6595L51.8841 78.9561C52.8594 80.4773 54.3986 81.5493 56.1638 81.9365C57.929 82.3237 59.7757 81.9945 61.2983 81.0212C61.3568 80.9832 61.4094 80.9393 61.4679 80.9013L61.5118 80.8691C61.6756 80.7551 61.8395 80.6322 61.9974 80.5006L62.0501 80.4567C62.2022 80.3251 62.3426 80.1905 62.4889 80.0472L62.5445 79.9887C62.682 79.8453 62.8136 79.6962 62.9365 79.5441C62.9628 79.5119 62.9833 79.4826 63.0067 79.4505C63.1208 79.3071 63.2261 79.158 63.3285 79.0029L63.3666 78.9532L68.0999 71.5937C67.2149 72.974 65.9271 74.0492 64.4109 74.6738Z" fill="white"/>
<path d="M57.6289 62.6632C57.986 63.1439 58.4271 63.5561 58.9307 63.88C59.4888 64.2395 60.1123 64.4855 60.7656 64.6039C61.4188 64.7223 62.089 64.7108 62.7378 64.5701C63.3866 64.4294 64.0013 64.1622 64.5468 63.7838C65.0922 63.4054 65.5577 62.9232 65.9167 62.3648L74.3186 49.3365C73.5657 48.8524 72.7247 48.5214 71.8438 48.3624C70.9629 48.2033 70.0593 48.2193 69.1845 48.4095C68.3098 48.5996 67.4811 48.9601 66.7457 49.4705C66.0103 49.9809 65.3827 50.6311 64.8987 51.384L62.7631 54.7011L60.2004 58.685L57.6289 62.6632Z" fill="white"/>
</g>
<defs>
<clipPath id="clip0_1_3665">
<rect width="199.361" height="33.855" fill="white" transform="translate(24.8633 48.2427)"/>
</clipPath>
</defs>
</svg>
