<svg width="250" height="130" viewBox="0 0 250 130" fill="none" xmlns="http://www.w3.org/2000/svg">
<rect width="249.25" height="129.22" rx="10" fill="#19191A"/>
<g clip-path="url(#clip0_1_3751)">
<path d="M38.4094 72.3035C40.315 72.2727 42.2214 72.2889 44.127 72.2938C44.5019 72.297 44.8996 72.2581 45.2443 72.4353C45.8022 72.6894 46.2073 73.3165 46.0668 73.9322C45.366 77.0903 44.6489 80.2459 43.9375 83.4023C43.6965 84.4752 42.6045 85.2366 41.5149 85.2188C39.5007 85.2139 37.4857 85.2212 35.4715 85.2147C34.7396 85.2163 33.949 84.6621 34.0004 83.8756V83.7049C34.0356 83.1693 34.1793 82.6514 34.2953 82.1295C34.8915 79.5088 35.4854 76.888 36.0759 74.2664C36.245 73.1692 37.2994 72.3091 38.4094 72.3035ZM199.365 46.5877C200.159 46.4558 200.967 46.5036 201.768 46.4979C205.852 46.4971 209.936 46.5012 214.02 46.4947C214.415 46.4898 214.805 46.735 214.956 47.0983C215.016 47.3313 214.984 47.5765 214.949 47.8111C213.201 55.548 211.416 63.2784 209.643 71.0097C209.48 71.6675 208.844 72.2266 208.141 72.1845C207.35 72.1853 206.56 72.191 205.77 72.1821C205.246 72.1829 204.84 71.6246 204.936 71.1302C205.501 68.6786 206.035 66.2188 206.628 63.7728C206.714 63.3699 206.783 62.8941 206.518 62.5405C206.316 62.2508 205.943 62.1537 205.607 62.1578C203.891 62.1497 202.174 62.1804 200.458 62.1481C199.792 62.1376 199.396 61.339 199.647 60.7677C200.27 59.2959 201.421 58.0418 202.861 57.3208C204.207 56.625 205.754 56.5263 207.244 56.5125C207.838 56.5263 208.393 56.0731 208.518 55.5011C208.852 53.9662 209.263 52.4458 209.526 50.8955C209.654 50.3291 209.097 49.8089 208.544 49.8299C206.339 49.8194 204.134 49.8291 201.929 49.8259C201.354 49.8048 200.79 50.1236 200.506 50.6164C200.362 50.851 200.324 51.1277 200.264 51.3907C198.817 57.8144 197.32 64.2275 195.859 70.648C195.79 71.1626 195.545 71.6707 195.091 71.9555C194.778 72.1805 194.381 72.2047 194.009 72.1869C192.675 72.1821 191.342 72.1869 190.009 72.1837C189.522 72.2104 189.095 71.7557 189.103 71.2848C189.116 71.097 189.169 70.9158 189.21 70.7337C190.428 65.3239 191.698 59.9254 192.927 54.518C193.307 52.992 193.495 51.3762 194.322 50.0014C195.33 48.155 197.27 46.8644 199.365 46.5877ZM177.143 49.8946C176.593 50.0192 176.118 50.4497 175.969 50.9918C174.859 55.9655 173.708 60.9303 172.575 65.8992C172.398 66.6331 172.169 67.367 172.17 68.1275C172.206 68.5823 172.669 68.8986 173.104 68.9132C175.225 68.9245 177.347 68.91 179.468 68.9205C179.738 68.9189 180.019 68.9472 180.281 68.8574C180.795 68.698 181.221 68.2586 181.323 67.7303C181.64 66.273 181.999 64.8255 182.299 63.365C182.393 62.8674 182.077 62.2274 181.515 62.2088C179.689 62.1667 177.862 62.2088 176.036 62.1958C175.497 62.2088 174.955 61.7306 175.022 61.1763C175.153 60.3162 175.684 59.5864 176.237 58.9375C177.494 57.4268 179.481 56.6476 181.426 56.5886C182.117 56.5732 182.857 56.6614 183.492 56.3296C183.793 56.1735 184.018 55.8846 184.082 55.5521C184.4 54.2194 184.711 52.8836 185.014 51.5469C185.086 51.1391 185.247 50.6633 184.979 50.2911C184.706 49.8857 184.166 49.8267 183.715 49.8412C181.525 49.8865 179.33 49.7797 177.143 49.8946ZM174.975 46.6476C176.059 46.4955 177.158 46.5489 178.25 46.5109C182.059 46.5068 185.866 46.5141 189.674 46.5068C190.149 46.5214 190.6 46.9357 190.596 47.4171C190.578 47.6364 190.505 47.8459 190.458 48.0595C190.006 49.9149 189.622 51.7848 189.189 53.6441C188.962 54.5981 188.688 55.5488 188.247 56.4292C187.651 57.7132 186.469 58.647 185.184 59.2037C186.218 59.9286 186.809 61.1529 186.909 62.3868C186.994 63.1789 186.816 63.9646 186.67 64.7389C186.361 66.2666 185.954 67.799 185.173 69.1624C184.096 71.0339 181.947 72.1716 179.798 72.2363C175.087 72.2371 170.377 72.2363 165.667 72.2371C165.22 72.2347 164.806 71.8795 164.741 71.4434C164.712 71.1375 164.833 70.8462 164.895 70.5525C166.124 65.0771 167.415 59.6163 168.645 54.1409C168.9 53.1514 169.037 52.1303 169.385 51.165C169.859 49.9286 170.651 48.7975 171.714 47.9875C172.652 47.2577 173.797 46.8119 174.975 46.6476ZM150.593 46.5837C151.392 46.4631 152.201 46.4971 153.007 46.4898C157.062 46.4817 161.116 46.4882 165.171 46.4898C165.577 46.4858 166.004 46.7042 166.174 47.0821C166.272 47.2901 166.228 47.5263 166.198 47.7448C164.509 55.2486 162.786 62.746 161.07 70.2442C160.949 70.8503 160.84 71.5583 160.272 71.9232C159.886 72.246 159.354 72.1991 158.884 72.195C158.205 72.17 157.524 72.2355 156.848 72.1635C156.398 72.064 156.122 71.5542 156.206 71.1205C157.648 64.6742 159.173 58.2457 160.616 51.7993C160.704 51.3972 160.822 50.9902 160.789 50.5751C160.767 50.3469 160.667 50.1034 160.457 49.9877C159.779 49.5896 158.751 49.9739 158.574 50.7531C157.771 54.1652 157.02 57.5886 156.222 61.0015C156.034 61.75 155.216 62.1829 154.477 62.1537C153.768 62.1092 153.056 62.1748 152.349 62.1084C151.832 62.0575 151.429 61.4984 151.572 60.9967C152.314 57.6477 153.069 54.3012 153.856 50.9619C153.946 50.6099 153.842 50.1778 153.515 49.9796C152.904 49.6616 152.035 49.8639 151.69 50.4732C151.477 50.8292 151.405 51.2418 151.314 51.6391C149.862 58.0919 148.364 64.5342 146.902 70.9846C146.76 71.6602 146.11 72.2064 145.408 72.1983C143.964 72.1813 142.519 72.1991 141.075 72.1918C140.561 72.1708 140.13 71.6262 140.259 71.127C141.694 64.713 143.208 58.3161 144.649 51.9037C145.054 50.2911 146.004 48.7958 147.372 47.8192C148.312 47.1347 149.443 46.7415 150.593 46.5837ZM126.149 46.5424C127.149 46.4566 128.156 46.519 129.159 46.5012C132.94 46.5028 136.721 46.5012 140.501 46.4995C140.882 46.5125 141.252 46.7585 141.391 47.112C141.485 47.5716 141.325 48.0304 141.226 48.4746C139.552 55.9097 137.829 63.3335 136.134 70.7637C136.051 71.4434 135.512 72.0979 134.803 72.1675C133.956 72.2096 133.107 72.1772 132.26 72.1829C131.683 72.2234 131.231 71.5906 131.383 71.0582C131.875 68.9221 132.352 66.7836 132.844 64.6475C132.98 64.094 133.175 63.5374 133.123 62.9596C133.08 62.5073 132.636 62.1586 132.187 62.1602C130.414 62.1408 128.64 62.1845 126.867 62.1432C126.252 62.1133 125.846 61.3948 126.064 60.8438C126.797 58.9723 128.432 57.464 130.379 56.896C131.461 56.5546 132.609 56.5424 133.734 56.5133C134.306 56.5004 134.83 56.0586 134.95 55.5076C135.288 53.967 135.697 52.441 135.964 50.8866C136.078 50.3453 135.568 49.838 135.038 49.8307C132.806 49.8129 130.574 49.8259 128.343 49.8242C127.642 49.8008 126.956 50.2984 126.789 50.9756C125.284 57.642 123.735 64.2987 122.219 70.9627C122.074 71.6278 121.447 72.2023 120.742 72.1853C119.324 72.1829 117.908 72.1878 116.492 72.1837C115.902 72.246 115.389 71.6108 115.567 71.055C116.923 65.0601 118.328 59.0758 119.69 53.0826C119.875 52.2168 120.076 51.3462 120.47 50.5468C120.993 49.444 121.779 48.4495 122.793 47.7521C123.778 47.0611 124.956 46.6792 126.149 46.5424ZM105.981 46.5505C106.241 46.4923 106.512 46.5109 106.778 46.4963C108.055 46.485 109.334 46.5028 110.611 46.4914C111.168 46.468 111.711 47.0319 111.549 47.5894C110.277 53.3342 108.93 59.0629 107.635 64.8028C107.527 65.1985 107.434 65.629 107.597 66.0246C107.698 66.328 107.994 66.5635 108.325 66.5481C110.094 66.5692 111.865 66.54 113.634 66.5619C114.264 66.5465 114.84 67.2043 114.633 67.8193C114.155 69.0564 113.292 70.1439 112.205 70.9142C111.014 71.7597 109.539 72.1489 108.085 72.1902C105.553 72.2096 103.021 72.2112 100.489 72.2047C99.9241 72.2395 99.4063 71.6634 99.5411 71.1108C101.322 63.2954 103.155 55.4906 104.902 47.6671C105.039 47.1452 105.473 46.7253 105.981 46.5505ZM85.1738 46.5845C85.8346 46.472 86.5076 46.5044 87.1749 46.5003C91.3952 46.5036 95.6156 46.5012 99.8351 46.5003C100.257 46.5117 100.703 46.8175 100.752 47.2528C100.795 47.5943 100.691 47.9293 100.615 48.2578C98.9554 55.6095 97.2606 62.9524 95.5788 70.2984C95.4718 70.788 95.4008 71.3301 95.0365 71.7087C94.7383 72.0259 94.3063 72.2031 93.8693 72.1918C93.0803 72.1821 92.2896 72.2072 91.5014 72.1797C90.9517 72.14 90.5809 71.5477 90.7255 71.0339C91.3087 68.5329 91.8535 66.0222 92.4538 63.5252C92.6123 62.9653 92.2888 62.2047 91.6395 62.174C89.8237 62.123 88.0072 62.195 86.1915 62.1424C85.5862 62.1028 85.1917 61.3956 85.4008 60.8502C85.8648 59.656 86.7003 58.6114 87.745 57.8621C88.6574 57.2019 89.7461 56.7997 90.8627 56.646C91.5896 56.5449 92.3247 56.5352 93.0574 56.5141C93.639 56.5085 94.1739 56.0594 94.2924 55.4987C94.6117 54.1037 94.9409 52.7112 95.2382 51.3114C95.2954 50.9813 95.3812 50.6083 95.1982 50.3008C94.9818 49.9327 94.5235 49.7992 94.1168 49.821C91.9114 49.8299 89.7069 49.8097 87.5024 49.8323C86.8376 49.8841 86.2348 50.4036 86.1098 51.0557C84.6151 57.6914 83.0705 64.3165 81.5628 70.9498C81.4215 71.6262 80.7827 72.2088 80.0672 72.1853C78.6223 72.1821 77.1766 72.1902 75.7309 72.1821C75.2122 72.1829 74.7793 71.6335 74.8921 71.1351C76.2487 65.0868 77.6822 59.0564 79.0413 53.009C79.23 52.1723 79.4358 51.3308 79.8026 50.55C80.2355 49.66 80.8146 48.8274 81.5799 48.1849C82.587 47.3192 83.853 46.7609 85.1738 46.5845ZM67.8432 46.5651C68.0474 46.5133 68.2581 46.4947 68.468 46.4971C70.5369 46.5125 72.6051 46.4874 74.6732 46.5101C75.4426 46.502 76.1279 47.2188 76.0764 47.9794C76.0503 48.2149 75.9841 48.4439 75.9351 48.6753C75.3454 51.3268 74.7369 53.9751 74.139 56.625C73.791 58.1793 72.886 59.5872 71.6739 60.6237C69.9056 62.0882 67.7876 63.0842 65.5938 63.7493C63.8181 64.2971 61.9934 64.6661 60.1711 65.0221C59.9979 65.0634 59.8109 65.1119 59.6868 65.247C59.6034 65.4056 59.7349 65.5901 59.9016 65.616C60.4047 65.7455 60.9275 65.7673 61.4388 65.8466C63.0674 66.1039 64.6724 66.5878 66.1181 67.384C66.9292 67.8395 67.7166 68.3654 68.3308 69.0686C69.4931 70.3729 70.1375 72.17 69.8811 73.9096C69.3845 77.0911 68.5293 80.203 67.8701 83.3529C67.706 84.1337 67.0991 84.7891 66.3542 85.0723C65.8862 85.2673 65.3708 85.2115 64.8766 85.2172C62.998 85.2147 61.1186 85.2228 59.2392 85.2123C58.4077 85.239 57.6668 84.3943 57.8522 83.5811C58.2925 81.5243 58.7883 79.4788 59.2343 77.4236C59.4711 76.2819 59.6655 75.1095 59.543 73.9419C59.356 72.9046 59.0497 71.801 58.2337 71.0695C57.2437 70.2483 56.1019 69.5783 54.8465 69.2474C53.6924 68.9181 52.4664 68.8299 51.3645 68.3306C50.9063 68.113 50.4432 67.8533 50.1377 67.4382C49.4745 66.5514 49.4328 65.2673 50.0005 64.323C50.2888 63.823 50.796 63.5001 51.3081 63.2598C52.2573 62.8269 53.3068 62.7056 54.3278 62.5365C56.3387 62.2266 58.4093 61.9644 60.2512 61.0493C61.4894 60.474 62.6999 59.7061 63.4603 58.5515C63.7143 58.1615 63.9095 57.7319 64.0206 57.2804C64.719 54.2898 65.3749 51.2904 66.065 48.2982C66.2603 47.4454 66.9986 46.7738 67.8432 46.5651ZM43.9154 46.5707C44.2797 46.4801 44.6579 46.502 45.0295 46.4995C46.9596 46.5133 48.8896 46.4858 50.8205 46.5125C51.6357 46.5084 52.3275 47.3499 52.1503 48.1404C51.4454 51.3009 50.7217 54.4573 50.0152 57.617C49.7595 58.6607 48.7018 59.4051 47.6342 59.4076C45.6494 59.4132 43.6655 59.4051 41.6807 59.4116C41.1318 59.4148 40.5396 59.1923 40.2472 58.7085C40.0153 58.3581 40.0234 57.9131 40.1124 57.5182C40.7814 54.5706 41.4454 51.6221 42.1103 48.6737C42.1748 48.3921 42.223 48.1032 42.3537 47.8419C42.6584 47.2221 43.2505 46.7593 43.9154 46.5707Z" fill="white"/>
<path d="M171.789 76.2132C173.877 76.1938 175.967 76.2108 178.055 76.2027C177.97 76.6882 177.858 77.1688 177.765 77.6527C176.24 77.6438 174.715 77.6535 173.19 77.647C173.034 78.4076 172.881 79.169 172.727 79.9295C174.18 79.9295 175.633 79.9295 177.086 79.9295C176.984 80.4247 176.887 80.9215 176.793 81.4183C175.331 81.4159 173.868 81.4103 172.406 81.4224C172.252 82.2194 172.085 83.0139 171.929 83.8101C173.489 83.8109 175.051 83.8085 176.612 83.8117C176.512 84.2932 176.416 84.7754 176.322 85.2577C174.207 85.2747 172.091 85.2649 169.976 85.2625C170.574 82.2445 171.204 79.2337 171.789 76.2132ZM136.277 85.2633C136.882 82.242 137.493 79.2216 138.102 76.2011C138.689 76.2108 139.275 76.2003 139.862 76.2051C140.432 78.4982 141.009 80.7905 141.573 83.0851C143.037 80.788 144.525 78.5063 145.986 76.2067C146.556 76.2051 147.126 76.2027 147.696 76.2059C147.075 79.2232 146.475 82.2453 145.865 85.2649C145.341 85.2649 144.819 85.2649 144.297 85.2649C144.721 83.1612 145.149 81.0575 145.568 78.9521C144.311 81.0567 143.076 83.1725 141.807 85.269C141.328 85.2658 140.851 85.2658 140.373 85.2641C139.953 83.162 139.53 81.0607 139.114 78.9578C138.687 81.0583 138.266 83.1612 137.842 85.2625C137.32 85.269 136.799 85.2625 136.277 85.2625M103.202 85.2706C105.096 82.2453 107.005 79.2288 108.902 76.2051C109.512 76.2051 110.122 76.2067 110.733 76.2011C111.443 79.2232 112.156 82.2437 112.866 85.2658C112.279 85.2658 111.694 85.2658 111.108 85.2658C110.929 84.4437 110.745 83.6224 110.568 82.8003C109.556 82.7906 108.543 82.8011 107.531 82.7947C107.814 82.3124 108.112 81.8391 108.383 81.3504C109.004 81.3293 109.626 81.3504 110.247 81.3358C109.992 80.2208 109.769 79.0978 109.488 77.9884C109.02 78.6536 108.626 79.3696 108.19 80.0566C107.13 81.7905 106.068 83.5237 105.013 85.2609C104.41 85.2763 103.805 85.2593 103.202 85.2714M202.652 76.6914C204.444 75.8944 206.515 76.0142 208.363 76.5579C208.27 77.0685 208.167 77.5774 208.066 78.0864C206.701 77.6073 205.184 77.4075 203.77 77.7862C203.187 77.9779 202.667 78.4933 202.663 79.1317C202.604 79.4522 202.795 79.8276 203.14 79.8802C204.112 80.0169 205.11 79.8219 206.074 80.0404C206.547 80.1456 207.037 80.3543 207.302 80.7791C207.577 81.1724 207.611 81.6724 207.55 82.1336C207.469 82.9096 207.16 83.6831 206.589 84.2325C205.961 84.8482 205.088 85.1541 204.225 85.2601C202.852 85.4616 201.446 85.2811 200.119 84.9057C200.209 84.3951 200.305 83.8862 200.416 83.3797C201.42 83.7357 202.494 83.8975 203.561 83.8563C204.051 83.832 204.571 83.815 205.004 83.5544C205.497 83.2882 205.842 82.7615 205.842 82.2C205.831 81.9022 205.629 81.598 205.322 81.5405C204.315 81.318 203.267 81.6012 202.263 81.3512C201.692 81.2322 201.148 80.8406 200.994 80.2629C200.678 78.8914 201.358 77.3169 202.652 76.6914ZM77.8208 76.2464C79.171 76.0206 80.5856 76.1007 81.877 76.5684C81.7659 77.0709 81.6663 77.5766 81.5682 78.0831C80.4076 77.6138 79.1015 77.431 77.8723 77.7255C77.2148 77.8841 76.5621 78.1737 76.1105 78.69C75.3574 79.5347 75.0878 80.7015 75.1017 81.8051C75.1148 82.4565 75.3827 83.1604 75.9814 83.493C76.8088 83.9703 77.8192 83.8967 78.7275 83.7454C78.9129 82.8537 79.0885 81.9605 79.2723 81.0688C79.8358 81.0672 80.3994 81.0688 80.963 81.0704C80.7033 82.3375 80.4631 83.6078 80.1854 84.8701C78.5943 85.3993 76.8268 85.5465 75.2169 85.0093C73.9934 84.6468 73.2288 83.3594 73.3056 82.1271C73.2983 80.6505 73.6944 79.1285 74.6296 77.9561C75.408 76.9908 76.6079 76.4406 77.8208 76.2464ZM42.3821 62.2072C43.5525 61.9968 44.7908 62.4224 45.641 63.2316C46.3288 63.8675 46.7241 64.7778 46.7845 65.7018C46.8466 66.8411 46.3443 67.9876 45.4875 68.7458C44.9353 69.2418 44.2198 69.5387 43.4864 69.6463C42.0308 69.8365 40.4953 69.0953 39.7634 67.8323C39.2603 67.0377 39.1623 66.0498 39.3175 65.1395C39.6042 63.6612 40.889 62.4564 42.3821 62.2072Z" fill="white"/>
</g>
<path d="M0 16.3413H83L69.3992 29.9421L83 43.543H0V16.3413Z" fill="#EF0C27"/>
<path d="M12.669 26.0686V33.3413H11.6605L7.96378 28.0075H7.89631V33.3413H6.79901V26.0686H7.81463L11.5149 31.4095H11.5824V26.0686H12.669ZM16.5353 33.4514C15.9979 33.4514 15.5351 33.3366 15.1468 33.1069C14.7609 32.8749 14.4627 32.5494 14.252 32.1304C14.0436 31.709 13.9395 31.2154 13.9395 30.6495C13.9395 30.0908 14.0436 29.5984 14.252 29.1723C14.4627 28.7461 14.7562 28.4135 15.1326 28.1744C15.5114 27.9353 15.9541 27.8157 16.4608 27.8157C16.7685 27.8157 17.0668 27.8666 17.3556 27.9684C17.6445 28.0702 17.9037 28.23 18.1333 28.4478C18.363 28.6656 18.5441 28.9486 18.6767 29.2966C18.8092 29.6422 18.8755 30.0624 18.8755 30.5572V30.9336H14.5396V30.1382H17.835C17.835 29.8588 17.7782 29.6114 17.6646 29.396C17.551 29.1782 17.3912 29.0066 17.1852 28.8811C16.9816 28.7556 16.7425 28.6929 16.4679 28.6929C16.1696 28.6929 15.9092 28.7663 15.6866 28.913C15.4664 29.0575 15.296 29.2468 15.1752 29.4812C15.0569 29.7132 14.9977 29.9654 14.9977 30.2376V30.8591C14.9977 31.2236 15.0616 31.5338 15.1895 31.7895C15.3197 32.0451 15.5008 32.2405 15.7328 32.3754C15.9648 32.508 16.2359 32.5743 16.546 32.5743C16.7472 32.5743 16.9307 32.5459 17.0964 32.489C17.2621 32.4299 17.4054 32.3423 17.5261 32.2263C17.6468 32.1102 17.7392 31.967 17.8031 31.7966L18.8081 31.9777C18.7276 32.2736 18.5832 32.5328 18.3748 32.7554C18.1689 32.9755 17.9096 33.1472 17.5971 33.2703C17.287 33.391 16.9331 33.4514 16.5353 33.4514ZM21.2264 33.3413L19.6213 27.8868H20.7186L21.7875 31.8924H21.8407L22.9132 27.8868H24.0105L25.0758 31.8747H25.1291L26.1909 27.8868H27.2882L25.6866 33.3413H24.6035L23.4956 29.4031H23.4139L22.3059 33.3413H21.2264ZM35.9494 28.3662C35.8807 28.1507 35.7884 27.9578 35.6724 27.7873C35.5588 27.6145 35.4226 27.4677 35.264 27.347C35.1054 27.2239 34.9243 27.1304 34.7207 27.0665C34.5195 27.0025 34.2981 26.9706 34.0566 26.9706C33.6471 26.9706 33.2778 27.0759 32.9487 27.2866C32.6196 27.4973 32.3592 27.8063 32.1674 28.2135C31.978 28.6183 31.8833 29.1143 31.8833 29.7014C31.8833 30.2909 31.9792 30.7892 32.171 31.1964C32.3627 31.6036 32.6255 31.9126 32.9593 32.1233C33.2931 32.334 33.6731 32.4393 34.0993 32.4393C34.4946 32.4393 34.8391 32.3588 35.1326 32.1978C35.4286 32.0369 35.657 31.8096 35.818 31.516C35.9814 31.2201 36.063 30.8721 36.063 30.472L36.3471 30.5253H34.2662V29.6197H37.1248V30.4471C37.1248 31.0579 36.9946 31.5882 36.7342 32.038C36.4761 32.4855 36.1187 32.8311 35.6618 33.075C35.2072 33.3188 34.6864 33.4407 34.0993 33.4407C33.4411 33.4407 32.8635 33.2892 32.3663 32.9862C31.8715 32.6832 31.4856 32.2535 31.2086 31.6971C30.9316 31.1384 30.7931 30.4755 30.7931 29.7085C30.7931 29.1285 30.8736 28.6076 31.0346 28.146C31.1956 27.6843 31.4217 27.2925 31.7129 26.9706C32.0065 26.6462 32.3509 26.3988 32.7463 26.2284C33.144 26.0556 33.5784 25.9691 34.0495 25.9691C34.4425 25.9691 34.8083 26.0272 35.1468 26.1432C35.4877 26.2592 35.7908 26.4237 36.0559 26.6368C36.3234 26.8498 36.5448 27.1031 36.72 27.3967C36.8952 27.6879 37.0136 28.0111 37.0751 28.3662H35.9494ZM40.0199 33.462C39.6742 33.462 39.3617 33.3981 39.0824 33.2703C38.803 33.1401 38.5817 32.9519 38.4183 32.7057C38.2573 32.4594 38.1768 32.1576 38.1768 31.8001C38.1768 31.4924 38.236 31.239 38.3544 31.0402C38.4728 30.8413 38.6326 30.6839 38.8338 30.5679C39.035 30.4519 39.2599 30.3643 39.5085 30.3051C39.7571 30.2459 40.0104 30.2009 40.2685 30.1701C40.5952 30.1323 40.8603 30.1015 41.0639 30.0778C41.2675 30.0518 41.4155 30.0103 41.5078 29.9535C41.6001 29.8967 41.6463 29.8044 41.6463 29.6765V29.6517C41.6463 29.3415 41.5587 29.1013 41.3835 28.9308C41.2107 28.7603 40.9527 28.6751 40.6094 28.6751C40.2519 28.6751 39.9702 28.7544 39.7642 28.913C39.5606 29.0693 39.4197 29.2433 39.3416 29.4351L38.3438 29.2078C38.4621 28.8763 38.6349 28.6088 38.8622 28.4052C39.0919 28.1993 39.3558 28.0501 39.6541 27.9578C39.9524 27.8631 40.2661 27.8157 40.5952 27.8157C40.813 27.8157 41.0438 27.8418 41.2876 27.8939C41.5339 27.9436 41.7635 28.0359 41.9766 28.1709C42.192 28.3058 42.3684 28.4987 42.5057 28.7497C42.643 28.9983 42.7116 29.3214 42.7116 29.7191V33.3413H41.6747V32.5956H41.6321C41.5634 32.7329 41.4605 32.8678 41.3232 33.0004C41.1858 33.133 41.0095 33.2431 40.794 33.3307C40.5786 33.4182 40.3205 33.462 40.0199 33.462ZM40.2507 32.6098C40.5443 32.6098 40.7952 32.5518 41.0036 32.4358C41.2143 32.3198 41.3741 32.1682 41.483 31.9812C41.5942 31.7918 41.6499 31.5894 41.6499 31.374V30.6709C41.612 30.7087 41.5386 30.7442 41.4297 30.7774C41.3232 30.8082 41.2012 30.8354 41.0639 30.8591C40.9266 30.8804 40.7929 30.9005 40.6626 30.9194C40.5324 30.936 40.4235 30.9502 40.3359 30.962C40.13 30.9881 39.9418 31.0319 39.7713 31.0934C39.6032 31.155 39.4683 31.2438 39.3665 31.3598C39.267 31.4734 39.2173 31.6249 39.2173 31.8143C39.2173 32.0771 39.3144 32.276 39.5085 32.4109C39.7027 32.5435 39.95 32.6098 40.2507 32.6098ZM44.1259 33.3413V27.8868H45.1451V28.7745H45.2125C45.3262 28.4739 45.512 28.2395 45.7701 28.0714C46.0281 27.901 46.3371 27.8157 46.6969 27.8157C47.0615 27.8157 47.3669 27.901 47.6131 28.0714C47.8617 28.2419 48.0452 28.4763 48.1635 28.7745H48.2203C48.3506 28.4834 48.5577 28.2513 48.8418 28.0785C49.1259 27.9033 49.4644 27.8157 49.8574 27.8157C50.3522 27.8157 50.7559 27.9708 51.0684 28.2809C51.3832 28.5911 51.5407 29.0586 51.5407 29.6836V33.3413H50.4789V29.7831C50.4789 29.4138 50.3783 29.1462 50.177 28.9805C49.9758 28.8148 49.7355 28.7319 49.4561 28.7319C49.1105 28.7319 48.8418 28.8385 48.65 29.0515C48.4583 29.2622 48.3624 29.5333 48.3624 29.8647V33.3413H47.3042V29.7156C47.3042 29.4197 47.2118 29.1817 47.0272 29.0018C46.8425 28.8219 46.6022 28.7319 46.3063 28.7319C46.1051 28.7319 45.9192 28.7852 45.7488 28.8917C45.5807 28.9959 45.4445 29.1415 45.3404 29.3285C45.2386 29.5156 45.1877 29.7322 45.1877 29.9784V33.3413H44.1259ZM55.3146 33.4514C54.7772 33.4514 54.3144 33.3366 53.9261 33.1069C53.5402 32.8749 53.242 32.5494 53.0312 32.1304C52.8229 31.709 52.7188 31.2154 52.7188 30.6495C52.7188 30.0908 52.8229 29.5984 53.0312 29.1723C53.242 28.7461 53.5355 28.4135 53.9119 28.1744C54.2907 27.9353 54.7334 27.8157 55.2401 27.8157C55.5478 27.8157 55.8461 27.8666 56.1349 27.9684C56.4238 28.0702 56.683 28.23 56.9126 28.4478C57.1423 28.6656 57.3234 28.9486 57.456 29.2966C57.5885 29.6422 57.6548 30.0624 57.6548 30.5572V30.9336H53.3189V30.1382H56.6143C56.6143 29.8588 56.5575 29.6114 56.4439 29.396C56.3303 29.1782 56.1705 29.0066 55.9645 28.8811C55.7609 28.7556 55.5218 28.6929 55.2472 28.6929C54.9489 28.6929 54.6884 28.7663 54.4659 28.913C54.2457 29.0575 54.0753 29.2468 53.9545 29.4812C53.8362 29.7132 53.777 29.9654 53.777 30.2376V30.8591C53.777 31.2236 53.8409 31.5338 53.9688 31.7895C54.099 32.0451 54.2801 32.2405 54.5121 32.3754C54.7441 32.508 55.0152 32.5743 55.3253 32.5743C55.5265 32.5743 55.71 32.5459 55.8757 32.489C56.0414 32.4299 56.1847 32.3423 56.3054 32.2263C56.4261 32.1102 56.5185 31.967 56.5824 31.7966L57.5874 31.9777C57.5069 32.2736 57.3625 32.5328 57.1541 32.7554C56.9482 32.9755 56.6889 33.1472 56.3764 33.2703C56.0663 33.391 55.7124 33.4514 55.3146 33.4514ZM62.9203 29.2184L61.9579 29.3889C61.9177 29.2658 61.8538 29.1486 61.7662 29.0373C61.6809 28.9261 61.5649 28.8349 61.4181 28.7639C61.2714 28.6929 61.0879 28.6574 60.8677 28.6574C60.5671 28.6574 60.3161 28.7248 60.1149 28.8598C59.9136 28.9924 59.813 29.164 59.813 29.3747C59.813 29.557 59.8805 29.7038 60.0154 29.815C60.1504 29.9263 60.3682 30.0174 60.6689 30.0885L61.5353 30.2873C62.0372 30.4033 62.4113 30.5821 62.6575 30.8236C62.9037 31.065 63.0268 31.3787 63.0268 31.7646C63.0268 32.0913 62.9321 32.3825 62.7427 32.6382C62.5557 32.8915 62.2941 33.0904 61.9579 33.2348C61.6241 33.3792 61.237 33.4514 60.7967 33.4514C60.1859 33.4514 59.6876 33.3212 59.3017 33.0608C58.9158 32.798 58.679 32.4251 58.5914 31.9422L59.6177 31.7859C59.6816 32.0534 59.813 32.2558 60.0119 32.3932C60.2108 32.5281 60.47 32.5956 60.7896 32.5956C61.1376 32.5956 61.4158 32.5234 61.6241 32.379C61.8324 32.2322 61.9366 32.0534 61.9366 31.8427C61.9366 31.6723 61.8727 31.529 61.7449 31.413C61.6194 31.297 61.4264 31.2094 61.166 31.1503L60.2427 30.9478C59.7337 30.8318 59.3573 30.6472 59.1135 30.3939C58.872 30.1406 58.7512 29.8198 58.7512 29.4315C58.7512 29.1095 58.8412 28.8278 59.0211 28.5863C59.2011 28.3449 59.4496 28.1566 59.7669 28.0217C60.0841 27.8844 60.4475 27.8157 60.8571 27.8157C61.4466 27.8157 61.9106 27.9436 62.2491 28.1993C62.5877 28.4526 62.8114 28.7923 62.9203 29.2184Z" fill="white"/>
<defs>
<clipPath id="clip0_1_3751">
<rect width="181" height="39" fill="white" transform="translate(34 46.3638)"/>
</clipPath>
</defs>
</svg>
