<svg width="250" height="130" viewBox="0 0 250 130" fill="none" xmlns="http://www.w3.org/2000/svg">
<rect width="249.25" height="129.22" rx="10" fill="#19191A"/>
<g clip-path="url(#clip0_1_3791)">
<path d="M71.3438 60.5543V76.484H68.9437V60.5543H64.6445V58.1782H75.6639V60.5543H71.3646H71.3438Z" fill="white"/>
<path d="M82.5289 70.6369H80.3375V76.484H77.9375V58.1782H83.1759C84.6576 58.3848 85.9098 58.984 86.9324 59.9964C88.1638 61.2154 88.769 62.6824 88.769 64.3972C88.769 66.1121 88.1638 67.5997 86.9324 68.8187C86.0768 69.6658 85.4298 70.1204 84.9915 70.2443L89.082 76.5047H86.1811L82.4871 70.6576L82.5289 70.6369ZM80.3375 60.5749V68.2609H82.5289C83.5933 68.2609 84.5115 67.889 85.2628 67.1245C86.0142 66.36 86.4107 65.4716 86.4107 64.3972C86.4107 63.3229 86.035 62.4344 85.2628 61.6906C84.5115 60.9468 83.5933 60.5749 82.5289 60.5749H80.3375Z" fill="white"/>
<path d="M94.1129 58.1782V76.4633H91.7129V58.1782H94.1129Z" fill="white"/>
<path d="M100.207 70.6369V76.484H97.8066V58.1782H103.045C104.527 58.3848 105.779 58.984 106.802 59.9964C108.033 61.2154 108.638 62.6824 108.638 64.3972C108.638 66.1121 108.033 67.579 106.802 68.7981C105.57 70.0171 104.109 70.6162 102.356 70.6162H100.165L100.207 70.6369ZM100.207 60.5749V68.2609H102.398C103.462 68.2609 104.381 67.889 105.132 67.1245C105.883 66.36 106.28 65.4716 106.28 64.3972C106.28 63.3229 105.904 62.4344 105.132 61.6906C104.381 60.9468 103.462 60.5749 102.398 60.5749H100.207Z" fill="white"/>
<path d="M111.037 76.484V58.1782H113.437V74.0873H120.053V76.4633H111.058L111.037 76.484Z" fill="white"/>
<path d="M132.764 58.1782V60.5543H125.188V66.1534H132.764V68.5295H125.188V74.1286H132.764V76.5047H122.809V58.1782H132.764Z" fill="white"/>
<path d="M158.852 73.5709L159.645 74.2733C157.85 75.9056 155.721 76.7113 153.28 76.7113C150.671 76.7113 148.438 75.8023 146.58 73.9634C144.723 72.1246 143.805 69.9345 143.805 67.3312C143.805 64.7279 144.723 62.5378 146.58 60.7196C148.438 58.9014 150.65 57.9717 153.28 57.9717C155.721 57.9717 157.85 58.7775 159.645 60.4097L158.852 61.1122C157.266 59.7072 155.408 59.0254 153.28 59.0254C150.963 59.0254 148.98 59.8312 147.353 61.4634C145.725 63.0956 144.89 65.0378 144.89 67.3312C144.89 69.6246 145.704 71.5874 147.353 73.2196C149.001 74.8518 150.963 75.6576 153.28 75.6576C155.408 75.6576 157.266 74.9552 158.852 73.5709Z" fill="white"/>
<path d="M163.567 68.2815V76.484H162.523V58.1782H163.567V67.2485H171.31V58.1782H172.353V76.4633H171.31V68.2609H163.567V68.2815Z" fill="white"/>
<path d="M185.042 58.1782V59.2113H176.84V66.8146H185.042V67.8476H176.84V75.4509H185.042V76.484H175.797V58.1782H185.042Z" fill="white"/>
<path d="M192.723 70.1204C192.723 70.1204 192.515 70.1204 192.41 70.1204H189.28V76.4633H188.236V58.1782H193.078C194.497 58.3642 195.687 58.9427 196.668 59.9344C197.836 61.0914 198.442 62.5171 198.442 64.1493C198.442 65.7815 197.857 67.2071 196.668 68.3848C195.854 69.1906 194.915 69.7278 193.85 69.9757L198.108 76.484H196.835L192.702 70.1204H192.723ZM189.28 59.2319V69.108H192.41C193.788 69.108 194.956 68.6328 195.937 67.6617C196.918 66.6906 197.398 65.5336 197.398 64.17C197.398 62.8063 196.918 61.6493 195.937 60.6782C194.956 59.7071 193.788 59.2319 192.41 59.2319H189.28Z" fill="white"/>
<path d="M205.307 70.1204C205.307 70.1204 205.099 70.1204 204.994 70.1204H201.864V76.4633H200.82V58.1782H205.662C207.081 58.3642 208.271 58.9427 209.252 59.9344C210.42 61.0914 211.026 62.5171 211.026 64.1493C211.026 65.7815 210.441 67.2071 209.252 68.3848C208.438 69.1906 207.499 69.7278 206.434 69.9757L210.692 76.484H209.419L205.286 70.1204H205.307ZM201.843 59.2319V69.108H204.973C206.351 69.108 207.52 68.6328 208.5 67.6617C209.481 66.6906 209.961 65.5336 209.961 64.17C209.961 62.8063 209.481 61.6493 208.5 60.6782C207.52 59.7071 206.351 59.2319 204.973 59.2319H201.843Z" fill="white"/>
<path d="M218.456 69.0876L212.111 58.1992H213.301L218.978 67.9513L224.675 58.1992H225.865L219.499 69.0876V76.4843H218.456V69.0876Z" fill="white"/>
<path d="M42.3761 56.1122H36.4073L39.2248 48.8808H32.4629C29.3741 48.8808 26.8906 46.4221 26.8906 43.3643H47.3432L42.397 56.1122H42.3761Z" fill="white"/>
<path d="M38.8896 58.6333H35.4252L33.2756 64.1498H38.8896C44.1071 64.1498 48.3437 68.344 48.3437 73.5093C48.3437 78.6746 44.1071 82.8688 38.8896 82.8688C33.6721 82.8688 29.4356 78.6746 29.4356 73.5093C29.4356 73.0135 29.4773 72.5383 29.5608 72.0631H23.9259C23.8842 72.5383 23.8633 73.0135 23.8633 73.5093C23.8633 81.7118 30.6043 88.3854 38.8896 88.3854C47.175 88.3854 53.916 81.7118 53.916 73.5093C53.916 65.3069 47.175 58.6333 38.8896 58.6333Z" fill="white"/>
</g>
<defs>
<clipPath id="clip0_1_3791">
<rect width="202" height="45" fill="white" transform="translate(23.8633 43.3638)"/>
</clipPath>
</defs>
</svg>
