<svg width="250" height="130" viewBox="0 0 250 130" fill="none" xmlns="http://www.w3.org/2000/svg">
<rect width="249.25" height="129.22" rx="10" fill="#19191A"/>
<path d="M60.0574 75.8255L52.7021 83.1767C52.2845 83.5902 51.7203 83.8222 51.1323 83.8222C50.5443 83.8222 49.9802 83.5902 49.5626 83.1767L34.4714 68.0972C34.0569 67.6809 33.8242 67.1176 33.8242 66.5305C33.8242 65.9433 34.0569 65.38 34.4714 64.9637L38.6336 60.8055H42.3589C46.5598 60.8055 48.4804 59.8075 49.1553 57.2413H42.2072L49.5626 49.8902C49.9802 49.4767 50.5443 49.2446 51.1323 49.2446C51.7203 49.2446 52.2845 49.4767 52.7021 49.8902L60.0574 57.2413H56.2162C50.731 57.2413 49.1226 58.9313 49.1226 63.6182V69.4486C49.1226 74.1385 50.731 75.8285 56.2162 75.8285L60.0574 75.8255Z" fill="white"/>
<path d="M67.7884 64.9697L63.6261 60.8115H56.4016C53.8656 60.8115 53.2383 61.5481 53.2383 63.8381V69.2883C53.2383 71.605 53.8656 72.2882 56.4284 72.2882H63.5994L67.7854 68.1032C68.2003 67.6873 68.4335 67.1243 68.434 66.5371C68.4346 65.9499 68.2025 65.3864 67.7884 64.9697ZM60.769 70.2715H58.6611V66.1578H60.769V70.2715ZM60.769 64.8836H58.6611V62.8342H60.769V64.8836Z" fill="white"/>
<path d="M85.7266 63.6721H89.2675V72.3093H92.5735V63.6721H96.1174V60.8208H85.7266V63.6721Z" fill="white"/>
<path d="M120.535 63.6721H124.076V72.3093H127.385V63.6721H130.929V60.8208H120.535V63.6721Z" fill="white"/>
<path d="M79.2781 60.8204C78.5351 60.792 77.7927 60.8925 77.084 61.1174C76.5437 61.3118 76.0525 61.622 75.645 62.0263C75.2543 62.4293 74.9685 62.9219 74.8126 63.4609C74.6582 64.0796 74.5823 64.7152 74.5866 65.3528V67.7705C74.5777 68.4074 74.6537 69.0427 74.8126 69.6596C74.9502 70.2062 75.2387 70.7032 75.645 71.0941C76.0517 71.4994 76.5431 71.8098 77.084 72.003C77.7927 72.2281 78.5351 72.3286 79.2781 72.3H84.4036V69.2853H79.5784C78.8976 69.2853 78.4457 69.1338 78.2167 68.8309C77.9385 68.4062 77.806 67.9028 77.8392 67.3963V65.4301C77.8392 64.7499 77.9908 64.2212 78.2167 63.9925C78.4427 63.7638 78.8976 63.6153 79.5784 63.6153H84.4036V60.8145L79.2781 60.8204Z" fill="white"/>
<path d="M171.165 60.8204C170.421 60.7907 169.678 60.8912 168.968 61.1174C168.432 61.3133 167.946 61.6246 167.544 62.0292C167.151 62.4335 166.865 62.9283 166.709 63.4698C166.556 64.0887 166.48 64.7242 166.483 65.3618V67.7824C166.475 68.4202 166.551 69.0563 166.709 69.6744C166.845 70.2275 167.134 70.7309 167.544 71.1268C167.951 71.5312 168.443 71.8405 168.983 72.0327C169.693 72.2589 170.436 72.3595 171.18 72.3297H176.315V69.2972H171.469C170.787 69.2972 170.332 69.1457 170.104 68.8428C169.826 68.417 169.693 67.9126 169.727 67.4052V65.436C169.727 64.7558 169.878 64.2242 170.104 63.9985C170.33 63.7727 170.788 63.6212 171.469 63.6212H176.3V60.8145L171.165 60.8204Z" fill="white"/>
<path d="M177.477 63.6721H181.017V72.3093H184.324V63.6721H187.87V60.8208H177.477V63.6721Z" fill="white"/>
<path d="M102.301 72.3153V60.8208H105.532V72.3153H102.301Z" fill="white"/>
<path d="M135.521 69.3035H140.929V72.3153H132.289V60.8208H140.854V63.7018H135.521V65.3919H139.3V67.7175H135.521V69.3035Z" fill="white"/>
<path d="M210.587 69.3035H216.004V72.3153H207.355V60.8208H215.921V63.7018H210.587V65.3919H214.354V67.7175H210.587V69.3035Z" fill="white"/>
<path d="M188.982 72.3153V60.8208H192.22V72.3153H188.982Z" fill="white"/>
<path d="M202.469 60.8208H206.227V60.9693L202.252 72.3153H197.367L193.354 60.9693V60.8208H197.186L199.784 69.3808L202.469 60.8208Z" fill="white"/>
<path d="M166.941 72.3093H158.244L159.24 69.8382H162.594L160.302 64.4741H159.927L156.499 72.3272H153.268L158.723 60.8208H161.506L166.941 72.3093Z" fill="white"/>
<path d="M152.875 65.2285V64.0909C152.875 63.2244 152.531 62.3934 151.917 61.7807C151.304 61.1679 150.472 60.8237 149.605 60.8237H142.211V72.3152H145.443V68.4986H145.841L148.984 72.3152H152.834V72.2232L149.76 68.4837C150.598 68.4441 151.389 68.0841 151.969 67.4782C152.549 66.8723 152.873 66.0668 152.875 65.2285ZM149.409 64.9107C149.409 65.173 149.304 65.4245 149.119 65.61C148.933 65.7955 148.681 65.8997 148.419 65.8997H145.365V63.877H148.428C148.689 63.8794 148.938 63.9846 149.122 64.1699C149.306 64.3551 149.409 64.6053 149.409 64.8661V64.9107Z" fill="white"/>
<path d="M111.113 72.3093V64.9226L114.362 72.3093H119.172V60.8208H115.938V68.46L112.54 60.8208H107.881V72.3093H111.113Z" fill="white"/>
</svg>
