<svg width="250" height="130" viewBox="0 0 250 130" fill="none" xmlns="http://www.w3.org/2000/svg">
<g clip-path="url(#clip0_1_3847)">
<rect width="249.25" height="129.22" rx="10" fill="#19191A"/>
<g clip-path="url(#clip1_1_3847)">
<path fill-rule="evenodd" clip-rule="evenodd" d="M133.495 35.4854H118.668L121.25 65.7594H126.065H130.88L133.495 35.4854ZM152.365 47.2672C142.37 47.2672 135.969 49.8442 134.902 57.1271H147.255C147.648 55.2784 149.333 54.6621 152.365 54.6621C156.295 54.6621 157.249 56.0627 157.249 58.8078V59.536C137.485 58.5837 133.274 62.7293 133.274 69.676C133.274 75.8384 137.822 78.7516 146.301 78.7516C151.691 78.7516 155.228 76.9589 157.249 74.9421V77.9112H171.062V58.8078C171.062 48.9479 162.247 47.2672 152.365 47.2672ZM157.249 69.732C155.734 71.1326 153.376 72.141 150.399 72.141C148.603 72.141 146.525 71.7488 146.525 69.4519C146.525 66.3707 150.343 66.1466 157.249 66.4828V69.732ZM98.252 47.2672C107.292 47.2672 118.241 51.861 117.455 65.7545H91.5704C92.3003 68.5556 94.4339 70.5163 98.5328 70.5163C101.396 70.5163 103.249 69.4519 104.372 67.8273H117.006C115.097 76.0065 106.899 78.7516 98.5328 78.7516C88.6507 78.7516 78.4316 74.5499 78.4316 63.0094C78.4316 51.4689 88.5383 47.2672 98.252 47.2672ZM104.428 59.9282C103.642 57.1831 101.789 55.5024 98.252 55.5024C94.3217 55.5024 92.4126 57.3512 91.6265 59.9282H104.428ZM93.4925 89.3274H87.0166V91.7707H90.0253C89.7388 92.5138 89.0081 93.1995 87.4464 93.1995C85.4979 93.1995 84.2228 92.1849 84.2228 90.2707C84.2228 88.3706 85.2113 87.3559 87.1599 87.3559C88.6069 87.3559 89.3376 87.8134 89.7818 88.6133H93.2776C92.6329 86.0986 90.0827 85.0701 87.1742 85.0701C83.9506 85.0701 80.7842 86.4559 80.7842 90.2707C80.7842 94.0995 83.9076 95.4854 87.4321 95.4854C91.3148 95.4854 93.8794 93.7138 93.4925 89.3274ZM109.234 95.2711H112.772L108.13 85.2701H103.755L99.1274 95.2711H102.666L103.297 93.7282H108.589L109.234 95.2711ZM104.242 91.4134L105.682 87.799H106.246L107.658 91.4134H104.242ZM151.998 92.9707H145.365V91.2993H151.454V88.9845H145.365V87.5847H151.855V85.2701H141.969V95.2711H151.998V92.9707ZM165.635 88.9865H165.634C164.137 88.842 163.091 88.7413 163.091 88.1134C163.091 87.5418 163.807 87.3415 165.183 87.3415C166.487 87.3415 167.289 87.6415 167.289 88.3277H170.742C170.742 86.599 169.481 85.0701 165.226 85.0701C161.329 85.0701 159.71 86.2417 159.71 88.2704C159.71 90.2707 160.799 90.9136 163.879 91.385C164.48 91.4772 164.997 91.5485 165.44 91.6093L165.441 91.6098C167.123 91.841 167.733 91.9252 167.733 92.4564C167.733 93.0136 166.931 93.2139 165.584 93.2139C164.18 93.2139 163.034 92.9568 163.034 92.0279H159.48C159.48 94.1279 161.157 95.4854 165.398 95.4854C169.338 95.4854 171.387 94.4996 171.387 92.0991C171.387 89.5855 169.221 89.3588 166.113 89.0334L166.057 89.0274C165.913 89.0134 165.772 88.9995 165.635 88.9865ZM128.46 85.2701L126.11 91.842L123.761 85.2701H118.803V95.2711H122.199V88.7702L124.606 95.2711H127.609L130.016 88.7702L130.022 95.2711H133.418V85.2701H128.46Z" fill="white"/>
<path fill-rule="evenodd" clip-rule="evenodd" d="M130.716 74.5223C129.79 74.046 128.799 73.7047 127.776 73.509C128.799 73.3133 129.79 72.972 130.716 72.4956C131.155 72.2727 131.403 71.8976 131.403 71.4221C131.403 70.8246 130.98 70.3475 130.383 70.2507C130.129 70.2127 129.893 70.0955 129.71 69.9159C129.53 69.7332 129.413 69.4984 129.375 69.2452C129.278 68.6493 128.798 68.2266 128.201 68.2266C127.724 68.2266 127.348 68.4746 127.125 68.9125C126.647 69.8373 126.305 70.8257 126.109 71.8474C125.913 70.8256 125.572 69.837 125.095 68.9119C124.871 68.474 124.496 68.2261 124.019 68.2261C123.42 68.2261 122.942 68.6488 122.845 69.2447C122.807 69.498 122.69 69.7328 122.51 69.9154C122.327 70.0951 122.091 70.2123 121.837 70.2502C121.24 70.347 120.816 70.8257 120.816 71.4216C120.816 71.8971 121.065 72.2722 121.504 72.4951C122.43 72.9715 123.42 73.3127 124.444 73.5085C123.42 73.7042 122.43 74.0455 121.504 74.5218C121.065 74.7447 120.816 75.1193 120.816 75.5949C120.816 76.1923 121.24 76.6694 121.837 76.7668C122.091 76.8046 122.327 76.9218 122.51 77.1015C122.689 77.2843 122.807 77.519 122.845 77.7723C122.942 78.3681 123.422 78.7909 124.019 78.7909C124.496 78.7909 124.871 78.5429 125.095 78.105C125.572 77.1809 125.915 76.1932 126.111 75.1721C126.307 76.1932 126.649 77.1809 127.127 78.105C127.35 78.5429 127.725 78.7909 128.202 78.7909C128.801 78.7909 129.279 78.3681 129.376 77.7723C129.415 77.5191 129.532 77.2845 129.712 77.1015C129.895 76.922 130.13 76.8048 130.384 76.7668C130.981 76.6694 131.405 76.1913 131.405 75.5949C131.403 75.1198 131.155 74.7452 130.716 74.5223Z" fill="white"/>
</g>
<path d="M-0.25 16.1216H82.75L69.1492 29.7224L82.75 43.3233H-0.25V16.1216Z" fill="#EF0C27"/>
<path d="M12.419 25.8489V33.1216H11.4105L7.71378 27.7878H7.64631V33.1216H6.54901V25.8489H7.56463L11.2649 31.1898H11.3324V25.8489H12.419ZM16.2853 33.2317C15.7479 33.2317 15.2851 33.1168 14.8968 32.8872C14.5109 32.6552 14.2127 32.3297 14.002 31.9106C13.7936 31.4892 13.6895 30.9956 13.6895 30.4298C13.6895 29.8711 13.7936 29.3787 14.002 28.9525C14.2127 28.5264 14.5062 28.1938 14.8826 27.9547C15.2614 27.7156 15.7041 27.596 16.2108 27.596C16.5185 27.596 16.8168 27.6469 17.1056 27.7487C17.3945 27.8505 17.6537 28.0103 17.8833 28.2281C18.113 28.4459 18.2941 28.7288 18.4267 29.0768C18.5592 29.4225 18.6255 29.8427 18.6255 30.3375V30.7139H14.2896V29.9185H17.585C17.585 29.6391 17.5282 29.3917 17.4146 29.1763C17.301 28.9585 17.1412 28.7868 16.9352 28.6614C16.7316 28.5359 16.4925 28.4731 16.2179 28.4731C15.9196 28.4731 15.6592 28.5465 15.4366 28.6933C15.2164 28.8377 15.046 29.0271 14.9252 29.2615C14.8069 29.4935 14.7477 29.7456 14.7477 30.0179V30.6393C14.7477 31.0039 14.8116 31.3141 14.9395 31.5697C15.0697 31.8254 15.2508 32.0207 15.4828 32.1557C15.7148 32.2882 15.9859 32.3545 16.296 32.3545C16.4972 32.3545 16.6807 32.3261 16.8464 32.2693C17.0121 32.2101 17.1554 32.1225 17.2761 32.0065C17.3968 31.8905 17.4892 31.7473 17.5531 31.5768L18.5581 31.7579C18.4776 32.0539 18.3332 32.3131 18.1248 32.5356C17.9189 32.7558 17.6596 32.9275 17.3471 33.0506C17.037 33.1713 16.6831 33.2317 16.2853 33.2317ZM20.9764 33.1216L19.3713 27.667H20.4686L21.5375 31.6727H21.5907L22.6632 27.667H23.7605L24.8258 31.655H24.8791L25.9409 27.667H27.0382L25.4366 33.1216H24.3535L23.2456 29.1834H23.1639L22.0559 33.1216H20.9764ZM35.6994 28.1464C35.6307 27.931 35.5384 27.7381 35.4224 27.5676C35.3088 27.3948 35.1726 27.248 35.014 27.1273C34.8554 27.0042 34.6743 26.9106 34.4707 26.8467C34.2695 26.7828 34.0481 26.7508 33.8066 26.7508C33.3971 26.7508 33.0278 26.8562 32.6987 27.0669C32.3696 27.2776 32.1092 27.5865 31.9174 27.9937C31.728 28.3986 31.6333 28.8945 31.6333 29.4817C31.6333 30.0712 31.7292 30.5695 31.921 30.9767C32.1127 31.3839 32.3755 31.6928 32.7093 31.9035C33.0431 32.1142 33.4231 32.2196 33.8493 32.2196C34.2446 32.2196 34.5891 32.1391 34.8826 31.9781C35.1786 31.8171 35.407 31.5899 35.568 31.2963C35.7314 31.0004 35.813 30.6524 35.813 30.2523L36.0971 30.3055H34.0162V29.4H36.8748V30.2274C36.8748 30.8382 36.7446 31.3685 36.4842 31.8183C36.2261 32.2658 35.8687 32.6114 35.4118 32.8552C34.9572 33.0991 34.4364 33.221 33.8493 33.221C33.1911 33.221 32.6135 33.0695 32.1163 32.7665C31.6215 32.4634 31.2356 32.0338 30.9586 31.4774C30.6816 30.9187 30.5431 30.2558 30.5431 29.4888C30.5431 28.9088 30.6236 28.3879 30.7846 27.9263C30.9456 27.4646 31.1717 27.0728 31.4629 26.7508C31.7565 26.4265 32.1009 26.1791 32.4963 26.0087C32.894 25.8358 33.3284 25.7494 33.7995 25.7494C34.1925 25.7494 34.5583 25.8074 34.8968 25.9234C35.2377 26.0394 35.5408 26.204 35.8059 26.417C36.0734 26.6301 36.2948 26.8834 36.47 27.177C36.6452 27.4682 36.7636 27.7913 36.8251 28.1464H35.6994ZM39.7699 33.2423C39.4242 33.2423 39.1117 33.1784 38.8324 33.0506C38.553 32.9204 38.3317 32.7321 38.1683 32.4859C38.0073 32.2397 37.9268 31.9379 37.9268 31.5804C37.9268 31.2726 37.986 31.0193 38.1044 30.8204C38.2228 30.6216 38.3826 30.4641 38.5838 30.3481C38.785 30.2321 39.0099 30.1445 39.2585 30.0854C39.5071 30.0262 39.7604 29.9812 40.0185 29.9504C40.3452 29.9125 40.6103 29.8818 40.8139 29.8581C41.0175 29.832 41.1655 29.7906 41.2578 29.7338C41.3501 29.677 41.3963 29.5847 41.3963 29.4568V29.432C41.3963 29.1218 41.3087 28.8815 41.1335 28.7111C40.9607 28.5406 40.7027 28.4554 40.3594 28.4554C40.0019 28.4554 39.7202 28.5347 39.5142 28.6933C39.3106 28.8496 39.1697 29.0236 39.0916 29.2153L38.0938 28.9881C38.2121 28.6566 38.3849 28.3891 38.6122 28.1855C38.8419 27.9795 39.1058 27.8304 39.4041 27.7381C39.7024 27.6434 40.0161 27.596 40.3452 27.596C40.563 27.596 40.7938 27.6221 41.0376 27.6741C41.2839 27.7239 41.5135 27.8162 41.7266 27.9511C41.942 28.0861 42.1184 28.279 42.2557 28.53C42.393 28.7785 42.4616 29.1017 42.4616 29.4994V33.1216H41.4247V32.3758H41.3821C41.3134 32.5132 41.2105 32.6481 41.0732 32.7807C40.9358 32.9132 40.7595 33.0233 40.544 33.1109C40.3286 33.1985 40.0705 33.2423 39.7699 33.2423ZM40.0007 32.39C40.2943 32.39 40.5452 32.332 40.7536 32.216C40.9643 32.1 41.1241 31.9485 41.233 31.7615C41.3442 31.5721 41.3999 31.3697 41.3999 31.1543V30.4511C41.362 30.489 41.2886 30.5245 41.1797 30.5577C41.0732 30.5884 40.9512 30.6157 40.8139 30.6393C40.6766 30.6606 40.5429 30.6808 40.4126 30.6997C40.2824 30.7163 40.1735 30.7305 40.0859 30.7423C39.88 30.7684 39.6918 30.8122 39.5213 30.8737C39.3532 30.9353 39.2183 31.024 39.1165 31.14C39.017 31.2537 38.9673 31.4052 38.9673 31.5946C38.9673 31.8574 39.0644 32.0562 39.2585 32.1912C39.4527 32.3238 39.7 32.39 40.0007 32.39ZM43.8759 33.1216V27.667H44.8951V28.5548H44.9625C45.0762 28.2542 45.262 28.0198 45.5201 27.8517C45.7781 27.6812 46.0871 27.596 46.4469 27.596C46.8115 27.596 47.1169 27.6812 47.3631 27.8517C47.6117 28.0221 47.7952 28.2565 47.9135 28.5548H47.9703C48.1006 28.2636 48.3077 28.0316 48.5918 27.8588C48.8759 27.6836 49.2144 27.596 49.6074 27.596C50.1022 27.596 50.5059 27.7511 50.8184 28.0612C51.1332 28.3713 51.2907 28.8389 51.2907 29.4639V33.1216H50.2289V29.5633C50.2289 29.194 50.1283 28.9265 49.927 28.7608C49.7258 28.5951 49.4855 28.5122 49.2061 28.5122C48.8605 28.5122 48.5918 28.6187 48.4 28.8318C48.2083 29.0425 48.1124 29.3136 48.1124 29.645V33.1216H47.0542V29.4959C47.0542 29.1999 46.9618 28.962 46.7772 28.7821C46.5925 28.6022 46.3522 28.5122 46.0563 28.5122C45.8551 28.5122 45.6692 28.5655 45.4988 28.672C45.3307 28.7762 45.1945 28.9218 45.0904 29.1088C44.9886 29.2958 44.9377 29.5124 44.9377 29.7587V33.1216H43.8759ZM55.0646 33.2317C54.5272 33.2317 54.0644 33.1168 53.6761 32.8872C53.2902 32.6552 52.992 32.3297 52.7812 31.9106C52.5729 31.4892 52.4688 30.9956 52.4688 30.4298C52.4688 29.8711 52.5729 29.3787 52.7812 28.9525C52.992 28.5264 53.2855 28.1938 53.6619 27.9547C54.0407 27.7156 54.4834 27.596 54.9901 27.596C55.2978 27.596 55.5961 27.6469 55.8849 27.7487C56.1738 27.8505 56.433 28.0103 56.6626 28.2281C56.8923 28.4459 57.0734 28.7288 57.206 29.0768C57.3385 29.4225 57.4048 29.8427 57.4048 30.3375V30.7139H53.0689V29.9185H56.3643C56.3643 29.6391 56.3075 29.3917 56.1939 29.1763C56.0803 28.9585 55.9205 28.7868 55.7145 28.6614C55.5109 28.5359 55.2718 28.4731 54.9972 28.4731C54.6989 28.4731 54.4384 28.5465 54.2159 28.6933C53.9957 28.8377 53.8253 29.0271 53.7045 29.2615C53.5862 29.4935 53.527 29.7456 53.527 30.0179V30.6393C53.527 31.0039 53.5909 31.3141 53.7188 31.5697C53.849 31.8254 54.0301 32.0207 54.2621 32.1557C54.4941 32.2882 54.7652 32.3545 55.0753 32.3545C55.2765 32.3545 55.46 32.3261 55.6257 32.2693C55.7914 32.2101 55.9347 32.1225 56.0554 32.0065C56.1761 31.8905 56.2685 31.7473 56.3324 31.5768L57.3374 31.7579C57.2569 32.0539 57.1125 32.3131 56.9041 32.5356C56.6982 32.7558 56.4389 32.9275 56.1264 33.0506C55.8163 33.1713 55.4624 33.2317 55.0646 33.2317ZM62.6703 28.9987L61.7079 29.1692C61.6677 29.0461 61.6038 28.9289 61.5162 28.8176C61.4309 28.7063 61.3149 28.6152 61.1681 28.5442C61.0214 28.4731 60.8379 28.4376 60.6177 28.4376C60.3171 28.4376 60.0661 28.5051 59.8649 28.64C59.6636 28.7726 59.563 28.9443 59.563 29.155C59.563 29.3373 59.6305 29.484 59.7654 29.5953C59.9004 29.7066 60.1182 29.7977 60.4189 29.8687L61.2853 30.0676C61.7872 30.1836 62.1613 30.3623 62.4075 30.6038C62.6537 30.8453 62.7768 31.159 62.7768 31.5449C62.7768 31.8716 62.6821 32.1628 62.4927 32.4185C62.3057 32.6718 62.0441 32.8706 61.7079 33.015C61.3741 33.1595 60.987 33.2317 60.5467 33.2317C59.9359 33.2317 59.4376 33.1015 59.0517 32.841C58.6658 32.5783 58.429 32.2054 58.3414 31.7224L59.3677 31.5662C59.4316 31.8337 59.563 32.0361 59.7619 32.1734C59.9608 32.3084 60.22 32.3758 60.5396 32.3758C60.8876 32.3758 61.1658 32.3036 61.3741 32.1592C61.5824 32.0124 61.6866 31.8337 61.6866 31.623C61.6866 31.4525 61.6227 31.3093 61.4949 31.1933C61.3694 31.0773 61.1764 30.9897 60.916 30.9305L59.9927 30.7281C59.4837 30.6121 59.1073 30.4275 58.8635 30.1741C58.622 29.9208 58.5012 29.6 58.5012 29.2118C58.5012 28.8898 58.5912 28.6081 58.7711 28.3666C58.9511 28.1251 59.1996 27.9369 59.5169 27.802C59.8341 27.6647 60.1975 27.596 60.6071 27.596C61.1966 27.596 61.6606 27.7239 61.9991 27.9795C62.3377 28.2329 62.5614 28.5726 62.6703 28.9987Z" fill="white"/>
</g>
<defs>
<clipPath id="clip0_1_3847">
<rect width="249.25" height="129.22" rx="10" fill="white"/>
</clipPath>
<clipPath id="clip1_1_3847">
<rect width="93" height="60" fill="white" transform="translate(78.4316 35.4854)"/>
</clipPath>
</defs>
</svg>
