<svg width="250" height="130" viewBox="0 0 250 130" fill="none" xmlns="http://www.w3.org/2000/svg">
<rect width="249.25" height="129.22" rx="10" fill="#19191A"/>
<path d="M94.1367 47.6683V86.4292H95.2071V47.6683H94.1367Z" fill="white"/>
<path d="M56.4181 70.2545C56.3779 70.1361 56.3326 70.0215 56.2835 69.912C56.803 69.9774 57.3477 69.9296 57.8772 69.7495C59.7615 69.1147 60.7753 67.0707 60.1401 65.1841C59.5061 63.2975 57.4647 62.2837 55.5791 62.9184C55.0508 63.0973 54.5892 63.3882 54.2131 63.7547C54.1879 63.6439 54.1565 63.533 54.12 63.4222C53.4848 61.5356 51.4433 60.5218 49.559 61.1565C47.6748 61.7925 46.661 63.8365 47.2962 65.7231C47.5264 66.407 47.9415 66.9763 48.466 67.3944C48.8886 67.7395 49.3351 67.9825 49.9301 68.116C47.427 68.7747 45.2949 66.5355 45.2949 66.5355L47.5968 73.0592C47.5968 73.0592 48.3452 69.354 50.3339 68.9699C50.1163 69.2218 49.9364 69.4888 49.7993 69.7671C49.3754 70.6021 49.2735 71.5983 49.5955 72.5554C50.2295 74.4408 52.271 75.4559 54.1565 74.8211C56.0395 74.1851 57.0521 72.1399 56.4181 70.2545Z" fill="white"/>
<mask id="mask0_1_3865" style="mask-type:luminance" maskUnits="userSpaceOnUse" x="50" y="44" width="36" height="43">
<path d="M80.8207 58.0615C83.4572 57.7101 85.676 59.8738 85.676 59.8738L82.6786 52.272C82.6786 52.272 82.0949 55.8122 80.2937 56.9331C81.8396 53.2984 78.3528 49.6902 74.4459 50.8186C69.7013 52.1889 69.2925 56.2152 64.973 62.2415C65.0799 61.7528 65.1906 61.2856 65.3013 60.8347C66.5743 57.292 67.9818 54.7052 70.5378 50.9345C64.7906 49.233 61.885 47.8578 56.9253 44.4863C55.2259 50.2418 53.8523 53.1511 50.4863 58.1169C54.0234 59.1635 59.1529 61.1471 59.1529 61.1471C61.1705 61.9909 62.173 62.7176 62.7441 64.4102C62.7567 64.4467 62.8221 64.6671 62.8397 64.7427C63.207 66.1986 62.6108 67.3509 61.851 68.7577C60.7164 70.8571 59.397 73.3344 57.7366 76.4892C55.5442 80.6566 55.3328 83.1427 55.2637 85.3378C55.2398 86.1162 55.4674 86.5217 55.9039 86.4839H56.9605C57.397 86.4474 57.6045 86.1036 57.6435 85.5582C57.7957 83.4387 57.6573 81.5029 59.2611 77.0471C60.5856 73.3646 62.1667 69.4869 63.1164 67.0474C61.4737 73.7563 59.563 76.3595 61.7101 80.508C63.7177 84.387 69.3491 84.1616 70.4535 79.6932C74.3277 82.1729 78.5654 78.4564 77.3566 74.2588C75.9868 69.5083 71.9654 69.099 65.9466 64.7742C73.6296 66.4668 76.2861 68.7678 80.6886 66.4832C84.266 64.6268 84.3439 59.6786 80.8207 58.0615Z" fill="white"/>
</mask>
<g mask="url(#mask0_1_3865)">
<path d="M80.8207 58.0615C83.4572 57.7101 85.676 59.8738 85.676 59.8738L82.6786 52.272C82.6786 52.272 82.0949 55.8122 80.2937 56.9331C81.8396 53.2984 78.3528 49.6902 74.4459 50.8186C69.7013 52.1889 69.2925 56.2152 64.973 62.2415C65.0799 61.7528 65.1906 61.2856 65.3013 60.8347C66.5743 57.292 67.9818 54.7052 70.5378 50.9345C64.7906 49.233 61.885 47.8578 56.9253 44.4863C55.2259 50.2418 53.8523 53.1511 50.4863 58.1169C54.0234 59.1635 59.1529 61.1471 59.1529 61.1471C61.1705 61.9909 62.173 62.7176 62.7441 64.4102C62.7567 64.4467 62.8221 64.6671 62.8397 64.7427C63.207 66.1986 62.6108 67.3509 61.851 68.7577C60.7164 70.8571 59.397 73.3344 57.7366 76.4892C55.5442 80.6566 55.3328 83.1427 55.2637 85.3378C55.2398 86.1162 55.4674 86.5217 55.9039 86.4839H56.9605C57.397 86.4474 57.6045 86.1036 57.6435 85.5582C57.7957 83.4387 57.6573 81.5029 59.2611 77.0471C60.5856 73.3646 62.1667 69.4869 63.1164 67.0474C61.4737 73.7563 59.563 76.3595 61.7101 80.508C63.7177 84.387 69.3491 84.1616 70.4535 79.6932C74.3277 82.1729 78.5654 78.4564 77.3566 74.2588C75.9868 69.5083 71.9654 69.099 65.9466 64.7742C73.6296 66.4668 76.2861 68.7678 80.6886 66.4832C84.266 64.6268 84.3439 59.6786 80.8207 58.0615Z" fill="white"/>
</g>
<mask id="mask1_1_3865" style="mask-type:luminance" maskUnits="userSpaceOnUse" x="105" y="48" width="16" height="20">
<path d="M112.181 49.9727V57.7256H112.734C113.561 57.7256 114.239 57.5997 114.769 57.3465C115.297 57.0934 115.744 56.6702 116.106 56.077C116.468 55.4838 116.706 54.6816 116.822 53.6678H117.305V63.1486H116.822C116.649 61.3527 116.171 60.1701 115.39 59.5996C114.608 59.0304 113.722 58.7457 112.734 58.7457H112.181V64.5126C112.181 65.4798 112.235 66.0843 112.346 66.3261C112.454 66.5679 112.664 66.777 112.975 66.9558C113.286 67.1347 113.705 67.2241 114.234 67.2241H114.856V67.7417H105.008V67.2241H105.628C106.18 67.2241 106.623 67.1258 106.956 66.9306C107.198 66.8034 107.381 66.5843 107.508 66.2745C107.612 66.044 107.663 65.4559 107.663 64.5126V52.1149C107.663 51.1464 107.612 50.5457 107.508 50.3102C107.404 50.0734 107.198 49.8631 106.887 49.6792C106.576 49.4953 106.156 49.4034 105.628 49.4034H105.008V48.8845H120.892V54.3076H120.322C120.195 53.0293 119.866 52.0859 119.331 51.4751C118.795 50.8656 118.023 50.4336 117.012 50.1805C116.459 50.0419 115.435 49.9727 113.941 49.9727H112.181Z" fill="white"/>
</mask>
<g mask="url(#mask1_1_3865)">
<path d="M112.181 49.9727V57.7256H112.734C113.561 57.7256 114.239 57.5997 114.769 57.3465C115.297 57.0934 115.744 56.6702 116.106 56.077C116.468 55.4838 116.706 54.6816 116.822 53.6678H117.305V63.1486H116.822C116.649 61.3527 116.171 60.1701 115.39 59.5996C114.608 59.0304 113.722 58.7457 112.734 58.7457H112.181V64.5126C112.181 65.4798 112.235 66.0843 112.346 66.3261C112.454 66.5679 112.664 66.777 112.975 66.9558C113.286 67.1347 113.705 67.2241 114.234 67.2241H114.856V67.7417H105.008V67.2241H105.628C106.18 67.2241 106.623 67.1258 106.956 66.9306C107.198 66.8034 107.381 66.5843 107.508 66.2745C107.612 66.044 107.663 65.4559 107.663 64.5126V52.1149C107.663 51.1464 107.612 50.5457 107.508 50.3102C107.404 50.0734 107.198 49.8631 106.887 49.6792C106.576 49.4953 106.156 49.4034 105.628 49.4034H105.008V48.8845H120.892V54.3076H120.322C120.195 53.0293 119.866 52.0859 119.331 51.4751C118.795 50.8656 118.023 50.4336 117.012 50.1805C116.459 50.0419 115.435 49.9727 113.941 49.9727H112.181Z" fill="white"/>
</g>
<mask id="mask2_1_3865" style="mask-type:luminance" maskUnits="userSpaceOnUse" x="125" y="48" width="18" height="20">
<path d="M133.015 49.9717V57.6566H133.393C134.589 57.6566 135.455 57.2788 135.989 56.5257C136.524 55.7713 136.866 54.663 137.016 53.2008H137.55V63.0784H137.016C136.9 61.9965 136.665 61.1124 136.308 60.4273C135.952 59.7435 135.538 59.2825 135.066 59.0457C134.595 58.8102 133.911 58.6919 133.015 58.6919V63.994C133.015 65.0418 133.057 65.6803 133.144 65.9108C133.23 66.14 133.393 66.3302 133.635 66.48C133.876 66.6299 134.267 66.7042 134.808 66.7042H135.929C137.688 66.7042 139.099 66.2962 140.163 65.4788C141.226 64.6615 141.988 63.4184 142.449 61.7484H142.966L142.104 67.7407H125.84V67.2231H126.46C127.012 67.2231 127.455 67.1249 127.788 66.9297C128.03 66.8025 128.213 66.5833 128.34 66.2735C128.444 66.043 128.495 65.4549 128.495 64.5116V52.1139C128.495 51.2613 128.473 50.7374 128.426 50.5422C128.334 50.2198 128.162 49.9717 127.909 49.7991C127.552 49.5347 127.07 49.4024 126.46 49.4024H125.84V48.8835H141.603V54.4615H141.069C140.803 53.1038 140.427 52.1278 139.939 51.5346C139.45 50.9414 138.763 50.5069 137.877 50.2311C137.361 50.0586 136.389 49.9717 134.963 49.9717H133.015Z" fill="white"/>
</mask>
<g mask="url(#mask2_1_3865)">
<path d="M133.015 49.9717V57.6566H133.393C134.589 57.6566 135.455 57.2788 135.989 56.5257C136.524 55.7713 136.866 54.663 137.016 53.2008H137.55V63.0784H137.016C136.9 61.9965 136.665 61.1124 136.308 60.4273C135.952 59.7435 135.538 59.2825 135.066 59.0457C134.595 58.8102 133.911 58.6919 133.015 58.6919V63.994C133.015 65.0418 133.057 65.6803 133.144 65.9108C133.23 66.14 133.393 66.3302 133.635 66.48C133.876 66.6299 134.267 66.7042 134.808 66.7042H135.929C137.688 66.7042 139.099 66.2962 140.163 65.4788C141.226 64.6615 141.988 63.4184 142.449 61.7484H142.966L142.104 67.7407H125.84V67.2231H126.46C127.012 67.2231 127.455 67.1249 127.788 66.9297C128.03 66.8025 128.213 66.5833 128.34 66.2735C128.444 66.043 128.495 65.4549 128.495 64.5116V52.1139C128.495 51.2613 128.473 50.7374 128.426 50.5422C128.334 50.2198 128.162 49.9717 127.909 49.7991C127.552 49.5347 127.07 49.4024 126.46 49.4024H125.84V48.8835H141.603V54.4615H141.069C140.803 53.1038 140.427 52.1278 139.939 51.5346C139.45 50.9414 138.763 50.5069 137.877 50.2311C137.361 50.0586 136.389 49.9717 134.963 49.9717H133.015Z" fill="white"/>
</g>
<mask id="mask3_1_3865" style="mask-type:luminance" maskUnits="userSpaceOnUse" x="148" y="48" width="18" height="20">
<path d="M165.725 61.1275L165.018 67.7407H148.307V67.2231H148.927C149.468 67.2231 149.905 67.1249 150.237 66.9297C150.479 66.8025 150.663 66.5833 150.79 66.2735C150.893 66.043 150.944 65.4549 150.944 64.5116V52.1139C150.944 51.1455 150.897 50.5447 150.798 50.3092C150.7 50.0724 150.497 49.8621 150.186 49.6782C149.876 49.4944 149.456 49.4024 148.927 49.4024H148.307V48.8835H158.344V49.4024H157.517C156.976 49.4024 156.539 49.4994 156.205 49.6959C155.963 49.8218 155.775 50.0472 155.636 50.3697C155.533 50.5875 155.48 51.1694 155.48 52.1139V64.1312C155.48 65.0871 155.536 65.6967 155.645 65.9624C155.753 66.2269 155.969 66.4284 156.292 66.5669C156.522 66.6476 157.084 66.6878 157.982 66.6878H159.551C160.551 66.6878 161.385 66.5115 162.051 66.1602C162.718 65.81 163.294 65.2546 163.777 64.494C164.26 63.7345 164.719 62.6124 165.156 61.1275H165.725Z" fill="white"/>
</mask>
<g mask="url(#mask3_1_3865)">
<path d="M165.725 61.1275L165.018 67.7407H148.307V67.2231H148.927C149.468 67.2231 149.905 67.1249 150.237 66.9297C150.479 66.8025 150.663 66.5833 150.79 66.2735C150.893 66.043 150.944 65.4549 150.944 64.5116V52.1139C150.944 51.1455 150.897 50.5447 150.798 50.3092C150.7 50.0724 150.497 49.8621 150.186 49.6782C149.876 49.4944 149.456 49.4024 148.927 49.4024H148.307V48.8835H158.344V49.4024H157.517C156.976 49.4024 156.539 49.4994 156.205 49.6959C155.963 49.8218 155.775 50.0472 155.636 50.3697C155.533 50.5875 155.48 51.1694 155.48 52.1139V64.1312C155.48 65.0871 155.536 65.6967 155.645 65.9624C155.753 66.2269 155.969 66.4284 156.292 66.5669C156.522 66.6476 157.084 66.6878 157.982 66.6878H159.551C160.551 66.6878 161.385 66.5115 162.051 66.1602C162.718 65.81 163.294 65.2546 163.777 64.494C164.26 63.7345 164.719 62.6124 165.156 61.1275H165.725Z" fill="white"/>
</g>
<mask id="mask4_1_3865" style="mask-type:luminance" maskUnits="userSpaceOnUse" x="170" y="48" width="11" height="20">
<path d="M180.695 67.2231V67.7407H170.846V67.2231H171.467C172.019 67.2231 172.462 67.1249 172.795 66.9297C173.037 66.8025 173.221 66.5833 173.348 66.2735C173.451 66.043 173.502 65.4549 173.502 64.5116V52.1139C173.502 51.1455 173.451 50.5447 173.348 50.3092C173.243 50.0724 173.037 49.8621 172.726 49.6782C172.416 49.4944 171.995 49.4024 171.467 49.4024H170.846V48.8835H180.695V49.4024H180.073C179.521 49.4024 179.078 49.4994 178.745 49.6959C178.504 49.8218 178.315 50.0472 178.176 50.3697C178.072 50.5875 178.021 51.1694 178.021 52.1139V64.5116C178.021 65.4788 178.076 66.0833 178.185 66.3251C178.293 66.5669 178.504 66.776 178.814 66.9548C179.125 67.1337 179.545 67.2231 180.073 67.2231H180.695Z" fill="white"/>
</mask>
<g mask="url(#mask4_1_3865)">
<path d="M180.695 67.2231V67.7407H170.846V67.2231H171.467C172.019 67.2231 172.462 67.1249 172.795 66.9297C173.037 66.8025 173.221 66.5833 173.348 66.2735C173.451 66.043 173.502 65.4549 173.502 64.5116V52.1139C173.502 51.1455 173.451 50.5447 173.348 50.3092C173.243 50.0724 173.037 49.8621 172.726 49.6782C172.416 49.4944 171.995 49.4024 171.467 49.4024H170.846V48.8835H180.695V49.4024H180.073C179.521 49.4024 179.078 49.4994 178.745 49.6959C178.504 49.8218 178.315 50.0472 178.176 50.3697C178.072 50.5875 178.021 51.1694 178.021 52.1139V64.5116C178.021 65.4788 178.076 66.0833 178.185 66.3251C178.293 66.5669 178.504 66.776 178.814 66.9548C179.125 67.1337 179.545 67.2231 180.073 67.2231H180.695Z" fill="white"/>
</g>
<mask id="mask5_1_3865" style="mask-type:luminance" maskUnits="userSpaceOnUse" x="185" y="48" width="21" height="20">
<path d="M196.883 56.6899L202.073 64.4088C202.936 65.6858 203.551 66.4604 203.92 66.7312C204.287 67.0019 204.719 67.1657 205.213 67.2236V67.7412H196.038V67.2236C196.773 67.1657 197.248 67.0536 197.461 66.8861C197.673 66.7198 197.78 66.5158 197.78 66.274C197.78 66.1128 197.745 65.9679 197.676 65.842C197.549 65.5649 197.228 65.0473 196.71 64.2879L193.951 60.2124L191.088 63.7174C190.226 64.7879 189.794 65.5133 189.794 65.8937C189.794 66.1581 189.906 66.4087 190.13 66.6443C190.355 66.881 190.68 67.0448 191.105 67.1367C191.301 67.1946 191.702 67.2236 192.312 67.2236V67.7412H185.068V67.2236C185.897 67.1077 186.545 66.8898 187.018 66.5674C187.639 66.1405 188.507 65.2488 189.622 63.8899L193.346 59.3321L188.553 52.2857C187.77 51.1233 187.322 50.4785 187.208 50.3525C186.965 50.0414 186.725 49.8223 186.483 49.6964C186.242 49.5692 185.907 49.4722 185.483 49.4029V48.884H194.813V49.4029H194.348C193.807 49.4029 193.431 49.4886 193.218 49.6611C193.005 49.8336 192.898 50.0528 192.898 50.3173C192.898 50.5137 192.934 50.6863 193.002 50.8361L193.951 52.2857L196.296 55.8435L198.28 53.4091C199.291 52.1535 199.798 51.2794 199.798 50.7845C199.798 50.5314 199.726 50.2971 199.581 50.0843C199.437 49.8714 199.234 49.7052 198.97 49.5843C198.705 49.4634 198.291 49.4029 197.729 49.4029V48.884H204.644V49.4029C204.102 49.4142 203.666 49.4835 203.334 49.6095C202.999 49.7367 202.643 49.9722 202.264 50.3173C202.022 50.5364 201.419 51.2215 200.453 52.3726L196.883 56.6899Z" fill="white"/>
</mask>
<g mask="url(#mask5_1_3865)">
<path d="M196.883 56.6899L202.073 64.4088C202.936 65.6858 203.551 66.4604 203.92 66.7312C204.287 67.0019 204.719 67.1657 205.213 67.2236V67.7412H196.038V67.2236C196.773 67.1657 197.248 67.0536 197.461 66.8861C197.673 66.7198 197.78 66.5158 197.78 66.274C197.78 66.1128 197.745 65.9679 197.676 65.842C197.549 65.5649 197.228 65.0473 196.71 64.2879L193.951 60.2124L191.088 63.7174C190.226 64.7879 189.794 65.5133 189.794 65.8937C189.794 66.1581 189.906 66.4087 190.13 66.6443C190.355 66.881 190.68 67.0448 191.105 67.1367C191.301 67.1946 191.702 67.2236 192.312 67.2236V67.7412H185.068V67.2236C185.897 67.1077 186.545 66.8898 187.018 66.5674C187.639 66.1405 188.507 65.2488 189.622 63.8899L193.346 59.3321L188.553 52.2857C187.77 51.1233 187.322 50.4785 187.208 50.3525C186.965 50.0414 186.725 49.8223 186.483 49.6964C186.242 49.5692 185.907 49.4722 185.483 49.4029V48.884H194.813V49.4029H194.348C193.807 49.4029 193.431 49.4886 193.218 49.6611C193.005 49.8336 192.898 50.0528 192.898 50.3173C192.898 50.5137 192.934 50.6863 193.002 50.8361L193.951 52.2857L196.296 55.8435L198.28 53.4091C199.291 52.1535 199.798 51.2794 199.798 50.7845C199.798 50.5314 199.726 50.2971 199.581 50.0843C199.437 49.8714 199.234 49.7052 198.97 49.5843C198.705 49.4634 198.291 49.4029 197.729 49.4029V48.884H204.644V49.4029C204.102 49.4142 203.666 49.4835 203.334 49.6095C202.999 49.7367 202.643 49.9722 202.264 50.3173C202.022 50.5364 201.419 51.2215 200.453 52.3726L196.883 56.6899Z" fill="white"/>
</g>
<path d="M116.732 72.6764V76.9232H116.412C116.016 75.762 115.421 74.8791 114.628 74.2759C113.834 73.6726 112.967 73.3716 112.028 73.3716C111.131 73.3716 110.384 73.6247 109.785 74.1323C109.186 74.6398 108.762 75.3464 108.513 76.2506C108.263 77.1549 108.138 78.0856 108.138 79.0415C108.138 80.1964 108.274 81.2077 108.546 82.0754C108.818 82.9431 109.258 83.5829 109.868 83.9947C110.478 84.4066 111.197 84.6131 112.028 84.6131C112.314 84.6131 112.61 84.5816 112.914 84.5187C113.219 84.4569 113.533 84.3663 113.857 84.2491V81.7442C113.857 81.2669 113.824 80.957 113.757 80.8172C113.692 80.6787 113.557 80.5528 113.355 80.4432C113.153 80.3324 112.906 80.277 112.611 80.277H112.303V79.9457H118.142V80.277C117.702 80.3072 117.395 80.3676 117.223 80.4596C117.05 80.5515 116.916 80.7039 116.82 80.9167C116.762 81.0276 116.732 81.3034 116.732 81.7442V84.2491C115.968 84.5867 115.171 84.8449 114.341 85.0212C113.511 85.1975 112.648 85.2856 111.752 85.2856C110.614 85.2856 109.665 85.1295 108.909 84.8171C108.152 84.5048 107.485 84.0968 106.909 83.5917C106.333 83.088 105.883 82.5162 105.56 81.8764C105.148 81.0603 104.943 80.1485 104.943 79.141C104.943 77.3249 105.579 75.7935 106.849 74.5466C108.119 73.2998 109.717 72.6764 111.641 72.6764C112.244 72.6764 112.784 72.7243 113.262 72.82C113.518 72.8641 113.94 72.9963 114.523 73.2167C115.107 73.4371 115.45 73.5479 115.553 73.5479C115.722 73.5479 115.878 73.4875 116.021 73.3653C116.165 73.2444 116.295 73.0152 116.412 72.6764H116.732Z" fill="white"/>
<path d="M130.093 80.9168L128.308 76.7695L126.457 80.9168H130.093ZM130.401 81.5679H126.149L125.642 82.748C125.481 83.1384 125.399 83.4583 125.399 83.7076C125.399 84.0464 125.535 84.2971 125.808 84.4583C125.969 84.554 126.361 84.6232 126.986 84.6673V84.9985H122.986V84.6673C123.42 84.6018 123.774 84.423 124.049 84.1333C124.325 83.8424 124.668 83.2379 125.079 82.3185L129.377 72.7092H129.554L133.883 82.583C134.302 83.5175 134.644 84.1056 134.908 84.3474C135.107 84.5326 135.389 84.6383 135.756 84.6673V84.9985H129.938V84.6673H130.181C130.644 84.6673 130.971 84.6056 131.162 84.4797C131.294 84.3852 131.36 84.2454 131.36 84.0615C131.36 83.9583 131.342 83.8512 131.305 83.7416C131.291 83.6825 131.203 83.4583 131.04 83.0679L130.401 81.5679Z" fill="white"/>
<path d="M149.137 80.8954L152.399 72.9523H157.291V73.2835H156.906C156.554 73.2835 156.271 73.3452 156.057 73.4711C155.903 73.5517 155.781 73.6915 155.693 73.8905C155.635 74.0291 155.605 74.4006 155.605 75.0039V82.9356C155.605 83.554 155.637 83.9394 155.7 84.0943C155.761 84.2492 155.893 84.3827 156.096 84.4973C156.298 84.6106 156.567 84.6673 156.906 84.6673H157.291V84.9985H151.012V84.6673H151.408C151.76 84.6673 152.043 84.6056 152.256 84.4797C152.403 84.3991 152.521 84.2593 152.609 84.0615C152.674 83.9142 152.707 83.5389 152.707 82.9356V74.0114L148.091 84.9985H147.882L143.199 74.0883V82.5717C143.199 83.1674 143.214 83.5313 143.243 83.6636C143.324 83.9583 143.493 84.1988 143.75 84.3865C144.007 84.5741 144.412 84.6673 144.963 84.6673V84.9985H140.842V84.6673H140.963C141.234 84.6749 141.483 84.6333 141.712 84.5414C141.939 84.4494 142.112 84.326 142.229 84.1711C142.347 84.0175 142.439 83.7996 142.505 83.52C142.52 83.4621 142.527 83.1598 142.527 82.6157V75.0039C142.527 74.3943 142.495 74.0127 142.428 73.8628C142.361 73.7117 142.229 73.5769 142.032 73.4598C141.833 73.3427 141.565 73.2835 141.227 73.2835H140.842V72.9523H145.755L149.137 80.8954Z" fill="white"/>
<path d="M168.79 84.6673V84.9985H162.498V84.6673H162.896C163.248 84.6673 163.531 84.6056 163.743 84.4797C163.898 84.3991 164.015 84.2593 164.096 84.0615C164.162 83.9142 164.195 83.5389 164.195 82.9356V75.0152C164.195 74.3968 164.162 74.0127 164.096 73.8628C164.03 73.7117 163.898 73.5769 163.699 73.4598C163.501 73.3427 163.233 73.2835 162.896 73.2835H162.498V72.9523H168.79V73.2835H168.392C168.04 73.2835 167.757 73.3452 167.545 73.4711C167.39 73.5517 167.269 73.6953 167.181 73.9006C167.116 74.0404 167.082 74.4119 167.082 75.0152V82.9356C167.082 83.554 167.117 83.9394 167.186 84.0943C167.256 84.2492 167.39 84.3827 167.589 84.4973C167.787 84.6106 168.055 84.6673 168.392 84.6673H168.79Z" fill="white"/>
<path d="M178.25 72.9523L184.177 80.4206V75.247C184.177 74.5266 184.074 74.0367 183.869 73.7798C183.582 73.441 183.105 73.276 182.436 73.2836V72.9523H186.415V73.2836C185.908 73.3491 185.566 73.4334 185.39 73.5367C185.214 73.64 185.078 73.8087 184.982 74.0442C184.887 74.2797 184.839 74.6802 184.839 75.247V85.2744H184.531L176.399 75.247V82.9029C176.399 83.5944 176.557 84.0616 176.873 84.3034C177.188 84.5465 177.552 84.6674 177.963 84.6674H178.25V84.9986H173.975V84.6674C174.643 84.6611 175.105 84.5251 175.363 84.2593C175.62 83.9949 175.748 83.5427 175.748 82.9029V74.4082L175.495 74.0883C175.237 73.7647 175.012 73.5531 174.817 73.4548C174.622 73.3553 174.342 73.2987 173.975 73.2836V72.9523H178.25Z" fill="white"/>
<path d="M203.884 72.6764V76.9232H203.565C203.169 75.762 202.574 74.8791 201.78 74.2759C200.987 73.6726 200.121 73.3716 199.18 73.3716C198.284 73.3716 197.536 73.6247 196.938 74.1323C196.34 74.6398 195.915 75.3464 195.665 76.2506C195.415 77.1549 195.291 78.0856 195.291 79.0415C195.291 80.1964 195.426 81.2077 195.698 82.0754C195.97 82.9431 196.41 83.5829 197.02 83.9947C197.63 84.4066 198.35 84.6131 199.18 84.6131C199.467 84.6131 199.762 84.5816 200.067 84.5187C200.372 84.4569 200.686 84.3663 201.009 84.2491V81.7442C201.009 81.2669 200.976 80.957 200.909 80.8172C200.844 80.6787 200.709 80.5528 200.508 80.4432C200.306 80.3324 200.058 80.277 199.764 80.277H199.455V79.9457H205.296V80.277C204.854 80.3072 204.547 80.3676 204.375 80.4596C204.203 80.5515 204.068 80.7039 203.972 80.9167C203.914 81.0276 203.884 81.3034 203.884 81.7442V84.2491C203.121 84.5867 202.323 84.8449 201.494 85.0212C200.664 85.1975 199.8 85.2856 198.904 85.2856C197.766 85.2856 196.819 85.1295 196.062 84.8171C195.306 84.5048 194.639 84.0968 194.062 83.5917C193.486 83.088 193.035 82.5162 192.712 81.8764C192.301 81.0603 192.096 80.1485 192.096 79.141C192.096 77.3249 192.731 75.7935 194.001 74.5466C195.272 73.2998 196.871 72.6764 198.795 72.6764C199.396 72.6764 199.937 72.7243 200.414 72.82C200.67 72.8641 201.092 72.9963 201.676 73.2167C202.259 73.4371 202.603 73.5479 202.706 73.5479C202.874 73.5479 203.03 73.4875 203.174 73.3653C203.317 73.2444 203.448 73.0152 203.565 72.6764H203.884Z" fill="white"/>
</svg>
