<svg width="250" height="130" viewBox="0 0 250 130" fill="none" xmlns="http://www.w3.org/2000/svg">
<rect width="249.25" height="129.22" rx="10" fill="#19191A"/>
<path d="M74.7006 85.8415L74.9166 80.8623L73.3809 85.8415H74.7006Z" fill="white"/>
<path d="M107.024 57.8908C106.808 57.4819 106.496 57.1692 106.112 56.9287C105.728 56.6881 105.249 56.5679 104.649 56.5679L102.537 70.1344C103.353 70.1344 104.049 69.8938 104.625 69.4368C105.201 68.9798 105.68 68.4025 106.04 67.753C106.424 67.0795 106.712 66.3579 106.928 65.5881C107.144 64.8184 107.288 64.1208 107.384 63.4954C107.528 62.7017 107.6 61.8357 107.6 60.8735C107.6 60.3203 107.552 59.7671 107.48 59.2379C107.408 58.7087 107.24 58.2517 107.024 57.8668V57.8908Z" fill="white"/>
<path d="M125.091 55.6779H124.803L123.771 62.2446H124.227C124.707 62.2687 125.139 62.1965 125.523 62.0041C125.931 61.8116 126.267 61.5711 126.555 61.2343C126.843 60.9216 127.083 60.5608 127.275 60.1279C127.467 59.7189 127.587 59.31 127.659 58.8771C127.659 58.7327 127.707 58.6125 127.707 58.4922C127.707 58.3719 127.707 58.2516 127.707 58.1314C127.707 57.2895 127.467 56.6641 126.987 56.2552C126.507 55.8462 125.859 55.6538 125.043 55.6538L125.091 55.6779Z" fill="white"/>
<path d="M75.8295 55.6779H75.5416L74.5098 62.2446H74.9657C75.4456 62.2687 75.8775 62.1965 76.2614 62.0041C76.6693 61.8116 77.0053 61.5711 77.2932 61.2343C77.5812 60.9216 77.8211 60.5608 78.0131 60.1279C78.205 59.7189 78.325 59.31 78.397 58.8771C78.397 58.7327 78.445 58.6125 78.445 58.4922C78.445 58.3719 78.445 58.2516 78.445 58.1314C78.445 57.2895 78.205 56.6641 77.7251 56.2552C77.2452 55.8462 76.5974 55.6538 75.7815 55.6538L75.8295 55.6779Z" fill="white"/>
<path d="M141.84 61.3304C141.84 60.5126 141.888 59.6707 141.936 58.8288C141.984 57.9869 142.032 57.145 142.08 56.3271H142.008C141.768 57.145 141.528 57.9869 141.312 58.8288C141.073 59.6707 140.833 60.5126 140.569 61.3304L138.625 67.5123H141.648L141.816 61.3304H141.84Z" fill="white"/>
<path d="M192.327 35.6887C192.471 35.5444 192.615 35.376 192.735 35.1836L194.127 33.0909C194.943 31.8641 195.183 30.3727 194.823 28.8573C194.319 26.8127 192.687 24.9606 190.408 23.7579C188.896 22.9641 187.264 22.5552 185.704 22.5552C183.425 22.5552 181.505 23.4692 180.45 25.0809L179.058 27.1736C178.938 27.366 178.818 27.5584 178.746 27.7509C178.554 27.9433 178.386 28.1598 178.242 28.4003L170.635 39.8019C170.515 39.9944 170.395 40.1868 170.323 40.3792C170.132 40.5717 169.964 40.7881 169.82 41.0287L167.948 43.843H67.5995C65.416 43.843 63.5443 45.4306 63.1844 47.6195L56.5377 89.2811C56.3217 90.58 56.7057 91.903 57.5455 92.8892C58.3853 93.8754 59.6331 94.4527 60.9528 94.4527H139.394L164.205 107.442C164.565 107.634 164.973 107.755 165.356 107.803C165.572 107.875 165.788 107.923 166.028 107.947C166.148 107.947 166.292 107.947 166.412 107.947C167.516 107.947 168.572 107.394 169.196 106.456L172.171 102.006C172.867 100.971 172.915 99.6244 172.315 98.5179C171.187 96.4733 169.196 95.3187 166.82 95.3187C166.052 95.3187 165.332 95.439 164.733 95.6073L163.197 94.4287H182.561C184.745 94.4287 186.616 92.8411 186.976 90.6522L193.623 48.9906C193.839 47.6917 193.455 46.3687 192.615 45.3825C191.775 44.3722 190.528 43.819 189.208 43.819H186.928L191.895 36.3622C192.039 36.1217 192.183 35.8811 192.303 35.6406L192.327 35.6887ZM170.252 46.3687L172.555 42.9049C173.419 41.606 175.938 41.5098 178.194 42.6884C180.45 43.8671 181.577 45.8636 180.713 47.1625L180.617 47.3068H169.988C169.988 46.97 170.084 46.6333 170.275 46.3446L170.252 46.3687ZM136.106 57.8665C136.154 57.4817 136.154 57.0968 136.154 56.736C136.154 56.6638 136.154 56.6157 136.154 56.5435L138.746 49.9527H147.528L149.04 76.5806H141.601V73.1649H136.778L135.65 76.5806H134.522L131.667 67.873L132.795 65.0106C133.323 64.5776 133.755 64.0725 134.163 63.5192C135.098 62.1722 135.698 60.6568 135.962 58.973C136.01 58.5881 136.058 58.2273 136.082 57.8665H136.106ZM151.559 79.4671H155.83L150.119 88.0303L147.864 86.2984L147.168 86.0819L151.583 79.4671H151.559ZM135.842 82.2092L135.506 82.7144L130.875 81.3433C130.995 81.2952 134.378 79.5873 135.842 82.2333V82.2092ZM67.4556 82.0649L67.3116 82.9068H66.5677L66.7117 82.0649C66.7837 81.6079 66.5917 81.3192 66.1598 81.3192C65.8239 81.3192 65.44 81.5117 65.344 82.0649L64.5041 86.8998C64.4322 87.3568 64.6241 87.6454 65.056 87.6454C65.4879 87.6454 65.7999 87.3568 65.8719 86.8998L66.2318 84.8311H65.7999L65.9199 84.1336H67.0956L66.6157 86.8998C66.4478 87.91 65.9199 88.343 64.9121 88.343C63.9282 88.343 63.5443 87.886 63.7363 86.8998L64.5761 82.0649C64.7441 81.0546 65.272 80.6217 66.2558 80.6217C67.2396 80.6217 67.6235 81.0787 67.4316 82.0649H67.4556ZM75.446 85.673L75.326 88.2227H74.5582L74.6302 86.539H73.1425L72.6146 88.2227H71.8707L72.6625 85.6971L74.2942 80.766H75.518L75.422 85.673H75.446ZM73.9823 65.4917L73.8863 65.5638C73.8143 66.2133 73.7423 66.8868 73.6704 67.5122C73.5984 68.1617 73.5024 68.8111 73.3824 69.4846L72.2786 76.5806H65.08L69.2072 49.9527H76.1419C77.5336 49.9527 78.8053 50.049 79.9811 50.2654C81.1569 50.4819 82.1647 50.8427 83.0045 51.3479C83.8444 51.853 84.5162 52.5506 84.9721 53.4165C85.4521 54.2825 85.668 55.389 85.668 56.736C85.668 57.0727 85.668 57.4095 85.62 57.7463C85.596 58.083 85.548 58.4438 85.5 58.8287C85.2601 60.32 84.7322 61.6671 83.8924 62.8457C83.0525 64.0484 81.8768 64.9384 80.3411 65.4917L83.9643 76.5806H76.1899L73.9343 65.4917H73.9823ZM85.2601 88.2227H84.5642L85.524 82.8106L83.2445 88.2227H82.7646L82.3567 82.8587L81.4208 88.2227H80.701L82.0207 80.766H82.8126L83.2445 86.7795L85.764 80.766H86.5558L85.2361 88.2227H85.2601ZM92.3867 88.2227H91.6428L92.9626 80.766H93.7064L92.3867 88.2227ZM94.1863 70.2784L93.2265 76.5565H85.2601L81.8527 66.1171C83.1245 65.4676 84.1323 64.6017 84.9002 63.4952C85.836 62.1481 86.4359 60.6327 86.6998 58.949C86.7478 58.5641 86.7958 58.2033 86.8198 57.8425C86.8678 57.4576 86.8678 57.0727 86.8678 56.7119C86.8678 55.1725 86.5798 53.8736 86.0279 52.8392C85.5 51.8771 84.7802 51.1073 83.8924 50.506L83.9883 49.9287H97.3297L96.3699 56.2068H90.2031L89.6032 59.9111H95.1462L94.1623 66.1892H88.6194L87.9956 70.2544H94.1623L94.1863 70.2784ZM102.465 88.2227H101.673L101.241 82.9068L100.305 88.2227H99.6093L100.929 80.766H101.721L102.177 86.2263L103.137 80.79H103.808L102.489 88.2468L102.465 88.2227ZM112.567 82.0649L112.423 82.9068H111.679L111.823 82.0649C111.895 81.6079 111.703 81.3192 111.271 81.3192C110.935 81.3192 110.551 81.5117 110.455 82.0649L109.615 86.8998C109.543 87.3568 109.735 87.6454 110.167 87.6454C110.599 87.6454 110.911 87.3568 110.983 86.8998L111.343 84.8311H110.911L111.031 84.1336H112.207L111.727 86.8998C111.559 87.91 111.031 88.343 110.023 88.343C109.039 88.343 108.656 87.886 108.847 86.8998L109.687 82.0649C109.855 81.0546 110.383 80.6217 111.367 80.6217C112.351 80.6217 112.735 81.0787 112.543 82.0649H112.567ZM111.247 72.0825C110.431 73.0687 109.567 73.8625 108.632 74.4638C107.696 75.0652 106.76 75.5222 105.824 75.8109C104.888 76.1236 103.976 76.316 103.065 76.4122C102.177 76.5084 101.361 76.5565 100.641 76.5565H94.3783L98.5055 49.9287H104.288C106.064 49.9287 107.648 50.1692 108.967 50.6263C110.311 51.1073 111.439 51.7808 112.327 52.6468C113.239 53.5368 113.91 54.5952 114.366 55.87C114.822 57.1208 115.062 58.54 115.062 60.1276C115.062 60.6087 115.062 61.0898 115.014 61.5709C114.99 62.076 114.918 62.5811 114.822 63.1344C114.51 65.179 114.054 66.9349 113.431 68.4022C112.807 69.8695 112.087 71.0963 111.271 72.0825H111.247ZM123.269 65.4917L123.173 65.5638C123.101 66.2133 123.029 66.8868 122.957 67.5122C122.885 68.1617 122.789 68.8111 122.669 69.4846L121.565 76.5806H114.366L118.494 49.9527H125.428C126.82 49.9527 128.092 50.049 129.268 50.2654C130.443 50.4819 131.451 50.8427 132.291 51.3479C133.131 51.853 133.803 52.5506 134.259 53.4165C134.738 54.2825 134.954 55.389 134.954 56.736C134.954 57.0727 134.954 57.4095 134.906 57.7463C134.882 58.083 134.834 58.4438 134.786 58.8287C134.546 60.32 134.019 61.6671 133.179 62.8457C132.339 64.0484 131.163 64.9384 129.627 65.4917L133.251 76.5806H125.476L123.221 65.4917H123.269ZM169.388 100.202L166.412 104.652L164.421 99.3117C164.421 99.3117 167.924 97.5076 169.388 100.178V100.202ZM163.773 99.1433L165.764 104.531L132.243 86.9719L130.251 81.6079L147.72 86.8998L163.773 99.1433ZM161.157 76.5806L158.59 64.3611H158.566L156.67 76.5806H149.496L153.623 49.9527H160.821L159.07 61.2822H159.094L164.805 49.9527H172.387L164.661 62.7976L168.932 76.5806H161.205H161.157ZM187.216 49.9527L186.256 56.2309H180.09L179.49 59.9352H185.033L184.049 66.2133H178.506L177.882 70.2784H184.049L183.089 76.5565H169.748L173.875 49.9287H187.24L187.216 49.9527ZM189.136 34.5581L181.529 45.9598C181.409 44.6608 180.282 43.2417 178.482 42.3036C176.682 41.3654 174.739 41.173 173.395 41.7022L181.001 30.3006C181.865 29.0017 184.385 28.9054 186.64 30.0841C188.896 31.2627 190.024 33.2592 189.16 34.5581H189.136ZM191.343 31.2387L189.952 33.3314C189.832 32.0325 188.704 30.6133 186.904 29.6752C185.105 28.7371 183.161 28.5446 181.817 29.0738L183.209 26.9811C184.073 25.6822 186.592 25.61 188.848 26.7646C191.103 27.9433 192.231 29.9398 191.367 31.2387H191.343Z" fill="white"/>
</svg>
