<svg width="40" height="40" viewBox="0 0 40 40" fill="none" xmlns="http://www.w3.org/2000/svg">
<rect x="0.5" y="0.5" width="39" height="39" rx="11.5" fill="#1B1B1B"/>
<rect x="0.5" y="0.5" width="39" height="39" rx="11.5" stroke="#353535"/>
<path d="M26.7774 13.3263C25.4389 12.7124 24.0036 12.2601 22.5029 12.0011C22.4756 11.9961 22.4483 12.0086 22.4342 12.0336C22.2496 12.3617 22.0451 12.7899 21.902 13.1264C20.2879 12.8848 18.682 12.8848 17.101 13.1264C16.9578 12.7824 16.7459 12.3617 16.5605 12.0336C16.5464 12.0094 16.5191 11.9969 16.4918 12.0011C14.9919 12.2593 13.5566 12.7116 12.2173 13.3263C12.2057 13.3313 12.1958 13.3396 12.1892 13.3505C9.46672 17.4161 8.72092 21.3818 9.08678 25.2983C9.08844 25.3175 9.0992 25.3358 9.1141 25.3475C10.9103 26.666 12.6502 27.4665 14.3579 27.9971C14.3852 28.0054 14.4142 27.9954 14.4315 27.9729C14.8355 27.4215 15.1956 26.8401 15.5043 26.2287C15.5225 26.1929 15.5051 26.1504 15.4679 26.1363C14.8967 25.9197 14.3529 25.6557 13.8298 25.3558C13.7884 25.3317 13.7851 25.2725 13.8231 25.2442C13.9332 25.1617 14.0433 25.0759 14.1485 24.9893C14.1675 24.9735 14.194 24.9701 14.2163 24.9801C17.6531 26.5486 21.3739 26.5486 24.7701 24.9801C24.7924 24.9693 24.8189 24.9726 24.8388 24.9885C24.9439 25.0751 25.054 25.1617 25.1649 25.2442C25.203 25.2725 25.2005 25.3317 25.1591 25.3558C24.636 25.6615 24.0922 25.9197 23.5202 26.1354C23.483 26.1496 23.4664 26.1929 23.4846 26.2287C23.8 26.8393 24.16 27.4207 24.5565 27.9721C24.5731 27.9954 24.6029 28.0054 24.6302 27.9971C26.3461 27.4665 28.086 26.666 29.8823 25.3475C29.898 25.3358 29.9079 25.3183 29.9096 25.2992C30.3474 20.7712 29.1762 16.838 26.8047 13.3513C26.7989 13.3396 26.789 13.3313 26.7774 13.3263ZM16.0175 22.9136C14.9828 22.9136 14.1302 21.964 14.1302 20.7979C14.1302 19.6317 14.9663 18.6822 16.0175 18.6822C17.077 18.6822 17.9213 19.6401 17.9048 20.7979C17.9048 21.964 17.0687 22.9136 16.0175 22.9136ZM22.9954 22.9136C21.9607 22.9136 21.1082 21.964 21.1082 20.7979C21.1082 19.6317 21.9442 18.6822 22.9954 18.6822C24.0549 18.6822 24.8992 19.6401 24.8827 20.7979C24.8827 21.964 24.0549 22.9136 22.9954 22.9136Z" fill="white"/>
</svg>
